<?xml version="1.0" standalone="no"?>
<!DOCTYPE svg PUBLIC "-//W3C//DTD SVG 1.1//EN" "http://www.w3.org/Graphics/SVG/1.1/DTD/svg11.dtd" >
<svg xmlns="http://www.w3.org/2000/svg" xmlns:xlink="http://www.w3.org/1999/xlink" version="1.1">
<metadata></metadata>
<defs>
<font id="sf_pro_displaymedium_italic" horiz-adv-x="1270" >
<font-face units-per-em="2048" ascent="1638" descent="-410" />
<missing-glyph horiz-adv-x="478" />
<glyph horiz-adv-x="0" />
<glyph unicode="&#xd;" horiz-adv-x="0" />
<glyph unicode=" "  horiz-adv-x="478" />
<glyph unicode="&#x09;" horiz-adv-x="478" />
<glyph unicode="&#xa0;" horiz-adv-x="478" />
<glyph unicode="!" horiz-adv-x="587" d="M120 117q0 57 38 96t94 39q55 0 93.5 -39t38.5 -96q0 -56 -38.5 -95t-93.5 -39t-93.5 39t-38.5 95zM229 478l185 965h240l-226 -965h-199z" />
<glyph unicode="&#x22;" horiz-adv-x="857" d="M275 908l112 535h193l-112 -535h-193zM648 908l112 535h192l-112 -535h-192z" />
<glyph unicode="#" horiz-adv-x="1257" d="M49 392l53 178h233l108 319h-241l54 177h242l126 377h170l-123 -377h301l127 377h171l-125 -377h244l-54 -177h-246l-110 -319h254l-53 -178h-255l-130 -392h-171l130 392h-303l-130 -392h-171l129 392h-230zM497 560h315l113 339h-315z" />
<glyph unicode="$" d="M117 402h218q12 -82 66.5 -137.5t141.5 -79.5l99 467l-53 20q-147 56 -226 152t-79 222q0 185 142.5 303t374.5 118h15l27 128h136l-31 -146q153 -38 246.5 -147t95.5 -250h-215q-11 75 -54.5 126.5t-114.5 74.5l-92 -433l28 -11q171 -67 257.5 -160.5t86.5 -227.5 q0 -202 -149.5 -323.5t-386.5 -121.5h-15l-25 -116h-136l28 132q-166 37 -272 147.5t-113 262.5zM513 1064q0 -66 43.5 -112t132.5 -83l85 403q-115 -2 -188 -61t-73 -147zM676 170q130 3 206 65t76 158q0 71 -45.5 119t-144.5 91z" />
<glyph unicode="%" horiz-adv-x="1673" d="M138 0l720 764l641 679h210l-700 -744l-659 -699h-212zM211 1014q0 196 102 322.5t258 126.5q127 0 200.5 -75.5t73.5 -206.5q0 -195 -103.5 -322.5t-258.5 -127.5q-127 0 -199.5 76t-72.5 207zM402 1000q0 -56 22 -87.5t62 -31.5q65 0 116 95t51 218q0 56 -22.5 87.5 t-62.5 31.5q-65 0 -115.5 -94.5t-50.5 -218.5zM1004 265q0 196 102.5 322t257.5 126q128 0 201.5 -75.5t73.5 -206.5q0 -195 -103.5 -322t-258.5 -127q-127 0 -200 75.5t-73 207.5zM1196 250q0 -56 22 -87.5t61 -31.5q65 0 116 95.5t51 218.5q0 56 -22 87t-62 31 q-65 0 -115.5 -94.5t-50.5 -218.5z" />
<glyph unicode="&#x26;" horiz-adv-x="1399" d="M66 372q0 285 368 428l66 27q-116 168 -116 290q0 149 118 252t292 103q158 0 262.5 -84t104.5 -212q0 -131 -96.5 -239.5t-292.5 -177.5l264 -377q113 135 129 335l3 45h196l-5 -51q-24 -288 -217 -492l145 -219h-246l-58 87q-178 -114 -421 -114q-137 0 -251 52 t-179.5 143.5t-65.5 203.5zM279 390q0 -104 81 -170.5t216 -66.5q184 0 312 86l-300 443q-48 -16 -54 -19q-124 -45 -189.5 -115.5t-65.5 -157.5zM585 1104q0 -82 99 -214q141 44 209.5 115t68.5 151q0 67 -48 107t-124 40q-85 0 -145 -58.5t-60 -140.5z" />
<glyph unicode="'" horiz-adv-x="484" d="M275 908l112 535h193l-112 -535h-193z" />
<glyph unicode="(" horiz-adv-x="687" d="M194 353q0 314 120.5 601t326.5 489h234q-221 -218 -342 -505.5t-120 -612.5q0 -374 90 -634h-194q-51 109 -83 295.5t-32 366.5z" />
<glyph unicode=")" horiz-adv-x="687" d="M-77 -309q221 218 342 505.5t120 612.5q0 374 -90 634h193q51 -109 83 -295t32 -367q0 -315 -120.5 -601.5t-325.5 -488.5h-234z" />
<glyph unicode="*" horiz-adv-x="986" d="M271 1039l278 98l-229 150l88 123l217 -186l36 294l149 -16l-65 -279l263 130l53 -145l-286 -100l237 -153l-88 -122l-216 183l-34 -288l-148 16l65 282l-268 -130z" />
<glyph unicode="+" d="M150 470l41 207h423l92 433h191l-92 -433h427l-41 -207h-428l-88 -417h-191l88 417h-422z" />
<glyph unicode="," horiz-adv-x="539" d="M-20 -301l202 535h218l-248 -535h-172z" />
<glyph unicode="-" horiz-adv-x="830" d="M125 471l41 199h650l-41 -199h-650z" />
<glyph unicode="." horiz-adv-x="539" d="M99 126q0 57 38 96.5t93 39.5t93 -39.5t38 -96.5q0 -58 -38 -97.5t-93 -39.5t-93 39.5t-38 97.5z" />
<glyph unicode="/" horiz-adv-x="687" d="M-131 -309l865 1752h195l-865 -1752h-195z" />
<glyph unicode="0" horiz-adv-x="1315" d="M170 511q0 276 84.5 494.5t235.5 340t342 121.5q224 0 357 -146t133 -391q0 -277 -84 -494.5t-235 -338.5t-343 -121q-224 0 -357 145t-133 390zM399 516q0 -159 72.5 -251t197.5 -92q117 0 214 100t152.5 273t55.5 381q0 158 -72 250t-195 92q-117 0 -214.5 -100.5 t-154 -273.5t-56.5 -379z" />
<glyph unicode="1" horiz-adv-x="941" d="M232 929l50 246l438 268h223l-307 -1443h-224l256 1193h-5z" />
<glyph unicode="2" horiz-adv-x="1214" d="M62 0l35 179l596 487q188 156 250.5 236t62.5 164q0 91 -66.5 148t-171.5 57q-114 0 -192 -64.5t-99 -177.5h-215q19 195 163 316.5t356 121.5q194 0 321.5 -107t127.5 -270q0 -92 -35 -167.5t-118 -162.5t-248 -224l-410 -331l-1 -5h682l-40 -200h-998z" />
<glyph unicode="3" horiz-adv-x="1246" d="M107 402q0 4 2 20h212q2 -114 87 -182t226 -68q137 0 222.5 69.5t85.5 180.5q0 107 -70 166t-197 59h-175l37 188h180q143 0 229.5 63.5t86.5 167.5q0 93 -69.5 150t-182.5 57q-110 0 -189 -56t-95 -147h-211q25 180 165.5 288t348.5 108q200 0 327.5 -104.5 t127.5 -267.5q0 -136 -93.5 -236.5t-236.5 -120.5l-1 -5q116 -28 180 -108.5t64 -198.5q0 -195 -155 -322t-391 -127q-235 0 -377.5 117.5t-137.5 308.5z" />
<glyph unicode="4" horiz-adv-x="1267" d="M77 279l35 218q83 110 224 277.5t251 293t331 375.5h339l-206 -964h199l-40 -200h-199l-61 -279h-216l60 279h-717zM330 474h506l169 781h-4q-416 -459 -670 -776z" />
<glyph unicode="5" horiz-adv-x="1224" d="M141 412v2l1 9h213q10 -110 95.5 -178.5t213.5 -68.5q139 0 227.5 89.5t88.5 229.5q0 124 -80 200.5t-206 76.5q-75 0 -147 -32.5t-119 -89.5h-222l244 793h844l-41 -199h-659l-130 -405h5q50 54 127 84t166 30q191 0 314.5 -124t123.5 -321q0 -230 -154 -381t-391 -151 q-223 0 -367.5 122.5t-146.5 313.5z" />
<glyph unicode="6" horiz-adv-x="1269" d="M186 598q6 239 93.5 436.5t243 315t349.5 117.5q197 0 327.5 -114.5t142.5 -298.5h-224q-16 99 -86.5 156.5t-176.5 57.5q-153 0 -271 -138.5t-162 -367.5h6q69 89 165.5 137.5t212.5 48.5q195 0 317.5 -123t117.5 -315q-8 -234 -163 -384t-393 -150q-51 0 -100 8.5 t-100.5 29t-96 52.5t-84 81.5t-66.5 112.5t-41 149.5t-11 188.5zM409 460q-4 -122 78.5 -204.5t209.5 -82.5q138 0 227 86t92 221q5 124 -73.5 203.5t-202.5 79.5q-134 0 -230.5 -88t-100.5 -215z" />
<glyph unicode="7" horiz-adv-x="1106" d="M80 0l903 1237l1 7h-719l41 199h958l-42 -203l-893 -1240h-249z" />
<glyph unicode="8" horiz-adv-x="1276" d="M105 366q0 153 111.5 269.5t284.5 145.5l1 4q-89 37 -139.5 110t-50.5 164q0 113 67.5 206.5t185.5 147t261 53.5q204 0 337 -101t133 -256q0 -133 -90.5 -234.5t-236.5 -132.5l-1 -5q111 -38 174.5 -123.5t63.5 -196.5q0 -191 -162.5 -317t-408.5 -126q-232 0 -381 110 t-149 282zM340 391q0 -101 85.5 -164t221.5 -63q142 0 237 76.5t95 191.5q0 100 -84 163t-217 63q-145 0 -241.5 -76.5t-96.5 -190.5zM530 1039q0 -87 70.5 -143t180.5 -56q122 0 205 69.5t83 171.5q0 88 -71 143.5t-184 55.5q-121 0 -202.5 -69t-81.5 -172z" />
<glyph unicode="9" horiz-adv-x="1268" d="M142 384h224q15 -96 86 -152t178 -56q155 0 274 137.5t161 365.5l-5 1q-139 -186 -372 -186q-192 0 -317 126.5t-121 316.5q7 233 163 381.5t392 148.5q68 0 134 -16.5t134.5 -59t118.5 -107t80.5 -170t26.5 -239.5q-7 -251 -93.5 -455t-240.5 -324t-348 -120 q-198 0 -330.5 114t-144.5 294zM473 956q-4 -122 73.5 -199.5t201.5 -77.5q134 0 228.5 85.5t98.5 211.5q4 125 -76 208.5t-210 83.5q-134 0 -223 -88t-93 -224z" />
<glyph unicode=":" horiz-adv-x="539" d="M99 126q0 57 38 96.5t93 39.5t93 -39.5t38 -96.5q0 -58 -38 -97.5t-93 -39.5t-93 39.5t-38 97.5zM255 856q0 57 38 96.5t93 39.5t93 -39.5t38 -96.5t-38 -97t-93 -40t-93 40t-38 97z" />
<glyph unicode=";" horiz-adv-x="539" d="M-20 -301l202 535h218l-248 -535h-172zM255 856q0 57 38 96.5t93 39.5t93 -39.5t38 -96.5t-38 -97t-93 -40t-93 40t-38 97z" />
<glyph unicode="&#x3c;" d="M222 497l36 183l1017 501l-50 -241l-749 -357l-2 -12l595 -349l-45 -229z" />
<glyph unicode="=" d="M128 262l41 200h998l-41 -200h-998zM216 685l41 201h997l-40 -201h-998z" />
<glyph unicode="&#x3e;" d="M115 -8l49 241l749 357l3 11l-595 350l44 229l802 -505l-36 -182z" />
<glyph unicode="?" horiz-adv-x="1000" d="M200 1073q31 174 156 278.5t321 104.5q193 0 313 -98t120 -245q0 -127 -78.5 -232.5t-209.5 -164.5q-109 -49 -155 -95t-60 -121l-11 -52h-212l16 74q25 126 83.5 193t178.5 121q115 53 166.5 114t51.5 142q0 72 -57.5 121.5t-158.5 49.5q-93 0 -160.5 -50.5 t-93.5 -139.5h-210zM290 117q0 57 38 96t94 39q55 0 93.5 -39t38.5 -96q0 -56 -38.5 -95t-93.5 -39t-93.5 39t-38.5 95z" />
<glyph unicode="@" horiz-adv-x="1804" d="M133 537q0 259 117.5 465t326.5 322t472 116q223 0 397 -83.5t271 -234.5t97 -344q0 -266 -131 -436.5t-336 -170.5q-88 0 -148.5 39.5t-67.5 102.5v8l-17 -1q-38 -66 -105 -103t-148 -37q-137 0 -222.5 97t-85.5 253q0 208 116.5 348t289.5 140q88 0 156.5 -46 t84.5 -116l17 -1l25 125h175l-116 -534q-5 -21 -5 -42q0 -38 24 -60t65 -22q115 0 195.5 131t80.5 318q0 238 -172 382.5t-454 144.5q-208 0 -379 -99.5t-269 -273.5t-98 -386q0 -284 188 -460.5t491 -175.5q61 0 123 7t86 16l-29 -145q-92 -21 -206 -21q-176 0 -326.5 57.5 t-256.5 159.5t-166 246.5t-60 313.5zM739 542q0 -94 46 -148.5t125 -54.5q104 0 177 92.5t73 222.5q0 91 -49 145.5t-130 54.5q-104 0 -173 -89.5t-69 -222.5z" />
<glyph unicode="A" horiz-adv-x="1328" d="M-43 0l828 1443h245l210 -1443h-219l-50 383h-554l-217 -383h-243zM513 571h436l-85 621h-5z" />
<glyph unicode="B" horiz-adv-x="1316" d="M69 0l307 1443h539q181 0 291.5 -87t110.5 -228q0 -136 -88.5 -237.5t-229.5 -137.5l-1 -5q117 -20 184 -99.5t67 -190.5q0 -201 -151.5 -329.5t-394.5 -128.5h-634zM333 191h346q150 0 244 74t94 189q0 99 -69.5 150.5t-205.5 51.5h-308zM472 837h276q151 0 245.5 68 t94.5 176q0 87 -65.5 132.5t-190.5 45.5h-269z" />
<glyph unicode="C" horiz-adv-x="1427" d="M168 598q0 248 96 446t270 310t393 112q241 0 396.5 -131.5t166.5 -348.5q1 -23 0 -36h-223q0 2 -0.5 11.5t-0.5 16.5q-13 128 -109.5 204.5t-239.5 76.5q-151 0 -269.5 -83.5t-183.5 -231.5t-65 -335q0 -197 101 -310.5t277 -113.5q137 0 242.5 71t153.5 196h223 q-55 -216 -226 -345.5t-400 -129.5q-276 0 -439 168.5t-163 452.5z" />
<glyph unicode="D" horiz-adv-x="1427" d="M70 0l306 1443h452q282 0 443.5 -153.5t161.5 -425.5q0 -252 -97 -448.5t-273.5 -306t-403.5 -109.5h-589zM338 202h299q163 0 291.5 79.5t201 224t72.5 328.5q0 199 -106.5 303t-310.5 104h-222z" />
<glyph unicode="E" horiz-adv-x="1147" d="M69 0l307 1443h918l-42 -204h-690l-90 -408h653l-40 -194h-652l-95 -433h689l-40 -204h-918z" />
<glyph unicode="F" horiz-adv-x="1099" d="M69 0l307 1443h902l-42 -204h-671l-97 -443h614l-40 -198h-614l-129 -598h-230z" />
<glyph unicode="G" horiz-adv-x="1469" d="M168 602q0 128 29 250.5t91 234t149.5 195.5t213 134t273.5 50q253 0 409 -137.5t161 -349.5v-18h-222q-10 137 -103.5 218t-246.5 81q-107 0 -195.5 -38t-148.5 -101.5t-101.5 -148t-60.5 -175.5t-19 -186q0 -196 100.5 -312.5t283.5 -116.5q160 0 276.5 92.5 t148.5 244.5l9 42h-370l39 188h593l-43 -205q-55 -270 -230.5 -418.5t-431.5 -148.5q-280 0 -442 171.5t-162 453.5z" />
<glyph unicode="H" horiz-adv-x="1460" d="M69 0l307 1443h229l-130 -606h734l130 606h229l-307 -1443h-229l136 634h-734l-136 -634h-229z" />
<glyph unicode="I" horiz-adv-x="496" d="M69 0l307 1443h227l-307 -1443h-227z" />
<glyph unicode="J" horiz-adv-x="1068" d="M60 355q0 25 1 34h222v-6q0 -89 55.5 -140.5t150.5 -51.5q192 0 244 242l215 1010h227l-224 -1052q-42 -200 -163.5 -307.5t-313.5 -107.5q-181 0 -297.5 107t-116.5 272z" />
<glyph unicode="K" horiz-adv-x="1295" d="M69 0l307 1443h227l-145 -674h5l737 674h282l-702 -654l436 -789h-256l-360 646l-204 -182l-100 -464h-227z" />
<glyph unicode="L" horiz-adv-x="1092" d="M69 0l307 1443h227l-265 -1237h674l-41 -206h-902z" />
<glyph unicode="M" horiz-adv-x="1732" d="M69 0l307 1443h252l221 -1141h5l706 1141h279l-307 -1443h-207l231 1072h-7l-664 -1064h-169l-205 1064h-6l-229 -1072h-207z" />
<glyph unicode="N" horiz-adv-x="1448" d="M69 0l307 1443h208l508 -1082h5l234 1082h224l-307 -1443h-209l-507 1082h-5l-234 -1082h-224z" />
<glyph unicode="O" horiz-adv-x="1530" d="M168 602q0 240 98 438t272 312t389 114q278 0 445 -172t167 -453q0 -240 -98.5 -438t-273 -312t-389.5 -114q-277 0 -443.5 172t-166.5 453zM397 613q0 -197 104.5 -313.5t279.5 -116.5q152 0 273.5 87t188.5 235t67 326q0 196 -104.5 312.5t-279.5 116.5 q-152 0 -274 -87t-188.5 -234.5t-66.5 -325.5z" />
<glyph unicode="P" horiz-adv-x="1248" d="M69 0l307 1443h514q190 0 312.5 -111t122.5 -293q0 -169 -78 -295.5t-213.5 -192t-308.5 -65.5h-323l-105 -486h-228zM441 683h275q174 0 276.5 89t102.5 246q0 108 -72 167.5t-198 59.5h-262z" />
<glyph unicode="Q" horiz-adv-x="1530" d="M168 602q0 240 98 438t272 312t389 114q278 0 445 -172t167 -453q0 -236 -100 -433t-273 -312l123 -249h-214l-83 162q-101 -32 -214 -32q-277 0 -443.5 172t-166.5 453zM397 613q0 -197 104.5 -313.5t279.5 -116.5q59 0 126 16l-122 243h207l78 -140q112 83 176 223 t64 306q0 196 -104.5 312.5t-279.5 116.5q-152 0 -274 -87t-188.5 -234.5t-66.5 -325.5z" />
<glyph unicode="R" horiz-adv-x="1292" d="M69 0l307 1443h531q205 0 319.5 -107t114.5 -286q0 -168 -102 -298t-278 -173l195 -579h-236l-180 550h-325l-118 -550h-228zM453 741h319q149 0 243 80.5t94 206.5q0 101 -62.5 159.5t-171.5 58.5h-312z" />
<glyph unicode="S" horiz-adv-x="1255" d="M93 424h221q14 -111 109 -179.5t244 -68.5q134 0 219.5 57.5t85.5 157.5q0 83 -54.5 132.5t-184.5 89.5l-106 34q-182 56 -270 150t-88 238q0 193 144.5 312t373.5 119q234 0 379 -115t145 -312h-217q-5 103 -87 165.5t-220 62.5q-136 0 -212 -61t-76 -147 q0 -73 56 -122.5t179 -87.5l107 -34q185 -57 274.5 -149t89.5 -232q0 -93 -36 -175t-103 -145t-171 -100t-231 -37q-243 0 -403.5 120.5t-167.5 326.5z" />
<glyph unicode="T" horiz-adv-x="1228" d="M249 1239l41 204h1131l-41 -204h-452l-265 -1239h-228l266 1239h-452z" />
<glyph unicode="U" horiz-adv-x="1443" d="M178 434v8q0 56 13 120l185 881h227l-183 -870q-13 -56 -13 -107v-13q5 -124 87 -194.5t236 -70.5q150 0 255 86t139 239l199 930h227l-208 -980q-50 -232 -214 -359t-427 -127q-245 0 -383.5 128t-139.5 329z" />
<glyph unicode="V" horiz-adv-x="1321" d="M265 1443h228l152 -1160h5l637 1160h252l-820 -1443h-245z" />
<glyph unicode="W" horiz-adv-x="1917" d="M283 1443h217l43 -1103h5l542 1103h199l84 -1101h5l505 1101h234l-687 -1443h-217l-90 1069h-5l-534 -1069h-218z" />
<glyph unicode="X" horiz-adv-x="1335" d="M-28 0l644 732l-327 711h250l245 -541h8l469 541h278l-644 -732l327 -711h-250l-246 543h-8l-470 -543h-276z" />
<glyph unicode="Y" horiz-adv-x="1288" d="M265 1443h235l242 -640h4l507 640h253l-692 -874l-120 -569h-228l125 588z" />
<glyph unicode="Z" horiz-adv-x="1266" d="M28 0l32 161l1001 1073l1 5h-745l42 204h1036l-32 -161l-999 -1073l-1 -5h785l-40 -204h-1080z" />
<glyph unicode="[" horiz-adv-x="687" d="M58 -309l374 1752h478l-35 -174h-269l-304 -1405h269l-35 -173h-478z" />
<glyph unicode="\" horiz-adv-x="687" d="M279 1443h188l52 -1752h-188z" />
<glyph unicode="]" horiz-adv-x="687" d="M-113 -309l35 174h270l304 1405h-270l35 173h478l-374 -1752h-478z" />
<glyph unicode="^" horiz-adv-x="933" d="M129 814l437 619h215l171 -619h-196l-110 430h-17l-300 -430h-200z" />
<glyph unicode="_" horiz-adv-x="1024" d="M-142 -293l38 193h1059l-39 -193h-1058z" />
<glyph unicode="`" horiz-adv-x="1086" d="M590 1529h207l149 -305h-171z" />
<glyph unicode="a" horiz-adv-x="1048" d="M65 274q0 156 115.5 245.5t323.5 98.5l298 14l14 64q4 17 4 46q0 70 -50.5 109.5t-143.5 39.5q-95 0 -153.5 -39.5t-73.5 -108.5h-214q25 149 149 241t309 92q175 0 282.5 -85.5t107.5 -221.5q0 -48 -7 -88l-144 -681h-207l27 128h-3q-52 -68 -132.5 -107t-176.5 -39 q-137 0 -231 82.5t-94 209.5zM278 302q0 -65 50.5 -104t132.5 -39q104 0 184 59t101 151l24 106l-263 -13q-108 -5 -168.5 -47t-60.5 -113z" />
<glyph unicode="b" horiz-adv-x="1172" d="M46 0l307 1443h213l-117 -549h4q45 80 132.5 129.5t187.5 49.5q177 0 281 -119t104 -328q0 -101 -23 -196t-68 -176t-107 -142t-144.5 -95.5t-176.5 -34.5q-122 0 -217 64.5t-121 164.5h-6l-44 -211h-205zM366 441q0 -118 69.5 -192.5t182.5 -74.5q143 0 233.5 125 t90.5 308q0 129 -62.5 203.5t-175.5 74.5q-147 0 -242.5 -129.5t-95.5 -314.5z" />
<glyph unicode="c" horiz-adv-x="1061" d="M108 439q0 277 153.5 457t396.5 180q199 0 314 -108.5t115 -265.5q0 -13 -1 -18h-206q-3 86 -64 143t-164 57q-144 0 -235.5 -122t-91.5 -314q0 -128 63 -202.5t169 -74.5q94 0 162 50t98 136h209q-36 -164 -168 -270.5t-306 -106.5q-211 0 -327.5 126t-116.5 333z" />
<glyph unicode="d" horiz-adv-x="1182" d="M107 424q0 183 69 332t190 233t268 84q122 0 213.5 -63t116.5 -160h5l129 593h214l-307 -1443h-213l35 163h-5q-50 -81 -139.5 -131t-191.5 -50q-176 0 -280 120t-104 322zM324 446q0 -128 62.5 -201.5t172.5 -73.5q146 0 243.5 127.5t97.5 316.5q0 118 -67.5 192 t-179.5 74q-140 0 -234.5 -123t-94.5 -312z" />
<glyph unicode="e" horiz-adv-x="1093" d="M108 448q0 174 67.5 317t190.5 227t277 84q200 0 317.5 -121t117.5 -327q0 -86 -11 -152h-749q-1 -12 -1 -35q0 -128 65.5 -203.5t175.5 -75.5q96 0 165 45t101 123h207q-42 -154 -173 -253t-305 -99q-212 0 -328.5 128.5t-116.5 341.5zM343 633h524q1 8 1 29 q0 99 -58 165.5t-172 66.5q-109 0 -187 -72.5t-108 -188.5z" />
<glyph unicode="f" horiz-adv-x="653" d="M112 0l183 872h-172l37 179h169l21 109q30 155 122 227t259 72q63 0 142 -15l-33 -169q-40 10 -94 10q-156 0 -185 -144l-17 -90h235l-36 -179h-233l-183 -872h-215z" />
<glyph unicode="g" horiz-adv-x="1170" d="M27 -79h216q10 -66 72.5 -105.5t159.5 -39.5q254 0 318 259l33 145h-6q-48 -79 -137 -126.5t-189 -47.5q-174 0 -280 118t-106 314q0 123 36 236.5t101.5 202.5t166.5 142.5t221 53.5q121 0 210 -64.5t117 -166.5h8l43 213h210l-214 -1023q-45 -210 -186 -320t-350 -110 q-194 0 -319 88.5t-125 230.5zM323 453q0 -122 62 -195t176 -73q151 0 244.5 125.5t93.5 304.5q0 117 -70.5 191.5t-175.5 74.5q-147 0 -238.5 -122.5t-91.5 -305.5z" />
<glyph unicode="h" horiz-adv-x="1145" d="M46 0l307 1443h214l-118 -551h5q49 81 137.5 131.5t202.5 50.5q148 0 241 -90t93 -220q0 -55 -14 -125l-139 -639h-214l131 602q12 53 12 94q0 85 -57 137t-155 52q-111 0 -192 -70.5t-106 -184.5l-133 -630h-215z" />
<glyph unicode="i" horiz-adv-x="442" d="M48 0l223 1055h216l-223 -1055h-216zM312 1333q0 54 36.5 91.5t89.5 37.5t89.5 -37.5t36.5 -91.5t-36.5 -91.5t-89.5 -37.5t-89.5 37.5t-36.5 91.5z" />
<glyph unicode="j" horiz-adv-x="442" d="M-211 -362l39 181q40 -4 53 -4q68 0 103.5 32t52.5 106l235 1102h216l-241 -1129q-63 -293 -362 -295q-43 0 -96 7zM319 1333q0 54 36.5 91.5t89.5 37.5q52 0 88.5 -37.5t36.5 -91.5t-36.5 -91.5t-88.5 -37.5q-53 0 -89.5 37.5t-36.5 91.5z" />
<glyph unicode="k" horiz-adv-x="1012" d="M46 0l307 1443h216l-176 -815h5l504 427h264l-514 -442l313 -613h-237l-249 485l-136 -108l-81 -377h-216z" />
<glyph unicode="l" horiz-adv-x="452" d="M52 0l307 1443h216l-307 -1443h-216z" />
<glyph unicode="m" horiz-adv-x="1683" d="M41 0l224 1055h205l-36 -169h5q42 82 125.5 136t181.5 54q106 0 180 -55t94 -134h4q57 83 145.5 136t204.5 53q128 0 212 -81.5t84 -208.5q0 -59 -13 -123l-140 -663h-215l133 627q11 47 11 92q0 71 -45.5 118.5t-124.5 47.5q-87 0 -158.5 -63t-94.5 -168l-139 -654h-211 l133 627q12 58 12 92q0 71 -46 118.5t-125 47.5q-86 0 -158.5 -65t-93.5 -165l-139 -655h-215z" />
<glyph unicode="n" horiz-adv-x="1129" d="M41 0l224 1055h205l-35 -163h5q54 87 142 135.5t199 48.5q143 0 237 -87t94 -221q0 -57 -14 -129l-135 -639h-215l128 602q12 57 12 98q0 85 -57 135t-151 50q-106 0 -185.5 -69.5t-104.5 -185.5l-134 -630h-215z" />
<glyph unicode="o" horiz-adv-x="1133" d="M108 447q0 176 72 320t199.5 226.5t284.5 82.5q206 0 329.5 -128t123.5 -340q0 -132 -42.5 -248t-116 -199.5t-176.5 -132t-220 -48.5q-206 0 -330 128t-124 339zM325 453q0 -129 65 -206.5t175 -77.5q145 0 240 124t95 309q0 129 -65 207t-175 78q-145 0 -240 -124 t-95 -310z" />
<glyph unicode="p" horiz-adv-x="1169" d="M-33 -349l298 1404h209l-35 -164h4q51 83 140.5 132.5t190.5 49.5q176 0 278 -119.5t102 -322.5q0 -184 -68 -332.5t-187.5 -232.5t-266.5 -84q-119 0 -209 61.5t-121 161.5h-5l-118 -554h-212zM364 441q0 -119 67.5 -193t179.5 -74q140 0 234.5 123t94.5 308 q0 131 -62.5 205.5t-172.5 74.5q-101 0 -180 -62t-120 -163t-41 -219z" />
<glyph unicode="q" horiz-adv-x="1172" d="M107 424q0 181 69 330t190 234t268 85q122 0 213.5 -63t119.5 -160h6l43 205h208l-299 -1404h-212l115 518h-4q-52 -85 -141.5 -136t-191.5 -51q-177 0 -280.5 119t-103.5 323zM324 446q0 -128 62 -201.5t172 -73.5q146 0 244 127.5t98 316.5q0 118 -67 192t-179 74 q-142 0 -236 -124t-94 -311z" />
<glyph unicode="r" horiz-adv-x="733" d="M41 0l224 1055h205l-29 -143h4q104 159 288 159q75 0 125 -25l-43 -208q-56 26 -137 26q-124 0 -195.5 -67.5t-101.5 -202.5l-126 -594h-214z" />
<glyph unicode="s" horiz-adv-x="986" d="M59 317h210q11 -75 73 -120.5t163 -45.5q87 0 144.5 42.5t57.5 105.5q0 45 -33.5 71.5t-127.5 55.5l-91 29q-144 46 -209 116.5t-65 179.5q0 143 113 233.5t295 90.5q177 0 289 -92t114 -238h-200q-6 70 -63.5 115t-142.5 45q-90 0 -143.5 -37.5t-53.5 -96.5 q0 -49 36.5 -79.5t130.5 -59.5l97 -31q143 -47 205.5 -113t62.5 -170q0 -148 -119.5 -243t-305.5 -95q-193 0 -312.5 94t-124.5 243z" />
<glyph unicode="t" horiz-adv-x="663" d="M139 868l36 179h157l53 260h215l-55 -260h221l-35 -179h-222l-111 -510q-11 -49 -11 -82q0 -104 134 -104q46 0 72 5l-36 -176q-62 -11 -115 -11q-127 0 -203 56.5t-76 164.5q0 52 10 97l122 560h-156z" />
<glyph unicode="u" horiz-adv-x="1128" d="M112 278q0 74 15 146l132 631h215l-127 -597q-12 -57 -12 -103q0 -181 197 -181q113 0 194 70.5t106 185.5l133 625h214l-223 -1055h-205l33 154h-4q-42 -72 -136 -123t-208 -51q-148 0 -236 84t-88 214z" />
<glyph unicode="v" horiz-adv-x="1011" d="M172 1056h213l98 -824h4l435 824h233l-593 -1056h-238z" />
<glyph unicode="w" horiz-adv-x="1507" d="M182 1055h200l31 -817h4l383 817h210l44 -817h5l367 817h216l-507 -1055h-225l-51 785h-5l-376 -785h-231z" />
<glyph unicode="x" horiz-adv-x="1007" d="M-34 0l458 539l-236 516h226l163 -373h4l307 373h245l-457 -538l235 -517h-226l-162 373h-5l-306 -373h-246z" />
<glyph unicode="y" horiz-adv-x="1017" d="M-27 -372l33 183q31 -12 96 -12q129 0 202 153q0 1 14 29l13 28l-159 1046h214l102 -838h4l435 838h233l-635 -1137q-92 -170 -190.5 -236.5t-237.5 -66.5q-81 0 -124 13z" />
<glyph unicode="z" horiz-adv-x="996" d="M15 0l30 145l716 723l2 5h-557l38 182h826l-33 -155l-703 -713l-1 -5h556l-38 -182h-836z" />
<glyph unicode="{" horiz-adv-x="687" d="M51 452l46 228q119 0 178.5 46.5t84.5 164.5l47 209q39 184 144.5 263.5t292.5 79.5h66l-35 -175h-44q-101 0 -152.5 -49.5t-76.5 -167.5l-52 -239q-46 -216 -285 -238l-3 -17q101 -19 144.5 -63t43.5 -117q0 -32 -12 -87l-46 -209q-11 -57 -11 -88q0 -63 34 -97.5 t113 -34.5h44l-34 -171h-66q-59 0 -111.5 14.5t-96 44t-69 81t-25.5 119.5q0 46 12 108l42 186q11 52 11 87q0 68 -43.5 95t-140.5 27z" />
<glyph unicode="|" horiz-adv-x="687" d="M116 -309l373 1752h192l-373 -1752h-192z" />
<glyph unicode="}" horiz-adv-x="687" d="M-113 -310l36 175h44q101 0 152.5 49.5t76.5 167.5l52 239q46 216 285 238l3 17q-101 19 -144.5 63t-43.5 117q0 32 12 87l45 209q12 53 12 89q0 131 -147 131h-45l35 171h66q59 0 111.5 -14.5t96 -44t69 -81t25.5 -119.5q0 -50 -13 -108l-41 -186q-11 -52 -11 -87 q0 -68 43.5 -95t140.5 -27l-46 -228q-119 0 -178.5 -46.5t-84.5 -164.5l-47 -209q-39 -184 -145 -263.5t-292 -79.5h-67z" />
<glyph unicode="~" horiz-adv-x="1271" d="M194 478q23 175 113 271t214 96q56 0 104 -22.5t80 -54.5t60.5 -63.5t59 -54t60.5 -22.5q105 0 136 164h192q-23 -175 -111.5 -271t-213.5 -96q-57 0 -105 22t-81 54t-61.5 64t-59 54t-61.5 22q-53 0 -86 -39.5t-49 -123.5h-191z" />
<glyph unicode="&#xa1;" horiz-adv-x="587" d="M36 -340l226 965h199l-185 -965h-240zM307 986q0 56 38 95t93 39t93.5 -39t38.5 -95q0 -57 -38 -96t-94 -39q-55 0 -93 39t-38 96z" />
<glyph unicode="&#xa2;" d="M231 619q0 182 68.5 330.5t192.5 238t281 101.5l32 156h197l-37 -176q113 -37 187 -119t89 -187q2 -13 4 -45h-212q-7 80 -73 130.5t-162 50.5q-150 0 -248.5 -131t-98.5 -326q0 -138 67.5 -215.5t180.5 -77.5q93 0 160.5 43t95.5 121h215q-29 -147 -148.5 -245 t-292.5 -111l-38 -180h-197l42 200q-142 42 -223.5 159t-81.5 283z" />
<glyph unicode="&#xa3;" d="M45 2l39 198q152 15 264 125t115 257q0 6 -4 64h-311l35 175h261q-10 110 -10 164q0 235 152 360.5t417 125.5q103 0 204 -21t161 -50l-40 -195q-48 26 -137 45.5t-179 19.5q-157 0 -253.5 -72.5t-96.5 -206.5q0 -52 10 -170h413l-35 -175h-369q2 -23 2 -48 q-2 -143 -58.5 -242.5t-146.5 -149.5l-1 -4h692l-40 -200h-1084z" />
<glyph unicode="&#xa4;" d="M117 273l226 190q-45 88 -45 190q0 144 87 256l-105 133l150 129l107 -138q83 39 173 39q145 0 259 -93l230 191l103 -138l-225 -188q46 -90 46 -191q0 -143 -87 -257l104 -132l-151 -129l-106 137q-81 -39 -173 -39q-146 0 -259 94l-231 -192zM457 653q0 -103 74.5 -177 t178.5 -74t179 74t75 177q0 102 -75 176t-179 74t-178.5 -74t-74.5 -176z" />
<glyph unicode="&#xa5;" d="M235 242l31 150h276l32 152h-275l31 150h214l-287 749h233l245 -637h8l503 637h252l-594 -749h199l-31 -150h-272l-33 -152h272l-31 -150h-271l-51 -242h-229l53 242h-275z" />
<glyph unicode="&#xa6;" horiz-adv-x="687" d="M117 -309l141 669h192l-141 -669h-192zM347 774l142 669h192l-142 -669h-192z" />
<glyph unicode="&#xa7;" horiz-adv-x="986" d="M19 52h204q15 -66 72 -107.5t142 -41.5q92 0 150.5 42.5t58.5 107.5q0 46 -26 78.5t-91 57.5l-153 64q-236 96 -236 292q0 114 76.5 191t189.5 104v8q-81 50 -114 104t-33 133q0 146 112.5 237t287.5 91q168 0 274.5 -86t123.5 -229h-199q-11 64 -65.5 102.5t-135.5 38.5 q-84 0 -138 -40.5t-54 -103.5q0 -85 129 -135l136 -60q124 -51 183.5 -118.5t59.5 -168.5q0 -114 -74 -194.5t-186 -110.5l-1 -8q79 -51 111 -105t32 -132q0 -146 -119.5 -240t-304.5 -94q-171 0 -288 90t-124 233zM344 575q0 -93 132 -145l97 -43q88 17 141 67t53 118 q0 100 -118 146l-93 40q-91 -11 -151.5 -61.5t-60.5 -121.5z" />
<glyph unicode="&#xa8;" horiz-adv-x="1086" d="M458 1342q0 49 34 83t83 34t83 -34t34 -83t-34 -83t-83 -34t-83 34t-34 83zM838 1342q0 49 34 83t83 34t83 -34t34 -83t-34 -83t-83 -34t-83 34t-34 83z" />
<glyph unicode="&#xa9;" horiz-adv-x="1660" d="M107 602q0 172 62 325.5t168.5 263t255 173.5t316.5 64q228 0 406.5 -95.5t277.5 -267.5t99 -392q0 -173 -62 -326t-168.5 -263t-255.5 -173.5t-317 -63.5q-227 0 -405.5 96t-277.5 268t-99 391zM256 602q0 -269 175.5 -437.5t457.5 -168.5q137 0 258 52.5t207.5 142 t137 215t50.5 266.5q0 271 -174.5 439t-458.5 168q-136 0 -257 -52.5t-208 -142t-137.5 -215.5t-50.5 -267zM532 576q0 206 118.5 341.5t299.5 135.5q138 0 226.5 -76.5t92.5 -199.5h-152q-4 61 -54 100.5t-122 39.5q-109 0 -181 -94.5t-72 -236.5q0 -98 52.5 -157 t140.5 -59q130 0 177 113h155q-28 -116 -119.5 -183t-222.5 -67q-150 0 -244.5 95.5t-94.5 247.5z" />
<glyph unicode="&#xaa;" horiz-adv-x="782" d="M189 906q0 105 77 170.5t224 65.5h218q1 2 5 23t4 22q5 22 5 31q0 44 -37 70.5t-98 26.5q-47 0 -83 -20.5t-52 -56.5h-164q24 102 107 159.5t201 57.5q135 0 217 -61.5t82 -161.5q0 -26 -6 -54l-98 -465h-168l20 96l-5 1q-35 -47 -92.5 -74t-122.5 -27q-57 0 -108 19 t-88.5 65.5t-37.5 112.5zM364 929q0 -44 40 -66.5t92 -22.5q65 0 114 36t62 94l13 59h-173q-72 0 -110 -28t-38 -72z" />
<glyph unicode="&#xab;" horiz-adv-x="1313" d="M181 559l3 18l408 406h237l-425 -421v-11l263 -403h-216zM639 544l3 18l424 421h237l-441 -436v-11l259 -385h-217z" />
<glyph unicode="&#xac;" d="M182 484l39 196h983l-121 -583h-186l82 387h-797z" />
<glyph unicode="&#xad;" horiz-adv-x="830" d="M125 471l41 199h650l-41 -199h-650z" />
<glyph unicode="&#xae;" horiz-adv-x="1183" d="M262 1065q0 205 142 345.5t348 140.5q207 0 349 -140.5t142 -345.5q0 -134 -65 -246t-178 -176t-248 -64t-247.5 64t-177.5 176t-65 246zM382 1065q0 -157 107.5 -265t262.5 -108q156 0 263 108t107 265q0 158 -106.5 265.5t-263.5 107.5q-155 0 -262.5 -108t-107.5 -265 zM516 845l97 456h222q61 0 101.5 -37.5t40.5 -91.5q0 -56 -37.5 -99t-94.5 -54l84 -174h-128l-71 163h-74l-35 -163h-105zM673 1089h100q40 0 65 20.5t25 52.5q0 23 -16.5 37t-45.5 14h-101z" />
<glyph unicode="&#xaf;" horiz-adv-x="1086" d="M464 1281l26 131h598l-27 -131h-597z" />
<glyph unicode="&#xb0;" horiz-adv-x="743" d="M257 1157q0 126 85.5 213.5t210.5 87.5q124 0 210.5 -87.5t86.5 -213.5q0 -127 -86 -214t-211 -87t-210.5 87t-85.5 214zM400 1157q0 -61 46 -106.5t107 -45.5q64 0 108.5 45t44.5 107q0 63 -44.5 107.5t-108.5 44.5q-61 0 -107 -45t-46 -107z" />
<glyph unicode="&#xb1;" d="M110 94l36 182h961l-36 -182h-961zM229 657l35 174h387l59 266h187l-59 -266h388l-35 -174h-388l-58 -267h-187l58 267h-387z" />
<glyph unicode="&#xb2;" horiz-adv-x="636" d="M230 1111l29 136l246 182q102 79 133.5 112.5t31.5 66.5q0 30 -23.5 49t-60.5 19q-38 0 -66.5 -23.5t-35.5 -62.5v-4h-170q7 103 89 170t201 67q108 0 178.5 -56t70.5 -141q0 -68 -46 -124.5t-178 -153.5l-120 -89h281l-30 -148h-530z" />
<glyph unicode="&#xb3;" horiz-adv-x="659" d="M258 1304q0 12 3 30h173q-5 -38 24 -63.5t77 -25.5q46 0 75.5 24t29.5 62q0 31 -25.5 50.5t-66.5 19.5h-78l26 130h86q50 0 79 21.5t29 58.5q0 31 -25 49.5t-66 18.5q-35 0 -62.5 -18t-36.5 -48h-169q19 98 95.5 154t187.5 56t182 -53.5t71 -136.5q0 -65 -46.5 -113.5 t-116.5 -58.5v-4q54 -13 85.5 -53t31.5 -95q0 -94 -80.5 -155t-205.5 -61t-201 57.5t-76 153.5z" />
<glyph unicode="&#xb4;" horiz-adv-x="1086" d="M518 1224l278 305h224l-315 -305h-187z" />
<glyph unicode="&#xb6;" horiz-adv-x="1317" d="M252 920q0 229 162.5 374t424.5 149h232l-357 -1680h-216l164 762q-183 7 -296.5 117t-113.5 278zM869 -237l357 1680h216l-357 -1680h-216z" />
<glyph unicode="&#xb7;" horiz-adv-x="539" d="M185 528q0 57 38 96.5t93 39.5t93 -39.5t38 -96.5q0 -58 -38 -97.5t-93 -39.5t-93 39.5t-38 97.5z" />
<glyph unicode="&#xb8;" horiz-adv-x="1090" d="M208 -452l26 125q61 -22 133 -22q123 0 123 64q0 31 -34.5 45t-112.5 14h-59l19 85l89 151h144l-1 -10l-76 -125q85 0 132 -38t47 -108q0 -92 -72 -149.5t-188 -57.5q-99 0 -170 26z" />
<glyph unicode="&#xb9;" horiz-adv-x="513" d="M298 1517l35 170l200 117h188l-148 -693h-187l111 520h-3z" />
<glyph unicode="&#xba;" horiz-adv-x="805" d="M204 1013q0 191 113 317.5t283 126.5q150 0 239.5 -85.5t89.5 -231.5q0 -190 -113 -315.5t-283 -125.5q-150 0 -239.5 85t-89.5 229zM381 1014q0 -79 42 -124t114 -45q90 0 153 85.5t63 210.5q0 79 -42.5 124.5t-114.5 45.5q-91 0 -153 -86t-62 -211z" />
<glyph unicode="&#xbb;" horiz-adv-x="1313" d="M119 148l441 436v11l-259 385h217l265 -393l-3 -18l-424 -421h-237zM593 148l425 421v11l-263 403h216l269 -411l-2 -18l-408 -406h-237z" />
<glyph unicode="&#xbc;" horiz-adv-x="1512" d="M27 0l719 764l642 679h210l-701 -744l-659 -699h-211zM221 1156l35 170l200 117h188l-148 -693h-187l111 520h-3zM827 106l32 170q100 137 343 417h268l-93 -437h85l-31 -150h-85l-23 -106h-177l24 106h-343zM1018 248h186l67 309h-4q-124 -137 -249 -304v-5z" />
<glyph unicode="&#xbd;" horiz-adv-x="1544" d="M27 0l719 764l642 679h210l-701 -744l-659 -699h-211zM221 1156l35 170l200 117h188l-148 -693h-187l111 520h-3zM901 0l29 136l246 182q102 79 133.5 112.5t31.5 66.5q0 30 -23.5 49t-60.5 19q-38 0 -66.5 -23.5t-35.5 -62.5v-4h-170q7 103 89 170t201 67 q108 0 178.5 -56t70.5 -141q0 -68 -46 -124.5t-178 -153.5l-120 -89h281l-30 -148h-530z" />
<glyph unicode="&#xbe;" horiz-adv-x="1622" d="M137 0l719 764l642 679h210l-701 -744l-659 -699h-211zM181 943q0 12 3 30h173q-5 -38 24 -63.5t77 -25.5q46 0 75.5 24t29.5 62q0 31 -25.5 50.5t-66.5 19.5h-78l26 130h86q50 0 79 21.5t29 58.5q0 31 -25 49.5t-66 18.5q-35 0 -62.5 -18t-36.5 -48h-169q19 98 95.5 154 t187.5 56t182 -53.5t71 -136.5q0 -65 -46.5 -113.5t-116.5 -58.5v-4q54 -13 85.5 -53t31.5 -95q0 -94 -80.5 -155t-205.5 -61t-201 57.5t-76 153.5zM937 106l32 170q100 137 343 417h268l-93 -437h85l-31 -150h-85l-23 -106h-177l24 106h-343zM1128 248h186l67 309h-4 q-124 -137 -249 -304v-5z" />
<glyph unicode="&#xbf;" horiz-adv-x="1000" d="M-6 -10q0 127 78.5 232.5t209.5 164.5q109 49 155 95t60 121l10 52h212l-16 -74q-25 -126 -83 -193t-179 -121q-115 -53 -166 -114t-51 -142q0 -72 57.5 -121.5t158.5 -49.5q93 0 160.5 50.5t93.5 139.5h210q-32 -175 -156.5 -279t-320.5 -104q-193 0 -313 98t-120 245z M550 986q0 56 38.5 95t93.5 39t93 -39t38 -95q0 -57 -38 -96t-93 -39q-56 0 -94 39t-38 96z" />
<glyph unicode="&#xc0;" horiz-adv-x="1328" d="M-43 0l828 1443h245l210 -1443h-219l-50 383h-554l-217 -383h-243zM513 571h436l-85 621h-5zM632 1855h209l160 -296h-169z" />
<glyph unicode="&#xc1;" horiz-adv-x="1328" d="M-43 0l828 1443h245l210 -1443h-219l-50 383h-554l-217 -383h-243zM513 571h436l-85 621h-5zM834 1559l285 296h231l-325 -296h-191z" />
<glyph unicode="&#xc2;" horiz-adv-x="1328" d="M-43 0l828 1443h245l210 -1443h-219l-50 383h-554l-217 -383h-243zM513 571h436l-85 621h-5zM557 1554l342 307h167l213 -307h-176l-131 192h-7l-213 -192h-195z" />
<glyph unicode="&#xc3;" horiz-adv-x="1328" d="M-43 0l828 1443h245l210 -1443h-219l-50 383h-554l-217 -383h-243zM513 571h436l-85 621h-5zM601 1558q22 123 87.5 193.5t155.5 70.5q39 0 71.5 -15t53.5 -36t39 -42t37.5 -36t39.5 -15q32 0 59 34.5t42 99.5h133q-25 -122 -90.5 -194t-150.5 -72q-37 0 -68.5 15 t-52.5 36t-39.5 42t-39 36t-41.5 15q-35 0 -62.5 -34.5t-39.5 -97.5h-134z" />
<glyph unicode="&#xc4;" horiz-adv-x="1328" d="M-43 0l828 1443h245l210 -1443h-219l-50 383h-554l-217 -383h-243zM513 571h436l-85 621h-5zM652 1721q0 49 34 83t83 34t83 -34t34 -83t-34 -83t-83 -34t-83 34t-34 83zM1032 1721q0 49 34 83t83 34t83 -34t34 -83t-34 -83t-83 -34t-83 34t-34 83z" />
<glyph unicode="&#xc5;" horiz-adv-x="1328" d="M-43 0l828 1443h245l210 -1443h-219l-50 383h-554l-217 -383h-243zM513 571h436l-85 621h-5zM768 1755q0 90 59 149t145 59q84 0 141.5 -54t56.5 -141q-1 -90 -59.5 -149t-145.5 -59q-82 0 -139.5 54.5t-57.5 140.5zM870 1757q0 -42 27 -68.5t68 -26.5q46 0 75 28.5 t28 75.5q-1 43 -27.5 69.5t-68.5 26.5q-45 0 -73.5 -28.5t-28.5 -76.5z" />
<glyph unicode="&#xc6;" horiz-adv-x="1908" d="M-50 0l938 1443h1164l-42 -204h-652l-91 -415h615l-39 -195h-615l-95 -425h652l-40 -204h-871l91 417h-501l-278 -417h-236zM576 606h427l140 647h-140z" />
<glyph unicode="&#xc7;" horiz-adv-x="1427" d="M168 598q0 248 96 446t270 310t393 112q241 0 396.5 -131.5t166.5 -348.5q1 -23 0 -36h-223q0 2 -0.5 11.5t-0.5 16.5q-13 128 -109.5 204.5t-239.5 76.5q-151 0 -269.5 -83.5t-183.5 -231.5t-65 -335q0 -197 101 -310.5t277 -113.5q137 0 242.5 71t153.5 196h223 q-52 -205 -209.5 -332.5t-371.5 -141.5l-63 -103q85 0 132 -38t47 -108q0 -92 -72 -149.5t-188 -57.5q-99 0 -170 26l26 125q61 -22 133 -22q123 0 123 64q0 31 -34.5 45t-112.5 14h-59l19 85l73 124q-233 31 -367 195t-134 420z" />
<glyph unicode="&#xc8;" horiz-adv-x="1147" d="M69 0l307 1443h918l-42 -204h-690l-90 -408h653l-40 -194h-652l-95 -433h689l-40 -204h-918zM559 1855h209l160 -296h-169z" />
<glyph unicode="&#xc9;" horiz-adv-x="1147" d="M69 0l307 1443h918l-42 -204h-690l-90 -408h653l-40 -194h-652l-95 -433h689l-40 -204h-918zM761 1559l285 296h231l-325 -296h-191z" />
<glyph unicode="&#xca;" horiz-adv-x="1147" d="M69 0l307 1443h918l-42 -204h-690l-90 -408h653l-40 -194h-652l-95 -433h689l-40 -204h-918zM484 1554l342 307h167l213 -307h-176l-131 192h-7l-213 -192h-195z" />
<glyph unicode="&#xcb;" horiz-adv-x="1147" d="M69 0l307 1443h918l-42 -204h-690l-90 -408h653l-40 -194h-652l-95 -433h689l-40 -204h-918zM579 1721q0 49 34 83t83 34t83 -34t34 -83t-34 -83t-83 -34t-83 34t-34 83zM959 1721q0 49 34 83t83 34t83 -34t34 -83t-34 -83t-83 -34t-83 34t-34 83z" />
<glyph unicode="&#xcc;" horiz-adv-x="496" d="M69 0l307 1443h227l-307 -1443h-227zM219 1855h209l160 -296h-169z" />
<glyph unicode="&#xcd;" horiz-adv-x="496" d="M69 0l307 1443h227l-307 -1443h-227zM421 1559l285 296h231l-325 -296h-191z" />
<glyph unicode="&#xce;" horiz-adv-x="496" d="M69 0l307 1443h227l-307 -1443h-227zM144 1554l342 307h167l213 -307h-176l-131 192h-7l-213 -192h-195z" />
<glyph unicode="&#xcf;" horiz-adv-x="496" d="M69 0l307 1443h227l-307 -1443h-227zM239 1721q0 49 34 83t83 34t83 -34t34 -83t-34 -83t-83 -34t-83 34t-34 83zM619 1721q0 49 34 83t83 34t83 -34t34 -83t-34 -83t-83 -34t-83 34t-34 83z" />
<glyph unicode="&#xd0;" horiz-adv-x="1427" d="M70 0l134 632h-134l41 204h136l129 607h452q282 0 443.5 -153.5t161.5 -425.5q0 -252 -97 -448.5t-273.5 -306t-403.5 -109.5h-589zM338 202h299q163 0 291.5 79.5t201 224t72.5 328.5q0 199 -106.5 303t-310.5 104h-222l-88 -405h300l-41 -204h-303z" />
<glyph unicode="&#xd1;" horiz-adv-x="1448" d="M69 0l307 1443h208l508 -1082h5l234 1082h224l-307 -1443h-209l-507 1082h-5l-234 -1082h-224zM663 1558q22 123 87.5 193.5t155.5 70.5q39 0 71.5 -15t53.5 -36t39 -42t37.5 -36t39.5 -15q32 0 59 34.5t42 99.5h133q-25 -122 -90.5 -194t-150.5 -72q-37 0 -68.5 15 t-52.5 36t-39.5 42t-39 36t-41.5 15q-35 0 -62.5 -34.5t-39.5 -97.5h-134z" />
<glyph unicode="&#xd2;" horiz-adv-x="1530" d="M168 602q0 240 98 438t272 312t389 114q278 0 445 -172t167 -453q0 -240 -98.5 -438t-273 -312t-389.5 -114q-277 0 -443.5 172t-166.5 453zM397 613q0 -197 104.5 -313.5t279.5 -116.5q152 0 273.5 87t188.5 235t67 326q0 196 -104.5 312.5t-279.5 116.5 q-152 0 -274 -87t-188.5 -234.5t-66.5 -325.5zM674 1855h209l160 -296h-169z" />
<glyph unicode="&#xd3;" horiz-adv-x="1530" d="M168 602q0 240 98 438t272 312t389 114q278 0 445 -172t167 -453q0 -240 -98.5 -438t-273 -312t-389.5 -114q-277 0 -443.5 172t-166.5 453zM397 613q0 -197 104.5 -313.5t279.5 -116.5q152 0 273.5 87t188.5 235t67 326q0 196 -104.5 312.5t-279.5 116.5 q-152 0 -274 -87t-188.5 -234.5t-66.5 -325.5zM876 1559l285 296h231l-325 -296h-191z" />
<glyph unicode="&#xd4;" horiz-adv-x="1530" d="M168 602q0 240 98 438t272 312t389 114q278 0 445 -172t167 -453q0 -240 -98.5 -438t-273 -312t-389.5 -114q-277 0 -443.5 172t-166.5 453zM397 613q0 -197 104.5 -313.5t279.5 -116.5q152 0 273.5 87t188.5 235t67 326q0 196 -104.5 312.5t-279.5 116.5 q-152 0 -274 -87t-188.5 -234.5t-66.5 -325.5zM599 1554l342 307h167l213 -307h-176l-131 192h-7l-213 -192h-195z" />
<glyph unicode="&#xd5;" horiz-adv-x="1530" d="M168 602q0 240 98 438t272 312t389 114q278 0 445 -172t167 -453q0 -240 -98.5 -438t-273 -312t-389.5 -114q-277 0 -443.5 172t-166.5 453zM397 613q0 -197 104.5 -313.5t279.5 -116.5q152 0 273.5 87t188.5 235t67 326q0 196 -104.5 312.5t-279.5 116.5 q-152 0 -274 -87t-188.5 -234.5t-66.5 -325.5zM643 1558q22 123 87.5 193.5t155.5 70.5q39 0 71.5 -15t53.5 -36t39 -42t37.5 -36t39.5 -15q32 0 59 34.5t42 99.5h133q-25 -122 -90.5 -194t-150.5 -72q-37 0 -68.5 15t-52.5 36t-39.5 42t-39 36t-41.5 15q-35 0 -62.5 -34.5 t-39.5 -97.5h-134z" />
<glyph unicode="&#xd6;" horiz-adv-x="1530" d="M168 602q0 240 98 438t272 312t389 114q278 0 445 -172t167 -453q0 -240 -98.5 -438t-273 -312t-389.5 -114q-277 0 -443.5 172t-166.5 453zM397 613q0 -197 104.5 -313.5t279.5 -116.5q152 0 273.5 87t188.5 235t67 326q0 196 -104.5 312.5t-279.5 116.5 q-152 0 -274 -87t-188.5 -234.5t-66.5 -325.5zM694 1721q0 49 34 83t83 34t83 -34t34 -83t-34 -83t-83 -34t-83 34t-34 83zM1074 1721q0 49 34 83t83 34t83 -34t34 -83t-34 -83t-83 -34t-83 34t-34 83z" />
<glyph unicode="&#xd7;" d="M200 306l362 291l-233 305l153 125l233 -301l362 290l110 -152l-362 -291l231 -305l-154 -124l-230 301l-362 -290z" />
<glyph unicode="&#xd8;" horiz-adv-x="1530" d="M103 83l159 159q-94 153 -94 360q0 240 98 438t272 312t389 114q252 0 415 -144l152 152l109 -114l-158 -159q94 -151 94 -360q0 -240 -98.5 -438t-273 -312t-389.5 -114q-251 0 -414 144l-151 -152zM397 613q0 -113 35 -201l753 753q-103 95 -259 95q-152 0 -274 -87 t-188.5 -234.5t-66.5 -325.5zM522 278q101 -95 259 -95q152 0 273.5 87t188.5 235t67 326q0 113 -36 200z" />
<glyph unicode="&#xd9;" horiz-adv-x="1443" d="M178 434q-1 59 13 128l185 881h227l-183 -870q-15 -63 -13 -120q5 -124 87 -194.5t236 -70.5q150 0 255 86t139 239l199 930h227l-208 -980q-50 -232 -214 -359t-427 -127q-245 0 -383.5 128t-139.5 329zM677 1855h209l160 -296h-169z" />
<glyph unicode="&#xda;" horiz-adv-x="1443" d="M178 434q-1 59 13 128l185 881h227l-183 -870q-15 -63 -13 -120q5 -124 87 -194.5t236 -70.5q150 0 255 86t139 239l199 930h227l-208 -980q-50 -232 -214 -359t-427 -127q-245 0 -383.5 128t-139.5 329zM879 1559l285 296h231l-325 -296h-191z" />
<glyph unicode="&#xdb;" horiz-adv-x="1443" d="M178 434q-1 59 13 128l185 881h227l-183 -870q-15 -63 -13 -120q5 -124 87 -194.5t236 -70.5q150 0 255 86t139 239l199 930h227l-208 -980q-50 -232 -214 -359t-427 -127q-245 0 -383.5 128t-139.5 329zM602 1554l342 307h167l213 -307h-176l-131 192h-7l-213 -192h-195 z" />
<glyph unicode="&#xdc;" horiz-adv-x="1443" d="M178 434q-1 59 13 128l185 881h227l-183 -870q-15 -63 -13 -120q5 -124 87 -194.5t236 -70.5q150 0 255 86t139 239l199 930h227l-208 -980q-50 -232 -214 -359t-427 -127q-245 0 -383.5 128t-139.5 329zM697 1721q0 49 34 83t83 34t83 -34t34 -83t-34 -83t-83 -34 t-83 34t-34 83zM1077 1721q0 49 34 83t83 34t83 -34t34 -83t-34 -83t-83 -34t-83 34t-34 83z" />
<glyph unicode="&#xdd;" horiz-adv-x="1287" d="M265 1443h235l242 -640h4l507 640h253l-692 -874l-120 -569h-228l125 588zM814 1559l285 296h231l-325 -296h-191z" />
<glyph unicode="&#xde;" horiz-adv-x="1234" d="M74 0l307 1443h223l-55 -251h310q177 0 289.5 -104.5t112.5 -269.5q0 -218 -156.5 -356.5t-406.5 -138.5h-331l-70 -323h-223zM407 521h274q164 0 257 73t93 201q0 94 -62.5 146t-182.5 52h-277z" />
<glyph unicode="&#xdf;" horiz-adv-x="1280" d="M97 0l234 1099q36 166 163 261t314 95q185 0 305.5 -97.5t120.5 -247.5q0 -135 -89 -230.5t-230 -111.5l-4 -19q142 -19 224 -100.5t82 -204.5q0 -195 -142 -318.5t-363 -123.5q-129 0 -224 37l39 188q78 -33 178 -33q125 0 211 73t86 180q0 95 -77 150t-207 55h-72 l41 203h77q105 0 179.5 63.5t74.5 154.5q0 85 -61 137t-159 52q-103 0 -172 -61.5t-94 -174.5l-218 -1026h-217z" />
<glyph unicode="&#xe0;" horiz-adv-x="1048" d="M65 274q0 156 115.5 245.5t323.5 98.5l298 14l14 64q4 17 4 46q0 70 -50.5 109.5t-143.5 39.5q-95 0 -153.5 -39.5t-73.5 -108.5h-214q25 149 149 241t309 92q175 0 282.5 -85.5t107.5 -221.5q0 -48 -7 -88l-144 -681h-207l27 128h-3q-52 -68 -132.5 -107t-176.5 -39 q-137 0 -231 82.5t-94 209.5zM278 302q0 -65 50.5 -104t132.5 -39q104 0 184 59t101 151l24 106l-263 -13q-108 -5 -168.5 -47t-60.5 -113zM426 1529h207l149 -305h-171z" />
<glyph unicode="&#xe1;" horiz-adv-x="1048" d="M65 274q0 156 115.5 245.5t323.5 98.5l298 14l14 64q4 17 4 46q0 70 -50.5 109.5t-143.5 39.5q-95 0 -153.5 -39.5t-73.5 -108.5h-214q25 149 149 241t309 92q175 0 282.5 -85.5t107.5 -221.5q0 -48 -7 -88l-144 -681h-207l27 128h-3q-52 -68 -132.5 -107t-176.5 -39 q-137 0 -231 82.5t-94 209.5zM278 302q0 -65 50.5 -104t132.5 -39q104 0 184 59t101 151l24 106l-263 -13q-108 -5 -168.5 -47t-60.5 -113zM605 1224l278 305h224l-315 -305h-187z" />
<glyph unicode="&#xe2;" horiz-adv-x="1048" d="M65 274q0 156 115.5 245.5t323.5 98.5l298 14l14 64q4 17 4 46q0 70 -50.5 109.5t-143.5 39.5q-95 0 -153.5 -39.5t-73.5 -108.5h-214q25 149 149 241t309 92q175 0 282.5 -85.5t107.5 -221.5q0 -48 -7 -88l-144 -681h-207l27 128h-3q-52 -68 -132.5 -107t-176.5 -39 q-137 0 -231 82.5t-94 209.5zM278 302q0 -65 50.5 -104t132.5 -39q104 0 184 59t101 151l24 106l-263 -13q-108 -5 -168.5 -47t-60.5 -113zM343 1220l335 308h166l204 -308h-179l-123 189h-7l-205 -189h-191z" />
<glyph unicode="&#xe3;" horiz-adv-x="1048" d="M65 274q0 156 115.5 245.5t323.5 98.5l298 14l14 64q4 17 4 46q0 70 -50.5 109.5t-143.5 39.5q-95 0 -153.5 -39.5t-73.5 -108.5h-214q25 149 149 241t309 92q175 0 282.5 -85.5t107.5 -221.5q0 -48 -7 -88l-144 -681h-207l27 128h-3q-52 -68 -132.5 -107t-176.5 -39 q-137 0 -231 82.5t-94 209.5zM278 302q0 -65 50.5 -104t132.5 -39q104 0 184 59t101 151l24 106l-263 -13q-108 -5 -168.5 -47t-60.5 -113zM362 1238q22 123 87.5 193.5t155.5 70.5q39 0 71.5 -15t53.5 -36t39 -42t37.5 -36t39.5 -15q32 0 59 34.5t42 99.5h133 q-25 -122 -90.5 -194t-150.5 -72q-37 0 -68.5 15t-52.5 36t-39.5 42t-39 36t-41.5 15q-35 0 -62.5 -34.5t-39.5 -97.5h-134z" />
<glyph unicode="&#xe4;" horiz-adv-x="1048" d="M65 274q0 156 115.5 245.5t323.5 98.5l298 14l14 64q4 17 4 46q0 70 -50.5 109.5t-143.5 39.5q-95 0 -153.5 -39.5t-73.5 -108.5h-214q25 149 149 241t309 92q175 0 282.5 -85.5t107.5 -221.5q0 -48 -7 -88l-144 -681h-207l27 128h-3q-52 -68 -132.5 -107t-176.5 -39 q-137 0 -231 82.5t-94 209.5zM278 302q0 -65 50.5 -104t132.5 -39q104 0 184 59t101 151l24 106l-263 -13q-108 -5 -168.5 -47t-60.5 -113zM409 1342q0 49 34 83t83 34t83 -34t34 -83t-34 -83t-83 -34t-83 34t-34 83zM789 1342q0 49 34 83t83 34t83 -34t34 -83t-34 -83 t-83 -34t-83 34t-34 83z" />
<glyph unicode="&#xe5;" horiz-adv-x="1048" d="M65 274q0 156 115.5 245.5t323.5 98.5l298 14l14 64q4 17 4 46q0 70 -50.5 109.5t-143.5 39.5q-95 0 -153.5 -39.5t-73.5 -108.5h-214q25 149 149 241t309 92q175 0 282.5 -85.5t107.5 -221.5q0 -48 -7 -88l-144 -681h-207l27 128h-3q-52 -68 -132.5 -107t-176.5 -39 q-137 0 -231 82.5t-94 209.5zM278 302q0 -65 50.5 -104t132.5 -39q104 0 184 59t101 151l24 106l-263 -13q-108 -5 -168.5 -47t-60.5 -113zM521 1367q0 90 59 149t145 59q84 0 141.5 -54t56.5 -141q-1 -90 -59.5 -149t-145.5 -59q-82 0 -139.5 54.5t-57.5 140.5zM623 1369 q0 -42 27 -68.5t68 -26.5q46 0 75 28.5t28 75.5q-1 43 -27.5 69.5t-68.5 26.5q-45 0 -73.5 -28.5t-28.5 -76.5z" />
<glyph unicode="&#xe6;" horiz-adv-x="1761" d="M70 274q0 156 116 246.5t327 98.5l298 13l14 64q4 16 4 46q0 67 -53 108t-145 41q-95 0 -153 -40t-72 -108h-214q24 148 146.5 240.5t304.5 92.5q109 0 197.5 -41.5t132.5 -114.5h7q136 156 348 156q190 0 304.5 -122.5t114.5 -325.5q0 -82 -10 -152h-748q-1 -7 -1 -30 q0 -130 66 -207t179 -77q94 0 161.5 43.5t99.5 124.5h206q-41 -156 -172.5 -253t-303.5 -97q-131 0 -225.5 59t-138.5 160h-7q-149 -219 -439 -219q-148 0 -246 84.5t-98 209.5zM283 300q0 -62 50 -102t133 -40q108 0 189 59t101 150l24 106l-270 -12q-104 -5 -165.5 -49 t-61.5 -112zM1013 633h524q2 14 2 29q0 104 -60 168t-157 64q-114 0 -194.5 -70t-114.5 -191z" />
<glyph unicode="&#xe7;" horiz-adv-x="1061" d="M108 439q0 277 153.5 457t396.5 180q199 0 314 -108.5t115 -265.5q0 -13 -1 -18h-206q-3 86 -64 143t-164 57q-144 0 -235.5 -122t-91.5 -314q0 -128 63 -202.5t169 -74.5q94 0 162 50t98 136h209q-32 -149 -145 -251.5t-267 -121.5l-66 -109q85 0 132 -38t47 -108 q0 -92 -72 -149.5t-188 -57.5q-99 0 -170 26l26 125q61 -22 133 -22q123 0 123 64q0 31 -34.5 45t-112.5 14h-59l19 85l75 127q-172 25 -265.5 146.5t-93.5 306.5z" />
<glyph unicode="&#xe8;" horiz-adv-x="1093" d="M108 448q0 174 67.5 317t190.5 227t277 84q200 0 317.5 -121t117.5 -327q0 -86 -11 -152h-749q-1 -12 -1 -35q0 -128 65.5 -203.5t175.5 -75.5q96 0 165 45t101 123h207q-42 -154 -173 -253t-305 -99q-212 0 -328.5 128.5t-116.5 341.5zM343 633h524q1 8 1 29 q0 99 -58 165.5t-172 66.5q-109 0 -187 -72.5t-108 -188.5zM424 1529h207l149 -305h-171z" />
<glyph unicode="&#xe9;" horiz-adv-x="1093" d="M108 448q0 174 67.5 317t190.5 227t277 84q200 0 317.5 -121t117.5 -327q0 -86 -11 -152h-749q-1 -12 -1 -35q0 -128 65.5 -203.5t175.5 -75.5q96 0 165 45t101 123h207q-42 -154 -173 -253t-305 -99q-212 0 -328.5 128.5t-116.5 341.5zM343 633h524q1 8 1 29 q0 99 -58 165.5t-172 66.5q-109 0 -187 -72.5t-108 -188.5zM603 1224l278 305h224l-315 -305h-187z" />
<glyph unicode="&#xea;" horiz-adv-x="1093" d="M108 448q0 174 67.5 317t190.5 227t277 84q200 0 317.5 -121t117.5 -327q0 -86 -11 -152h-749q-1 -12 -1 -35q0 -128 65.5 -203.5t175.5 -75.5q96 0 165 45t101 123h207q-42 -154 -173 -253t-305 -99q-212 0 -328.5 128.5t-116.5 341.5zM341 1220l335 308h166l204 -308 h-179l-123 189h-7l-205 -189h-191zM343 633h524q1 8 1 29q0 99 -58 165.5t-172 66.5q-109 0 -187 -72.5t-108 -188.5z" />
<glyph unicode="&#xeb;" horiz-adv-x="1093" d="M108 448q0 174 67.5 317t190.5 227t277 84q200 0 317.5 -121t117.5 -327q0 -86 -11 -152h-749q-1 -12 -1 -35q0 -128 65.5 -203.5t175.5 -75.5q96 0 165 45t101 123h207q-42 -154 -173 -253t-305 -99q-212 0 -328.5 128.5t-116.5 341.5zM343 633h524q1 8 1 29 q0 99 -58 165.5t-172 66.5q-109 0 -187 -72.5t-108 -188.5zM407 1342q0 49 34 83t83 34t83 -34t34 -83t-34 -83t-83 -34t-83 34t-34 83zM787 1342q0 49 34 83t83 34t83 -34t34 -83t-34 -83t-83 -34t-83 34t-34 83z" />
<glyph unicode="&#xec;" horiz-adv-x="449" d="M51 0l224 1055h215l-223 -1055h-216zM153 1529h207l149 -305h-171z" />
<glyph unicode="&#xed;" horiz-adv-x="449" d="M51 0l224 1055h215l-223 -1055h-216zM332 1224l278 305h224l-315 -305h-187z" />
<glyph unicode="&#xee;" horiz-adv-x="449" d="M51 0l224 1055h215l-223 -1055h-216zM70 1220l335 308h166l204 -308h-179l-123 189h-7l-205 -189h-191z" />
<glyph unicode="&#xef;" horiz-adv-x="449" d="M51 0l224 1055h215l-223 -1055h-216zM136 1342q0 49 34 83t83 34t83 -34t34 -83t-34 -83t-83 -34t-83 34t-34 83zM516 1342q0 49 34 83t83 34t83 -34t34 -83t-34 -83t-83 -34t-83 34t-34 83z" />
<glyph unicode="&#xf0;" horiz-adv-x="1152" d="M104 435q0 128 40 240t109 190t164 123t202 45q111 0 198.5 -50t124.5 -125l6 1q-8 161 -103 340l-329 -97l-12 137l266 79q-46 61 -129 147h237q47 -53 73 -89l230 71l14 -138l-174 -52q123 -242 123 -492q0 -164 -39 -306q-62 -223 -208.5 -351t-342.5 -128 q-204 0 -327 131t-123 324zM327 452q0 -123 64.5 -201t178.5 -78q85 0 164 58t127.5 154t48.5 202q0 115 -72 187.5t-187 72.5q-138 0 -231 -111t-93 -284z" />
<glyph unicode="&#xf1;" horiz-adv-x="1129" d="M41 0l224 1055h205l-35 -163h5q54 87 142 135.5t199 48.5q143 0 237 -87t94 -221q0 -57 -14 -129l-135 -639h-215l128 602q12 57 12 98q0 85 -57 135t-151 50q-106 0 -185.5 -69.5t-104.5 -185.5l-134 -630h-215zM427 1238q22 123 87.5 193.5t155.5 70.5q39 0 71.5 -15 t53.5 -36t39 -42t37.5 -36t39.5 -15q32 0 59 34.5t42 99.5h133q-25 -122 -90.5 -194t-150.5 -72q-37 0 -68.5 15t-52.5 36t-39.5 42t-39 36t-41.5 15q-35 0 -62.5 -34.5t-39.5 -97.5h-134z" />
<glyph unicode="&#xf2;" horiz-adv-x="1133" d="M108 447q0 176 72 320t199.5 226.5t284.5 82.5q206 0 329.5 -128t123.5 -340q0 -132 -42.5 -248t-116 -199.5t-176.5 -132t-220 -48.5q-206 0 -330 128t-124 339zM325 453q0 -129 65 -206.5t175 -77.5q145 0 240 124t95 309q0 129 -65 207t-175 78q-145 0 -240 -124 t-95 -310zM440 1529h207l149 -305h-171z" />
<glyph unicode="&#xf3;" horiz-adv-x="1133" d="M108 447q0 176 72 320t199.5 226.5t284.5 82.5q206 0 329.5 -128t123.5 -340q0 -132 -42.5 -248t-116 -199.5t-176.5 -132t-220 -48.5q-206 0 -330 128t-124 339zM325 453q0 -129 65 -206.5t175 -77.5q145 0 240 124t95 309q0 129 -65 207t-175 78q-145 0 -240 -124 t-95 -310zM619 1224l278 305h224l-315 -305h-187z" />
<glyph unicode="&#xf4;" horiz-adv-x="1133" d="M108 447q0 176 72 320t199.5 226.5t284.5 82.5q206 0 329.5 -128t123.5 -340q0 -132 -42.5 -248t-116 -199.5t-176.5 -132t-220 -48.5q-206 0 -330 128t-124 339zM325 453q0 -129 65 -206.5t175 -77.5q145 0 240 124t95 309q0 129 -65 207t-175 78q-145 0 -240 -124 t-95 -310zM357 1220l335 308h166l204 -308h-179l-123 189h-7l-205 -189h-191z" />
<glyph unicode="&#xf5;" horiz-adv-x="1133" d="M108 447q0 176 72 320t199.5 226.5t284.5 82.5q206 0 329.5 -128t123.5 -340q0 -132 -42.5 -248t-116 -199.5t-176.5 -132t-220 -48.5q-206 0 -330 128t-124 339zM325 453q0 -129 65 -206.5t175 -77.5q145 0 240 124t95 309q0 129 -65 207t-175 78q-145 0 -240 -124 t-95 -310zM376 1238q22 123 87.5 193.5t155.5 70.5q39 0 71.5 -15t53.5 -36t39 -42t37.5 -36t39.5 -15q32 0 59 34.5t42 99.5h133q-25 -122 -90.5 -194t-150.5 -72q-37 0 -68.5 15t-52.5 36t-39.5 42t-39 36t-41.5 15q-35 0 -62.5 -34.5t-39.5 -97.5h-134z" />
<glyph unicode="&#xf6;" horiz-adv-x="1133" d="M108 447q0 176 72 320t199.5 226.5t284.5 82.5q206 0 329.5 -128t123.5 -340q0 -132 -42.5 -248t-116 -199.5t-176.5 -132t-220 -48.5q-206 0 -330 128t-124 339zM325 453q0 -129 65 -206.5t175 -77.5q145 0 240 124t95 309q0 129 -65 207t-175 78q-145 0 -240 -124 t-95 -310zM423 1342q0 49 34 83t83 34t83 -34t34 -83t-34 -83t-83 -34t-83 34t-34 83zM803 1342q0 49 34 83t83 34t83 -34t34 -83t-34 -83t-83 -34t-83 34t-34 83z" />
<glyph unicode="&#xf7;" d="M153 484l37 181h1040l-37 -181h-1040zM468 202q0 62 39.5 101.5t100.5 39.5t100.5 -39.5t39.5 -101.5t-39.5 -101.5t-100.5 -39.5t-100.5 39.5t-39.5 101.5zM624 947q0 62 40 101.5t100 39.5t100 -39.5t40 -101.5t-40 -101.5t-100 -39.5t-100 39.5t-40 101.5z" />
<glyph unicode="&#xf8;" horiz-adv-x="1133" d="M56 65l118 119q-66 111 -66 263q0 176 72 320t199.5 226.5t284.5 82.5q179 0 299 -100l111 112l95 -97l-118 -119q66 -111 66 -264q0 -132 -42.5 -248t-116 -199.5t-176.5 -132t-220 -48.5q-180 0 -300 100l-111 -112zM322 451q0 -55 13 -105l485 487q-65 60 -159 60 q-147 0 -243 -126t-96 -316zM405 223q65 -60 159 -60q146 0 242.5 126t96.5 315q0 54 -13 106z" />
<glyph unicode="&#xf9;" horiz-adv-x="1128" d="M112 278q0 74 15 146l132 631h215l-127 -597q-12 -57 -12 -103q0 -181 197 -181q113 0 194 70.5t106 185.5l133 625h214l-223 -1055h-205l33 154h-4q-42 -72 -136 -123t-208 -51q-148 0 -236 84t-88 214zM484 1529h207l149 -305h-171z" />
<glyph unicode="&#xfa;" horiz-adv-x="1128" d="M112 278q0 74 15 146l132 631h215l-127 -597q-12 -57 -12 -103q0 -181 197 -181q113 0 194 70.5t106 185.5l133 625h214l-223 -1055h-205l33 154h-4q-42 -72 -136 -123t-208 -51q-148 0 -236 84t-88 214zM663 1224l278 305h224l-315 -305h-187z" />
<glyph unicode="&#xfb;" horiz-adv-x="1128" d="M112 278q0 74 15 146l132 631h215l-127 -597q-12 -57 -12 -103q0 -181 197 -181q113 0 194 70.5t106 185.5l133 625h214l-223 -1055h-205l33 154h-4q-42 -72 -136 -123t-208 -51q-148 0 -236 84t-88 214zM401 1220l335 308h166l204 -308h-179l-123 189h-7l-205 -189h-191 z" />
<glyph unicode="&#xfc;" horiz-adv-x="1128" d="M112 278q0 74 15 146l132 631h215l-127 -597q-12 -57 -12 -103q0 -181 197 -181q113 0 194 70.5t106 185.5l133 625h214l-223 -1055h-205l33 154h-4q-42 -72 -136 -123t-208 -51q-148 0 -236 84t-88 214zM467 1342q0 49 34 83t83 34t83 -34t34 -83t-34 -83t-83 -34 t-83 34t-34 83zM847 1342q0 49 34 83t83 34t83 -34t34 -83t-34 -83t-83 -34t-83 34t-34 83z" />
<glyph unicode="&#xfd;" horiz-adv-x="1017" d="M-27 -372l33 183q31 -12 96 -12q129 0 202 153q0 1 14 29l13 28l-159 1046h214l102 -838h4l435 838h233l-635 -1137q-92 -170 -190.5 -236.5t-237.5 -66.5q-81 0 -124 13zM604 1224l278 305h224l-315 -305h-187z" />
<glyph unicode="&#xfe;" horiz-adv-x="1172" d="M-28 -341l381 1792h214l-122 -561h6q49 83 136 133t187 50q176 0 278.5 -120t102.5 -322q0 -184 -68.5 -332.5t-188 -232.5t-266.5 -84q-118 0 -205.5 62.5t-117.5 162.5h-7l-117 -548h-213zM364 441q0 -119 67.5 -193t179.5 -74q141 0 235.5 123t94.5 308 q0 131 -62.5 205.5t-172.5 74.5q-101 0 -180.5 -62.5t-120.5 -163t-41 -218.5z" />
<glyph unicode="&#xff;" horiz-adv-x="1017" d="M-27 -372l33 183q31 -12 96 -12q129 0 202 153q0 1 14 29l13 28l-159 1046h214l102 -838h4l435 838h233l-635 -1137q-92 -170 -190.5 -236.5t-237.5 -66.5q-81 0 -124 13zM408 1342q0 49 34 83t83 34t83 -34t34 -83t-34 -83t-83 -34t-83 34t-34 83zM788 1342q0 49 34 83 t83 34t83 -34t34 -83t-34 -83t-83 -34t-83 34t-34 83z" />
<glyph unicode="&#x152;" horiz-adv-x="2244" d="M170 603q0 178 57.5 337t157 275t241.5 183.5t304 67.5q170 0 297.5 -72t200.5 -208h4l55 257h898l-42 -204h-690l-91 -408h654l-39 -194h-654l-96 -433h692l-41 -204h-898l34 159h-4q-86 -89 -201.5 -135.5t-244.5 -46.5q-268 0 -431 171.5t-163 454.5zM399 613 q0 -196 104 -313t279 -117q152 0 274 87.5t188.5 235t66.5 325.5q0 196 -104 312.5t-280 116.5q-152 0 -273.5 -87.5t-188 -235t-66.5 -324.5z" />
<glyph unicode="&#x153;" horiz-adv-x="1874" d="M108 447q0 175 72 319t199.5 227t282.5 83q266 0 376 -208h6q59 92 166.5 150t227.5 58q193 0 307.5 -122t114.5 -326q0 -84 -11 -152h-748v-30q0 -130 65.5 -207t178.5 -77q95 0 162.5 43.5t98.5 124.5h206q-41 -156 -172.5 -253t-303.5 -97q-127 0 -224 56t-142 153h-7 q-62 -99 -169 -154t-233 -55q-207 0 -330 127t-123 340zM326 451q0 -130 64 -207t173 -77q144 0 239.5 125.5t95.5 311.5q0 130 -64 207t-173 77q-144 0 -239.5 -125.5t-95.5 -311.5zM1125 633h524q2 14 2 29q0 105 -60 168.5t-157 63.5q-114 0 -194.5 -70t-114.5 -191z" />
<glyph unicode="&#x178;" horiz-adv-x="1287" d="M265 1443h235l242 -640h4l507 640h253l-692 -874l-120 -569h-228l125 588zM632 1721q0 49 34 83t83 34t83 -34t34 -83t-34 -83t-83 -34t-83 34t-34 83zM1012 1721q0 49 34 83t83 34t83 -34t34 -83t-34 -83t-83 -34t-83 34t-34 83z" />
<glyph unicode="&#x2c6;" horiz-adv-x="1086" d="M383 1220l335 308h166l204 -308h-179l-123 189h-7l-205 -189h-191z" />
<glyph unicode="&#x2dc;" horiz-adv-x="1086" d="M407 1238q22 123 87.5 193.5t155.5 70.5q39 0 71.5 -15t53.5 -36t39 -42t37.5 -36t39.5 -15q32 0 59 34.5t42 99.5h133q-25 -122 -90.5 -194t-150.5 -72q-37 0 -68.5 15t-52.5 36t-39.5 42t-39 36t-41.5 15q-35 0 -62.5 -34.5t-39.5 -97.5h-134z" />
<glyph unicode="&#x2000;" horiz-adv-x="981" />
<glyph unicode="&#x2001;" horiz-adv-x="1963" />
<glyph unicode="&#x2002;" horiz-adv-x="981" />
<glyph unicode="&#x2003;" horiz-adv-x="1963" />
<glyph unicode="&#x2004;" horiz-adv-x="654" />
<glyph unicode="&#x2005;" horiz-adv-x="490" />
<glyph unicode="&#x2006;" horiz-adv-x="327" />
<glyph unicode="&#x2007;" horiz-adv-x="327" />
<glyph unicode="&#x2008;" horiz-adv-x="245" />
<glyph unicode="&#x2009;" horiz-adv-x="392" />
<glyph unicode="&#x200a;" horiz-adv-x="109" />
<glyph unicode="&#x2010;" horiz-adv-x="830" d="M125 471l41 199h650l-41 -199h-650z" />
<glyph unicode="&#x2011;" horiz-adv-x="830" d="M125 471l41 199h650l-41 -199h-650z" />
<glyph unicode="&#x2012;" horiz-adv-x="830" d="M125 471l41 199h650l-41 -199h-650z" />
<glyph unicode="&#x2013;" horiz-adv-x="1024" d="M35 471l41 199h1024l-41 -199h-1024z" />
<glyph unicode="&#x2014;" horiz-adv-x="2048" d="M35 471l41 199h2048l-41 -199h-2048z" />
<glyph unicode="&#x2018;" horiz-adv-x="558" d="M252 908l252 535h172l-205 -535h-219z" />
<glyph unicode="&#x2019;" horiz-adv-x="558" d="M254 908l202 535h218l-248 -535h-172z" />
<glyph unicode="&#x201a;" horiz-adv-x="558" d="M1 -301l201 535h218l-248 -535h-171z" />
<glyph unicode="&#x201c;" horiz-adv-x="975" d="M257 908l252 535h172l-205 -535h-219zM668 908l248 535h172l-201 -535h-219z" />
<glyph unicode="&#x201d;" horiz-adv-x="975" d="M257 908l202 535h218l-248 -535h-172zM665 908l205 535h218l-252 -535h-171z" />
<glyph unicode="&#x201e;" horiz-adv-x="975" d="M0 -301l201 535h218l-248 -535h-171zM411 -301l201 535h218l-248 -535h-171z" />
<glyph unicode="&#x2022;" horiz-adv-x="986" d="M224 562q0 138 94 234t229 96t229 -96t94 -234q0 -137 -94 -233t-229 -96t-229 96t-94 233z" />
<glyph unicode="&#x2026;" horiz-adv-x="1548" d="M99 126q0 57 38 96.5t93 39.5t93 -39.5t38 -96.5q0 -58 -38 -97.5t-93 -39.5t-93 39.5t-38 97.5zM603 126q0 57 38 96.5t93 39.5t93 -39.5t38 -96.5q0 -58 -38 -97.5t-93 -39.5t-93 39.5t-38 97.5zM1107 126q0 57 38 96.5t93 39.5t93 -39.5t38 -96.5q0 -58 -38 -97.5 t-93 -39.5t-93 39.5t-38 97.5z" />
<glyph unicode="&#x202f;" horiz-adv-x="392" />
<glyph unicode="&#x2039;" horiz-adv-x="838" d="M181 559l3 18l408 406h237l-425 -421v-11l263 -403h-216z" />
<glyph unicode="&#x203a;" horiz-adv-x="838" d="M119 148l424 421l1 11l-264 403h217l269 -411l-3 -18l-407 -406h-237z" />
<glyph unicode="&#x205f;" horiz-adv-x="490" />
<glyph unicode="&#x20ac;" d="M111 488l31 147h178q0 81 13 169h-152l31 146h156q81 243 282 380.5t489 137.5q83 0 163 -14.5t122 -33.5l-43 -204q-38 16 -107.5 29t-138.5 13q-184 0 -317.5 -80.5t-200.5 -227.5h501l-31 -146h-516q-15 -75 -15 -160v-9h492l-31 -147h-435q50 -141 190.5 -219.5 t347.5 -78.5q32 0 52 5l-42 -206q-18 -5 -61 -5q-283 0 -482.5 137t-250.5 367h-225z" />
<glyph unicode="&#x2122;" horiz-adv-x="1815" d="M303 1310l31 133h648l-30 -133h-246l-145 -604h-157l144 604h-245zM902 706l171 737h176l101 -525h4l344 525h193l-172 -737h-138l121 512h-7l-332 -504h-103l-95 504h-5l-120 -512h-138z" />
<glyph unicode="&#x25fc;" horiz-adv-x="1055" d="M0 0v1055h1055v-1055h-1055z" />
<glyph unicode="&#xfb01;" horiz-adv-x="1095" d="M112 0l183 872h-172l37 179h169l21 109q30 155 122 227t259 72q63 0 142 -15l-33 -169q-40 10 -94 10q-156 0 -185 -144l-17 -90h235l-36 -179h-233l-183 -872h-215zM701 0l223 1055h216l-223 -1055h-216zM965 1333q0 54 36.5 91.5t89.5 37.5t89.5 -37.5t36.5 -91.5 t-36.5 -91.5t-89.5 -37.5t-89.5 37.5t-36.5 91.5z" />
<glyph unicode="&#xfb02;" horiz-adv-x="1105" d="M112 0l183 872h-172l37 179h169l21 109q30 155 122 227t259 72q63 0 142 -15l-33 -169q-40 10 -94 10q-156 0 -185 -144l-17 -90h235l-36 -179h-233l-183 -872h-215zM705 0l307 1443h216l-307 -1443h-216z" />
</font>
</defs>
</svg>
