<?xml version="1.0" standalone="no"?>
<!DOCTYPE svg PUBLIC "-//W3C//DTD SVG 1.1//EN" "http://www.w3.org/Graphics/SVG/1.1/DTD/svg11.dtd" >
<svg xmlns="http://www.w3.org/2000/svg" xmlns:xlink="http://www.w3.org/1999/xlink" version="1.1">
<metadata></metadata>
<defs>
<font id="sf_pro_displayblack_italic" horiz-adv-x="1413" >
<font-face units-per-em="2048" ascent="1638" descent="-410" />
<missing-glyph horiz-adv-x="412" />
<glyph horiz-adv-x="0" />
<glyph unicode="&#xd;" horiz-adv-x="0" />
<glyph unicode=" "  horiz-adv-x="412" />
<glyph unicode="&#x09;" horiz-adv-x="412" />
<glyph unicode="&#xa0;" horiz-adv-x="412" />
<glyph unicode="!" horiz-adv-x="755" d="M108 160q0 83 62 141t151 58q87 0 149.5 -58t62.5 -141q0 -84 -62.5 -142t-149.5 -58q-89 0 -151 58t-62 142zM222 471l171 972h420l-243 -972h-348z" />
<glyph unicode="&#x22;" horiz-adv-x="1023" d="M167 826l131 617h340l-131 -617h-340zM687 826l131 617h340l-131 -617h-340z" />
<glyph unicode="#" horiz-adv-x="1377" d="M19 357l90 287h217l57 177h-214l89 284h216l110 339h299l-109 -339h191l109 339h301l-109 -339h223l-88 -284h-227l-56 -177h221l-89 -287h-224l-115 -357h-301l116 357h-191l-116 -357h-299l115 357h-216zM588 610h244l81 244h-246z" />
<glyph unicode="$" d="M111 439h386q5 -87 110 -122l53 249l-71 19q-171 47 -265 154t-94 243q0 206 158.5 330.5t416.5 124.5q27 0 40 -1l30 143h147l-34 -161q178 -39 283 -150.5t108 -267.5h-373q-1 37 -23 67.5t-59 49.5l-52 -246l79 -21q187 -50 273.5 -143.5t86.5 -232.5 q0 -218 -163.5 -343t-444.5 -125h-15l-30 -140h-147l32 152q-203 32 -316.5 142t-115.5 279zM635 1022q0 -67 98 -110l49 231q-68 -6 -107.5 -38t-39.5 -83zM750 301q74 6 117.5 39.5t43.5 85.5q0 32 -24 55t-89 45z" />
<glyph unicode="%" horiz-adv-x="1863" d="M161 0l727 773l631 670h310l-707 -751l-651 -692h-310zM172 1022q0 199 113 325.5t289 126.5q164 0 254 -84t90 -238q0 -197 -115.5 -326t-291.5 -129q-161 0 -250 85t-89 240zM480 993q0 -72 31 -72q35 0 67 83t32 175q0 71 -36 71q-34 0 -64 -81.5t-30 -175.5z M1073 299q0 199 113 325.5t289 126.5q164 0 254 -84t90 -238q0 -197 -115.5 -326t-291.5 -129q-161 0 -250 85t-89 240zM1381 270q0 -72 31 -72q35 0 67 83t32 175q0 71 -36 71q-34 0 -64 -81.5t-30 -175.5z" />
<glyph unicode="&#x26;" horiz-adv-x="1526" d="M50 360q0 276 340 413l82 33q-116 163 -116 299q0 151 130.5 251t327.5 100q193 0 322 -91.5t129 -228.5q0 -264 -363 -419l145 -216q82 128 90 246l1 15h321l-2 -19q-28 -270 -241 -491l170 -252h-394l-40 60q-179 -88 -367 -88q-234 0 -384.5 109t-150.5 279zM416 396 q0 -68 58.5 -110.5t150.5 -42.5q90 0 180 41l-201 305q-21 -7 -37 -13q-151 -60 -151 -180zM687 1066q0 -62 78 -159q92 38 132 83.5t40 109.5q0 47 -31.5 76.5t-81.5 29.5q-57 0 -97 -41t-40 -99z" />
<glyph unicode="'" horiz-adv-x="502" d="M167 826l131 617h340l-131 -617h-340z" />
<glyph unicode="(" horiz-adv-x="810" d="M128 351q0 311 118 597t333 495h423q-99 -97 -180.5 -216t-145.5 -264.5t-99 -321.5t-33 -365q3 -378 84 -589h-371q-59 118 -94 300t-35 364z" />
<glyph unicode=")" horiz-adv-x="810" d="M-132 -313q99 97 180.5 216t145.5 264.5t99 321.5t33 365q-3 378 -84 589h371q61 -116 95 -296.5t34 -367.5q0 -311 -118 -597t-333 -495h-423z" />
<glyph unicode="*" horiz-adv-x="966" d="M196 1044l276 77l-236 130l145 189l186 -189l10 276l242 -25l-85 -263l243 142l83 -218l-280 -80l239 -128l-144 -187l-194 198l-9 -284l-239 25l88 265l-243 -143z" />
<glyph unicode="+" d="M133 414l74 348h378l88 416h370l-88 -416h394l-74 -348h-394l-88 -416h-370l88 416h-378z" />
<glyph unicode="," horiz-adv-x="615" d="M-73 -344l184 617h370l-262 -617h-292z" />
<glyph unicode="-" horiz-adv-x="830" d="M90 422l74 348h650l-74 -348h-650z" />
<glyph unicode="." horiz-adv-x="618" d="M53 194q0 86 61 147t147 61t147 -61t61 -147t-61 -147t-147 -61t-147 61t-61 147z" />
<glyph unicode="/" horiz-adv-x="810" d="M-156 -313l783 1756h400l-783 -1756h-400z" />
<glyph unicode="0" horiz-adv-x="1452" d="M132 558q0 262 95.5 469.5t266.5 324t386 116.5q256 0 412 -159.5t156 -419.5q0 -157 -36 -298t-103.5 -253t-159.5 -193.5t-208.5 -125.5t-245.5 -44q-253 0 -408 160.5t-155 422.5zM560 568q0 -270 152 -270q79 0 150.5 80.5t114.5 215t43 284.5q0 267 -156 267 q-79 0 -149.5 -80t-112.5 -213.5t-42 -283.5z" />
<glyph unicode="1" horiz-adv-x="1066" d="M178 836l77 365l414 242h424l-307 -1443h-424l228 1071h-8z" />
<glyph unicode="2" horiz-adv-x="1312" d="M15 0l64 291l498 364q220 161 285.5 229t65.5 136q0 57 -43 93t-110 36q-81 0 -136.5 -45.5t-71.5 -129.5h-382q14 214 189.5 354t430.5 140q234 0 385 -116t151 -296q0 -95 -39.5 -170.5t-138.5 -165.5t-300 -235l-218 -157l-1 -8h566l-68 -320h-1127z" />
<glyph unicode="3" horiz-adv-x="1367" d="M81 411q0 41 8 82h388q-17 -79 41.5 -137.5t156.5 -58.5q84 0 138 44.5t54 113.5q0 63 -49.5 99.5t-134.5 36.5h-156l60 293h168q102 0 159 36.5t57 102.5q0 57 -48 91.5t-128 34.5q-71 0 -122 -30t-68 -82h-381q41 199 204 315t402 116q238 0 389.5 -109.5t151.5 -281.5 q0 -136 -96.5 -235t-247.5 -118l-1 -8q117 -29 183 -107t66 -189q0 -193 -171 -319t-434 -126q-269 0 -429 119t-160 317z" />
<glyph unicode="4" horiz-adv-x="1423" d="M26 214l72 367q245 338 700 862h605l-193 -905h172l-69 -324h-172l-45 -214h-400l45 214h-715zM451 522h368l134 630h-8q-273 -308 -493 -622z" />
<glyph unicode="5" horiz-adv-x="1368" d="M116 425q0 15 2 46h380q5 -79 63.5 -127.5t147.5 -48.5q93 0 157.5 64.5t64.5 157.5q0 87 -52 138.5t-139 51.5q-49 0 -101.5 -25.5t-81.5 -63.5h-377l241 825h1001l-71 -321h-666l-87 -262h8q122 117 313 117q172 0 287 -119t115 -298q0 -168 -81 -302t-226.5 -208.5 t-328.5 -74.5q-163 0 -293 57.5t-203 160.5t-73 232z" />
<glyph unicode="6" horiz-adv-x="1435" d="M141 587q0 251 96.5 452.5t267 315t383.5 113.5q241 0 397 -125.5t156 -318.5h-403q-12 58 -56 90t-111 32q-114 0 -200.5 -104t-107.5 -266h8q59 81 149.5 124t202.5 43q188 0 308.5 -120.5t120.5 -307.5q0 -150 -79.5 -274t-218.5 -195t-307 -71q-287 0 -446.5 161.5 t-159.5 450.5zM548 468q0 -76 55 -126t139 -50q90 0 149 55.5t59 140.5q0 77 -54 127t-137 50q-91 0 -151 -56t-60 -141z" />
<glyph unicode="7" horiz-adv-x="1220" d="M46 0l817 1115v8h-664l68 320h1110l-68 -319l-803 -1124h-460z" />
<glyph unicode="8" horiz-adv-x="1430" d="M74 388q0 154 111.5 262.5t302.5 141.5l2 7q-97 31 -154 103.5t-57 164.5q0 173 167.5 287t422.5 114q156 0 285.5 -51t203.5 -139.5t74 -195.5q0 -137 -94 -232t-250 -115l-1 -9q121 -36 188.5 -121t67.5 -201q0 -123 -83.5 -221t-233.5 -153t-339 -55 q-271 0 -442 115.5t-171 297.5zM520 425q0 -70 51.5 -114t133.5 -44q89 0 148.5 51.5t59.5 128.5q0 70 -52 114.5t-135 44.5q-88 0 -147 -52t-59 -129zM679 1018q0 -61 44 -100.5t111 -39.5q73 0 127 48.5t54 114.5q0 61 -44.5 101.5t-111.5 40.5q-74 0 -127 -49t-53 -116z " />
<glyph unicode="9" horiz-adv-x="1435" d="M117 399h405q5 -46 54.5 -74.5t121.5 -28.5q123 0 212.5 104t100.5 261h-7q-118 -167 -348 -167q-192 0 -319 122t-127 307q0 155 78.5 279.5t218.5 195t314 70.5q280 0 434 -168t154 -474q0 -247 -90 -441t-251.5 -302t-367.5 -108q-157 0 -289 55.5t-210.5 153 t-83.5 215.5zM615 948q0 -78 52.5 -127.5t135.5 -49.5q92 0 150 52t58 135q0 79 -54 132.5t-134 53.5q-90 0 -149 -55.5t-59 -140.5z" />
<glyph unicode=":" horiz-adv-x="618" d="M53 194q0 86 61 147t147 61t147 -61t61 -147t-61 -147t-147 -61t-147 61t-61 147zM200 887q0 86 61 147t147 61t147 -61t61 -147t-61 -147t-147 -61t-147 61t-61 147z" />
<glyph unicode=";" horiz-adv-x="618" d="M-73 -344l184 617h370l-262 -617h-292zM200 887q0 86 61 147t147 61t147 -61t61 -147t-61 -147t-147 -61t-147 61t-61 147z" />
<glyph unicode="&#x3c;" d="M194 432l66 310l1131 485l-86 -403l-656 -239l-4 -20l554 -239l-80 -379z" />
<glyph unicode="=" d="M76 137l74 349h1138l-74 -349h-1138zM194 690l74 349h1138l-74 -349h-1138z" />
<glyph unicode="&#x3e;" d="M91 -53l86 403l656 239l4 20l-554 239l80 379l925 -485l-66 -310z" />
<glyph unicode="?" horiz-adv-x="1166" d="M183 1023q17 189 165 311t372 122q237 0 379.5 -105.5t142.5 -278.5q0 -128 -69 -231.5t-209 -164.5q-118 -51 -163.5 -90t-59.5 -103l-6 -28h-362l6 47q18 140 69 213.5t166 123.5q127 55 173.5 100t46.5 104q0 48 -36 76.5t-95 28.5q-53 0 -94.5 -34.5t-53.5 -90.5 h-372zM246 160q0 83 62 141t151 58q87 0 149.5 -58t62.5 -141q0 -84 -62.5 -142t-149.5 -58q-89 0 -151 58t-62 142z" />
<glyph unicode="@" horiz-adv-x="1851" d="M129 535q0 191 72 360.5t196.5 290.5t298 191.5t369.5 70.5q167 0 307.5 -50.5t238.5 -141t153 -220t55 -282.5q0 -171 -62 -309t-171.5 -216.5t-245.5 -78.5q-118 0 -191.5 42.5t-73.5 113.5q0 6 0.5 17.5t0.5 15.5l-20 -6q-44 -77 -99 -111.5t-129 -34.5 q-130 0 -208.5 97t-78.5 257q0 130 51.5 239.5t141 173t194.5 63.5q88 0 148.5 -42.5t77.5 -115.5l20 -3l25 127h256l-111 -520q-5 -22 -5 -44q0 -34 17.5 -53.5t47.5 -19.5q48 0 91.5 56t69.5 149t26 196q0 228 -148 368t-389 140q-195 0 -356 -93.5t-253.5 -257 t-92.5 -360.5q0 -270 179 -426.5t488 -155.5q61 0 91 7l-41 -194q-56 -7 -117 -7q-246 0 -432.5 95t-288.5 269t-102 403zM832 548q0 -65 29.5 -103t79.5 -38q63 0 105.5 67t42.5 166q0 66 -26.5 102.5t-74.5 36.5q-64 0 -110 -68.5t-46 -162.5z" />
<glyph unicode="A" horiz-adv-x="1494" d="M-80 0l794 1443h532l148 -1443h-435l-13 287h-438l-141 -287h-447zM655 586h278l-22 503h-9z" />
<glyph unicode="B" horiz-adv-x="1387" d="M18 0l307 1443h669q207 0 318 -86t111 -221q0 -143 -94 -245t-246 -130l-1 -8q118 -27 193 -105.5t75 -187.5q0 -201 -153 -330.5t-389 -129.5h-790zM494 291h206q105 0 166.5 53t61.5 143q0 64 -46 100.5t-132 36.5h-186zM620 887h180q90 0 145.5 48.5t55.5 123.5 q0 55 -40 88t-115 33h-164z" />
<glyph unicode="C" horiz-adv-x="1540" d="M125 580q0 406 229 647t614 241q262 0 431.5 -153t169.5 -389q0 -37 -5 -64h-411q1 6 1 40q0 95 -66.5 160t-163.5 65q-159 0 -260.5 -146t-101.5 -375q0 -133 62 -209.5t170 -76.5q105 0 184 62.5t111 169.5h411q-25 -171 -125 -302t-259 -203t-352 -72 q-290 0 -464.5 165t-174.5 440z" />
<glyph unicode="D" horiz-adv-x="1492" d="M18 0l307 1443h600q256 0 414.5 -147.5t158.5 -403.5q0 -258 -94 -460.5t-268 -317t-399 -114.5h-719zM518 336h158q172 0 279 135t107 367q0 122 -63.5 196t-174.5 74h-143z" />
<glyph unicode="E" horiz-adv-x="1208" d="M18 0l307 1443h1017l-72 -336h-593l-49 -234h556l-65 -304h-556l-50 -233h594l-71 -336h-1018z" />
<glyph unicode="F" horiz-adv-x="1169" d="M18 0l307 1443h1013l-72 -336h-571l-59 -278h516l-69 -318h-515l-108 -511h-442z" />
<glyph unicode="G" horiz-adv-x="1539" d="M126 596q0 188 60.5 350t167 277t259 180t329.5 65q135 0 253.5 -40t199 -106.5t127 -154t46.5 -181.5q0 -16 -2 -32h-406q-6 78 -69.5 129t-160.5 51q-107 0 -192.5 -67.5t-133 -186.5t-47.5 -266q0 -143 68.5 -224t195.5 -81q96 0 169 56.5t95 142.5h-233l60 282h632 l-26 -154q-54 -321 -247 -491t-500 -170q-290 0 -467.5 170t-177.5 451z" />
<glyph unicode="H" horiz-adv-x="1572" d="M18 0l307 1443h434l-118 -551h488l118 551h434l-307 -1443h-434l120 562h-488l-120 -562h-434z" />
<glyph unicode="I" horiz-adv-x="640" d="M18 0l307 1443h424l-307 -1443h-424z" />
<glyph unicode="J" horiz-adv-x="1260" d="M38 434q0 40 3 71h404v-21q0 -69 36 -109t101 -40q125 0 160 160l202 948h424l-212 -996q-49 -231 -196 -351.5t-381 -120.5q-247 0 -394 125t-147 334z" />
<glyph unicode="K" horiz-adv-x="1457" d="M18 0l307 1443h424l-126 -590h8l561 590h480l-644 -675l322 -768h-464l-212 530l-154 -162l-78 -368h-424z" />
<glyph unicode="L" horiz-adv-x="1154" d="M18 0l307 1443h424l-233 -1097h587l-74 -346h-1011z" />
<glyph unicode="M" horiz-adv-x="1850" d="M19 0l306 1443h491l119 -905h8l487 905h529l-307 -1443h-375l195 908h-12l-502 -908h-244l-120 908h-8l-193 -908h-374z" />
<glyph unicode="N" horiz-adv-x="1509" d="M18 0l307 1443h320l393 -792h8l167 792h405l-307 -1443h-320l-393 792h-8l-167 -792h-405z" />
<glyph unicode="O" horiz-adv-x="1586" d="M126 589q0 194 62.5 359.5t170.5 279t254.5 177t311.5 63.5q155 0 281 -47t209 -129.5t127.5 -194.5t44.5 -243q0 -195 -63.5 -361t-172 -278.5t-255.5 -176t-312 -63.5q-151 0 -276 46.5t-208 129t-128.5 195t-45.5 243.5zM556 615q0 -137 65.5 -219.5t175.5 -82.5 q146 0 253 151.5t107 364.5q0 138 -66 219.5t-176 81.5q-96 0 -178.5 -69t-131.5 -188t-49 -258z" />
<glyph unicode="P" horiz-adv-x="1357" d="M20 0l305 1443h547q252 0 392 -122t140 -327q0 -276 -181 -438t-491 -162h-205l-84 -394h-423zM592 708h143q109 0 176.5 70.5t67.5 177.5q0 167 -187 167h-111z" />
<glyph unicode="Q" horiz-adv-x="1586" d="M126 589q0 194 62.5 359.5t170.5 279t254.5 177t311.5 63.5q155 0 281 -47t209 -129.5t127.5 -194.5t44.5 -243q0 -220 -80 -399.5t-231 -308.5l111 -269h-378l-47 118q-88 -20 -178 -20q-151 0 -276 46.5t-208 129t-128.5 195t-45.5 243.5zM556 615q0 -137 65.5 -219.5 t175.5 -82.5q12 0 40 4l-86 215h341q65 132 65 297q0 138 -66 219.5t-176 81.5q-96 0 -178.5 -69t-131.5 -188t-49 -258z" />
<glyph unicode="R" horiz-adv-x="1394" d="M18 0l307 1443h649q223 0 350 -120.5t127 -310.5q0 -158 -89 -291.5t-250 -196.5l160 -524h-442l-136 484h-149l-103 -484h-424zM606 774h189q105 0 168 56.5t63 146.5q0 153 -181 153h-162z" />
<glyph unicode="S" horiz-adv-x="1384" d="M62 425h401q9 -59 73 -97.5t153 -38.5q92 0 146 33.5t54 87.5q0 42 -32.5 69t-130.5 57l-151 46q-369 112 -369 400q0 218 169.5 352t434.5 134q280 0 440 -121t161 -335h-387q-2 65 -58 104t-146 39q-82 0 -132.5 -33t-50.5 -85q0 -45 35.5 -76t120.5 -56l158 -46 q197 -57 284 -147t87 -244q0 -226 -176.5 -359.5t-464.5 -133.5q-292 0 -455 118.5t-164 331.5z" />
<glyph unicode="T" horiz-adv-x="1306" d="M185 1107l72 336h1226l-72 -336h-401l-235 -1107h-424l235 1107h-401z" />
<glyph unicode="U" horiz-adv-x="1501" d="M130 463q0 62 13 123l182 857h424l-181 -853q-9 -42 -9 -77q0 -84 58.5 -132.5t145.5 -48.5q186 0 232 214l189 897h424l-209 -991q-47 -222 -225 -349.5t-429 -127.5q-283 0 -449 134.5t-166 353.5z" />
<glyph unicode="V" horiz-adv-x="1445" d="M227 1443h473l19 -1016h8l444 1016h481l-745 -1443h-532z" />
<glyph unicode="W" horiz-adv-x="2014" d="M233 1443h436l-24 -899h8l406 899h328l34 -899h8l350 899h436l-678 -1443h-396l-46 821h-8l-387 -821h-401z" />
<glyph unicode="X" horiz-adv-x="1476" d="M-64 0l609 727l-304 716h454l169 -413h8l307 413h490l-614 -724l306 -719h-453l-173 420h-8l-313 -420h-478z" />
<glyph unicode="Y" horiz-adv-x="1430" d="M227 1443h439l133 -585h8l371 585h459l-702 -986l-97 -457h-424l97 457z" />
<glyph unicode="Z" horiz-adv-x="1281" d="M-18 0l57 266l772 833v8h-589l72 336h1108l-57 -265l-773 -834v-8h618l-71 -336h-1137z" />
<glyph unicode="[" horiz-adv-x="810" d="M-17 -313l374 1756h659l-63 -294h-266l-249 -1168h266l-62 -294h-659z" />
<glyph unicode="\" horiz-adv-x="810" d="M217 1443h385l51 -1756h-385z" />
<glyph unicode="]" horiz-adv-x="810" d="M-147 -313l63 294h267l249 1168h-267l62 294h660l-374 -1756h-660z" />
<glyph unicode="^" horiz-adv-x="1082" d="M-56 806l461 596h329l202 -596h-332l-79 289h-18l-212 -289h-351z" />
<glyph unicode="_" horiz-adv-x="1024" d="M-235 -448l74 348h1124l-74 -348h-1124z" />
<glyph unicode="`" horiz-adv-x="1048" d="M483 1596h347l164 -321h-314z" />
<glyph unicode="a" horiz-adv-x="1182" d="M24 283q0 172 135.5 273.5t371.5 106.5l241 5l13 64q4 23 4 31q0 38 -37 61.5t-97 23.5q-56 0 -95 -22.5t-54 -65.5h-357q33 172 177 272t357 100q220 0 356 -93t136 -244q0 -49 -9 -89l-150 -706h-385l28 130h-8q-41 -67 -122.5 -106.5t-183.5 -39.5q-138 0 -229.5 85 t-91.5 214zM405 342q0 -40 34.5 -65t90.5 -25q65 0 117 37.5t64 93.5l15 71l-171 -4q-68 -2 -109 -31.5t-41 -76.5z" />
<glyph unicode="b" horiz-adv-x="1324" d="M0 0l308 1443h397l-108 -496h10q51 82 138.5 127.5t194.5 45.5q170 0 268 -112t98 -306q0 -202 -70 -366.5t-193.5 -258t-274.5 -93.5q-121 0 -210.5 57.5t-121.5 155.5h-8l-42 -197h-386zM505 481q0 -84 42 -134.5t112 -50.5q98 0 167.5 99t69.5 240q0 84 -42 134.5 t-112 50.5q-95 0 -166 -101.5t-71 -237.5z" />
<glyph unicode="c" horiz-adv-x="1200" d="M80 446q0 318 168 502t458 184q214 0 355.5 -117t141.5 -294q0 -48 -1 -54h-378q0 69 -37 109.5t-101 40.5q-94 0 -152.5 -98.5t-58.5 -255.5q0 -80 38 -128t101 -48q64 0 108.5 40.5t60.5 113.5h378q-25 -210 -180.5 -339.5t-384.5 -129.5q-235 0 -375.5 129t-140.5 345 z" />
<glyph unicode="d" horiz-adv-x="1323" d="M72 403q0 203 71.5 367t198 257t282.5 93q120 0 201.5 -50.5t109.5 -142.5h8l110 516h397l-308 -1443h-386l33 155h-8q-120 -171 -342 -171q-170 0 -268.5 112.5t-98.5 306.5zM482 471q0 -83 42.5 -134.5t111.5 -51.5q95 0 166 101.5t71 237.5q0 83 -42 134t-111 51 q-99 0 -168.5 -98.5t-69.5 -239.5z" />
<glyph unicode="e" horiz-adv-x="1234" d="M82 478q0 188 77.5 336.5t220.5 233t328 84.5q223 0 362.5 -130.5t139.5 -345.5q0 -110 -20 -190h-752q-3 -16 -3 -32q0 -79 51 -130.5t138 -51.5q65 0 112 30t61 78h368q-43 -176 -193 -281.5t-368 -105.5q-239 0 -380.5 134.5t-141.5 370.5zM474 682h374q3 7 3 32 q0 63 -45 103.5t-116 40.5q-77 0 -136.5 -48.5t-79.5 -127.5z" />
<glyph unicode="f" horiz-adv-x="828" d="M87 0l171 797h-167l62 289h162l29 139q31 146 135 213t287 67q139 0 237 -31l-55 -247q-37 13 -112 13q-46 0 -75.5 -20t-37.5 -55l-17 -79h212l-62 -289h-202l-170 -797h-397z" />
<glyph unicode="g" horiz-adv-x="1309" d="M-33 -55h383q9 -50 58 -78t128 -28q171 0 201 144l41 189h-20q-48 -71 -130 -109t-188 -38q-164 0 -265 110t-101 289q0 188 73.5 348.5t199.5 254t274 93.5q113 0 195 -54t110 -146h18l42 184h386l-243 -1143q-38 -179 -200 -278.5t-415 -99.5q-257 0 -401 95.5 t-146 266.5zM478 471q0 -83 42 -134t112 -51q95 0 166 101t71 237q0 84 -42 134.5t-112 50.5q-98 0 -167.5 -99t-69.5 -239z" />
<glyph unicode="h" horiz-adv-x="1302" d="M0 0l307 1443h394l-109 -506h8q62 91 154 140t205 49q151 0 243.5 -84.5t92.5 -221.5q0 -63 -15 -135l-144 -685h-393l131 624q7 36 7 68q0 57 -42.5 94.5t-107.5 37.5q-71 0 -127 -49t-72 -127l-137 -648h-395z" />
<glyph unicode="i" horiz-adv-x="562" d="M-8 0l235 1104h397l-235 -1104h-397zM278 1361q0 82 58 137t144 55t144 -55t58 -137t-58 -137t-144 -55t-144 55t-58 137z" />
<glyph unicode="j" horiz-adv-x="560" d="M-262 -387l61 277q28 -7 71 -7q48 0 78 23t38 64l241 1134h396l-250 -1173q-33 -155 -157.5 -245t-303.5 -90q-97 0 -174 17zM278 1361q0 82 58 137t144 55t144 -55t58 -137t-58 -137t-144 -55t-144 55t-58 137z" />
<glyph unicode="k" horiz-adv-x="1243" d="M0 0l308 1443h395l-154 -725h8l353 386h452l-490 -486l291 -618h-428l-181 404l-92 -92l-66 -312h-396z" />
<glyph unicode="l" horiz-adv-x="576" d="M0 0l307 1443h396l-307 -1443h-396z" />
<glyph unicode="m" horiz-adv-x="1886" d="M-8 0l235 1104h383l-38 -175h8q53 95 143.5 149t194.5 54q101 0 175 -52.5t102 -143.5h8q64 93 159 144.5t211 51.5q134 0 220 -87.5t86 -223.5q0 -63 -15 -135l-144 -686h-394l132 631q7 35 7 67q0 58 -32 92t-86 34q-61 0 -105 -44.5t-60 -123.5l-137 -656h-376 l132 631q7 35 7 67q0 58 -32 92t-86 34q-61 0 -104.5 -44.5t-60.5 -124.5l-139 -655h-394z" />
<glyph unicode="n" horiz-adv-x="1286" d="M-8 0l235 1104h383l-36 -167h8q58 93 155.5 144t209.5 51q150 0 241 -85.5t91 -226.5q0 -62 -15 -135l-144 -685h-393l131 624q7 38 7 68q0 58 -41.5 95t-105.5 37q-70 0 -124 -48.5t-70 -127.5l-138 -648h-394z" />
<glyph unicode="o" horiz-adv-x="1299" d="M80 473q0 190 84 340.5t234.5 234.5t341.5 84q239 0 386.5 -138.5t147.5 -362.5q0 -190 -84 -340.5t-234.5 -234.5t-341.5 -84q-239 0 -386.5 138.5t-147.5 362.5zM482 481q0 -92 41.5 -149t108.5 -57q100 0 168.5 100.5t68.5 247.5q0 93 -41 149.5t-108 56.5 q-103 0 -170.5 -99t-67.5 -249z" />
<glyph unicode="p" horiz-adv-x="1315" d="M-83 -353l310 1457h386l-33 -154h8q126 170 343 170q170 0 268 -112t98 -306q0 -204 -70.5 -368t-196 -257t-281.5 -93q-117 0 -197.5 55t-113.5 158h-7l-118 -550h-396zM496 481q0 -84 42 -134.5t112 -50.5q98 0 167.5 99t69.5 240q0 83 -42 134t-112 51 q-95 0 -166 -101.5t-71 -237.5z" />
<glyph unicode="q" horiz-adv-x="1323" d="M73 403q0 203 71.5 367.5t198 257t282.5 92.5q116 0 202.5 -51t126.5 -142h8l37 177h387l-310 -1457h-397l109 508h-6q-128 -171 -342 -171q-170 0 -268.5 112.5t-98.5 306.5zM483 471q0 -83 42.5 -134.5t111.5 -51.5q95 0 166 101.5t71 237.5q0 83 -42 134t-111 51 q-99 0 -168.5 -98.5t-69.5 -239.5z" />
<glyph unicode="r" horiz-adv-x="894" d="M-8 0l237 1104h387l-32 -160h8q39 80 109.5 128t157.5 48q88 0 152 -29l-75 -343q-87 41 -166 41q-100 0 -167.5 -56.5t-91.5 -168.5l-122 -564h-397z" />
<glyph unicode="s" horiz-adv-x="1157" d="M26 358h374q3 -56 50 -90.5t122 -34.5q57 0 88.5 19t31.5 54q0 28 -28 48t-102 46l-100 34q-155 53 -229 132.5t-74 193.5q0 170 137.5 271t367.5 101q214 0 352 -103.5t144 -268.5h-354q-3 50 -43.5 81t-104.5 31q-57 0 -90.5 -21t-33.5 -57q0 -30 27.5 -49.5 t106.5 -46.5l124 -42q159 -54 225.5 -123.5t66.5 -180.5q0 -173 -142 -276.5t-380 -103.5q-241 0 -385 104t-151 282z" />
<glyph unicode="t" horiz-adv-x="873" d="M106 781l64 290h164l56 263h396l-56 -263h216l-62 -290h-215l-84 -393q-5 -17 -5 -44q0 -43 30 -61.5t98 -18.5q56 0 72 6l-60 -272q-52 -14 -162 -14q-186 0 -287 63t-101 185q0 62 12 122l89 427h-165z" />
<glyph unicode="u" horiz-adv-x="1287" d="M65 297q0 75 14 139l142 668h396l-129 -603q-5 -32 -5 -59q0 -70 38.5 -109t109.5 -39t120 47.5t67 132.5l134 630h398l-235 -1104h-385l38 180h-8q-50 -98 -142 -153t-207 -55q-158 0 -252 88t-94 237z" />
<glyph unicode="v" horiz-adv-x="1180" d="M153 1105h399l6 -767h8l329 767h422l-591 -1105h-464z" />
<glyph unicode="w" horiz-adv-x="1766" d="M161 1104h398l-42 -747h8l302 747h386l-12 -747h8l274 747h412l-508 -1104h-434l-3 713h-8l-299 -713h-438z" />
<glyph unicode="x" horiz-adv-x="1223" d="M-66 0l442 554l-201 550h426l88 -327h8l211 327h436l-442 -554l201 -550h-426l-88 327h-8l-211 -327h-436z" />
<glyph unicode="y" horiz-adv-x="1206" d="M-77 -405l64 305h106q172 0 172 97q0 18 -1 23l-111 1084h407l-1 -808h8l354 808h422l-568 -1086q-118 -226 -282 -324.5t-418 -98.5h-152z" />
<glyph unicode="z" horiz-adv-x="1105" d="M-32 0l44 208l596 584l2 8h-456l65 304h957l-52 -243l-549 -549l-1 -8h454l-65 -304h-995z" />
<glyph unicode="{" horiz-adv-x="810" d="M3 391l73 347q108 0 163 44.5t80 159.5l22 99q50 224 169.5 313t359.5 89h147l-61 -284h-43q-86 0 -128.5 -41t-65.5 -148l-35 -159q-25 -111 -104 -168t-223 -69l-5 -20q229 -19 229 -194q0 -29 -9 -74l-27 -127q-12 -55 -12 -92q0 -57 29.5 -77t96.5 -20h43l-60 -283 h-147q-90 0 -158 18.5t-107.5 46.5t-64 68t-33 77.5t-8.5 79.5q0 51 15 121l20 90q12 53 12 87q0 56 -37 86t-131 30z" />
<glyph unicode="|" horiz-adv-x="810" d="M48 -313l374 1756h400l-374 -1756h-400z" />
<glyph unicode="}" horiz-adv-x="810" d="M-147 -313l61 284h43q86 0 128.5 41t65.5 148l35 159q25 111 104 168t223 69l5 20q-229 19 -229 194q0 29 9 74l27 127q12 55 12 92q0 57 -29.5 77t-96.5 20h-43l60 283h147q90 0 158 -18.5t107.5 -46.5t64 -68t33 -77.5t8.5 -79.5q0 -51 -15 -121l-20 -90 q-12 -53 -12 -87q0 -56 37 -86t131 -30l-73 -347q-108 0 -163 -44.5t-80 -159.5l-22 -99q-50 -224 -169.5 -313t-359.5 -89h-147z" />
<glyph unicode="~" d="M178 510q43 242 143 364.5t252 122.5q59 0 109.5 -18.5t84.5 -45.5t64 -53.5t61.5 -45t63.5 -18.5q42 0 76 40t49 115h288q-44 -248 -137.5 -368.5t-250.5 -120.5q-60 0 -110 18.5t-84 45t-64.5 53t-63.5 45t-68 18.5q-44 0 -77 -38.5t-49 -113.5h-287z" />
<glyph unicode="&#xa1;" horiz-adv-x="755" d="M-3 -340l243 972h348l-171 -972h-420zM277 943q0 84 62.5 142t149.5 58q89 0 151 -58t62 -142q0 -83 -62 -141t-151 -58q-87 0 -149.5 58t-62.5 141z" />
<glyph unicode="&#xa2;" d="M193 560q0 183 65.5 334t190.5 249.5t291 122.5l40 187h313l-47 -213q137 -50 214 -155.5t77 -221.5q0 -27 -1 -41h-376q0 69 -39 105t-103 36q-103 0 -163.5 -109t-60.5 -273q0 -95 44 -139.5t102 -44.5q65 0 110.5 37t64.5 109h378q-11 -85 -48 -160.5t-97.5 -136.5 t-149.5 -102t-196 -52l-38 -186h-313l46 218q-143 51 -223.5 164.5t-80.5 271.5z" />
<glyph unicode="&#xa3;" d="M25 10l73 342q134 0 236.5 79t118.5 194h-294l57 270h223q-8 98 -8 142q0 211 158 328.5t414 117.5q279 0 469 -88l-63 -315q-143 68 -331 68q-106 0 -175.5 -47t-69.5 -139q0 -37 3 -67h346l-57 -270h-278q-14 -86 -60 -161.5t-117 -107.5v-4h614l-73 -342h-1186z" />
<glyph unicode="&#xa4;" d="M89 281l195 161q-41 96 -41 200q0 143 74 264l-94 117l274 226l98 -122q78 25 158 25q157 0 286 -88l200 165l178 -226l-195 -161q41 -96 41 -200q0 -143 -74 -264l94 -117l-274 -226l-98 122q-78 -25 -158 -25q-157 0 -286 88l-200 -165zM548 642q0 -83 61 -145t144 -62 t144 62t61 145t-61 145t-144 62t-144 -62t-61 -145z" />
<glyph unicode="&#xa5;" d="M173 155l42 196h265l22 106h-265l42 196h167l-228 790h444l130 -588h5l377 588h454l-562 -790h167l-42 -196h-265l-22 -106h265l-42 -196h-265l-33 -155h-424l33 155h-265z" />
<glyph unicode="&#xa6;" horiz-adv-x="810" d="M49 -313l147 697h400l-147 -697h-400zM273 746l149 697h400l-149 -697h-400z" />
<glyph unicode="&#xa7;" horiz-adv-x="966" d="M-61 57h328q0 -44 37 -74.5t90 -30.5q51 0 85.5 26.5t34.5 65.5q0 59 -79 102l-189 101q-219 118 -219 300q0 110 72 187.5t200 105.5v20q-75 57 -106 111t-31 126q0 161 133.5 264.5t341.5 103.5q201 0 326 -101.5t129 -277.5h-327q0 51 -36.5 82t-92.5 31 q-51 0 -85 -26t-34 -65q0 -58 78 -102l179 -100q229 -128 229 -306q0 -107 -75.5 -187t-195.5 -101v-20q73 -57 104 -110.5t31 -124.5q0 -161 -132.5 -266t-337.5 -105q-200 0 -329 101.5t-129 269.5zM373 615q0 -63 87 -113l120 -69q35 17 58 46t23 57q0 29 -23.5 59.5 t-63.5 53.5l-121 69q-35 -17 -57.5 -45.5t-22.5 -57.5z" />
<glyph unicode="&#xa8;" horiz-adv-x="1048" d="M375 1396q0 59 42.5 100t106.5 41t106.5 -41t42.5 -100t-42.5 -100t-106.5 -41t-106.5 41t-42.5 100zM793 1396q0 59 42.5 100t106.5 41t106.5 -41t42.5 -100t-42.5 -100t-106.5 -41t-106.5 41t-42.5 100z" />
<glyph unicode="&#xa9;" horiz-adv-x="1677" d="M108 664q0 158 64 304t170.5 252t253.5 169.5t306 63.5q163 0 307 -58.5t246.5 -160.5t161.5 -245t59 -305q0 -158 -64 -304t-170.5 -252t-253.5 -169.5t-306 -63.5q-163 0 -307 58.5t-246.5 160.5t-161.5 245t-59 305zM295 664q0 -255 167 -423.5t420 -168.5 q121 0 233 49.5t194 132t131 196t49 234.5q0 255 -167 423.5t-420 168.5q-121 0 -233 -49.5t-194 -132t-131 -196t-49 -234.5zM539 627q0 182 112.5 302.5t282.5 120.5q154 0 249 -93.5t77 -227.5h-242q4 59 -19 91t-69 32q-60 0 -102 -69.5t-42 -168.5q0 -122 95 -122 q33 0 55.5 16t41.5 53h251q-35 -129 -126.5 -198t-226.5 -69q-149 0 -243 92.5t-94 240.5z" />
<glyph unicode="&#xaa;" horiz-adv-x="818" d="M137 896q0 117 84.5 184t232.5 67h172q2 7 5 19.5t5 17.5q4 18 4 24q0 24 -19.5 38t-51.5 14q-61 0 -75 -36h-267q61 241 346 241q158 0 255 -68.5t97 -178.5q0 -27 -6 -57l-100 -468h-280l13 76l-16 1q-28 -41 -74 -64.5t-101 -23.5q-101 0 -162.5 59t-61.5 155z M423 935q0 -26 19.5 -42.5t52.5 -16.5t58 22.5t32 59.5l9 42h-84q-41 0 -64 -17.5t-23 -47.5z" />
<glyph unicode="&#xab;" horiz-adv-x="1479" d="M129 563l2 8l404 406h367l-433 -421l-1 -6l259 -394h-338zM714 563l2 8l404 406h367l-433 -421l-1 -6l259 -394h-338z" />
<glyph unicode="&#xac;" d="M133 414l74 348h1142l-161 -757h-362l87 409h-780z" />
<glyph unicode="&#xad;" horiz-adv-x="830" d="M90 422l74 348h650l-74 -348h-650z" />
<glyph unicode="&#xae;" horiz-adv-x="1194" d="M197 1075q0 229 154.5 383.5t383.5 154.5t383.5 -154.5t154.5 -383.5t-154.5 -383.5t-383.5 -154.5t-383.5 154.5t-154.5 383.5zM364 1075q0 -166 105 -273.5t266 -107.5t266 107.5t105 273.5t-105 273.5t-266 107.5t-266 -107.5t-105 -273.5zM482 841l101 477h254 q68 0 115 -45t47 -112q0 -54 -33.5 -97t-89.5 -61l71 -162h-167l-61 150h-54l-31 -150h-152zM689 1098h82q31 0 49.5 15t18.5 41q0 48 -56 48h-72z" />
<glyph unicode="&#xaf;" horiz-adv-x="1048" d="M353 1276l38 180h704l-38 -180h-704z" />
<glyph unicode="&#xb0;" horiz-adv-x="786" d="M186 1105q0 151 100.5 251t251.5 100t251.5 -100t100.5 -251t-100.5 -251.5t-251.5 -100.5q-150 0 -251 100.5t-101 251.5zM407 1105q0 -55 39 -96t93 -41q55 0 92.5 40.5t37.5 96.5q0 57 -37.5 96.5t-92.5 39.5q-54 0 -93 -40t-39 -96z" />
<glyph unicode="&#xb1;" d="M135 37l61 288h976l-61 -288h-976zM263 640l63 296h314l40 188h351l-40 -188h315l-63 -296h-315l-40 -188h-351l40 188h-314z" />
<glyph unicode="&#xb2;" horiz-adv-x="700" d="M178 1065l45 204l204 122q121 80 156 110.5t35 55.5q0 16 -12.5 26t-31.5 10q-21 0 -37 -15.5t-18 -37.5l-1 -8h-269q4 118 106 198.5t249 80.5q135 0 221 -62.5t86 -160.5q0 -78 -54.5 -139t-212.5 -159l-11 -7h213l-46 -218h-622z" />
<glyph unicode="&#xb3;" horiz-adv-x="738" d="M219 1282q0 21 2 27h277q5 -39 56 -39q22 0 35.5 10t13.5 26q0 14 -11 24t-27 10h-95l39 181h76q67 0 67 40q0 17 -15 27.5t-38 10.5q-19 0 -34.5 -8.5t-17.5 -19.5h-268q25 113 115.5 176.5t227.5 63.5t223 -60.5t86 -157.5q0 -64 -49.5 -110.5t-119.5 -55.5l-1 -6 q54 -11 86.5 -52.5t32.5 -100.5q0 -103 -89 -166t-235 -63q-161 0 -249.5 63.5t-87.5 179.5z" />
<glyph unicode="&#xb4;" horiz-adv-x="1048" d="M415 1275l300 321h348l-334 -321h-314z" />
<glyph unicode="&#xb6;" horiz-adv-x="1689" d="M192 823q0 266 169.5 435t456.5 184l380 1l-369 -1733h-380l140 655q-189 33 -293 156.5t-104 301.5zM1019 -290l369 1733h380l-369 -1733h-380z" />
<glyph unicode="&#xb7;" horiz-adv-x="618" d="M129 552q0 86 61 147t147 61t147 -61t61 -147t-61 -147t-147 -61t-147 61t-61 147z" />
<glyph unicode="&#xb8;" horiz-adv-x="1069" d="M138 -446l35 161q43 -12 110 -12q112 0 112 47q0 22 -24.5 30.5t-86.5 8.5h-58l29 125l85 102h191l-3 -16l-62 -76q138 -20 138 -149q0 -102 -93 -169t-235 -67q-98 0 -138 15z" />
<glyph unicode="&#xb9;" horiz-adv-x="590" d="M247 1435l51 242l196 108h305l-154 -720h-304l101 473h-6z" />
<glyph unicode="&#xba;" horiz-adv-x="878" d="M179 1019q0 196 121.5 321t311.5 125q169 0 264.5 -94.5t95.5 -261.5q0 -195 -119.5 -316.5t-311.5 -121.5q-168 0 -265 93.5t-97 254.5zM474 1008q0 -117 72 -117q54 0 93.5 69.5t39.5 164.5q0 57 -19 89t-53 32q-54 0 -93.5 -72t-39.5 -166z" />
<glyph unicode="&#xbb;" horiz-adv-x="1479" d="M53 156l433 421l1 6l-259 394h338l260 -407l-2 -8l-404 -406h-367zM638 156l433 421l1 6l-259 394h338l260 -407l-2 -8l-404 -406h-367z" />
<glyph unicode="&#xbc;" horiz-adv-x="1797" d="M95 0l727 773l631 670h310l-707 -751l-651 -692h-310zM175 1093l51 242l196 108h305l-154 -720h-304l101 473h-6zM967 76l55 256q71 103 131.5 180.5t171.5 207.5h428l-90 -422h73l-48 -222h-72l-16 -76h-285l16 76h-364zM1260 283h125l52 243h-5q-50 -57 -99.5 -125 t-71.5 -112z" />
<glyph unicode="&#xbd;" horiz-adv-x="1812" d="M95 0l727 773l631 670h310l-707 -751l-651 -692h-310zM175 1093l51 242l196 108h305l-154 -720h-304l101 473h-6zM1064 0l45 204l204 122q121 80 156 110.5t35 55.5q0 16 -12.5 26t-31.5 10q-21 0 -37 -15.5t-18 -37.5l-1 -8h-269q4 118 106 198.5t249 80.5 q135 0 221 -62.5t86 -160.5q0 -78 -54.5 -139t-212.5 -159l-11 -7h213l-46 -218h-622z" />
<glyph unicode="&#xbe;" horiz-adv-x="1893" d="M147 940q0 21 2 27h277q5 -39 56 -39q22 0 35.5 10t13.5 26q0 14 -11 24t-27 10h-95l39 181h76q67 0 67 40q0 17 -15 27.5t-38 10.5q-19 0 -34.5 -8.5t-17.5 -19.5h-268q25 113 115.5 176.5t227.5 63.5t223 -60.5t86 -157.5q0 -64 -49.5 -110.5t-119.5 -55.5l-1 -6 q54 -11 86.5 -52.5t32.5 -100.5q0 -103 -89 -166t-235 -63q-161 0 -249.5 63.5t-87.5 179.5zM191 0l727 773l631 670h310l-707 -751l-651 -692h-310zM1063 76l55 256q71 103 131.5 180.5t171.5 207.5h428l-90 -422h73l-48 -222h-72l-16 -76h-285l16 76h-364zM1356 283h125 l52 243h-5q-50 -57 -99.5 -125t-71.5 -112z" />
<glyph unicode="&#xbf;" horiz-adv-x="1166" d="M-21 31q0 128 69 231.5t209 164.5q118 51 163.5 90t59.5 103l6 28h362l-6 -47q-18 -140 -69 -213.5t-166 -123.5q-127 -55 -173.5 -100t-46.5 -104q0 -48 36 -76.5t95 -28.5q53 0 94.5 34.5t53.5 90.5h372q-17 -189 -165 -311t-372 -122q-237 0 -379.5 105.5 t-142.5 278.5zM550 943q0 84 62.5 142t149.5 58q89 0 151 -58t62 -142q0 -83 -62 -141t-151 -58q-87 0 -149.5 58t-62.5 141z" />
<glyph unicode="&#xc0;" horiz-adv-x="1494" d="M-80 0l794 1443h532l148 -1443h-435l-13 287h-438l-141 -287h-447zM655 586h278l-22 503h-9zM656 1876h332l164 -321h-290z" />
<glyph unicode="&#xc1;" horiz-adv-x="1494" d="M-80 0l794 1443h532l148 -1443h-435l-13 287h-438l-141 -287h-447zM655 586h278l-22 503h-9zM846 1555l300 321h364l-342 -321h-322z" />
<glyph unicode="&#xc2;" horiz-adv-x="1494" d="M-80 0l794 1443h532l148 -1443h-435l-13 287h-438l-141 -287h-447zM588 1536l327 336h314l183 -336h-276l-91 192h-8l-173 -192h-276zM655 586h278l-22 503h-9z" />
<glyph unicode="&#xc3;" horiz-adv-x="1494" d="M-80 0l794 1443h532l148 -1443h-435l-13 287h-438l-141 -287h-447zM625 1564q28 133 107.5 213t185.5 80q49 0 91 -18.5t65 -41t51 -41t54 -18.5q61 0 89 106h205q-29 -135 -109.5 -216.5t-184.5 -81.5q-49 0 -91 18.5t-65 41t-51 41t-54 18.5q-61 0 -88 -101h-205z M655 586h278l-22 503h-9z" />
<glyph unicode="&#xc4;" horiz-adv-x="1494" d="M-80 0l794 1443h532l148 -1443h-435l-13 287h-438l-141 -287h-447zM655 586h278l-22 503h-9zM677 1700q0 59 42.5 100t106.5 41t106.5 -41t42.5 -100t-42.5 -100t-106.5 -41t-106.5 41t-42.5 100zM1095 1700q0 59 42.5 100t106.5 41t106.5 -41t42.5 -100t-42.5 -100 t-106.5 -41t-106.5 41t-42.5 100z" />
<glyph unicode="&#xc5;" horiz-adv-x="1494" d="M-80 0l794 1443h532l148 -1443h-435l-13 287h-438l-141 -287h-447zM655 586h278l-22 503h-9zM830 1809q0 97 72.5 166.5t171.5 69.5t171 -69.5t72 -166.5t-72 -166t-171 -69t-171.5 69.5t-72.5 165.5zM986 1809q0 -34 26.5 -59t61.5 -25t61.5 25t26.5 59q0 35 -26.5 60.5 t-61.5 25.5t-61.5 -25.5t-26.5 -60.5z" />
<glyph unicode="&#xc6;" horiz-adv-x="2086" d="M-49 0l847 1443h1407l-72 -336h-643l-49 -234h606l-65 -304h-606l-50 -233h643l-71 -336h-1019l61 286h-403l-160 -286h-426zM704 586h300l115 543h-112z" />
<glyph unicode="&#xc7;" horiz-adv-x="1540" d="M125 580q0 406 229 647t614 241q262 0 431.5 -153t169.5 -389q0 -37 -5 -64h-411q1 6 1 40q0 95 -66.5 160t-163.5 65q-159 0 -260.5 -146t-101.5 -375q0 -133 62 -209.5t170 -76.5q105 0 184 62.5t111 169.5h411q-35 -241 -214.5 -396.5t-444.5 -177.5l-44 -54 q138 -20 138 -149q0 -102 -93 -169t-235 -67q-98 0 -138 15l35 161q43 -12 110 -12q112 0 112 47q0 22 -24.5 30.5t-86.5 8.5h-58l29 125l58 69q-240 34 -379.5 193.5t-139.5 403.5z" />
<glyph unicode="&#xc8;" horiz-adv-x="1208" d="M18 0l307 1443h1017l-72 -336h-593l-49 -234h556l-65 -304h-556l-50 -233h594l-71 -336h-1018zM483 1876h332l164 -321h-290z" />
<glyph unicode="&#xc9;" horiz-adv-x="1208" d="M18 0l307 1443h1017l-72 -336h-593l-49 -234h556l-65 -304h-556l-50 -233h594l-71 -336h-1018zM673 1555l300 321h364l-342 -321h-322z" />
<glyph unicode="&#xca;" horiz-adv-x="1208" d="M18 0l307 1443h1017l-72 -336h-593l-49 -234h556l-65 -304h-556l-50 -233h594l-71 -336h-1018zM415 1536l327 336h314l183 -336h-276l-91 192h-8l-173 -192h-276z" />
<glyph unicode="&#xcb;" horiz-adv-x="1208" d="M18 0l307 1443h1017l-72 -336h-593l-49 -234h556l-65 -304h-556l-50 -233h594l-71 -336h-1018zM504 1700q0 59 42.5 100t106.5 41t106.5 -41t42.5 -100t-42.5 -100t-106.5 -41t-106.5 41t-42.5 100zM922 1700q0 59 42.5 100t106.5 41t106.5 -41t42.5 -100t-42.5 -100 t-106.5 -41t-106.5 41t-42.5 100z" />
<glyph unicode="&#xcc;" horiz-adv-x="640" d="M18 0l307 1443h424l-307 -1443h-424zM213 1876h332l164 -321h-290z" />
<glyph unicode="&#xcd;" horiz-adv-x="640" d="M18 0l307 1443h424l-307 -1443h-424zM403 1555l300 321h364l-342 -321h-322z" />
<glyph unicode="&#xce;" horiz-adv-x="640" d="M18 0l307 1443h424l-307 -1443h-424zM145 1536l327 336h314l183 -336h-276l-91 192h-8l-173 -192h-276z" />
<glyph unicode="&#xcf;" horiz-adv-x="640" d="M18 0l307 1443h424l-307 -1443h-424zM234 1700q0 59 42.5 100t106.5 41t106.5 -41t42.5 -100t-42.5 -100t-106.5 -41t-106.5 41t-42.5 100zM652 1700q0 59 42.5 100t106.5 41t106.5 -41t42.5 -100t-42.5 -100t-106.5 -41t-106.5 41t-42.5 100z" />
<glyph unicode="&#xd0;" horiz-adv-x="1492" d="M18 0l119 557h-109l72 336h108l117 550h600q256 0 414.5 -147.5t158.5 -403.5q0 -258 -94 -460.5t-268 -317t-399 -114.5h-719zM518 336h158q172 0 279 135t107 367q0 122 -63.5 196t-174.5 74h-143l-45 -215h189l-72 -336h-188z" />
<glyph unicode="&#xd1;" horiz-adv-x="1509" d="M18 0l307 1443h320l393 -792h8l167 792h405l-307 -1443h-320l-393 792h-8l-167 -792h-405zM571 1564q28 133 107.5 213t185.5 80q49 0 91 -18.5t65 -41t51 -41t54 -18.5q61 0 89 106h205q-29 -135 -109.5 -216.5t-184.5 -81.5q-49 0 -91 18.5t-65 41t-51 41t-54 18.5 q-61 0 -88 -101h-205z" />
<glyph unicode="&#xd2;" horiz-adv-x="1586" d="M126 589q0 194 62.5 359.5t170.5 279t254.5 177t311.5 63.5q155 0 281 -47t209 -129.5t127.5 -194.5t44.5 -243q0 -195 -63.5 -361t-172 -278.5t-255.5 -176t-312 -63.5q-151 0 -276 46.5t-208 129t-128.5 195t-45.5 243.5zM556 615q0 -137 65.5 -219.5t175.5 -82.5 q146 0 253 151.5t107 364.5q0 138 -66 219.5t-176 81.5q-96 0 -178.5 -69t-131.5 -188t-49 -258zM613 1876h332l164 -321h-290z" />
<glyph unicode="&#xd3;" horiz-adv-x="1586" d="M126 589q0 194 62.5 359.5t170.5 279t254.5 177t311.5 63.5q155 0 281 -47t209 -129.5t127.5 -194.5t44.5 -243q0 -195 -63.5 -361t-172 -278.5t-255.5 -176t-312 -63.5q-151 0 -276 46.5t-208 129t-128.5 195t-45.5 243.5zM556 615q0 -137 65.5 -219.5t175.5 -82.5 q146 0 253 151.5t107 364.5q0 138 -66 219.5t-176 81.5q-96 0 -178.5 -69t-131.5 -188t-49 -258zM803 1555l300 321h364l-342 -321h-322z" />
<glyph unicode="&#xd4;" horiz-adv-x="1586" d="M126 589q0 194 62.5 359.5t170.5 279t254.5 177t311.5 63.5q155 0 281 -47t209 -129.5t127.5 -194.5t44.5 -243q0 -195 -63.5 -361t-172 -278.5t-255.5 -176t-312 -63.5q-151 0 -276 46.5t-208 129t-128.5 195t-45.5 243.5zM545 1536l327 336h314l183 -336h-276l-91 192 h-8l-173 -192h-276zM556 615q0 -137 65.5 -219.5t175.5 -82.5q146 0 253 151.5t107 364.5q0 138 -66 219.5t-176 81.5q-96 0 -178.5 -69t-131.5 -188t-49 -258z" />
<glyph unicode="&#xd5;" horiz-adv-x="1586" d="M126 589q0 194 62.5 359.5t170.5 279t254.5 177t311.5 63.5q155 0 281 -47t209 -129.5t127.5 -194.5t44.5 -243q0 -195 -63.5 -361t-172 -278.5t-255.5 -176t-312 -63.5q-151 0 -276 46.5t-208 129t-128.5 195t-45.5 243.5zM556 615q0 -137 65.5 -219.5t175.5 -82.5 q146 0 253 151.5t107 364.5q0 138 -66 219.5t-176 81.5q-96 0 -178.5 -69t-131.5 -188t-49 -258zM582 1564q28 133 107.5 213t185.5 80q49 0 91 -18.5t65 -41t51 -41t54 -18.5q61 0 89 106h205q-29 -135 -109.5 -216.5t-184.5 -81.5q-49 0 -91 18.5t-65 41t-51 41t-54 18.5 q-61 0 -88 -101h-205z" />
<glyph unicode="&#xd6;" horiz-adv-x="1586" d="M126 589q0 194 62.5 359.5t170.5 279t254.5 177t311.5 63.5q155 0 281 -47t209 -129.5t127.5 -194.5t44.5 -243q0 -195 -63.5 -361t-172 -278.5t-255.5 -176t-312 -63.5q-151 0 -276 46.5t-208 129t-128.5 195t-45.5 243.5zM556 615q0 -137 65.5 -219.5t175.5 -82.5 q146 0 253 151.5t107 364.5q0 138 -66 219.5t-176 81.5q-96 0 -178.5 -69t-131.5 -188t-49 -258zM634 1700q0 59 42.5 100t106.5 41t106.5 -41t42.5 -100t-42.5 -100t-106.5 -41t-106.5 41t-42.5 100zM1052 1700q0 59 42.5 100t106.5 41t106.5 -41t42.5 -100t-42.5 -100 t-106.5 -41t-106.5 41t-42.5 100z" />
<glyph unicode="&#xd7;" d="M176 379l332 247l-220 318l283 192l210 -303l335 246l187 -269l-336 -245l229 -331l-285 -192l-218 317l-331 -247z" />
<glyph unicode="&#xd8;" horiz-adv-x="1586" d="M76 108l143 143q-93 146 -93 338q0 194 62.5 359.5t170.5 279t254.5 177t311.5 63.5q240 0 404 -108l141 141l166 -166l-142 -142q93 -146 93 -339q0 -195 -63.5 -361t-172 -278.5t-255.5 -176t-312 -63.5q-233 0 -399 109l-142 -142zM556 615q0 -18 1 -27l497 497 q-59 45 -139 45q-96 0 -178.5 -69t-131.5 -188t-49 -258zM659 358q59 -45 138 -45q146 0 253 151.5t107 364.5q0 18 -1 26z" />
<glyph unicode="&#xd9;" horiz-adv-x="1501" d="M130 463q0 62 13 123l182 857h424l-181 -853q-9 -42 -9 -77q0 -84 58.5 -132.5t145.5 -48.5q186 0 232 214l189 897h424l-209 -991q-47 -222 -225 -349.5t-429 -127.5q-283 0 -449 134.5t-166 353.5zM633 1876h332l164 -321h-290z" />
<glyph unicode="&#xda;" horiz-adv-x="1501" d="M130 463q0 62 13 123l182 857h424l-181 -853q-9 -42 -9 -77q0 -84 58.5 -132.5t145.5 -48.5q186 0 232 214l189 897h424l-209 -991q-47 -222 -225 -349.5t-429 -127.5q-283 0 -449 134.5t-166 353.5zM823 1555l300 321h364l-342 -321h-322z" />
<glyph unicode="&#xdb;" horiz-adv-x="1501" d="M130 463q0 62 13 123l182 857h424l-181 -853q-9 -42 -9 -77q0 -84 58.5 -132.5t145.5 -48.5q186 0 232 214l189 897h424l-209 -991q-47 -222 -225 -349.5t-429 -127.5q-283 0 -449 134.5t-166 353.5zM565 1536l327 336h314l183 -336h-276l-91 192h-8l-173 -192h-276z" />
<glyph unicode="&#xdc;" horiz-adv-x="1501" d="M130 463q0 62 13 123l182 857h424l-181 -853q-9 -42 -9 -77q0 -84 58.5 -132.5t145.5 -48.5q186 0 232 214l189 897h424l-209 -991q-47 -222 -225 -349.5t-429 -127.5q-283 0 -449 134.5t-166 353.5zM654 1700q0 59 42.5 100t106.5 41t106.5 -41t42.5 -100t-42.5 -100 t-106.5 -41t-106.5 41t-42.5 100zM1072 1700q0 59 42.5 100t106.5 41t106.5 -41t42.5 -100t-42.5 -100t-106.5 -41t-106.5 41t-42.5 100z" />
<glyph unicode="&#xdd;" horiz-adv-x="1430" d="M227 1443h439l133 -585h8l371 585h459l-702 -986l-97 -457h-424l97 457zM793 1555l300 321h364l-342 -321h-322z" />
<glyph unicode="&#xde;" horiz-adv-x="1418" d="M44 0l307 1443h426l-44 -204h209q204 0 338.5 -122.5t134.5 -308.5q0 -154 -77 -283.5t-217 -206.5t-314 -77h-289l-51 -241h-423zM584 558h179q104 0 168.5 56.5t64.5 148.5q0 76 -46.5 115.5t-136.5 39.5h-153z" />
<glyph unicode="&#xdf;" horiz-adv-x="1407" d="M7 0l240 1101q37 167 193.5 267.5t381.5 100.5q251 0 407.5 -113.5t156.5 -295.5q0 -123 -77.5 -217.5t-195.5 -120.5l-4 -20q256 -67 256 -298q0 -195 -139 -307.5t-372 -112.5q-169 0 -296 45l67 301q65 -35 151 -35q83 0 131 37.5t48 102.5q0 120 -200 120h-79l65 307 h70q71 0 119 38.5t48 101.5q0 65 -45.5 105.5t-118.5 40.5q-74 0 -124.5 -49t-69.5 -141l-204 -958h-409z" />
<glyph unicode="&#xe0;" horiz-adv-x="1182" d="M24 283q0 172 135.5 273.5t371.5 106.5l241 5l13 64q4 23 4 31q0 38 -37 61.5t-97 23.5q-56 0 -95 -22.5t-54 -65.5h-357q33 172 177 272t357 100q220 0 356 -93t136 -244q0 -49 -9 -89l-150 -706h-385l28 130h-8q-41 -67 -122.5 -106.5t-183.5 -39.5q-138 0 -229.5 85 t-91.5 214zM340 1596h347l164 -321h-314zM405 342q0 -40 34.5 -65t90.5 -25q65 0 117 37.5t64 93.5l15 71l-171 -4q-68 -2 -109 -31.5t-41 -76.5z" />
<glyph unicode="&#xe1;" horiz-adv-x="1182" d="M24 283q0 172 135.5 273.5t371.5 106.5l241 5l13 64q4 23 4 31q0 38 -37 61.5t-97 23.5q-56 0 -95 -22.5t-54 -65.5h-357q33 172 177 272t357 100q220 0 356 -93t136 -244q0 -49 -9 -89l-150 -706h-385l28 130h-8q-41 -67 -122.5 -106.5t-183.5 -39.5q-138 0 -229.5 85 t-91.5 214zM405 342q0 -40 34.5 -65t90.5 -25q65 0 117 37.5t64 93.5l15 71l-171 -4q-68 -2 -109 -31.5t-41 -76.5zM629 1275l300 321h348l-334 -321h-314z" />
<glyph unicode="&#xe2;" horiz-adv-x="1182" d="M24 283q0 172 135.5 273.5t371.5 106.5l241 5l13 64q4 23 4 31q0 38 -37 61.5t-97 23.5q-56 0 -95 -22.5t-54 -65.5h-357q33 172 177 272t357 100q220 0 356 -93t136 -244q0 -49 -9 -89l-150 -706h-385l28 130h-8q-41 -67 -122.5 -106.5t-183.5 -39.5q-138 0 -229.5 85 t-91.5 214zM316 1256l327 336h314l183 -336h-272l-85 180h-8l-163 -180h-296zM405 342q0 -40 34.5 -65t90.5 -25q65 0 117 37.5t64 93.5l15 71l-171 -4q-68 -2 -109 -31.5t-41 -76.5z" />
<glyph unicode="&#xe3;" horiz-adv-x="1182" d="M24 283q0 172 135.5 273.5t371.5 106.5l241 5l13 64q4 23 4 31q0 38 -37 61.5t-97 23.5q-56 0 -95 -22.5t-54 -65.5h-357q33 172 177 272t357 100q220 0 356 -93t136 -244q0 -49 -9 -89l-150 -706h-385l28 130h-8q-41 -67 -122.5 -106.5t-183.5 -39.5q-138 0 -229.5 85 t-91.5 214zM337 1274q28 134 107.5 213.5t185.5 79.5q49 0 91 -18.5t65 -41t51 -41t54 -18.5q61 0 89 106h205q-29 -135 -109.5 -216.5t-184.5 -81.5q-49 0 -91 18.5t-65 41t-51 41t-54 18.5q-61 0 -88 -101h-205zM405 342q0 -40 34.5 -65t90.5 -25q65 0 117 37.5t64 93.5 l15 71l-171 -4q-68 -2 -109 -31.5t-41 -76.5z" />
<glyph unicode="&#xe4;" horiz-adv-x="1182" d="M24 283q0 172 135.5 273.5t371.5 106.5l241 5l13 64q4 23 4 31q0 38 -37 61.5t-97 23.5q-56 0 -95 -22.5t-54 -65.5h-357q33 172 177 272t357 100q220 0 356 -93t136 -244q0 -49 -9 -89l-150 -706h-385l28 130h-8q-41 -67 -122.5 -106.5t-183.5 -39.5q-138 0 -229.5 85 t-91.5 214zM402 1396q0 59 42.5 100t106.5 41t106.5 -41t42.5 -100t-42.5 -100t-106.5 -41t-106.5 41t-42.5 100zM405 342q0 -40 34.5 -65t90.5 -25q65 0 117 37.5t64 93.5l15 71l-171 -4q-68 -2 -109 -31.5t-41 -76.5zM820 1396q0 59 42.5 100t106.5 41t106.5 -41 t42.5 -100t-42.5 -100t-106.5 -41t-106.5 41t-42.5 100z" />
<glyph unicode="&#xe5;" horiz-adv-x="1182" d="M24 283q0 172 135.5 273.5t371.5 106.5l241 5l13 64q4 23 4 31q0 38 -37 61.5t-97 23.5q-56 0 -95 -22.5t-54 -65.5h-357q33 172 177 272t357 100q220 0 356 -93t136 -244q0 -49 -9 -89l-150 -706h-385l28 130h-8q-41 -67 -122.5 -106.5t-183.5 -39.5q-138 0 -229.5 85 t-91.5 214zM405 342q0 -40 34.5 -65t90.5 -25q65 0 117 37.5t64 93.5l15 71l-171 -4q-68 -2 -109 -31.5t-41 -76.5zM530 1470q0 97 72.5 166.5t171.5 69.5t171 -69.5t72 -166.5t-72 -166t-171 -69t-171.5 69.5t-72.5 165.5zM686 1470q0 -34 26.5 -59t61.5 -25t61.5 25 t26.5 59q0 35 -26.5 60.5t-61.5 25.5t-61.5 -25.5t-26.5 -60.5z" />
<glyph unicode="&#xe6;" horiz-adv-x="1881" d="M28 283q0 177 131.5 276t373.5 104l241 5l13 64q3 13 3 31q0 37 -36.5 61t-94.5 24q-120 0 -152 -88h-358q35 169 174.5 270.5t337.5 101.5q100 0 197.5 -37.5t144.5 -94.5h20q64 63 153 98t184 35q215 0 356.5 -135t141.5 -341q0 -98 -19 -191h-751v-12q0 -96 52.5 -152 t141.5 -56q64 0 106.5 29.5t57.5 84.5h367q-45 -179 -196.5 -283.5t-366.5 -104.5q-112 0 -222 51t-150 123h-19q-59 -78 -171 -126t-235 -48q-187 0 -306 87t-119 224zM409 334q0 -40 34.5 -64.5t90.5 -24.5q66 0 118 37t65 93l15 72l-173 -5q-68 -2 -109 -31t-41 -77z M1127 682h374q4 10 4 32q0 63 -45.5 103.5t-115.5 40.5q-78 0 -137.5 -48.5t-79.5 -127.5z" />
<glyph unicode="&#xe7;" horiz-adv-x="1200" d="M80 446q0 318 168 502t458 184q214 0 355.5 -117t141.5 -294q0 -48 -1 -54h-378q0 69 -37 109.5t-101 40.5q-94 0 -152.5 -98.5t-58.5 -255.5q0 -80 38 -128t101 -48q64 0 108.5 40.5t60.5 113.5h378q-22 -193 -157 -319.5t-338 -146.5l-42 -51q138 -20 138 -149 q0 -102 -93 -169t-235 -67q-98 0 -138 15l35 161q43 -12 110 -12q112 0 112 47q0 22 -24.5 30.5t-86.5 8.5h-58l29 125l57 69q-181 32 -285.5 155t-104.5 308z" />
<glyph unicode="&#xe8;" horiz-adv-x="1234" d="M82 478q0 188 77.5 336.5t220.5 233t328 84.5q223 0 362.5 -130.5t139.5 -345.5q0 -110 -20 -190h-752q-3 -16 -3 -32q0 -79 51 -130.5t138 -51.5q65 0 112 30t61 78h368q-43 -176 -193 -281.5t-368 -105.5q-239 0 -380.5 134.5t-141.5 370.5zM360 1596h347l164 -321 h-314zM474 682h374q3 7 3 32q0 63 -45 103.5t-116 40.5q-77 0 -136.5 -48.5t-79.5 -127.5z" />
<glyph unicode="&#xe9;" horiz-adv-x="1234" d="M82 478q0 188 77.5 336.5t220.5 233t328 84.5q223 0 362.5 -130.5t139.5 -345.5q0 -110 -20 -190h-752q-3 -16 -3 -32q0 -79 51 -130.5t138 -51.5q65 0 112 30t61 78h368q-43 -176 -193 -281.5t-368 -105.5q-239 0 -380.5 134.5t-141.5 370.5zM474 682h374q3 7 3 32 q0 63 -45 103.5t-116 40.5q-77 0 -136.5 -48.5t-79.5 -127.5zM649 1275l300 321h348l-334 -321h-314z" />
<glyph unicode="&#xea;" horiz-adv-x="1234" d="M82 478q0 188 77.5 336.5t220.5 233t328 84.5q223 0 362.5 -130.5t139.5 -345.5q0 -110 -20 -190h-752q-3 -16 -3 -32q0 -79 51 -130.5t138 -51.5q65 0 112 30t61 78h368q-43 -176 -193 -281.5t-368 -105.5q-239 0 -380.5 134.5t-141.5 370.5zM336 1256l327 336h314 l183 -336h-272l-85 180h-8l-163 -180h-296zM474 682h374q3 7 3 32q0 63 -45 103.5t-116 40.5q-77 0 -136.5 -48.5t-79.5 -127.5z" />
<glyph unicode="&#xeb;" horiz-adv-x="1234" d="M82 478q0 188 77.5 336.5t220.5 233t328 84.5q223 0 362.5 -130.5t139.5 -345.5q0 -110 -20 -190h-752q-3 -16 -3 -32q0 -79 51 -130.5t138 -51.5q65 0 112 30t61 78h368q-43 -176 -193 -281.5t-368 -105.5q-239 0 -380.5 134.5t-141.5 370.5zM422 1396q0 59 42.5 100 t106.5 41t106.5 -41t42.5 -100t-42.5 -100t-106.5 -41t-106.5 41t-42.5 100zM474 682h374q3 7 3 32q0 63 -45 103.5t-116 40.5q-77 0 -136.5 -48.5t-79.5 -127.5zM840 1396q0 59 42.5 100t106.5 41t106.5 -41t42.5 -100t-42.5 -100t-106.5 -41t-106.5 41t-42.5 100z" />
<glyph unicode="&#xec;" horiz-adv-x="561" d="M-8 0l235 1104h397l-235 -1104h-397zM86 1596h347l164 -321h-314z" />
<glyph unicode="&#xed;" horiz-adv-x="561" d="M-8 0l235 1104h397l-235 -1104h-397zM375 1275l300 321h348l-334 -321h-314z" />
<glyph unicode="&#xee;" horiz-adv-x="561" d="M-8 0l235 1104h397l-235 -1104h-397zM62 1256l327 336h314l183 -336h-272l-85 180h-8l-163 -180h-296z" />
<glyph unicode="&#xef;" horiz-adv-x="561" d="M-8 0l235 1104h397l-235 -1104h-397zM148 1396q0 59 42.5 100t106.5 41t106.5 -41t42.5 -100t-42.5 -100t-106.5 -41t-106.5 41t-42.5 100zM566 1396q0 59 42.5 100t106.5 41t106.5 -41t42.5 -100t-42.5 -100t-106.5 -41t-106.5 41t-42.5 100z" />
<glyph unicode="&#xf0;" horiz-adv-x="1328" d="M77 475q0 123 39.5 231t108 185.5t164 122.5t203.5 45q95 0 175.5 -34t116.5 -89l19 -2q-8 123 -91 257l-272 -84l-38 167l195 61q-87 91 -192 161h453q41 -35 63 -59l267 86l41 -168l-192 -60q165 -242 165 -537q0 -154 -43 -291q-73 -229 -242 -361.5t-390 -132.5 q-239 0 -394.5 142t-155.5 360zM486 473q0 -85 45.5 -136t119.5 -51q91 0 160 95t69 219q0 85 -45 136.5t-120 51.5q-89 0 -159 -96.5t-70 -218.5z" />
<glyph unicode="&#xf1;" horiz-adv-x="1286" d="M-8 0l235 1104h383l-36 -167h8q58 93 155.5 144t209.5 51q150 0 241 -85.5t91 -226.5q0 -62 -15 -135l-144 -685h-393l131 624q7 38 7 68q0 58 -41.5 95t-105.5 37q-70 0 -124 -48.5t-70 -127.5l-138 -648h-394zM372 1274q28 134 107.5 213.5t185.5 79.5q49 0 91 -18.5 t65 -41t51 -41t54 -18.5q61 0 89 106h205q-29 -135 -109.5 -216.5t-184.5 -81.5q-49 0 -91 18.5t-65 41t-51 41t-54 18.5q-61 0 -88 -101h-205z" />
<glyph unicode="&#xf2;" horiz-adv-x="1299" d="M80 473q0 190 84 340.5t234.5 234.5t341.5 84q239 0 386.5 -138.5t147.5 -362.5q0 -190 -84 -340.5t-234.5 -234.5t-341.5 -84q-239 0 -386.5 138.5t-147.5 362.5zM392 1596h347l164 -321h-314zM482 481q0 -92 41.5 -149t108.5 -57q100 0 168.5 100.5t68.5 247.5 q0 93 -41 149.5t-108 56.5q-103 0 -170.5 -99t-67.5 -249z" />
<glyph unicode="&#xf3;" horiz-adv-x="1299" d="M80 473q0 190 84 340.5t234.5 234.5t341.5 84q239 0 386.5 -138.5t147.5 -362.5q0 -190 -84 -340.5t-234.5 -234.5t-341.5 -84q-239 0 -386.5 138.5t-147.5 362.5zM482 481q0 -92 41.5 -149t108.5 -57q100 0 168.5 100.5t68.5 247.5q0 93 -41 149.5t-108 56.5 q-103 0 -170.5 -99t-67.5 -249zM681 1275l300 321h348l-334 -321h-314z" />
<glyph unicode="&#xf4;" horiz-adv-x="1299" d="M80 473q0 190 84 340.5t234.5 234.5t341.5 84q239 0 386.5 -138.5t147.5 -362.5q0 -190 -84 -340.5t-234.5 -234.5t-341.5 -84q-239 0 -386.5 138.5t-147.5 362.5zM368 1256l327 336h314l183 -336h-272l-85 180h-8l-163 -180h-296zM482 481q0 -92 41.5 -149t108.5 -57 q100 0 168.5 100.5t68.5 247.5q0 93 -41 149.5t-108 56.5q-103 0 -170.5 -99t-67.5 -249z" />
<glyph unicode="&#xf5;" horiz-adv-x="1299" d="M80 473q0 190 84 340.5t234.5 234.5t341.5 84q239 0 386.5 -138.5t147.5 -362.5q0 -190 -84 -340.5t-234.5 -234.5t-341.5 -84q-239 0 -386.5 138.5t-147.5 362.5zM389 1274q28 134 107.5 213.5t185.5 79.5q49 0 91 -18.5t65 -41t51 -41t54 -18.5q61 0 89 106h205 q-29 -135 -109.5 -216.5t-184.5 -81.5q-49 0 -91 18.5t-65 41t-51 41t-54 18.5q-61 0 -88 -101h-205zM482 481q0 -92 41.5 -149t108.5 -57q100 0 168.5 100.5t68.5 247.5q0 93 -41 149.5t-108 56.5q-103 0 -170.5 -99t-67.5 -249z" />
<glyph unicode="&#xf6;" horiz-adv-x="1299" d="M80 473q0 190 84 340.5t234.5 234.5t341.5 84q239 0 386.5 -138.5t147.5 -362.5q0 -190 -84 -340.5t-234.5 -234.5t-341.5 -84q-239 0 -386.5 138.5t-147.5 362.5zM454 1396q0 59 42.5 100t106.5 41t106.5 -41t42.5 -100t-42.5 -100t-106.5 -41t-106.5 41t-42.5 100z M482 481q0 -92 41.5 -149t108.5 -57q100 0 168.5 100.5t68.5 247.5q0 93 -41 149.5t-108 56.5q-103 0 -170.5 -99t-67.5 -249zM872 1396q0 59 42.5 100t106.5 41t106.5 -41t42.5 -100t-42.5 -100t-106.5 -41t-106.5 41t-42.5 100z" />
<glyph unicode="&#xf7;" d="M139 444l62 288h1142l-62 -288h-1142zM449 167q0 87 57 139.5t152 52.5t152 -52.5t57 -139.5t-57 -139.5t-152 -52.5q-94 0 -151.5 53t-57.5 139zM628 1009q0 87 57 139.5t152 52.5t152 -52.5t57 -139.5t-57 -139.5t-152 -52.5q-94 0 -151.5 53t-57.5 139z" />
<glyph unicode="&#xf8;" horiz-adv-x="1299" d="M69 77l100 100q-89 126 -89 296q0 190 84 340.5t234.5 234.5t341.5 84q175 0 306 -78l106 106l133 -133l-100 -100q89 -126 89 -296q0 -190 -84 -340.5t-234.5 -234.5t-341.5 -84q-175 0 -306 78l-106 -106zM466 474l347 347q-37 32 -89 32q-112 0 -185 -107.5 t-73 -271.5zM540 282q37 -31 88 -31q109 0 182.5 108t74.5 268z" />
<glyph unicode="&#xf9;" horiz-adv-x="1287" d="M65 297q0 75 14 139l142 668h396l-129 -603q-5 -32 -5 -59q0 -70 38.5 -109t109.5 -39t120 47.5t67 132.5l134 630h398l-235 -1104h-385l38 180h-8q-50 -98 -142 -153t-207 -55q-158 0 -252 88t-94 237zM445 1596h347l164 -321h-314z" />
<glyph unicode="&#xfa;" horiz-adv-x="1287" d="M65 297q0 75 14 139l142 668h396l-129 -603q-5 -32 -5 -59q0 -70 38.5 -109t109.5 -39t120 47.5t67 132.5l134 630h398l-235 -1104h-385l38 180h-8q-50 -98 -142 -153t-207 -55q-158 0 -252 88t-94 237zM734 1275l300 321h348l-334 -321h-314z" />
<glyph unicode="&#xfb;" horiz-adv-x="1287" d="M65 297q0 75 14 139l142 668h396l-129 -603q-5 -32 -5 -59q0 -70 38.5 -109t109.5 -39t120 47.5t67 132.5l134 630h398l-235 -1104h-385l38 180h-8q-50 -98 -142 -153t-207 -55q-158 0 -252 88t-94 237zM421 1256l327 336h314l183 -336h-272l-85 180h-8l-163 -180h-296z " />
<glyph unicode="&#xfc;" horiz-adv-x="1287" d="M65 297q0 75 14 139l142 668h396l-129 -603q-5 -32 -5 -59q0 -70 38.5 -109t109.5 -39t120 47.5t67 132.5l134 630h398l-235 -1104h-385l38 180h-8q-50 -98 -142 -153t-207 -55q-158 0 -252 88t-94 237zM507 1396q0 59 42.5 100t106.5 41t106.5 -41t42.5 -100t-42.5 -100 t-106.5 -41t-106.5 41t-42.5 100zM925 1396q0 59 42.5 100t106.5 41t106.5 -41t42.5 -100t-42.5 -100t-106.5 -41t-106.5 41t-42.5 100z" />
<glyph unicode="&#xfd;" horiz-adv-x="1206" d="M-77 -405l64 305h106q172 0 172 97q0 18 -1 23l-111 1084h407l-1 -808h8l354 808h422l-568 -1086q-118 -226 -282 -324.5t-418 -98.5h-152zM690 1276l300 321h348l-334 -321h-314z" />
<glyph unicode="&#xfe;" horiz-adv-x="1315" d="M-75 -325l376 1768h396l-105 -495h19q56 83 139.5 127.5t182.5 44.5q168 0 267 -113t99 -305q0 -204 -71 -368t-196.5 -257t-280.5 -93q-113 0 -192.5 56.5t-106.5 156.5h-19l-112 -522h-396zM498 481q0 -84 42 -134.5t112 -50.5q98 0 168 99.5t70 239.5q0 83 -42 134 t-112 51q-95 0 -166.5 -101.5t-71.5 -237.5z" />
<glyph unicode="&#xff;" horiz-adv-x="1206" d="M-77 -405l64 305h106q172 0 172 97q0 18 -1 23l-111 1084h407l-1 -808h8l354 808h422l-568 -1086q-118 -226 -282 -324.5t-418 -98.5h-152zM463 1397q0 59 42.5 100t106.5 41t106.5 -41t42.5 -100t-42.5 -100t-106.5 -41t-106.5 41t-42.5 100zM881 1397q0 59 42.5 100 t106.5 41t106.5 -41t42.5 -100t-42.5 -100t-106.5 -41t-106.5 41t-42.5 100z" />
<glyph unicode="&#x152;" horiz-adv-x="2233" d="M136 592q0 249 103.5 449.5t287 313.5t411.5 113q149 0 260.5 -66.5t175.5 -192.5h8l51 234h906l-72 -336h-593l-49 -234h556l-65 -304h-556l-50 -233h594l-71 -336h-907l36 180h-8q-66 -94 -187.5 -149.5t-262.5 -55.5q-253 0 -410.5 171t-157.5 446zM566 615 q0 -137 65.5 -219.5t175.5 -82.5q97 0 180 69.5t131.5 188.5t48.5 258q0 137 -66 219t-176 82q-96 0 -179 -69.5t-131.5 -188.5t-48.5 -257z" />
<glyph unicode="&#x153;" horiz-adv-x="1999" d="M78 473q0 185 85.5 336t235.5 237t334 86q108 0 202 -41t155 -114h20q63 69 158 112.5t200 43.5q224 0 367 -133t143 -343q0 -75 -21 -191h-749v-12q0 -96 52 -152t139 -56q136 0 167 114h366q-44 -179 -195.5 -283t-367.5 -104q-102 0 -212.5 47.5t-147.5 108.5h-19 q-135 -156 -378 -156t-388.5 136t-145.5 364zM488 472q0 -97 35.5 -149.5t100.5 -52.5q95 0 164 107t69 253q0 98 -35 152t-98 54q-95 0 -165.5 -109t-70.5 -255zM1245 682h374q3 15 3 32q0 63 -45 103.5t-116 40.5q-77 0 -136.5 -48.5t-79.5 -127.5z" />
<glyph unicode="&#x178;" horiz-adv-x="1430" d="M227 1443h439l133 -585h8l371 585h459l-702 -986l-97 -457h-424l97 457zM624 1700q0 59 42.5 100t106.5 41t106.5 -41t42.5 -100t-42.5 -100t-106.5 -41t-106.5 41t-42.5 100zM1042 1700q0 59 42.5 100t106.5 41t106.5 -41t42.5 -100t-42.5 -100t-106.5 -41t-106.5 41 t-42.5 100z" />
<glyph unicode="&#x2c6;" horiz-adv-x="1048" d="M289 1256l327 336h314l183 -336h-272l-85 180h-8l-163 -180h-296z" />
<glyph unicode="&#x2dc;" horiz-adv-x="1048" d="M311 1276q28 133 107.5 213t185.5 80q49 0 91 -18.5t65 -41t51 -41t54 -18.5q61 0 89 106h205q-29 -135 -109.5 -216.5t-184.5 -81.5q-49 0 -91 18.5t-65 41t-51 41t-54 18.5q-61 0 -88 -101h-205z" />
<glyph unicode="&#x2000;" horiz-adv-x="1022" />
<glyph unicode="&#x2001;" horiz-adv-x="2045" />
<glyph unicode="&#x2002;" horiz-adv-x="1022" />
<glyph unicode="&#x2003;" horiz-adv-x="2045" />
<glyph unicode="&#x2004;" horiz-adv-x="681" />
<glyph unicode="&#x2005;" horiz-adv-x="511" />
<glyph unicode="&#x2006;" horiz-adv-x="340" />
<glyph unicode="&#x2007;" horiz-adv-x="340" />
<glyph unicode="&#x2008;" horiz-adv-x="255" />
<glyph unicode="&#x2009;" horiz-adv-x="409" />
<glyph unicode="&#x200a;" horiz-adv-x="113" />
<glyph unicode="&#x2010;" horiz-adv-x="830" d="M90 422l74 348h650l-74 -348h-650z" />
<glyph unicode="&#x2011;" horiz-adv-x="830" d="M90 422l74 348h650l-74 -348h-650z" />
<glyph unicode="&#x2012;" horiz-adv-x="830" d="M90 422l74 348h650l-74 -348h-650z" />
<glyph unicode="&#x2013;" horiz-adv-x="1024" d="M0 422l74 348h1024l-74 -348h-1024z" />
<glyph unicode="&#x2014;" horiz-adv-x="2048" d="M0 422l74 348h2048l-74 -348h-2048z" />
<glyph unicode="&#x2018;" horiz-adv-x="649" d="M189 826l282 617h292l-204 -617h-370z" />
<glyph unicode="&#x2019;" horiz-adv-x="649" d="M199 826l184 617h370l-262 -617h-292z" />
<glyph unicode="&#x201a;" horiz-adv-x="648" d="M-28 -344l184 617h370l-262 -617h-292z" />
<glyph unicode="&#x201c;" horiz-adv-x="1198" d="M216 826l282 617h292l-204 -617h-370zM731 826l262 617h292l-184 -617h-370z" />
<glyph unicode="&#x201d;" horiz-adv-x="1198" d="M216 826l184 617h370l-262 -617h-292zM711 826l204 617h370l-282 -617h-292z" />
<glyph unicode="&#x201e;" horiz-adv-x="1198" d="M-33 -344l184 617h370l-262 -617h-292zM482 -344l184 617h370l-262 -617h-292z" />
<glyph unicode="&#x2022;" horiz-adv-x="966" d="M106 573q0 167 121 288t288 121t288 -121t121 -288t-121 -288t-288 -121t-288 121t-121 288z" />
<glyph unicode="&#x2026;" horiz-adv-x="1784" d="M53 194q0 86 61 147t147 61t147 -61t61 -147t-61 -147t-147 -61t-147 61t-61 147zM636 194q0 86 61 147t147 61t147 -61t61 -147t-61 -147t-147 -61t-147 61t-61 147zM1219 194q0 86 61 147t147 61t147 -61t61 -147t-61 -147t-147 -61t-147 61t-61 147z" />
<glyph unicode="&#x202f;" horiz-adv-x="409" />
<glyph unicode="&#x2039;" horiz-adv-x="894" d="M129 563l2 8l404 406h367l-433 -421l-1 -6l259 -394h-338z" />
<glyph unicode="&#x203a;" horiz-adv-x="894" d="M53 156l433 421l1 6l-259 394h338l260 -407l-2 -8l-404 -406h-367z" />
<glyph unicode="&#x205f;" horiz-adv-x="511" />
<glyph unicode="&#x20ac;" d="M100 471l40 180h146q1 48 8 104h-134l39 180h139q88 245 300 391.5t503 146.5q121 0 226.5 -21t151.5 -43l-71 -334q-119 51 -283 51q-121 0 -214 -50.5t-151 -140.5h538l-41 -180h-568q-10 -49 -12 -104h559l-40 -180h-486q84 -163 405 -163q107 0 148 15l-74 -339 q-18 -4 -71 -9t-81 -5q-321 0 -524.5 131.5t-253.5 369.5h-199z" />
<glyph unicode="&#x2122;" horiz-adv-x="1920" d="M228 1239l49 204h727l-49 -204h-230l-133 -556h-267l133 556h-230zM901 683l173 760h308l49 -403h15l222 403h331l-174 -760h-228l103 445h-12l-245 -422h-147l-56 422h-10l-102 -445h-227z" />
<glyph unicode="&#x25fc;" horiz-adv-x="1105" d="M0 0v1105h1105v-1105h-1105z" />
<glyph unicode="&#xfb01;" horiz-adv-x="1389" d="M87 0l171 797h-167l62 289h162l29 139q31 146 135 213t287 67q139 0 237 -31l-55 -247q-37 13 -112 13q-46 0 -75.5 -20t-37.5 -55l-17 -79h212l-62 -289h-202l-170 -797h-397zM820 0l235 1104h397l-235 -1104h-397zM1106 1361q0 82 58 137t144 55t144 -55t58 -137 t-58 -137t-144 -55t-144 55t-58 137z" />
<glyph unicode="&#xfb02;" horiz-adv-x="1404" d="M87 0l171 797h-167l62 289h162l29 139q31 146 135 213t287 67q139 0 237 -31l-55 -247q-37 13 -112 13q-46 0 -75.5 -20t-37.5 -55l-17 -79h212l-62 -289h-202l-170 -797h-397zM828 0l307 1443h396l-307 -1443h-396z" />
</font>
</defs>
</svg>
