<?xml version="1.0" standalone="no"?>
<!DOCTYPE svg PUBLIC "-//W3C//DTD SVG 1.1//EN" "http://www.w3.org/Graphics/SVG/1.1/DTD/svg11.dtd" >
<svg xmlns="http://www.w3.org/2000/svg" xmlns:xlink="http://www.w3.org/1999/xlink" version="1.1">
<metadata></metadata>
<defs>
<font id="sf_pro_displayultralight" horiz-adv-x="1179" >
<font-face units-per-em="2048" ascent="1638" descent="-410" />
<missing-glyph horiz-adv-x="416" />
<glyph horiz-adv-x="0" />
<glyph unicode="&#xd;" horiz-adv-x="0" />
<glyph unicode=" "  horiz-adv-x="416" />
<glyph unicode="&#x09;" horiz-adv-x="416" />
<glyph unicode="&#xa0;" horiz-adv-x="416" />
<glyph unicode="!" horiz-adv-x="500" d="M197 45q0 22 15.5 37.5t37.5 15.5q21 0 36.5 -15.5t15.5 -37.5q0 -21 -15.5 -36.5t-36.5 -15.5q-22 0 -37.5 15.5t-15.5 36.5zM223 1443h54l-1 -1032h-52z" />
<glyph unicode="&#x22;" horiz-adv-x="494" d="M99 998v445h48v-445h-48zM346 998v445h49v-445h-49z" />
<glyph unicode="#" horiz-adv-x="1231" d="M10 450l9 46h278l90 456h-284l9 45h284l94 453h48l-94 -453h426l94 453h48l-94 -453h303l-10 -45h-302l-91 -456h310l-10 -46h-309l-94 -450h-49l94 450h-426l-94 -450h-48l95 450h-277zM345 496h425l90 456h-425z" />
<glyph unicode="$" d="M81 382h49q7 -143 133 -245.5t302 -109.5v696l-5 2q-245 59 -344 140t-99 225q0 157 126.5 262t321.5 111v133h44v-133q184 -7 313.5 -111.5t134.5 -248.5h-50q-5 123 -121.5 215t-276.5 99v-655l6 -1q261 -60 366.5 -148t105.5 -245q0 -162 -135 -271t-343 -117v-156 h-44v156q-202 7 -341 122t-143 280zM166 1092q0 -124 89 -195t310 -124v644q-171 -5 -285 -98t-114 -227zM609 27q181 6 304.5 104t123.5 236q0 136 -95.5 213.5t-332.5 133.5v-687z" />
<glyph unicode="%" horiz-adv-x="1378" d="M50 1110q0 158 64 250t175 92q110 0 174.5 -92t64.5 -250q0 -157 -64.5 -249t-174.5 -92q-111 0 -175 91.5t-64 249.5zM98 1110q0 -138 51.5 -218.5t139.5 -80.5t139 80.5t51 218.5q0 139 -51 219.5t-139 80.5t-139.5 -80.5t-51.5 -219.5zM119 0l551 735l529 708h60 l-550 -734l-531 -709h-59zM850 331q0 158 64.5 249.5t174.5 91.5q111 0 175 -91.5t64 -249.5t-64 -249.5t-175 -91.5q-110 0 -174.5 91.5t-64.5 249.5zM899 331q0 -138 51 -218.5t139 -80.5t139.5 80.5t51.5 218.5t-51.5 218.5t-139.5 80.5t-139 -80.5t-51 -218.5z" />
<glyph unicode="&#x26;" horiz-adv-x="1375" d="M72 361q0 224 273 371q1 0 30 15.5t58 30.5l29 16q-132 132 -180.5 211t-48.5 160q0 125 98 211t240 86q140 0 233.5 -83.5t93.5 -210.5q0 -103 -85 -196t-276 -189l478 -503q64 96 102 213.5t38 219.5v88h49v-87q0 -110 -42.5 -238t-111.5 -227l244 -249h-65l-209 215 q-94 -109 -228.5 -172t-272.5 -63q-198 0 -322.5 107t-124.5 274zM121 360q0 -142 111.5 -238t287.5 -96q122 0 252.5 61.5t211.5 157.5l-490 514q-119 -64 -120 -64q-253 -135 -253 -335zM282 1164q0 -71 46 -143t178 -205q343 164 343 351q0 105 -81 177.5t-198 72.5 q-116 0 -202 -75.5t-86 -177.5z" />
<glyph unicode="'" horiz-adv-x="246" d="M99 998v445h48v-445h-48z" />
<glyph unicode="(" horiz-adv-x="558" d="M194 572q0 254 66.5 479.5t194.5 391.5h53q-125 -166 -195 -398.5t-70 -472.5q0 -241 70 -473t195 -398h-53q-128 166 -194.5 391.5t-66.5 479.5z" />
<glyph unicode=")" horiz-adv-x="558" d="M49 -299q124 164 194.5 395t70.5 476q0 244 -71 476t-194 395h53q126 -162 194 -388.5t68 -482.5t-68 -482t-194 -389h-53z" />
<glyph unicode="*" horiz-adv-x="943" d="M167 946l262 150l-262 148l23 41l260 -152v302h44l-1 -302l261 152l23 -39l-262 -150l263 -149l-23 -41l-262 153l1 -303h-44v303l-260 -152z" />
<glyph unicode="+" d="M104 554v47h461v503h49v-503h460v-47h-460v-517h-49v517h-461z" />
<glyph unicode="," horiz-adv-x="488" d="M133 -253l94 427h52l-103 -427h-43z" />
<glyph unicode="-" horiz-adv-x="865" d="M104 555v47h656v-47h-656z" />
<glyph unicode="." horiz-adv-x="488" d="M192 45q0 22 15.5 37.5t36.5 15.5q22 0 37.5 -15.5t15.5 -37.5q0 -21 -15.5 -36.5t-37.5 -15.5q-21 0 -36.5 15.5t-15.5 36.5z" />
<glyph unicode="/" horiz-adv-x="558" d="M0 -299l509 1742h49l-509 -1742h-49z" />
<glyph unicode="0" horiz-adv-x="1181" d="M85 722q0 341 136 541t369 200t369 -200t136 -541q0 -342 -136 -542t-369 -200t-369 200t-136 542zM135 722q0 -320 122.5 -508t332.5 -188t332.5 188t122.5 508t-122.5 507.5t-332.5 187.5q-209 0 -332 -187.5t-123 -507.5z" />
<glyph unicode="1" horiz-adv-x="774" d="M85 1136v58q302 191 399 249h49v-1443h-49v1383h-2q-37 -22 -397 -247z" />
<glyph unicode="2" horiz-adv-x="1138" d="M128 1062q5 175 127 288t307 113q181 0 304 -112t123 -278q0 -113 -64 -221t-242 -296l-476 -505v-4h845v-47h-919v41l514 547q172 181 232 280.5t60 203.5q0 146 -109 245.5t-269 99.5q-162 0 -270.5 -100.5t-112.5 -254.5h-50z" />
<glyph unicode="3" horiz-adv-x="1126" d="M85 357h50q1 -92 58 -168t154.5 -119.5t214.5 -43.5q184 0 306 103.5t122 261.5t-121 247.5t-335 89.5h-158v46h158q175 0 284 90.5t109 233.5q0 137 -108 228t-271 91q-154 0 -262.5 -90t-117.5 -224h-49q8 155 130 257.5t299 102.5q184 0 306.5 -103.5t122.5 -259.5 q0 -134 -82.5 -226t-226.5 -119v-4q170 -11 271 -108.5t101 -251.5q0 -178 -136 -294.5t-343 -116.5q-201 0 -337.5 108.5t-138.5 268.5z" />
<glyph unicode="4" horiz-adv-x="1164" d="M68 379v47q333 501 729 1023l68 1v-1025h237v-46h-237v-379h-49v379h-748zM128 425h688v965h-2q-342 -446 -686 -962v-3z" />
<glyph unicode="5" horiz-adv-x="1163" d="M126 341h50q18 -135 136.5 -225t278.5 -90q189 0 314.5 123t125.5 308q0 184 -123 308.5t-305 124.5q-126 0 -232 -60.5t-168 -167.5h-54l89 781h747v-47h-704l-74 -659h2q62 92 168 145.5t227 53.5q204 0 340.5 -137t136.5 -341q0 -206 -140 -342t-351 -136 q-182 0 -314 103t-150 258z" />
<glyph unicode="6" horiz-adv-x="1166" d="M90 680q0 359 142 571t383 212q172 0 293.5 -97t144.5 -254h-50q-22 133 -131 219t-257 86q-231 0 -357.5 -220t-118.5 -607h4q35 155 166.5 254.5t300.5 99.5q204 0 341.5 -136.5t137.5 -338.5q0 -209 -137.5 -349t-342.5 -140q-112 0 -207.5 43.5t-162.5 125.5 q-149 179 -149 531zM169 487q0 -195 126.5 -328t313.5 -133q182 0 306 127.5t124 315.5q0 182 -124.5 305.5t-307.5 123.5q-115 0 -216.5 -56t-161.5 -151.5t-60 -203.5z" />
<glyph unicode="7" horiz-adv-x="1074" d="M84 1396v47h910v-50l-698 -1393h-56l701 1394v2h-857z" />
<glyph unicode="8" horiz-adv-x="1178" d="M94 395q0 140 95.5 242.5t248.5 129.5v2q-133 28 -213 115t-80 208q0 163 124 267t319 104q196 0 320 -104t124 -267q0 -117 -81 -205t-211 -118v-2q152 -27 248 -130t96 -242q0 -183 -136.5 -299t-359.5 -116q-222 0 -358 116.5t-136 298.5zM144 395q0 -160 122 -264.5 t322 -104.5t323 104.5t123 264.5q0 152 -122.5 249t-322.5 97q-199 0 -322 -97t-123 -249zM195 1091q0 -131 111 -216.5t282 -85.5q172 0 283 85.5t111 216.5q0 140 -108 233t-285 93q-176 0 -285 -93t-109 -233z" />
<glyph unicode="9" horiz-adv-x="1166" d="M77 967q0 140 61.5 253.5t171.5 178t246 64.5q230 0 370 -172q149 -178 149 -528q0 -359 -140 -571t-384 -212q-177 0 -296 97.5t-142 252.5h50q22 -132 126.5 -218t261.5 -86q220 0 344 194.5t132 533.5q1 33 -1 99h-1h-1q-33 -150 -166.5 -252t-301.5 -102 q-207 0 -343 134t-136 334zM127 967q0 -176 122 -299t309 -123q117 0 218.5 57.5t161 152.5t59.5 201q0 193 -126.5 327t-314.5 134q-184 0 -306.5 -129t-122.5 -321z" />
<glyph unicode=":" horiz-adv-x="488" d="M192 45q0 22 15.5 37.5t36.5 15.5q22 0 37.5 -15.5t15.5 -37.5q0 -21 -15.5 -36.5t-37.5 -15.5q-21 0 -36.5 15.5t-15.5 36.5zM192 832q0 21 15.5 36.5t36.5 15.5q22 0 37.5 -15.5t15.5 -36.5q0 -22 -15.5 -37.5t-37.5 -15.5q-21 0 -36.5 15.5t-15.5 37.5z" />
<glyph unicode=";" horiz-adv-x="488" d="M133 -253l94 427h52l-103 -427h-43zM192 832q0 21 15.5 36.5t36.5 15.5q22 0 37.5 -15.5t15.5 -36.5q0 -22 -15.5 -37.5t-37.5 -15.5q-21 0 -36.5 15.5t-15.5 37.5z" />
<glyph unicode="&#x3c;" d="M191 510v44l796 576v-65l-736 -530v-5l736 -528v-65z" />
<glyph unicode="=" d="M106 368v46h967v-46h-967zM106 741v46h967v-46h-967z" />
<glyph unicode="&#x3e;" d="M191 2l737 528v5l-737 530v65l796 -575v-45l-796 -573v65z" />
<glyph unicode="?" horiz-adv-x="911" d="M62 1105q10 154 118.5 255t266.5 101q164 0 273 -100t109 -250q0 -99 -49 -175.5t-166 -159.5q-105 -75 -141.5 -133t-36.5 -149v-97h-49v99q0 99 40.5 165t151.5 148q107 79 153 148.5t46 151.5q0 133 -95.5 219.5t-235.5 86.5q-136 0 -230 -85.5t-107 -224.5h-48z M363 45q0 22 15 37.5t37 15.5t37.5 -15.5t15.5 -37.5q0 -21 -15.5 -36.5t-37.5 -15.5t-37 15.5t-15 36.5z" />
<glyph unicode="@" horiz-adv-x="1727" d="M65 609q0 235 105 423t292 293.5t421 105.5q174 0 322 -56t252 -155t163 -240.5t59 -306.5q0 -236 -80.5 -368t-225.5 -132q-95 0 -157.5 57t-77.5 157h-4q-76 -211 -278 -211q-153 0 -247.5 115t-94.5 301q0 188 94.5 304.5t247.5 116.5q100 0 175 -54t102 -146h4v178 h48v-541q0 -108 50.5 -170.5t139.5 -62.5q122 0 189.5 120t67.5 337q0 155 -55.5 288t-154 226.5t-238 146t-303.5 52.5t-307 -59t-244 -161.5t-159.5 -247t-58.5 -310.5q0 -139 36 -262.5t104 -220t161.5 -166.5t212.5 -107t252 -37q212 0 326 35v-46q-101 -33 -326 -33 q-177 0 -328.5 61.5t-258 170.5t-166.5 265t-60 340zM564 591q0 -163 82 -266.5t211 -103.5q127 0 203.5 105t76.5 278q0 168 -75 266t-205 98q-127 0 -210 -107t-83 -270z" />
<glyph unicode="A" horiz-adv-x="1201" d="M20 0l555 1443h51l555 -1443h-56l-189 501h-671l-190 -501h-55zM283 547h635l-315 827h-5z" />
<glyph unicode="B" horiz-adv-x="1138" d="M124 0v1443h463q188 0 305 -96.5t117 -252.5q0 -133 -78.5 -225.5t-215.5 -119.5v-4q162 -16 266.5 -113.5t104.5 -252.5q0 -174 -130.5 -276.5t-355.5 -102.5h-476zM174 46h424q204 0 321 90.5t117 243.5q0 157 -122.5 248t-336.5 91h-403v-673zM174 765h400 q174 0 279.5 89.5t105.5 238.5q0 137 -103 220.5t-273 83.5h-409v-632z" />
<glyph unicode="C" horiz-adv-x="1303" d="M63 732q0 337 169.5 534t459.5 197q215 0 377 -140.5t181 -343.5h-49q-20 184 -167 310.5t-342 126.5q-266 0 -422.5 -184.5t-156.5 -499.5q0 -324 157.5 -514.5t421.5 -190.5q203 0 347 115t162 298h49q-11 -134 -86.5 -239t-199 -163t-272.5 -58q-287 0 -458 204 t-171 548z" />
<glyph unicode="D" horiz-adv-x="1312" d="M124 0v1443h435q330 0 510 -188t180 -533q0 -346 -180 -534t-510 -188h-435zM175 47h383q309 0 475 175t166 500q0 324 -166.5 499t-474.5 175h-383v-1349z" />
<glyph unicode="E" horiz-adv-x="1050" d="M124 0v1443h826v-47h-776v-632h740v-46h-740v-671h776v-47h-826z" />
<glyph unicode="F" horiz-adv-x="1020" d="M124 0v1443h817v-47h-767v-634h706v-47h-706v-715h-50z" />
<glyph unicode="G" horiz-adv-x="1332" d="M63 731q0 329 171 530.5t451 201.5q213 0 368.5 -118t195.5 -309h-49q-42 172 -183 276t-332 104q-258 0 -415 -188t-157 -497q0 -313 159 -508.5t413 -195.5q244 0 384.5 143t140.5 392v100h-531v46h580v-144q0 -272 -153.5 -428t-420.5 -156q-182 0 -323.5 94.5 t-220 265.5t-78.5 391z" />
<glyph unicode="H" horiz-adv-x="1296" d="M124 0v1443h50v-678h948v678h50v-1443h-50v718h-948v-718h-50z" />
<glyph unicode="I" horiz-adv-x="298" d="M124 0v1443h50v-1443h-50z" />
<glyph unicode="J" horiz-adv-x="933" d="M41 315h49q7 -128 98.5 -208.5t229.5 -80.5q159 0 250 95t91 263v1059h50v-1062q0 -185 -104.5 -293.5t-286.5 -108.5q-160 0 -266 94t-111 242z" />
<glyph unicode="K" horiz-adv-x="1107" d="M124 0v1443h50v-836h4l784 836h64l-594 -635l664 -808h-64l-636 773l-222 -237v-536h-50z" />
<glyph unicode="L" horiz-adv-x="1009" d="M124 0v1443h50v-1396h775v-47h-825z" />
<glyph unicode="M" horiz-adv-x="1576" d="M124 0v1443h53l609 -1380h4l606 1380h55v-1443h-49v1328h-4l-584 -1327h-53l-584 1327h-4v-1328h-49z" />
<glyph unicode="N" horiz-adv-x="1315" d="M124 0v1443h55l958 -1348h4v1348h50v-1443h-46l-967 1359h-4v-1359h-50z" />
<glyph unicode="O" horiz-adv-x="1398" d="M63 722q0 340 172 540.5t464 200.5q291 0 463.5 -200.5t172.5 -540.5q0 -341 -172 -541.5t-464 -200.5q-293 0 -464.5 200.5t-171.5 541.5zM113 722q0 -318 159 -506.5t427 -188.5t427 188.5t159 506.5t-159 506t-427 188q-269 0 -427.5 -188t-158.5 -506z" />
<glyph unicode="P" horiz-adv-x="1085" d="M124 0v1443h445q213 0 338.5 -114t125.5 -307t-126 -307t-338 -114h-395v-601h-50zM174 648h392q192 0 304.5 100.5t112.5 273.5q0 174 -112.5 274t-304.5 100h-392v-748z" />
<glyph unicode="Q" horiz-adv-x="1398" d="M63 722q0 340 172 540.5t464 200.5q291 0 463.5 -200.5t172.5 -540.5q0 -224 -79 -393.5t-224 -260.5l183 -250h-59l-166 227q-130 -65 -291 -65q-293 0 -464.5 200.5t-171.5 541.5zM113 722q0 -318 159 -506.5t427 -188.5q145 0 263 58l-201 275h59l183 -252 q136 84 208.5 243t72.5 371q0 317 -159 505.5t-426 188.5q-268 0 -427 -188.5t-159 -505.5z" />
<glyph unicode="R" horiz-adv-x="1124" d="M124 0v1443h447q216 0 340 -108.5t124 -298.5q0 -158 -92 -263t-255 -133l382 -640h-58l-376 632q-34 -2 -66 -2h-396v-630h-50zM174 676h396q193 0 304 96.5t111 263.5q0 170 -110.5 265t-304.5 95h-396v-720z" />
<glyph unicode="S" horiz-adv-x="1114" d="M52 382h50q8 -156 139.5 -256t329.5 -100q193 0 316 99.5t123 251.5q0 120 -85 193t-277 121l-167 42q-202 50 -295.5 133.5t-93.5 215.5q0 163 135 272t326 109q200 0 336 -103.5t143 -257.5h-50q-7 135 -129 225t-300 90q-172 0 -291.5 -95.5t-119.5 -239.5 q0 -114 85 -185t270 -117l165 -41q207 -52 302.5 -136.5t95.5 -223.5q0 -175 -136.5 -287t-354.5 -112q-219 0 -364 113t-153 289z" />
<glyph unicode="T" horiz-adv-x="1116" d="M13 1396v47h1090v-47h-520v-1396h-50v1396h-520z" />
<glyph unicode="U" horiz-adv-x="1307" d="M124 499v944h50v-943q0 -218 129.5 -345.5t349.5 -127.5q221 0 350.5 127.5t129.5 345.5v943h50v-944q0 -237 -143.5 -378t-386.5 -141t-386 141t-143 378z" />
<glyph unicode="V" horiz-adv-x="1203" d="M20 1443h55l524 -1372h4l525 1372h54l-555 -1443h-51z" />
<glyph unicode="W" horiz-adv-x="1777" d="M41 1443h52l374 -1344h4l396 1344h43l395 -1344h5l374 1344h51l-406 -1443h-40l-398 1338h-5l-398 -1338h-41z" />
<glyph unicode="X" horiz-adv-x="1190" d="M41 0l524 721v1l-523 721h60l493 -680h1l494 680h59l-523 -721l522 -722h-60l-492 680h-1l-495 -680h-59z" />
<glyph unicode="Y" horiz-adv-x="1148" d="M21 1443h60l492 -758h4l491 758h59l-527 -812v-631h-50v631z" />
<glyph unicode="Z" horiz-adv-x="1147" d="M64 0v42l954 1350v4h-925v47h989v-43l-953 -1349v-4h954v-47h-1019z" />
<glyph unicode="[" horiz-adv-x="558" d="M200 -299v1742h328v-45h-279v-1652h279v-45h-328z" />
<glyph unicode="\" horiz-adv-x="558" d="M0 1443h49l509 -1742h-50z" />
<glyph unicode="]" horiz-adv-x="558" d="M29 -254h279v1652h-279v45h328v-1742h-328v45z" />
<glyph unicode="^" horiz-adv-x="749" d="M62 798l292 596h41l293 -596h-55l-257 531h-3l-257 -531h-54z" />
<glyph unicode="_" horiz-adv-x="801" d="M-66 -152h933v-44h-933v44z" />
<glyph unicode="`" horiz-adv-x="686" d="M211 1560h62l236 -304h-54z" />
<glyph unicode="a" horiz-adv-x="987" d="M88 276q0 266 366 297l375 28v94q0 147 -83 231t-230 84q-145 0 -234.5 -71t-109.5 -202h-48q17 148 122 233t270 85q168 0 265 -95.5t97 -260.5v-699h-49v236h-1q-38 -111 -148 -181t-249 -70q-151 0 -247 81t-96 210zM137 276q0 -106 84.5 -176t212.5 -70 q164 0 279.5 103.5t115.5 249.5v175l-368 -28q-158 -12 -241 -77t-83 -177z" />
<glyph unicode="b" horiz-adv-x="1080" d="M126 0v1443h49v-707h2q36 144 146 231.5t257 87.5q193 0 315 -148t122 -386t-121.5 -387t-314.5 -149q-146 0 -256.5 87.5t-148.5 234.5h-2v-307h-48zM175 519q0 -215 112 -352t287 -137t284 136.5t109 354.5t-108.5 353.5t-283.5 135.5t-287.5 -138t-112.5 -353z" />
<glyph unicode="c" horiz-adv-x="985" d="M63 520q0 246 123 390.5t330 144.5q159 0 272 -90t139 -231h-50q-26 122 -124.5 199t-236.5 77q-186 0 -294.5 -132.5t-108.5 -357.5t108.5 -357.5t294.5 -132.5q139 0 237 74t122 193h50q-25 -140 -136.5 -226t-272.5 -86q-208 0 -330.5 144.5t-122.5 390.5z" />
<glyph unicode="d" horiz-adv-x="1088" d="M63 520q0 238 123.5 386.5t319.5 148.5q151 0 262.5 -91.5t142.5 -227.5h2v707h50v-1443h-46v309h-2q-33 -139 -145.5 -231.5t-263.5 -92.5q-195 0 -319 148.5t-124 386.5zM113 521q0 -218 110.5 -354.5t285.5 -136.5q177 0 290.5 137t113.5 353t-113.5 353t-290.5 137 q-175 0 -285.5 -136t-110.5 -353z" />
<glyph unicode="e" horiz-adv-x="1021" d="M63 520q0 242 124 388.5t328 146.5q199 0 321 -138t122 -362v-38h-845v-2q0 -228 111.5 -356.5t299.5 -128.5q150 0 248 72t122 187h51q-27 -135 -139.5 -219.5t-282.5 -84.5q-211 0 -335.5 142t-124.5 393zM114 562h794q0 200 -108.5 324t-284.5 124q-174 0 -283.5 -123 t-117.5 -325z" />
<glyph unicode="f" horiz-adv-x="498" d="M19 995v45h145v163q0 120 59.5 177t167.5 57q49 0 77 -10v-44q-33 9 -75 9q-179 0 -179 -194v-158h244v-45h-244v-995h-50v995h-145z" />
<glyph unicode="g" horiz-adv-x="1070" d="M63 520q0 238 122 386.5t317 148.5q150 0 260 -91.5t144 -232.5h2v309h46v-1031q0 -172 -114.5 -276t-308.5 -104q-163 0 -272 73t-132 181h52q28 -91 121.5 -150t232.5 -59q170 0 271 91t101 242v298h-2q-32 -137 -141.5 -228.5t-259.5 -91.5q-195 0 -317 148.5 t-122 386.5zM113 519q0 -217 108.5 -352t282.5 -135q177 0 289 136t112 352q0 217 -112 353.5t-289 136.5q-174 0 -282.5 -136.5t-108.5 -354.5z" />
<glyph unicode="h" horiz-adv-x="1038" d="M126 0v1443h49v-647h2q32 116 133 187.5t235 71.5q172 0 278 -104t106 -278v-673h-49v670q0 156 -94 248t-247 92q-160 0 -262 -108t-102 -278v-624h-49z" />
<glyph unicode="i" horiz-adv-x="299" d="M102 1367q0 19 14 32.5t33 13.5q20 0 34 -13.5t14 -32.5q0 -20 -14 -33.5t-34 -13.5q-19 0 -33 13.5t-14 33.5zM125 0v1040h49v-1040h-49z" />
<glyph unicode="j" horiz-adv-x="299" d="M-110 -303h27q109 0 158.5 48t49.5 156v1139h49v-1135q0 -135 -63.5 -194.5t-191.5 -59.5h-29v46zM101 1367q0 19 14 32.5t34 13.5t34 -13.5t14 -32.5q0 -20 -14 -33.5t-34 -13.5t-34 13.5t-14 33.5z" />
<glyph unicode="k" horiz-adv-x="883" d="M126 0v1443h49v-956h1l622 553h69l-499 -448l500 -592h-63l-476 562l-154 -137v-425h-49z" />
<glyph unicode="l" horiz-adv-x="299" d="M125 0v1443h49v-1443h-49z" />
<glyph unicode="m" horiz-adv-x="1574" d="M116 0v1040h46v-244h2q28 115 111.5 187t207.5 72t210.5 -75t107.5 -186h2q24 109 114 185t218 76q149 0 239.5 -97t90.5 -260v-698h-49v686q0 150 -77.5 237t-211.5 87q-140 0 -226 -102t-86 -266v-642h-49v684q0 146 -80.5 236t-207.5 90q-140 0 -226.5 -108.5 t-86.5 -289.5v-612h-49z" />
<glyph unicode="n" horiz-adv-x="1027" d="M116 0v1040h46v-244h2q33 116 133 187.5t235 71.5q173 0 279.5 -104t106.5 -278v-673h-49v670q0 156 -95 248t-249 92q-160 0 -260 -108t-100 -278v-624h-49z" />
<glyph unicode="o" horiz-adv-x="1043" d="M63 520q0 245 126 390t332 145t332.5 -145t126.5 -390t-126.5 -390t-332.5 -145t-332 145t-126 390zM113 520q0 -225 111.5 -357.5t296.5 -132.5q184 0 297 133t113 357q0 225 -112.5 357.5t-297.5 132.5t-296.5 -132.5t-111.5 -357.5z" />
<glyph unicode="p" horiz-adv-x="1070" d="M116 -339v1379h46v-309h2q33 140 143.5 232t260.5 92q195 0 317 -148.5t122 -386.5q0 -239 -122 -387t-317 -148q-149 0 -259 91.5t-142 227.5h-2v-643h-49zM165 520q0 -217 112 -353.5t288 -136.5q175 0 284 136t109 353q0 218 -109 354.5t-284 136.5 q-176 0 -288 -136.5t-112 -353.5z" />
<glyph unicode="q" horiz-adv-x="1079" d="M63 520q0 238 123.5 386.5t319.5 148.5q151 0 263.5 -92.5t145.5 -231.5h2v309h46v-1379h-50v643h-2q-32 -136 -143.5 -227.5t-261.5 -91.5q-196 0 -319.5 148t-123.5 387zM113 519q0 -217 110.5 -353t285.5 -136q177 0 290.5 137t113.5 353t-113.5 353t-290.5 137 q-175 0 -285.5 -136.5t-110.5 -354.5z" />
<glyph unicode="r" horiz-adv-x="584" d="M116 0v1040h46v-216h2q34 114 106.5 172.5t179.5 58.5q63 0 105 -20v-51q-44 24 -112 24q-127 0 -202.5 -100.5t-75.5 -259.5v-648h-49z" />
<glyph unicode="s" horiz-adv-x="876" d="M54 294h49q14 -116 110.5 -190.5t235.5 -74.5q141 0 231.5 67t90.5 171q0 90 -58.5 142.5t-194.5 83.5l-141 32q-149 34 -218.5 95.5t-69.5 159.5q0 120 98 197.5t249 77.5q156 0 254.5 -84t115.5 -232h-48q-18 127 -104 199.5t-219 72.5q-128 0 -212 -65.5t-84 -163.5 q0 -82 59 -131.5t195 -81.5l140 -32q155 -37 221.5 -99t66.5 -168q0 -125 -104 -205t-268 -80q-161 0 -272.5 86.5t-122.5 222.5z" />
<glyph unicode="t" horiz-adv-x="511" d="M19 995v45h155v279h49v-279h210v-45h-210v-767q0 -98 37 -140.5t120 -42.5q70 0 72 1v-46q-1 0 -37 -0.5t-38 -0.5q-107 0 -155 53t-48 175v768h-155z" />
<glyph unicode="u" horiz-adv-x="1027" d="M109 362v678h49v-671q0 -158 92.5 -248.5t243.5 -90.5q157 0 262.5 105.5t105.5 276.5v628h49v-1040h-46v242h-2q-31 -110 -137.5 -183.5t-237.5 -73.5q-169 0 -274 102.5t-105 274.5z" />
<glyph unicode="v" horiz-adv-x="860" d="M2 1040h53l374 -993h2l374 993h53l-394 -1040h-68z" />
<glyph unicode="w" horiz-adv-x="1360" d="M2 1040h55l283 -985h2l306 985h65l305 -985h2l283 985h55l-306 -1040h-65l-306 980h-2l-305 -980h-66z" />
<glyph unicode="x" horiz-adv-x="841" d="M2 0l389 530l-388 510h62l355 -472h2l356 472h61l-388 -509l387 -531h-60l-357 488h-2l-357 -488h-60z" />
<glyph unicode="y" horiz-adv-x="860" d="M2 1040h54l373 -993h2l374 993h53l-409 -1083q-71 -188 -126 -248t-157 -60q-19 0 -47 8v46q20 -8 51 -8q68 0 111 43.5t87 154.5l35 89z" />
<glyph unicode="z" horiz-adv-x="881" d="M57 0v46l707 947v2h-707v45h767v-46l-711 -947v-2h711v-45h-767z" />
<glyph unicode="{" horiz-adv-x="558" d="M29 558v90q120 0 169 51t49 178v274q0 159 59.5 225.5t201.5 66.5h20v-45h-19q-113 0 -163 -55t-50 -192v-309q0 -111 -51 -164t-166 -65v-18q115 -11 166 -64t51 -164v-364q0 -138 52.5 -197t160.5 -59h19v-46h-20q-140 0 -200.5 69.5t-60.5 231.5v330q0 125 -49 175.5 t-169 50.5z" />
<glyph unicode="|" horiz-adv-x="558" d="M255 -299v1742h48v-1742h-48z" />
<glyph unicode="}" horiz-adv-x="558" d="M29 -253h20q108 0 160.5 59t52.5 197v364q0 111 51 164t166 64v18q-116 12 -166.5 65t-50.5 164v309q0 137 -50 192t-163 55h-20v45h21q142 0 201 -66.5t59 -225.5v-274q0 -127 49 -178t169 -51v-90q-120 0 -169 -50.5t-49 -175.5v-330q0 -163 -60 -232t-200 -69h-21v46z " />
<glyph unicode="~" d="M142 560q0 125 60.5 201.5t159.5 76.5q54 0 101 -25.5t128 -98.5q67 -61 116 -87t96 -26q75 0 128 70t57 174h49q0 -122 -68.5 -206.5t-166.5 -84.5q-64 0 -112 24.5t-130 99.5q-72 66 -113 89.5t-85 23.5q-75 0 -122.5 -64t-49.5 -167h-48z" />
<glyph unicode="&#xa1;" horiz-adv-x="500" d="M197 1064q0 22 15.5 37.5t37.5 15.5q21 0 36.5 -15.5t15.5 -37.5t-15.5 -37.5t-36.5 -15.5q-22 0 -37.5 15.5t-15.5 37.5zM223 -336l1 1031h52l1 -1031h-54z" />
<glyph unicode="&#xa2;" d="M106 692q0 247 136 396t346 157v207h49v-207q165 -7 288 -97.5t148 -234.5h-50q-26 129 -142.5 208t-269.5 79q-197 0 -326.5 -137.5t-129.5 -370.5q0 -234 129 -372t327 -138q153 0 270 75.5t140 203.5h50q-23 -142 -145.5 -229.5t-288.5 -94.5v-224h-49v225 q-138 6 -246 72t-172 191t-64 291z" />
<glyph unicode="&#xa3;" d="M57 0v48q80 21 142 49t115.5 70t82.5 102.5t29 136.5q0 105 -68 284h-257v46h240q-27 71 -42.5 116t-29.5 113t-14 129q0 171 117.5 275t327.5 104q105 0 193.5 -18.5t132.5 -41.5v-49q-47 26 -133 44.5t-191 18.5q-190 0 -293.5 -92t-103.5 -242q0 -60 15.5 -129 t29 -108t43.5 -120h468v-46h-451q64 -168 64 -284q0 -77 -28 -141t-75 -105.5t-95.5 -67.5t-102.5 -42v-4h950v-46h-1066z" />
<glyph unicode="&#xa4;" d="M140 240l167 168q-93 106 -93 247q0 143 94 248l-168 167l34 34l167 -167q107 94 248 94q142 0 248 -93l167 166l35 -34l-167 -167q93 -106 93 -248t-95 -248l169 -167l-35 -34l-167 168q-106 -95 -248 -95q-140 0 -247 94l-168 -167zM260 655q0 -136 96.5 -233 t232.5 -97q137 0 233.5 97t96.5 233q0 137 -96.5 234t-233.5 97q-136 0 -232.5 -97t-96.5 -234z" />
<glyph unicode="&#xa5;" d="M37 1443h60l491 -730h4l491 730h59l-499 -743h330v-44h-358v-220h358v-45h-358v-391h-50v391h-359v45h359v220h-359v44h331z" />
<glyph unicode="&#xa6;" horiz-adv-x="558" d="M255 -299v692h48v-692h-48zM255 743v700h48v-700h-48z" />
<glyph unicode="&#xa7;" horiz-adv-x="943" d="M79 581q0 106 74 179t204 95v3q-128 34 -189 97t-61 161q0 120 101.5 197.5t257.5 77.5q158 0 263 -71t119 -189h-50q-14 97 -105.5 156t-226.5 59q-134 0 -221.5 -65t-87.5 -164q0 -89 65 -144t205 -86l106 -25q171 -38 251 -107t80 -179q0 -106 -74.5 -179.5 t-205.5 -95.5v-3q130 -34 191.5 -96.5t61.5 -160.5q0 -120 -101.5 -198t-257.5 -78q-159 0 -264 72t-118 189h49q15 -97 106.5 -156t226.5 -59q134 0 222 64.5t88 164.5q0 88 -65 143.5t-205 86.5l-106 24q-172 39 -252.5 108.5t-80.5 178.5zM130 586q0 -94 70 -152.5 t223 -93.5l77 -17q139 2 226.5 71.5t87.5 176.5q0 94 -69.5 152t-223.5 93l-77 17q-139 -1 -226.5 -70.5t-87.5 -176.5z" />
<glyph unicode="&#xa8;" horiz-adv-x="686" d="M150 1311q0 22 16 37.5t38 15.5q23 0 39 -15.5t16 -37.5t-16 -38t-39 -16q-22 0 -38 16t-16 38zM427 1311q0 22 16 37.5t39 15.5q22 0 38 -15.5t16 -37.5t-16 -38t-38 -16q-23 0 -39 16t-16 38z" />
<glyph unicode="&#xa9;" horiz-adv-x="1739" d="M107 626q0 161 59.5 303t161 243t242.5 159.5t300 58.5t300.5 -58.5t243 -159.5t160.5 -243t59 -303q0 -160 -59 -302t-160.5 -243.5t-243 -160t-300.5 -58.5t-300 58.5t-242.5 159.5t-161 243.5t-59.5 302.5zM154 626q0 -151 55.5 -285t151 -228.5t228 -149.5t281.5 -55 q199 0 363 93t258.5 258t94.5 367q0 203 -94.5 368t-258.5 257.5t-363 92.5q-149 0 -281.5 -54.5t-228 -149t-151 -228.5t-55.5 -286zM470 633q0 198 110 313.5t283 115.5q139 0 234.5 -75t116.5 -184h-47q-26 95 -106 155t-198 60q-152 0 -249 -103.5t-97 -281.5 q0 -179 97 -285t249 -106q124 0 202.5 57t99.5 147h48q-24 -112 -116 -180t-234 -68q-172 0 -282.5 118t-110.5 317z" />
<glyph unicode="&#xaa;" horiz-adv-x="670" d="M57 930q0 89 63.5 140t186.5 60l244 18v63q0 94 -53.5 146.5t-149.5 52.5q-92 0 -149.5 -44.5t-70.5 -126.5h-45q10 98 81.5 156t183.5 58q115 0 182.5 -64.5t67.5 -174.5v-473h-47v154q-26 -73 -98.5 -118t-163.5 -45q-103 0 -167.5 55t-64.5 143zM103 930 q0 -68 54.5 -112.5t137.5 -44.5q106 0 181 66.5t75 160.5v109l-237 -17q-211 -17 -211 -162z" />
<glyph unicode="&#xab;" horiz-adv-x="1150" d="M158 566v4l376 408h63l-370 -407v-6l370 -407h-63zM553 566v4l377 408h62l-369 -407v-6l369 -407h-62z" />
<glyph unicode="&#xac;" d="M107 677v46h965v-540h-48v494h-917z" />
<glyph unicode="&#xad;" horiz-adv-x="865" d="M104 555v47h656v-47h-656z" />
<glyph unicode="&#xae;" horiz-adv-x="1076" d="M127 1079q0 172 119.5 291t291.5 119t291.5 -119t119.5 -291t-119.5 -291.5t-291.5 -119.5t-291.5 119.5t-119.5 291.5zM171 1079q0 -154 106.5 -260.5t260.5 -106.5t260 106.5t106 260.5q0 155 -106 261t-260 106t-260.5 -106.5t-106.5 -260.5zM385 869v448h163 q66 0 105.5 -37t39.5 -99q0 -103 -107 -131l129 -181h-45l-127 178h-120v-178h-38zM423 1082h114q115 0 115 100q0 45 -31 71.5t-85 26.5h-113v-198z" />
<glyph unicode="&#xaf;" horiz-adv-x="814" d="M173 1307v44h468v-44h-468z" />
<glyph unicode="&#xb0;" horiz-adv-x="721" d="M98 1201q0 108 77 185t185 77t185.5 -77t77.5 -185t-77.5 -185t-185.5 -77t-185 77t-77 185zM142 1201q0 -90 64 -154t154 -64q91 0 155 64t64 154q0 89 -64 153t-155 64q-90 0 -154 -64t-64 -153z" />
<glyph unicode="&#xb1;" d="M104 113v46h970v-46h-970zM104 688v45h462v344h47v-344h461v-45h-461v-367h-47v367h-462z" />
<glyph unicode="&#xb2;" horiz-adv-x="550" d="M68 1587v1q1 83 59.5 137t146.5 54q89 0 146.5 -51t57.5 -130q0 -51 -29.5 -100.5t-108.5 -131.5l-202 -215v-2h362v-42h-430v35l239 253q70 75 95.5 116.5t25.5 83.5q0 62 -44.5 102t-112.5 40q-67 0 -111.5 -42t-46.5 -107v-1h-47z" />
<glyph unicode="&#xb3;" horiz-adv-x="552" d="M50 1276h47q2 -58 51 -97.5t124 -39.5q78 0 129 42.5t51 106.5q0 66 -49.5 104t-136.5 38h-77v40h76q71 0 115.5 38t44.5 98q0 55 -44.5 93t-111.5 38q-66 0 -110 -37t-48 -94h-46q4 76 61.5 124.5t144.5 48.5q86 0 144 -48.5t58 -120.5q0 -61 -37 -103t-102 -54v-2 q77 -4 122.5 -49t45.5 -114q0 -82 -65.5 -136.5t-164.5 -54.5q-96 0 -158 51t-64 128z" />
<glyph unicode="&#xb4;" horiz-adv-x="686" d="M177 1256l236 304h62l-244 -304h-54z" />
<glyph unicode="&#xb5;" horiz-adv-x="1149" d="M116 -339v1379h49v-660q0 -164 88 -257t243 -93q159 0 261 109t102 279v622h50v-854q0 -79 26.5 -114.5t85.5 -35.5q36 0 65 10l5 -46q-25 -10 -76 -10q-77 0 -115 44.5t-39 138.5l-1 62h-1q-38 -114 -136.5 -182t-228.5 -68q-125 0 -214 58t-113 156h-2v-538h-49z" />
<glyph unicode="&#xb6;" horiz-adv-x="1155" d="M189 1007q0 197 128.5 316.5t346.5 119.5h69v-1589h-50v721h-20q-210 0 -342 122.5t-132 309.5zM915 -146v1589h50v-1589h-50z" />
<glyph unicode="&#xb7;" horiz-adv-x="488" d="M187 596q0 23 17 40t40 17q24 0 41 -17t17 -40q0 -24 -17 -41t-41 -17q-23 0 -40 17t-17 41z" />
<glyph unicode="&#xb8;" horiz-adv-x="686" d="M160 -402q46 -17 121 -17q72 0 122 36t50 88q0 54 -43 83.5t-121 29.5h-47v33l65 155h46v-6l-60 -140q97 0 151.5 -40.5t54.5 -113.5q0 -75 -60.5 -121t-156.5 -46q-74 -2 -122 15v44z" />
<glyph unicode="&#xb9;" horiz-adv-x="416" d="M51 1603v49l180 119h48v-664h-47v614h-2z" />
<glyph unicode="&#xba;" horiz-adv-x="708" d="M42 1092q0 165 85.5 263t226.5 98t227 -98t86 -263t-86 -263t-227 -98t-226.5 98t-85.5 263zM90 1092q0 -146 72 -232t192 -86t192.5 86t72.5 232t-72.5 232t-192.5 86t-192 -86t-72 -232z" />
<glyph unicode="&#xbb;" horiz-adv-x="1150" d="M158 158l370 407v6l-370 407h63l376 -408v-4l-376 -408h-63zM553 158l370 407v6l-370 407h63l376 -408v-4l-376 -408h-63z" />
<glyph unicode="&#xbc;" horiz-adv-x="1374" d="M52 1275v49l180 119h48v-664h-47v614h-2zM89 1l551 735l530 708h59l-550 -734l-531 -709h-59zM845 160v44q122 192 318 460h69v-462h102v-42h-102v-160h-48v160h-339zM895 202h290v418h-2q-173 -236 -288 -417v-1z" />
<glyph unicode="&#xbd;" horiz-adv-x="1393" d="M52 1275v49l180 119h48v-664h-47v614h-2zM89 1l551 735l530 708h59l-550 -734l-531 -709h-59zM912 480v1q1 83 59.5 137t146.5 54q89 0 146.5 -51t57.5 -130q0 -51 -29.5 -100.5t-108.5 -131.5l-202 -215v-2h362v-42h-430v35l239 253q70 75 95.5 116.5t25.5 83.5 q0 62 -44.5 102t-112.5 40q-67 0 -111.5 -42t-46.5 -107v-1h-47z" />
<glyph unicode="&#xbe;" horiz-adv-x="1428" d="M41 948h47q2 -58 51 -97.5t124 -39.5q78 0 129 42.5t51 106.5q0 66 -49.5 104t-136.5 38h-77v40h76q71 0 115.5 38t44.5 98q0 55 -44.5 93t-111.5 38q-66 0 -110 -37t-48 -94h-46q4 76 61.5 124.5t144.5 48.5q86 0 144 -48.5t58 -120.5q0 -61 -37 -103t-102 -54v-2 q77 -4 122.5 -49t45.5 -114q0 -82 -65.5 -136.5t-164.5 -54.5q-96 0 -158 51t-64 128zM180 1l551 735l530 708h59l-550 -734l-531 -709h-59zM899 160v44q122 192 318 460h69v-462h102v-42h-102v-160h-48v160h-339zM949 202h290v418h-2q-173 -236 -288 -417v-1z" />
<glyph unicode="&#xbf;" horiz-adv-x="911" d="M82 -13q0 98 49 175t165 160q105 75 141.5 132.5t36.5 148.5v97h49v-99q0 -99 -40 -165t-151 -148q-107 -79 -153 -148t-46 -151q0 -134 95.5 -220.5t235.5 -86.5q136 0 230 85.5t107 225.5h48q-10 -154 -118.5 -255.5t-266.5 -101.5q-164 0 -273 100.5t-109 250.5z M439 1064q0 22 15.5 37.5t37.5 15.5t37.5 -15.5t15.5 -37.5t-15.5 -37.5t-37.5 -15.5t-37.5 15.5t-15.5 37.5z" />
<glyph unicode="&#xc0;" horiz-adv-x="1201" d="M20 0l555 1443h51l555 -1443h-56l-189 501h-671l-190 -501h-55zM280 1841h65l293 -287h-57zM283 547h635l-315 827h-5z" />
<glyph unicode="&#xc1;" horiz-adv-x="1201" d="M20 0l555 1443h51l555 -1443h-56l-189 501h-671l-190 -501h-55zM283 547h635l-315 827h-5zM562 1554l293 287h65l-301 -287h-57z" />
<glyph unicode="&#xc2;" horiz-adv-x="1201" d="M20 0l555 1443h51l555 -1443h-56l-189 501h-671l-190 -501h-55zM283 547h635l-315 827h-5zM312 1553l266 287h44l266 -287h-58l-229 249h-2l-229 -249h-58z" />
<glyph unicode="&#xc3;" horiz-adv-x="1201" d="M20 0l555 1443h51l555 -1443h-56l-189 501h-671l-190 -501h-55zM283 547h635l-315 827h-5zM320 1565q0 93 36.5 147.5t106.5 54.5q36 0 68 -17.5t55.5 -42t46 -49t49.5 -42t56 -17.5q97 0 97 159h45q0 -93 -36 -147.5t-106 -54.5q-36 0 -68.5 17.5t-56 42t-46 49t-49 42 t-55.5 17.5q-50 0 -74 -42.5t-23 -116.5h-46z" />
<glyph unicode="&#xc4;" horiz-adv-x="1201" d="M20 0l555 1443h51l555 -1443h-56l-189 501h-671l-190 -501h-55zM283 547h635l-315 827h-5zM407 1611q0 22 16 37.5t38 15.5q23 0 39 -15.5t16 -37.5t-16 -38t-39 -16q-22 0 -38 16t-16 38zM684 1611q0 22 16 37.5t39 15.5q22 0 38 -15.5t16 -37.5t-16 -38t-38 -16 q-23 0 -39 16t-16 38z" />
<glyph unicode="&#xc5;" horiz-adv-x="1201" d="M20 0l555 1443h51l555 -1443h-56l-189 501h-671l-190 -501h-55zM283 547h635l-315 827h-5zM436 1672q0 68 48.5 116.5t115.5 48.5t115.5 -48.5t48.5 -116.5t-48.5 -116.5t-115.5 -48.5t-115.5 48.5t-48.5 116.5zM475 1672q0 -53 36 -90t89 -37t89 37t36 90t-36 89.5 t-89 36.5t-89 -36.5t-36 -89.5z" />
<glyph unicode="&#xc6;" horiz-adv-x="1878" d="M58 0l733 1443h985v-47h-718v-633h681v-46h-681v-670h718v-47h-766v411h-689l-208 -411h-55zM343 458h667v939h-191z" />
<glyph unicode="&#xc7;" horiz-adv-x="1303" d="M63 732q0 337 169.5 534t459.5 197q215 0 377 -140.5t181 -343.5h-49q-20 184 -167 310.5t-342 126.5q-266 0 -422.5 -184.5t-156.5 -499.5q0 -324 157.5 -514.5t421.5 -190.5q203 0 347 115t162 298h49q-17 -199 -168.5 -327t-371.5 -133l-52 -120q97 0 151.5 -40.5 t54.5 -113.5q0 -75 -60.5 -121t-156.5 -46q-74 -2 -122 15v44q46 -17 121 -17q72 0 122 36t50 88q0 54 -43 83.5t-121 29.5h-47v33l54 130q-274 11 -436 213.5t-162 537.5z" />
<glyph unicode="&#xc8;" horiz-adv-x="1050" d="M124 0v1443h826v-47h-776v-632h740v-46h-740v-671h776v-47h-826zM217 1841h65l293 -287h-57z" />
<glyph unicode="&#xc9;" horiz-adv-x="1050" d="M124 0v1443h826v-47h-776v-632h740v-46h-740v-671h776v-47h-826zM499 1554l293 287h65l-301 -287h-57z" />
<glyph unicode="&#xca;" horiz-adv-x="1050" d="M124 0v1443h826v-47h-776v-632h740v-46h-740v-671h776v-47h-826zM249 1553l266 287h44l266 -287h-58l-229 249h-2l-229 -249h-58z" />
<glyph unicode="&#xcb;" horiz-adv-x="1050" d="M124 0v1443h826v-47h-776v-632h740v-46h-740v-671h776v-47h-826zM344 1611q0 22 16 37.5t38 15.5q23 0 39 -15.5t16 -37.5t-16 -38t-39 -16q-22 0 -38 16t-16 38zM621 1611q0 22 16 37.5t39 15.5q22 0 38 -15.5t16 -37.5t-16 -38t-38 -16q-23 0 -39 16t-16 38z" />
<glyph unicode="&#xcc;" horiz-adv-x="298" d="M-171 1841h65l293 -287h-57zM124 0v1443h50v-1443h-50z" />
<glyph unicode="&#xcd;" horiz-adv-x="298" d="M111 1554l293 287h65l-301 -287h-57zM124 0v1443h50v-1443h-50z" />
<glyph unicode="&#xce;" horiz-adv-x="298" d="M-139 1553l266 287h44l266 -287h-58l-229 249h-2l-229 -249h-58zM124 0v1443h50v-1443h-50z" />
<glyph unicode="&#xcf;" horiz-adv-x="298" d="M-44 1611q0 22 16 37.5t38 15.5q23 0 39 -15.5t16 -37.5t-16 -38t-39 -16q-22 0 -38 16t-16 38zM124 0v1443h50v-1443h-50zM233 1611q0 22 16 37.5t39 15.5q22 0 38 -15.5t16 -37.5t-16 -38t-38 -16q-23 0 -39 16t-16 38z" />
<glyph unicode="&#xd0;" horiz-adv-x="1332" d="M23 717v47h121v679h435q330 0 510 -188t180 -533q0 -346 -180 -534t-510 -188h-435v717h-121zM195 47h383q309 0 475 175t166 500q0 324 -166.5 499t-474.5 175h-383v-632h382v-47h-382v-670z" />
<glyph unicode="&#xd1;" horiz-adv-x="1315" d="M124 0v1443h55l958 -1348h4v1348h50v-1443h-46l-967 1359h-4v-1359h-50zM377 1565q0 93 36.5 147.5t106.5 54.5q36 0 68 -17.5t55.5 -42t46 -49t49.5 -42t56 -17.5q97 0 97 159h45q0 -93 -36 -147.5t-106 -54.5q-36 0 -68.5 17.5t-56 42t-46 49t-49 42t-55.5 17.5 q-50 0 -74 -42.5t-23 -116.5h-46z" />
<glyph unicode="&#xd2;" horiz-adv-x="1398" d="M63 722q0 340 172 540.5t464 200.5q291 0 463.5 -200.5t172.5 -540.5q0 -341 -172 -541.5t-464 -200.5q-293 0 -464.5 200.5t-171.5 541.5zM113 722q0 -318 159 -506.5t427 -188.5t427 188.5t159 506.5t-159 506t-427 188q-269 0 -427.5 -188t-158.5 -506zM379 1841h65 l293 -287h-57z" />
<glyph unicode="&#xd3;" horiz-adv-x="1398" d="M63 722q0 340 172 540.5t464 200.5q291 0 463.5 -200.5t172.5 -540.5q0 -341 -172 -541.5t-464 -200.5q-293 0 -464.5 200.5t-171.5 541.5zM113 722q0 -318 159 -506.5t427 -188.5t427 188.5t159 506.5t-159 506t-427 188q-269 0 -427.5 -188t-158.5 -506zM661 1554 l293 287h65l-301 -287h-57z" />
<glyph unicode="&#xd4;" horiz-adv-x="1398" d="M63 722q0 340 172 540.5t464 200.5q291 0 463.5 -200.5t172.5 -540.5q0 -341 -172 -541.5t-464 -200.5q-293 0 -464.5 200.5t-171.5 541.5zM113 722q0 -318 159 -506.5t427 -188.5t427 188.5t159 506.5t-159 506t-427 188q-269 0 -427.5 -188t-158.5 -506zM411 1553 l266 287h44l266 -287h-58l-229 249h-2l-229 -249h-58z" />
<glyph unicode="&#xd5;" horiz-adv-x="1398" d="M63 722q0 340 172 540.5t464 200.5q291 0 463.5 -200.5t172.5 -540.5q0 -341 -172 -541.5t-464 -200.5q-293 0 -464.5 200.5t-171.5 541.5zM113 722q0 -318 159 -506.5t427 -188.5t427 188.5t159 506.5t-159 506t-427 188q-269 0 -427.5 -188t-158.5 -506zM419 1565 q0 93 36.5 147.5t106.5 54.5q36 0 68 -17.5t55.5 -42t46 -49t49.5 -42t56 -17.5q97 0 97 159h45q0 -93 -36 -147.5t-106 -54.5q-36 0 -68.5 17.5t-56 42t-46 49t-49 42t-55.5 17.5q-50 0 -74 -42.5t-23 -116.5h-46z" />
<glyph unicode="&#xd6;" horiz-adv-x="1398" d="M63 722q0 340 172 540.5t464 200.5q291 0 463.5 -200.5t172.5 -540.5q0 -341 -172 -541.5t-464 -200.5q-293 0 -464.5 200.5t-171.5 541.5zM113 722q0 -318 159 -506.5t427 -188.5t427 188.5t159 506.5t-159 506t-427 188q-269 0 -427.5 -188t-158.5 -506zM506 1611 q0 22 16 37.5t38 15.5q23 0 39 -15.5t16 -37.5t-16 -38t-39 -16q-22 0 -38 16t-16 38zM783 1611q0 22 16 37.5t39 15.5q22 0 38 -15.5t16 -37.5t-16 -38t-38 -16q-23 0 -39 16t-16 38z" />
<glyph unicode="&#xd7;" d="M229 906l35 34l325 -328l327 326l33 -32l-325 -327l325 -325l-34 -34l-325 326l-326 -326l-34 32l326 327z" />
<glyph unicode="&#xd8;" horiz-adv-x="1398" d="M63 722q0 340 172 540.5t464 200.5q270 0 439 -174l151 194l36 -25l-157 -202q167 -200 167 -534q0 -341 -172 -541.5t-464 -200.5q-248 0 -412 147l-173 -222l-37 25l178 228q-192 201 -192 564zM113 722q0 -333 174 -523l820 1050q-158 167 -408 167 q-269 0 -427.5 -188t-158.5 -506zM318 167q152 -140 381 -140q268 0 427 188.5t159 506.5q0 308 -149 494z" />
<glyph unicode="&#xd9;" horiz-adv-x="1305" d="M124 499v944h50v-943q0 -218 129.5 -345.5t349.5 -127.5q221 0 350.5 127.5t129.5 345.5v943h50v-944q0 -237 -143.5 -378t-386.5 -141t-386 141t-143 378zM333 1841h65l293 -287h-57z" />
<glyph unicode="&#xda;" horiz-adv-x="1305" d="M124 499v944h50v-943q0 -218 129.5 -345.5t349.5 -127.5q221 0 350.5 127.5t129.5 345.5v943h50v-944q0 -237 -143.5 -378t-386.5 -141t-386 141t-143 378zM615 1554l293 287h65l-301 -287h-57z" />
<glyph unicode="&#xdb;" horiz-adv-x="1305" d="M124 499v944h50v-943q0 -218 129.5 -345.5t349.5 -127.5q221 0 350.5 127.5t129.5 345.5v943h50v-944q0 -237 -143.5 -378t-386.5 -141t-386 141t-143 378zM365 1553l266 287h44l266 -287h-58l-229 249h-2l-229 -249h-58z" />
<glyph unicode="&#xdc;" horiz-adv-x="1305" d="M124 499v944h50v-943q0 -218 129.5 -345.5t349.5 -127.5q221 0 350.5 127.5t129.5 345.5v943h50v-944q0 -237 -143.5 -378t-386.5 -141t-386 141t-143 378zM460 1611q0 22 16 37.5t38 15.5q23 0 39 -15.5t16 -37.5t-16 -38t-39 -16q-22 0 -38 16t-16 38zM737 1611 q0 22 16 37.5t39 15.5q22 0 38 -15.5t16 -37.5t-16 -38t-38 -16q-23 0 -39 16t-16 38z" />
<glyph unicode="&#xdd;" horiz-adv-x="1148" d="M21 1443h60l492 -758h4l491 758h59l-527 -812v-631h-50v631zM536 1554l293 287h65l-301 -287h-57z" />
<glyph unicode="&#xde;" horiz-adv-x="1202" d="M164 0v1443h50v-291h413q205 0 326 -107t121 -293t-120 -292t-327 -106h-413v-354h-50zM214 401h411q188 0 293.5 94.5t105.5 256.5t-106 257.5t-293 95.5h-411v-704z" />
<glyph unicode="&#xdf;" horiz-adv-x="1014" d="M116 0v1078q0 174 95 276.5t262 102.5q160 0 261 -97t101 -243q0 -123 -76 -224.5t-182 -124.5v-3q162 -14 269 -120.5t107 -256.5q0 -169 -123.5 -288t-305.5 -119q-82 0 -172 16v49q70 -19 171 -19q158 0 269.5 106t111.5 255q0 147 -120.5 247.5t-305.5 100.5h-106v47 h105q124 0 216 102t92 230q0 125 -87 210.5t-224 85.5q-143 0 -225.5 -92.5t-82.5 -241.5v-1077h-50z" />
<glyph unicode="&#xe0;" horiz-adv-x="987" d="M88 276q0 266 366 297l375 28v94q0 147 -83 231t-230 84q-145 0 -234.5 -71t-109.5 -202h-48q17 148 122 233t270 85q168 0 265 -95.5t97 -260.5v-699h-49v236h-1q-38 -111 -148 -181t-249 -70q-151 0 -247 81t-96 210zM137 276q0 -106 84.5 -176t212.5 -70 q164 0 279.5 103.5t115.5 249.5v175l-368 -28q-158 -12 -241 -77t-83 -177zM266 1520h62l236 -304h-54z" />
<glyph unicode="&#xe1;" horiz-adv-x="987" d="M88 276q0 266 366 297l375 28v94q0 147 -83 231t-230 84q-145 0 -234.5 -71t-109.5 -202h-48q17 148 122 233t270 85q168 0 265 -95.5t97 -260.5v-699h-49v236h-1q-38 -111 -148 -181t-249 -70q-151 0 -247 81t-96 210zM137 276q0 -106 84.5 -176t212.5 -70 q164 0 279.5 103.5t115.5 249.5v175l-368 -28q-158 -12 -241 -77t-83 -177zM468 1216l236 304h62l-244 -304h-54z" />
<glyph unicode="&#xe2;" horiz-adv-x="987" d="M88 276q0 266 366 297l375 28v94q0 147 -83 231t-230 84q-145 0 -234.5 -71t-109.5 -202h-48q17 148 122 233t270 85q168 0 265 -95.5t97 -260.5v-699h-49v236h-1q-38 -111 -148 -181t-249 -70q-151 0 -247 81t-96 210zM137 276q0 -106 84.5 -176t212.5 -70 q164 0 279.5 103.5t115.5 249.5v175l-368 -28q-158 -12 -241 -77t-83 -177zM229 1216l265 304h44l265 -304h-56l-230 264h-2l-230 -264h-56z" />
<glyph unicode="&#xe3;" horiz-adv-x="987" d="M88 276q0 266 366 297l375 28v94q0 147 -83 231t-230 84q-145 0 -234.5 -71t-109.5 -202h-48q17 148 122 233t270 85q168 0 265 -95.5t97 -260.5v-699h-49v236h-1q-38 -111 -148 -181t-249 -70q-151 0 -247 81t-96 210zM137 276q0 -106 84.5 -176t212.5 -70 q164 0 279.5 103.5t115.5 249.5v175l-368 -28q-158 -12 -241 -77t-83 -177zM235 1226q0 93 36.5 147.5t106.5 54.5q36 0 68 -17.5t55.5 -42t46 -49t49.5 -42t56 -17.5q97 0 97 159h45q0 -93 -36 -147.5t-106 -54.5q-36 0 -68.5 17.5t-56 42t-46 49t-49 42t-55.5 17.5 q-50 0 -74 -42.5t-23 -116.5h-46z" />
<glyph unicode="&#xe4;" horiz-adv-x="987" d="M88 276q0 266 366 297l375 28v94q0 147 -83 231t-230 84q-145 0 -234.5 -71t-109.5 -202h-48q17 148 122 233t270 85q168 0 265 -95.5t97 -260.5v-699h-49v236h-1q-38 -111 -148 -181t-249 -70q-151 0 -247 81t-96 210zM137 276q0 -106 84.5 -176t212.5 -70 q164 0 279.5 103.5t115.5 249.5v175l-368 -28q-158 -12 -241 -77t-83 -177zM323 1271q0 22 16 37.5t38 15.5q23 0 39 -15.5t16 -37.5t-16 -38t-39 -16q-22 0 -38 16t-16 38zM600 1271q0 22 16 37.5t39 15.5q22 0 38 -15.5t16 -37.5t-16 -38t-38 -16q-23 0 -39 16t-16 38z " />
<glyph unicode="&#xe5;" horiz-adv-x="987" d="M88 276q0 266 366 297l375 28v94q0 147 -83 231t-230 84q-145 0 -234.5 -71t-109.5 -202h-48q17 148 122 233t270 85q168 0 265 -95.5t97 -260.5v-699h-49v236h-1q-38 -111 -148 -181t-249 -70q-151 0 -247 81t-96 210zM137 276q0 -106 84.5 -176t212.5 -70 q164 0 279.5 103.5t115.5 249.5v175l-368 -28q-158 -12 -241 -77t-83 -177zM351 1377q0 68 48.5 116.5t116.5 48.5t116 -48.5t48 -116.5t-48.5 -116.5t-115.5 -48.5q-68 0 -116.5 48.5t-48.5 116.5zM390 1377q0 -53 36.5 -89.5t89.5 -36.5q52 0 88.5 36.5t36.5 89.5 t-36.5 90t-88.5 37q-53 0 -89.5 -37t-36.5 -90z" />
<glyph unicode="&#xe6;" horiz-adv-x="1785" d="M87 273q0 125 92 195.5t270 82.5l380 24v137q0 141 -84.5 219.5t-233.5 78.5q-142 0 -233.5 -72.5t-109.5 -200.5h-48q16 145 122 231.5t269 86.5q154 0 252.5 -79t105.5 -217h5q42 132 150.5 214t262.5 82q199 0 317 -134t118 -358v-39h-844v-7q0 -221 112.5 -354 t299.5 -133q147 0 244 72.5t121 186.5h51q-28 -135 -139 -219.5t-278 -84.5q-155 0 -265 80.5t-157 233.5h-4q-37 -144 -153.5 -229t-273.5 -85q-156 0 -252.5 80t-96.5 208zM137 273q0 -106 83.5 -174.5t216.5 -68.5q163 0 277.5 104.5t114.5 253.5v144l-370 -25 q-159 -10 -240.5 -70t-81.5 -164zM879 569h794q-1 199 -106.5 320t-281.5 121q-175 0 -286 -121.5t-120 -319.5z" />
<glyph unicode="&#xe7;" horiz-adv-x="985" d="M63 520q0 246 123 390.5t330 144.5q159 0 272 -90t139 -231h-50q-26 122 -124.5 199t-236.5 77q-186 0 -294.5 -132.5t-108.5 -357.5t108.5 -357.5t294.5 -132.5q139 0 237 74t122 193h50q-24 -136 -130 -221.5t-260 -90.5l-54 -125q97 0 151.5 -40.5t54.5 -113.5 q0 -75 -60.5 -121t-156.5 -46q-74 -2 -122 15v44q46 -17 121 -17q72 0 122 36t50 88q0 54 -43 83.5t-121 29.5h-47v33l57 135q-196 11 -310 154t-114 380z" />
<glyph unicode="&#xe8;" horiz-adv-x="1021" d="M63 520q0 242 124 388.5t328 146.5q199 0 321 -138t122 -362v-38h-845v-2q0 -228 111.5 -356.5t299.5 -128.5q150 0 248 72t122 187h51q-27 -135 -139.5 -219.5t-282.5 -84.5q-211 0 -335.5 142t-124.5 393zM114 562h794q0 200 -108.5 324t-284.5 124q-174 0 -283.5 -123 t-117.5 -325zM265 1520h62l236 -304h-54z" />
<glyph unicode="&#xe9;" horiz-adv-x="1021" d="M63 520q0 242 124 388.5t328 146.5q199 0 321 -138t122 -362v-38h-845v-2q0 -228 111.5 -356.5t299.5 -128.5q150 0 248 72t122 187h51q-27 -135 -139.5 -219.5t-282.5 -84.5q-211 0 -335.5 142t-124.5 393zM114 562h794q0 200 -108.5 324t-284.5 124q-174 0 -283.5 -123 t-117.5 -325zM467 1216l236 304h62l-244 -304h-54z" />
<glyph unicode="&#xea;" horiz-adv-x="1021" d="M63 520q0 242 124 388.5t328 146.5q199 0 321 -138t122 -362v-38h-845v-2q0 -228 111.5 -356.5t299.5 -128.5q150 0 248 72t122 187h51q-27 -135 -139.5 -219.5t-282.5 -84.5q-211 0 -335.5 142t-124.5 393zM114 562h794q0 200 -108.5 324t-284.5 124q-174 0 -283.5 -123 t-117.5 -325zM228 1216l265 304h44l265 -304h-56l-230 264h-2l-230 -264h-56z" />
<glyph unicode="&#xeb;" horiz-adv-x="1021" d="M63 520q0 242 124 388.5t328 146.5q199 0 321 -138t122 -362v-38h-845v-2q0 -228 111.5 -356.5t299.5 -128.5q150 0 248 72t122 187h51q-27 -135 -139.5 -219.5t-282.5 -84.5q-211 0 -335.5 142t-124.5 393zM114 562h794q0 200 -108.5 324t-284.5 124q-174 0 -283.5 -123 t-117.5 -325zM322 1271q0 22 16 37.5t38 15.5q23 0 39 -15.5t16 -37.5t-16 -38t-39 -16q-22 0 -38 16t-16 38zM599 1271q0 22 16 37.5t39 15.5q22 0 38 -15.5t16 -37.5t-16 -38t-38 -16q-23 0 -39 16t-16 38z" />
<glyph unicode="&#xec;" horiz-adv-x="299" d="M-100 1520h62l236 -304h-54zM125 0v1040h49v-1040h-49z" />
<glyph unicode="&#xed;" horiz-adv-x="299" d="M102 1216l236 304h62l-244 -304h-54zM125 0v1040h49v-1040h-49z" />
<glyph unicode="&#xee;" horiz-adv-x="299" d="M-137 1216l265 304h44l265 -304h-56l-230 264h-2l-230 -264h-56zM125 0v1040h49v-1040h-49z" />
<glyph unicode="&#xef;" horiz-adv-x="299" d="M-43 1271q0 22 16 37.5t38 15.5q23 0 39 -15.5t16 -37.5t-16 -38t-39 -16q-22 0 -38 16t-16 38zM125 0v1040h49v-1040h-49zM234 1271q0 22 16 37.5t39 15.5q22 0 38 -15.5t16 -37.5t-16 -38t-38 -16q-23 0 -39 16t-16 38z" />
<glyph unicode="&#xf0;" horiz-adv-x="1035" d="M64 518q0 217 127 358t323 141q127 0 226.5 -61t154.5 -173h4q-58 288 -227 458l-283 -120l-15 39l267 114q-78 71 -235 154h79q130 -69 200 -137l263 112l14 -39l-246 -104q248 -265 248 -723q0 -253 -120 -402.5t-323 -149.5t-330 148t-127 385zM114 519 q0 -216 113.5 -352.5t293.5 -136.5q175 0 285 133.5t110 344.5q0 212 -109 337.5t-292 125.5q-175 0 -288 -127.5t-113 -324.5z" />
<glyph unicode="&#xf1;" horiz-adv-x="1027" d="M116 0v1040h46v-244h2q33 116 133 187.5t235 71.5q173 0 279.5 -104t106.5 -278v-673h-49v670q0 156 -95 248t-249 92q-160 0 -260 -108t-100 -278v-624h-49zM239 1226q0 93 36.5 147.5t106.5 54.5q36 0 68 -17.5t55.5 -42t46 -49t49.5 -42t56 -17.5q97 0 97 159h45 q0 -93 -36 -147.5t-106 -54.5q-36 0 -68.5 17.5t-56 42t-46 49t-49 42t-55.5 17.5q-50 0 -74 -42.5t-23 -116.5h-46z" />
<glyph unicode="&#xf2;" horiz-adv-x="1042" d="M63 520q0 245 126 390t332 145t332.5 -145t126.5 -390t-126.5 -390t-332.5 -145t-332 145t-126 390zM113 520q0 -225 111.5 -357.5t296.5 -132.5q184 0 297 133t113 357q0 225 -112.5 357.5t-297.5 132.5t-296.5 -132.5t-111.5 -357.5zM271 1519h62l236 -304h-54z" />
<glyph unicode="&#xf3;" horiz-adv-x="1042" d="M63 520q0 245 126 390t332 145t332.5 -145t126.5 -390t-126.5 -390t-332.5 -145t-332 145t-126 390zM113 520q0 -225 111.5 -357.5t296.5 -132.5q184 0 297 133t113 357q0 225 -112.5 357.5t-297.5 132.5t-296.5 -132.5t-111.5 -357.5zM473 1215l236 304h62l-244 -304 h-54z" />
<glyph unicode="&#xf4;" horiz-adv-x="1042" d="M63 520q0 245 126 390t332 145t332.5 -145t126.5 -390t-126.5 -390t-332.5 -145t-332 145t-126 390zM113 520q0 -225 111.5 -357.5t296.5 -132.5q184 0 297 133t113 357q0 225 -112.5 357.5t-297.5 132.5t-296.5 -132.5t-111.5 -357.5zM234 1215l265 304h44l265 -304h-56 l-230 264h-2l-230 -264h-56z" />
<glyph unicode="&#xf5;" horiz-adv-x="1042" d="M63 520q0 245 126 390t332 145t332.5 -145t126.5 -390t-126.5 -390t-332.5 -145t-332 145t-126 390zM113 520q0 -225 111.5 -357.5t296.5 -132.5q184 0 297 133t113 357q0 225 -112.5 357.5t-297.5 132.5t-296.5 -132.5t-111.5 -357.5zM240 1225q0 93 36.5 147.5 t106.5 54.5q36 0 68 -17.5t55.5 -42t46 -49t49.5 -42t56 -17.5q97 0 97 159h45q0 -93 -36 -147.5t-106 -54.5q-36 0 -68.5 17.5t-56 42t-46 49t-49 42t-55.5 17.5q-50 0 -74 -42.5t-23 -116.5h-46z" />
<glyph unicode="&#xf6;" horiz-adv-x="1042" d="M63 520q0 245 126 390t332 145t332.5 -145t126.5 -390t-126.5 -390t-332.5 -145t-332 145t-126 390zM113 520q0 -225 111.5 -357.5t296.5 -132.5q184 0 297 133t113 357q0 225 -112.5 357.5t-297.5 132.5t-296.5 -132.5t-111.5 -357.5zM328 1270q0 22 16 37.5t38 15.5 q23 0 39 -15.5t16 -37.5t-16 -38t-39 -16q-22 0 -38 16t-16 38zM605 1270q0 22 16 37.5t39 15.5q22 0 38 -15.5t16 -37.5t-16 -38t-38 -16q-23 0 -39 16t-16 38z" />
<glyph unicode="&#xf7;" d="M104 555v45h970v-45h-970zM520 222q0 30 20.5 50t49.5 20t49.5 -20t20.5 -50q0 -29 -20.5 -49.5t-49.5 -20.5q-28 0 -49 21t-21 49zM520 911q0 30 20.5 50t49.5 20t49.5 -20t20.5 -50q0 -29 -20.5 -49.5t-49.5 -20.5q-28 0 -49 20.5t-21 49.5z" />
<glyph unicode="&#xf8;" horiz-adv-x="1042" d="M63 520q0 245 126 390t332 145q179 0 298 -110l111 154l35 -25l-115 -160q130 -147 130 -394q0 -245 -126.5 -390t-332.5 -145q-160 0 -274 89l-120 -167l-36 25l123 171q-151 148 -151 417zM113 520q0 -243 129 -377l549 763q-107 104 -270 104q-185 0 -296.5 -132.5 t-111.5 -357.5zM275 113q101 -83 246 -83q184 0 297 133t113 357q0 220 -110 354z" />
<glyph unicode="&#xf9;" horiz-adv-x="1027" d="M109 362v678h49v-671q0 -158 92.5 -248.5t243.5 -90.5q157 0 262.5 105.5t105.5 276.5v628h49v-1040h-46v242h-2q-31 -110 -137.5 -183.5t-237.5 -73.5q-169 0 -274 102.5t-105 274.5zM260 1519h62l236 -304h-54z" />
<glyph unicode="&#xfa;" horiz-adv-x="1027" d="M109 362v678h49v-671q0 -158 92.5 -248.5t243.5 -90.5q157 0 262.5 105.5t105.5 276.5v628h49v-1040h-46v242h-2q-31 -110 -137.5 -183.5t-237.5 -73.5q-169 0 -274 102.5t-105 274.5zM462 1215l236 304h62l-244 -304h-54z" />
<glyph unicode="&#xfb;" horiz-adv-x="1027" d="M109 362v678h49v-671q0 -158 92.5 -248.5t243.5 -90.5q157 0 262.5 105.5t105.5 276.5v628h49v-1040h-46v242h-2q-31 -110 -137.5 -183.5t-237.5 -73.5q-169 0 -274 102.5t-105 274.5zM223 1215l265 304h44l265 -304h-56l-230 264h-2l-230 -264h-56z" />
<glyph unicode="&#xfc;" horiz-adv-x="1027" d="M109 362v678h49v-671q0 -158 92.5 -248.5t243.5 -90.5q157 0 262.5 105.5t105.5 276.5v628h49v-1040h-46v242h-2q-31 -110 -137.5 -183.5t-237.5 -73.5q-169 0 -274 102.5t-105 274.5zM317 1270q0 22 16 37.5t38 15.5q23 0 39 -15.5t16 -37.5t-16 -38t-39 -16 q-22 0 -38 16t-16 38zM594 1270q0 22 16 37.5t39 15.5q22 0 38 -15.5t16 -37.5t-16 -38t-38 -16q-23 0 -39 16t-16 38z" />
<glyph unicode="&#xfd;" horiz-adv-x="860" d="M2 1040h54l373 -993h2l374 993h53l-409 -1083q-71 -188 -126 -248t-157 -60q-19 0 -47 8v46q20 -8 51 -8q68 0 111 43.5t87 154.5l35 89zM382 1215l236 304h62l-244 -304h-54z" />
<glyph unicode="&#xfe;" horiz-adv-x="1079" d="M126 -379v1822h47v-692h4q44 139 151.5 221.5t249.5 82.5q196 0 317.5 -148t121.5 -387q0 -238 -122 -386.5t-317 -148.5q-140 0 -247.5 79.5t-150.5 215.5h-5v-659h-49zM175 520q0 -215 112 -352.5t287 -137.5t284 135.5t109 353.5t-109 354.5t-284 136.5 q-176 0 -287.5 -137t-111.5 -353z" />
<glyph unicode="&#xff;" horiz-adv-x="860" d="M2 1040h54l373 -993h2l374 993h53l-409 -1083q-71 -188 -126 -248t-157 -60q-19 0 -47 8v46q20 -8 51 -8q68 0 111 43.5t87 154.5l35 89zM237 1270q0 22 16 37.5t38 15.5q23 0 39 -15.5t16 -37.5t-16 -38t-39 -16q-22 0 -38 16t-16 38zM514 1270q0 22 16 37.5t39 15.5 q22 0 38 -15.5t16 -37.5t-16 -38t-38 -16q-23 0 -39 16t-16 38z" />
<glyph unicode="&#x152;" horiz-adv-x="2167" d="M63 722q0 343 172.5 542t469.5 199q218 0 372.5 -113t219.5 -320v413h797v-47h-747v-632h711v-46h-711v-671h747v-47h-797v414q-65 -208 -219.5 -321t-372.5 -113q-297 0 -469.5 199.5t-172.5 542.5zM113 722q0 -317 160.5 -506t431.5 -189t431.5 188.5t160.5 506.5 q0 317 -161 505.5t-431 188.5q-271 0 -431.5 -188.5t-160.5 -505.5z" />
<glyph unicode="&#x153;" horiz-adv-x="1889" d="M63 516q0 246 125 391.5t333 145.5q171 0 289.5 -103.5t142.5 -266.5h5q22 162 140 267t285 105q199 0 321 -137.5t122 -361.5v-39h-845v-3q0 -217 112 -350.5t299 -133.5q150 0 247.5 72.5t122.5 186.5h51q-27 -135 -139 -219.5t-282 -84.5q-171 0 -291.5 104.5 t-142.5 265.5h-5q-23 -166 -141.5 -270t-290.5 -104q-209 0 -333.5 144.5t-124.5 390.5zM113 516q0 -224 111.5 -356.5t296.5 -132.5t297.5 133t112.5 356q0 224 -112.5 357.5t-297.5 133.5t-296.5 -133t-111.5 -358zM981 561h795q0 199 -109.5 324t-283.5 125 q-172 0 -282.5 -123.5t-119.5 -325.5z" />
<glyph unicode="&#x178;" horiz-adv-x="1148" d="M21 1443h60l492 -758h4l491 758h59l-527 -812v-631h-50v631zM381 1611q0 22 16 37.5t38 15.5q23 0 39 -15.5t16 -37.5t-16 -38t-39 -16q-22 0 -38 16t-16 38zM658 1611q0 22 16 37.5t39 15.5q22 0 38 -15.5t16 -37.5t-16 -38t-38 -16q-23 0 -39 16t-16 38z" />
<glyph unicode="&#x2c6;" horiz-adv-x="686" d="M56 1256l265 304h44l265 -304h-56l-230 264h-2l-230 -264h-56z" />
<glyph unicode="&#x2dc;" horiz-adv-x="686" d="M63 1266q0 93 36.5 147.5t106.5 54.5q36 0 68 -17.5t55.5 -42t46 -49t49.5 -42t56 -17.5q97 0 97 159h45q0 -93 -36 -147.5t-106 -54.5q-36 0 -68.5 17.5t-56 42t-46 49t-49 42t-55.5 17.5q-50 0 -74 -42.5t-23 -116.5h-46z" />
<glyph unicode="&#x2000;" horiz-adv-x="920" />
<glyph unicode="&#x2001;" horiz-adv-x="1841" />
<glyph unicode="&#x2002;" horiz-adv-x="920" />
<glyph unicode="&#x2003;" horiz-adv-x="1841" />
<glyph unicode="&#x2004;" horiz-adv-x="613" />
<glyph unicode="&#x2005;" horiz-adv-x="460" />
<glyph unicode="&#x2006;" horiz-adv-x="306" />
<glyph unicode="&#x2007;" horiz-adv-x="306" />
<glyph unicode="&#x2008;" horiz-adv-x="230" />
<glyph unicode="&#x2009;" horiz-adv-x="368" />
<glyph unicode="&#x200a;" horiz-adv-x="102" />
<glyph unicode="&#x2010;" horiz-adv-x="865" d="M104 555v47h656v-47h-656z" />
<glyph unicode="&#x2011;" horiz-adv-x="865" d="M104 555v47h656v-47h-656z" />
<glyph unicode="&#x2012;" horiz-adv-x="865" d="M104 555v47h656v-47h-656z" />
<glyph unicode="&#x2013;" horiz-adv-x="1024" d="M0 564v46h1024v-46h-1024z" />
<glyph unicode="&#x2014;" horiz-adv-x="2048" d="M0 564v46h2048v-46h-2048z" />
<glyph unicode="&#x2018;" horiz-adv-x="365" d="M109 1017l103 426h44l-95 -426h-52z" />
<glyph unicode="&#x2019;" horiz-adv-x="365" d="M109 1017l95 426h52l-103 -426h-44z" />
<glyph unicode="&#x201a;" horiz-adv-x="365" d="M109 -253l95 427h52l-103 -427h-44z" />
<glyph unicode="&#x201c;" horiz-adv-x="579" d="M100 1017l103 426h43l-94 -426h-52zM332 1017l102 426h44l-94 -426h-52z" />
<glyph unicode="&#x201d;" horiz-adv-x="579" d="M101 1017l94 426h52l-102 -426h-44zM333 1017l94 426h52l-103 -426h-43z" />
<glyph unicode="&#x201e;" horiz-adv-x="579" d="M101 -253l94 427h52l-102 -427h-44zM333 -253l94 427h52l-103 -427h-43z" />
<glyph unicode="&#x2022;" horiz-adv-x="943" d="M287 558q0 76 54.5 130.5t130.5 54.5t130.5 -54.5t54.5 -130.5t-54.5 -130.5t-130.5 -54.5t-130.5 54.5t-54.5 130.5z" />
<glyph unicode="&#x2026;" horiz-adv-x="1443" d="M192 45q0 22 15.5 37.5t36.5 15.5q22 0 37.5 -15.5t15.5 -37.5q0 -21 -15.5 -36.5t-37.5 -15.5q-21 0 -36.5 15.5t-15.5 36.5zM669 45q0 22 15.5 37.5t37.5 15.5q21 0 36.5 -15.5t15.5 -37.5q0 -21 -15.5 -36.5t-36.5 -15.5q-22 0 -37.5 15.5t-15.5 36.5zM1147 45 q0 22 15 37.5t37 15.5t37.5 -15.5t15.5 -37.5q0 -21 -15.5 -36.5t-37.5 -15.5t-37 15.5t-15 36.5z" />
<glyph unicode="&#x202f;" horiz-adv-x="368" />
<glyph unicode="&#x2039;" horiz-adv-x="755" d="M158 566v4l376 408h63l-370 -407v-6l370 -407h-63z" />
<glyph unicode="&#x203a;" horiz-adv-x="755" d="M158 158l370 407v6l-370 407h63l376 -408v-4l-376 -408h-63z" />
<glyph unicode="&#x205f;" horiz-adv-x="460" />
<glyph unicode="&#x20ac;" d="M41 558v45h265q-7 53 -7 119q0 48 5 103h-263v44h268q28 189 128 325.5t244 202.5t317 66q88 0 138 -11v-48q-48 12 -138 12q-159 0 -292 -61t-225.5 -186t-120.5 -300h594v-44h-600q-5 -55 -5 -103q0 -66 7 -119h598v-45h-591q30 -169 123 -291t224 -181t288 -59 q90 0 138 12v-48q-50 -11 -138 -11q-262 0 -450.5 151.5t-235.5 426.5h-271z" />
<glyph unicode="&#x2122;" horiz-adv-x="1554" d="M70 1405v38h560v-38h-258v-664h-44v664h-258zM726 741v702h49l290 -647h2l289 647h50v-702h-42v619h-2l-276 -618h-40l-276 618h-3v-619h-41z" />
<glyph unicode="&#x25fc;" horiz-adv-x="1040" d="M0 0v1040h1040v-1040h-1040z" />
<glyph unicode="&#xfb01;" horiz-adv-x="818" d="M19 995v45h145v163q0 120 59.5 177t167.5 57q49 0 77 -10v-44q-33 9 -75 9q-179 0 -179 -194v-158h244v-45h-244v-995h-50v995h-145zM611 1367q0 19 14 32.5t33 13.5q20 0 34 -13.5t14 -32.5q0 -20 -14 -33.5t-34 -13.5q-19 0 -33 13.5t-14 33.5zM634 0v1040h49v-1040 h-49z" />
<glyph unicode="&#xfb02;" horiz-adv-x="818" d="M19 995v45h145v163q0 120 59.5 177t167.5 57q49 0 77 -10v-44q-33 9 -75 9q-179 0 -179 -194v-158h244v-45h-244v-995h-50v995h-145zM634 0v1443h49v-1443h-49z" />
</font>
</defs>
</svg>
