<?xml version="1.0" standalone="no"?>
<!DOCTYPE svg PUBLIC "-//W3C//DTD SVG 1.1//EN" "http://www.w3.org/Graphics/SVG/1.1/DTD/svg11.dtd" >
<svg xmlns="http://www.w3.org/2000/svg" xmlns:xlink="http://www.w3.org/1999/xlink" version="1.1">
<metadata></metadata>
<defs>
<font id="sf_pro_displayultraLtIt" horiz-adv-x="1179" >
<font-face units-per-em="2048" ascent="1638" descent="-410" />
<missing-glyph horiz-adv-x="453" />
<glyph horiz-adv-x="0" />
<glyph unicode="&#xd;" horiz-adv-x="0" />
<glyph unicode=" "  horiz-adv-x="453" />
<glyph unicode="&#x09;" horiz-adv-x="453" />
<glyph unicode="&#xa0;" horiz-adv-x="453" />
<glyph unicode="!" horiz-adv-x="500" d="M162 45q0 22 15.5 37.5t37.5 15.5q21 0 36.5 -15.5t15.5 -37.5q0 -21 -15.5 -36.5t-36.5 -15.5q-22 0 -37.5 15.5t-15.5 36.5zM261 411l218 1032h54l-219 -1032h-53z" />
<glyph unicode="&#x22;" horiz-adv-x="479" d="M261 998l95 445h49l-95 -445h-49zM490 998l95 445h50l-95 -445h-50z" />
<glyph unicode="#" horiz-adv-x="1231" d="M80 450l14 46h278l147 456h-284l14 45h285l150 453h48l-150 -453h425l151 453h48l-150 -453h303l-16 -45h-302l-147 -456h309l-15 -46h-309l-151 -450h-49l151 450h-426l-151 -450h-48l152 450h-277zM420 496h426l146 456h-425z" />
<glyph unicode="$" d="M111 372h51q3 -133 109 -228t272 -116l148 696l-7 3q-186 74 -266.5 157.5t-80.5 201.5q0 166 130 273t333 107q17 0 49 -2l28 132h44l-29 -136q161 -23 267.5 -118.5t116.5 -228.5h-50q-12 113 -107.5 195.5t-236.5 104.5l-140 -658l83 -33q150 -60 220.5 -144 t70.5 -204q0 -178 -135 -288.5t-352 -110.5q-18 0 -52 2l-33 -153h-44l33 157q-184 24 -301.5 132t-120.5 259zM388 1087q0 -103 71.5 -175.5t241.5 -140.5l138 646q-28 2 -44 2q-178 0 -292.5 -93.5t-114.5 -238.5zM586 23q15 -1 45 -1q195 0 314.5 97.5t119.5 255.5 q0 106 -62.5 177.5t-202.5 127.5l-68 28z" />
<glyph unicode="%" horiz-adv-x="1462" d="M111 0l707 735l680 708h60l-706 -734l-682 -709h-59zM219 1011q0 186 88 313.5t214 127.5q91 0 144.5 -66t53.5 -177q0 -186 -88 -313t-214 -127q-90 0 -144 66t-54 176zM268 1011q0 -92 40.5 -146t110.5 -54q102 0 176.5 117t74.5 281q0 91 -41 145.5t-109 54.5 q-103 0 -177.5 -117t-74.5 -281zM948 232q0 186 88 313t214 127q91 0 144.5 -66t53.5 -177q0 -186 -88 -312.5t-214 -126.5q-91 0 -144.5 66t-53.5 176zM997 232q0 -92 40.5 -146t110.5 -54q103 0 177 117t74 281q0 91 -41 145.5t-109 54.5q-103 0 -177.5 -117t-74.5 -281z " />
<glyph unicode="&#x26;" horiz-adv-x="1496" d="M152 332q0 136 88 237.5t274 179.5l129 55q-84 118 -120 198t-36 148q0 131 108 222.5t265 91.5q134 0 220 -72.5t86 -183.5q0 -130 -107 -230.5t-346 -193.5l373 -537q85 93 148.5 208t84.5 216l19 89h49l-19 -91q-23 -113 -92.5 -236.5t-163.5 -221.5l146 -211h-58 l-125 180q-232 -200 -498 -200q-180 0 -302.5 101.5t-122.5 250.5zM203 342q0 -137 106 -227t268 -90q125 0 246.5 49.5t225.5 142.5l-382 549l-133 -56q-331 -139 -331 -368zM537 1155q0 -62 34.5 -137t118.5 -195q425 158 425 373q0 99 -71.5 161t-188.5 62 q-129 0 -223.5 -79t-94.5 -185z" />
<glyph unicode="'" horiz-adv-x="249" d="M261 998l95 445h49l-95 -445h-49z" />
<glyph unicode="(" horiz-adv-x="582" d="M236 325q0 321 125 615t339 503h60q-218 -209 -346.5 -505t-128.5 -605q0 -188 26.5 -360t77.5 -272h-51q-102 212 -102 624z" />
<glyph unicode=")" horiz-adv-x="582" d="M-35 -297q218 209 346 505t128 606q0 189 -26.5 360.5t-77.5 270.5h52q101 -213 101 -624q0 -322 -124.5 -615.5t-338.5 -502.5h-60z" />
<glyph unicode="*" horiz-adv-x="944" d="M301 967l313 133l-255 192l26 34l255 -198l56 331l44 -4l-62 -331l315 140l14 -39l-314 -135l256 -193l-27 -34l-254 199l-55 -330l-45 4l60 329l-314 -138z" />
<glyph unicode="+" d="M172 554l9 47h461l102 475h48l-102 -475h461l-10 -47h-461l-105 -497h-48l105 497h-460z" />
<glyph unicode="," horiz-adv-x="489" d="M41 -253l185 427h52l-193 -427h-44z" />
<glyph unicode="-" horiz-adv-x="830" d="M153 539l10 46h650l-10 -46h-650z" />
<glyph unicode="." horiz-adv-x="509" d="M161 45q0 22 15.5 37.5t37.5 15.5q21 0 36.5 -15.5t15.5 -37.5q0 -21 -15.5 -36.5t-36.5 -15.5q-22 0 -37.5 15.5t-15.5 36.5z" />
<glyph unicode="/" horiz-adv-x="582" d="M-114 -299l903 1742h49l-902 -1742h-50z" />
<glyph unicode="0" horiz-adv-x="1210" d="M172 507q0 195 51.5 372t138.5 305t207 203.5t252 75.5q194 0 308 -142.5t114 -384.5q0 -195 -51.5 -372.5t-138 -305t-207 -203t-252.5 -75.5q-194 0 -308 142.5t-114 384.5zM224 507q0 -220 100.5 -350.5t270.5 -130.5q120 0 230.5 72.5t190.5 195t128 290.5t48 351 q0 220 -100.5 351t-270.5 131q-120 0 -230.5 -72.5t-191 -195t-128 -291t-47.5 -351.5z" />
<glyph unicode="1" horiz-adv-x="778" d="M277 1134l12 60q222 129 451 249h50l-307 -1443h-50l294 1381h-4q-141 -72 -446 -247z" />
<glyph unicode="2" horiz-adv-x="1152" d="M95 0l9 43l630 541q243 209 319.5 311.5t76.5 218.5q0 130 -100.5 216.5t-250.5 86.5q-156 0 -273.5 -96.5t-147.5 -247.5h-51q33 173 164.5 281.5t309.5 108.5q168 0 283.5 -100t115.5 -246q0 -129 -81 -240t-335 -329l-579 -497l-1 -4h842l-10 -47h-921z" />
<glyph unicode="3" horiz-adv-x="1145" d="M113 334q0 44 9 71h48q-8 -35 -8 -65q1 -134 118.5 -224t291.5 -90q202 0 331 106.5t129 272.5q0 148 -106.5 234.5t-286.5 86.5h-159l10 47h195q184 0 304 95.5t120 241.5q0 138 -96.5 222.5t-254.5 84.5q-137 0 -244 -73.5t-149 -195.5h-51q44 143 165.5 229t281.5 86 q176 0 287 -96.5t111 -248.5q0 -151 -102.5 -251.5t-274.5 -119.5l-1 -4q137 -17 219.5 -107.5t82.5 -225.5q0 -188 -144 -309t-370 -121q-127 0 -231.5 46.5t-164.5 128t-60 179.5z" />
<glyph unicode="4" horiz-adv-x="1185" d="M99 379l9 47q129 151 290.5 322.5t676.5 701.5h69l-217 -1024h236l-9 -47h-237l-81 -379h-49l80 379h-768zM175 426h702l204 960h-4q-487 -501 -631.5 -655t-269.5 -301z" />
<glyph unicode="5" horiz-adv-x="1174" d="M154 341v13h49v-7q1 -135 117.5 -228t285.5 -93q206 0 344.5 139.5t138.5 347.5q0 165 -107.5 266t-281.5 101q-111 0 -226.5 -58t-181.5 -147q0 -1 -55 -1l238 769h754l-10 -47h-709l-200 -644h4q66 78 175 126t217 48q189 0 311 -113.5t122 -289.5q0 -236 -152 -389.5 t-385 -153.5q-186 0 -317 105.5t-131 255.5z" />
<glyph unicode="6" horiz-adv-x="1187" d="M167 487q0 86 12 177.5t38 187.5t63.5 184t93 166.5t122 136t154.5 91t188 33.5q174 0 290 -99t120 -253h-51q-5 136 -107 221t-257 85q-238 0 -397.5 -208.5t-209.5 -564.5h5q59 144 192 223t301 79q189 0 312 -118t122 -300q0 -239 -152 -393.5t-387 -154.5 q-198 0 -325.5 141.5t-126.5 365.5zM222 456q-1 -181 113 -305.5t287 -124.5q208 0 347 140.5t139 352.5q1 168 -108.5 274.5t-280.5 106.5q-131 0 -245.5 -58.5t-183 -161.5t-68.5 -224z" />
<glyph unicode="7" horiz-adv-x="1072" d="M189 0l989 1392l1 4h-849l10 47h907l-11 -50l-993 -1393h-54z" />
<glyph unicode="8" horiz-adv-x="1188" d="M121 354q0 167 120 284t312 139l1 4q-104 28 -168 108t-64 181q0 169 138 281t346 112q182 0 298.5 -92.5t116.5 -237.5t-102 -248.5t-265 -124.5l-1 -4q121 -34 198 -129.5t77 -212.5q0 -194 -149 -314t-390 -120q-209 0 -338.5 103t-129.5 271zM172 365 q0 -155 113.5 -247t305.5 -92q219 0 353 106t134 280q0 145 -121.5 239t-309.5 94q-204 0 -339.5 -109t-135.5 -271zM371 1077q0 -129 104.5 -208t274.5 -79q182 0 301.5 95.5t119.5 240.5q0 130 -102 210.5t-268 80.5q-182 0 -306 -97.5t-124 -242.5z" />
<glyph unicode="9" horiz-adv-x="1175" d="M129 333h51q14 -139 113 -223t249 -84q250 0 411 204.5t207 587.5h-4q-49 -145 -180.5 -233t-298.5 -88q-185 0 -311 125t-126 309q1 229 155.5 380.5t390.5 151.5q190 0 313 -127.5t122 -339.5q0 -70 -8 -150t-28.5 -180.5t-52.5 -194t-86.5 -184.5t-123 -158 t-167.5 -108t-217 -41q-170 0 -283.5 98t-125.5 255zM290 934q0 -165 113 -278t281 -113q123 0 233.5 59t180.5 167t70 237q0 182 -108.5 296.5t-278.5 114.5q-211 0 -350.5 -138t-140.5 -345z" />
<glyph unicode=":" horiz-adv-x="509" d="M161 45q0 22 15.5 37.5t37.5 15.5q21 0 36.5 -15.5t15.5 -37.5q0 -21 -15.5 -36.5t-36.5 -15.5q-22 0 -37.5 15.5t-15.5 36.5zM328 833q0 22 15.5 37.5t37.5 15.5t37.5 -15.5t15.5 -37.5t-15.5 -37.5t-37.5 -15.5t-37.5 15.5t-15.5 37.5z" />
<glyph unicode=";" horiz-adv-x="509" d="M41 -253l185 427h52l-193 -427h-44zM328 833q0 22 15.5 37.5t37.5 15.5t37.5 -15.5t15.5 -37.5t-15.5 -37.5t-37.5 -15.5t-37.5 15.5t-15.5 37.5z" />
<glyph unicode="&#x3c;" d="M229 512l9 44l959 574l-12 -61l-896 -537l-1 -5l667 -532l-12 -57z" />
<glyph unicode="=" d="M133 368l10 46h966l-9 -46h-967zM213 741l9 46h966l-9 -46h-966z" />
<glyph unicode="&#x3e;" d="M107 -62l12 61l896 537l1 4l-667 533l11 57l715 -575l-10 -43z" />
<glyph unicode="?" horiz-adv-x="908" d="M255 1129q37 153 148 243.5t269 90.5q157 0 254 -93t97 -232q0 -128 -75 -225t-218 -150q-106 -39 -161.5 -98t-75.5 -154l-24 -113h-50l24 117q24 111 83 175.5t176 108.5q270 103 270 334q0 124 -81.5 203.5t-222.5 79.5q-134 0 -231 -77.5t-133 -209.5h-49zM331 45 q0 22 15.5 37.5t36.5 15.5q22 0 37.5 -15.5t15.5 -37.5q0 -21 -15.5 -36.5t-37.5 -15.5q-21 0 -36.5 15.5t-15.5 36.5z" />
<glyph unicode="@" horiz-adv-x="1727" d="M129 530q0 257 120 463t332.5 322t477.5 116q335 0 537 -180t202 -480q0 -163 -56 -300t-153 -216.5t-212 -79.5q-88 0 -142 43t-55 113q0 18 3 36h-5q-52 -90 -134 -141t-175 -51q-132 0 -212.5 93t-80.5 244q0 132 58 248t156.5 185t209.5 69q106 0 179 -61t84 -159h5 l41 193h49l-121 -567q-10 -41 -10 -76q0 -57 41 -90.5t111 -33.5q101 0 186.5 73.5t135 200.5t49.5 277q0 282 -188.5 449t-505.5 167q-251 0 -452 -110t-314 -305.5t-113 -439.5q0 -332 208 -527t563 -195q117 0 182 17l-10 -47q-72 -15 -178 -15q-371 0 -592 208t-221 557 zM625 514q0 -134 66.5 -214t178.5 -80q98 0 182.5 64.5t134.5 173t50 233.5q0 131 -61 204.5t-171 73.5q-155 0 -267.5 -134.5t-112.5 -320.5z" />
<glyph unicode="A" horiz-adv-x="1201" d="M-30 0l861 1443h51l248 -1443h-48l-86 502h-668l-299 -502h-59zM355 547h634l-141 828h-4z" />
<glyph unicode="B" horiz-adv-x="1169" d="M80 0l307 1443h466q169 0 264 -87t95 -228q0 -144 -104.5 -254.5t-257.5 -130.5l-1 -4q130 -16 210.5 -97.5t80.5 -215.5q0 -194 -157 -310t-411 -116h-492zM140 46h437q228 0 370 105.5t142 271.5q0 144 -101 220t-261 76h-444zM293 765h450q112 0 208 47t153.5 129 t57.5 180q0 127 -82 201.5t-235 74.5h-418z" />
<glyph unicode="C" horiz-adv-x="1342" d="M169 565q0 188 56 354.5t152 286t230.5 188.5t286.5 69q236 0 382 -136.5t149 -351.5v-2h-50v2q-3 194 -135.5 317.5t-349.5 123.5q-139 0 -263.5 -66t-213.5 -178.5t-141.5 -269.5t-52.5 -331q0 -244 141.5 -394t372.5 -150q190 0 332 96.5t204 268.5h54 q-66 -194 -223.5 -303t-370.5 -109q-251 0 -405.5 161.5t-154.5 423.5z" />
<glyph unicode="D" horiz-adv-x="1348" d="M81 0l306 1443h425q275 0 425 -149t150 -406q0 -192 -61 -356t-171 -281.5t-270 -184t-351 -66.5h-453zM143 47h391q238 0 422 108.5t282.5 298t98.5 428.5q0 242 -136 378t-395 136h-377z" />
<glyph unicode="E" horiz-adv-x="1039" d="M80 0l307 1443h826l-10 -47h-776l-134 -632h740l-11 -46h-739l-142 -671h775l-10 -47h-826z" />
<glyph unicode="F" horiz-adv-x="1008" d="M80 0l307 1443h817l-10 -47h-767l-135 -634h706l-11 -47h-705l-152 -715h-50z" />
<glyph unicode="G" horiz-adv-x="1351" d="M169 565q0 248 92.5 453.5t257.5 325t368 119.5q218 0 360 -119.5t164 -319.5v-1h-50q-23 181 -151 287t-326 106q-185 0 -338.5 -113.5t-240 -307t-86.5 -424.5q0 -244 140 -394t369 -150q211 0 357.5 129.5t198.5 361.5l29 127h-504l9 46h554l-40 -179 q-56 -255 -214.5 -393.5t-392.5 -138.5q-249 0 -402.5 162t-153.5 423z" />
<glyph unicode="H" horiz-adv-x="1310" d="M80 0l307 1443h50l-144 -678h948l144 678h50l-307 -1443h-50l153 718h-948l-153 -718h-50z" />
<glyph unicode="I" horiz-adv-x="312" d="M80 0l307 1443h50l-307 -1443h-50z" />
<glyph unicode="J" horiz-adv-x="937" d="M64 295q0 12 1 22h51q-1 -5 -1 -17q0 -122 84 -198.5t221 -76.5t232.5 87.5t128.5 243.5l231 1087h50l-235 -1108q-35 -168 -145 -262.5t-268 -94.5q-156 0 -253 88.5t-97 228.5z" />
<glyph unicode="K" horiz-adv-x="1109" d="M80 0l307 1443h50l-176 -828h4l952 828h72l-716 -623l479 -820h-57l-459 788l-293 -253l-113 -535h-50z" />
<glyph unicode="L" horiz-adv-x="1002" d="M80 0l307 1443h50l-297 -1396h775l-10 -47h-825z" />
<glyph unicode="M" horiz-adv-x="1589" d="M80 0l307 1443h50l316 -1381h4l898 1381h59l-307 -1443h-49l283 1329h-4l-866 -1328h-52l-303 1328h-4l-283 -1329h-49z" />
<glyph unicode="N" horiz-adv-x="1332" d="M80 0l307 1443h48l679 -1362h4l289 1362h50l-307 -1443h-48l-679 1362h-4l-289 -1362h-50z" />
<glyph unicode="O" horiz-adv-x="1436" d="M171 584q0 184 56.5 347.5t153.5 280t232.5 184t289.5 67.5q254 0 410 -165.5t156 -438.5q0 -184 -56.5 -347.5t-153 -280t-232.5 -184t-289 -67.5q-254 0 -410.5 165.5t-156.5 438.5zM222 590q0 -257 142.5 -410t377.5 -153q187 0 342.5 109t245 299t89.5 418 q0 257 -142.5 410t-377.5 153q-187 0 -342.5 -109t-245 -299t-89.5 -418z" />
<glyph unicode="P" horiz-adv-x="1138" d="M80 0l312 1443h413q194 0 306.5 -104.5t112.5 -271.5q0 -213 -159.5 -339.5t-418.5 -126.5h-385l-131 -601h-50zM270 648h381q150 0 267.5 49t186.5 144.5t69 222.5q0 147 -99.5 239.5t-275.5 92.5h-367z" />
<glyph unicode="Q" horiz-adv-x="1436" d="M171 584q0 184 56.5 347.5t153.5 280t232.5 184t289.5 67.5q254 0 410 -165.5t156 -438.5q0 -268 -112.5 -481t-302.5 -318l125 -242h-54l-114 222q-129 -60 -273 -60q-254 0 -410.5 165.5t-156.5 438.5zM222 590q0 -257 142.5 -410t377.5 -153q130 0 248 55l-144 278h53 l133 -256q176 99 281.5 299.5t105.5 449.5q0 257 -142.5 410t-377.5 153q-187 0 -342.5 -109t-245 -299t-89.5 -418z" />
<glyph unicode="R" horiz-adv-x="1142" d="M80 0l312 1443h394q207 0 320 -97.5t113 -264.5q0 -182 -117 -299.5t-320 -143.5l244 -638h-53l-242 632h-39h-425l-137 -632h-50zM277 679h422q209 0 339.5 110.5t130.5 287.5q0 148 -100 233.5t-286 85.5h-351z" />
<glyph unicode="S" horiz-adv-x="1187" d="M114 401h50q8 -167 140 -270.5t337 -103.5q195 0 315 96.5t120 254.5q0 106 -67 178.5t-219 132.5l-130 51q-186 74 -265.5 157t-79.5 206q0 159 128.5 259.5t331.5 100.5q201 0 335 -110t146 -285h-50q-12 153 -132 250.5t-300 97.5t-294 -87.5t-114 -224.5 q0 -107 72 -179.5t243 -139.5l133 -52q165 -64 239 -147.5t74 -206.5q0 -177 -134.5 -288t-352.5 -111q-228 0 -373.5 116.5t-152.5 304.5z" />
<glyph unicode="T" horiz-adv-x="1143" d="M272 1396l10 47h1092l-10 -47h-521l-297 -1396h-50l297 1396h-521z" />
<glyph unicode="U" horiz-adv-x="1337" d="M182 402q0 71 14 143l193 898h50l-193 -901q-13 -57 -13 -136q0 -170 119 -274.5t315 -104.5q208 0 349.5 115.5t185.5 318.5l211 982h50l-212 -988q-48 -226 -202 -350.5t-386 -124.5q-215 0 -347.5 117t-133.5 305z" />
<glyph unicode="V" horiz-adv-x="1201" d="M277 1443h48l234 -1371h4l816 1371h58l-861 -1443h-53z" />
<glyph unicode="W" horiz-adv-x="1744" d="M278 1443h49l90 -1342h4l680 1342h45l113 -1342h4l661 1342h54l-712 -1443h-46l-113 1341h-4l-680 -1341h-48z" />
<glyph unicode="X" horiz-adv-x="1156" d="M-29 0l681 726l-369 717h56l349 -680h1l636 680h66l-679 -725l368 -718h-56l-348 681h-1l-638 -681h-66z" />
<glyph unicode="Y" horiz-adv-x="1145" d="M277 1443h54l331 -758h4l651 758h63l-699 -814l-133 -629h-51l134 632z" />
<glyph unicode="Z" horiz-adv-x="1153" d="M16 0l9 42l1237 1351v4h-920l10 46h989l-9 -43l-1236 -1350v-4h949l-10 -46h-1019z" />
<glyph unicode="[" horiz-adv-x="582" d="M86 -299l370 1742h353l-10 -45h-303l-351 -1652h303l-9 -45h-353z" />
<glyph unicode="\" horiz-adv-x="582" d="M313 1443h47l51 -1742h-46z" />
<glyph unicode="]" horiz-adv-x="582" d="M-85 -299l10 45h303l352 1652h-304l10 45h352l-370 -1742h-353z" />
<glyph unicode="^" horiz-adv-x="749" d="M171 798l428 596h41l176 -596h-51l-153 530h-3l-380 -530h-58z" />
<glyph unicode="_" horiz-adv-x="1024" d="M-91 -145l9 45h1044l-9 -45h-1044z" />
<glyph unicode="`" horiz-adv-x="811" d="M554 1555h55l178 -304h-49z" />
<glyph unicode="a" horiz-adv-x="966" d="M83 251q0 143 112.5 227t320.5 96l371 22l20 93q10 53 10 85q0 110 -76.5 173t-212.5 63q-144 0 -242 -70t-124 -191h-51q29 140 142.5 223.5t277.5 83.5q153 0 244.5 -76t91.5 -202q0 -43 -10 -90l-147 -688h-49l44 204l-4 1q-57 -101 -164 -160.5t-230 -59.5 q-143 0 -233.5 74t-90.5 192zM133 255q0 -101 77.5 -163t202.5 -62q152 0 272.5 94t151.5 237l42 191l-363 -21q-184 -10 -283.5 -82t-99.5 -194z" />
<glyph unicode="b" horiz-adv-x="1090" d="M63 0l307 1443h50l-139 -656h4q68 125 179.5 196.5t240.5 71.5q174 0 278.5 -119.5t104.5 -320.5q0 -174 -68.5 -318.5t-189.5 -228t-268 -83.5q-153 0 -259 95.5t-118 244.5h-5l-69 -325h-48zM215 408q0 -170 96 -274t253 -104q131 0 240 77.5t171.5 212t62.5 295.5 q0 183 -91.5 289t-249.5 106q-129 0 -240 -82t-176.5 -221t-65.5 -299z" />
<glyph unicode="c" horiz-adv-x="1000" d="M121 420q0 133 40.5 251t110.5 202.5t167.5 133.5t208.5 49q159 0 265 -91t122 -239v-1h-49q-16 128 -108.5 206.5t-229.5 78.5q-132 0 -242 -77.5t-172.5 -212.5t-62.5 -298q0 -176 99.5 -284t261.5 -108q126 0 226.5 65t148.5 175h51q-54 -134 -167 -210t-259 -76 q-185 0 -298 120t-113 316z" />
<glyph unicode="d" horiz-adv-x="1091" d="M112 401q0 131 44 252t117 209t173 140.5t208 52.5q151 0 254 -93t116 -243h4l154 724h51l-307 -1443h-51l54 253h-4q-66 -123 -184.5 -195.5t-250.5 -72.5q-167 0 -272.5 116t-105.5 300zM162 406q0 -169 92.5 -272.5t244.5 -103.5q140 0 254.5 84t177.5 221.5t63 296.5 q0 172 -93.5 275t-248.5 103q-127 0 -240.5 -83.5t-181.5 -223.5t-68 -297z" />
<glyph unicode="e" horiz-adv-x="1017" d="M115 405q0 183 69.5 332.5t192.5 234t274 84.5q176 0 278.5 -108.5t102.5 -293.5q0 -78 -16 -137h-841q-10 -64 -10 -107q0 -175 96.5 -277.5t260.5 -102.5q142 0 244.5 68t147.5 192h52q-48 -143 -166.5 -224.5t-281.5 -81.5q-185 0 -294 114t-109 307zM183 562h792 q9 36 9 91q0 163 -90.5 260t-245.5 97q-174 0 -303.5 -125t-161.5 -323z" />
<glyph unicode="f" horiz-adv-x="521" d="M129 0l211 995h-163l10 45h163l33 155q24 119 93.5 180.5t173.5 61.5q58 0 104 -14l-10 -46q-43 15 -94 15q-83 0 -140 -51.5t-78 -148.5l-32 -152h250l-9 -45h-250l-212 -995h-50z" />
<glyph unicode="g" horiz-adv-x="1084" d="M60 -92h50q8 -98 103.5 -166t245.5 -68q156 0 264.5 84t140.5 228l60 280h-4q-61 -124 -174 -195.5t-247 -71.5q-175 0 -279.5 113.5t-104.5 304.5q0 171 72 318t196 233.5t270 86.5q154 0 253.5 -92t109.5 -242h4l70 319h51l-228 -1059q-36 -165 -158.5 -258.5 t-300.5 -93.5q-171 0 -281.5 82.5t-112.5 196.5zM164 420q0 -174 91.5 -274.5t250.5 -100.5q134 0 244.5 78t173.5 213.5t63 298.5q0 172 -91 273.5t-245 101.5q-130 0 -242.5 -80.5t-178.5 -216.5t-66 -293z" />
<glyph unicode="h" horiz-adv-x="1040" d="M63 0l310 1443h50l-133 -620h4q62 107 161.5 169.5t226.5 62.5q155 0 251 -89t96 -229q0 -49 -9 -97l-139 -640h-48l135 629q11 60 11 98q0 128 -84 205.5t-223 77.5q-155 0 -271 -105.5t-149 -259.5l-139 -645h-50z" />
<glyph unicode="i" horiz-adv-x="286" d="M67 0l221 1040h50l-221 -1040h-50zM321 1305q0 20 14 33.5t34 13.5q19 0 33 -13.5t14 -33.5q0 -19 -14 -32.5t-33 -13.5q-20 0 -34 13.5t-14 32.5z" />
<glyph unicode="j" horiz-adv-x="287" d="M-245 -346l10 45q27 -3 57 -3q93 0 147 46.5t74 145.5l246 1152h49l-245 -1157q-26 -123 -92.5 -177.5t-178.5 -54.5q-32 0 -67 3zM326 1305q0 20 14 33.5t34 13.5q19 0 33 -13.5t14 -33.5q0 -19 -14 -32.5t-33 -13.5q-20 0 -34 13.5t-14 32.5z" />
<glyph unicode="k" horiz-adv-x="861" d="M63 0l307 1443h50l-202 -949h4l730 546h75l-596 -449l391 -591h-58l-374 564l-187 -142l-90 -422h-50z" />
<glyph unicode="l" horiz-adv-x="290" d="M70 0l307 1443h49l-307 -1443h-49z" />
<glyph unicode="m" horiz-adv-x="1582" d="M63 0l221 1040h49l-44 -209h4q106 225 326 225q123 0 205 -74.5t90 -192.5h4q41 118 137.5 192.5t219.5 74.5q131 0 215 -81.5t84 -208.5q0 -67 -11 -124l-137 -642h-50l134 632q14 65 14 124q0 113 -71.5 183.5t-186.5 70.5q-131 0 -227.5 -98.5t-132.5 -269.5 l-137 -642h-49l134 632q13 60 13 124q0 113 -71.5 183.5t-187.5 70.5q-128 0 -224.5 -98t-131.5 -264l-139 -648h-50z" />
<glyph unicode="n" horiz-adv-x="1033" d="M63 0l221 1040h49l-47 -222h4q63 110 164 174t229 64q152 0 247.5 -88t95.5 -223q0 -54 -11 -105l-137 -640h-50l134 629q14 68 14 107q0 123 -82.5 198.5t-221.5 75.5q-154 0 -271 -106t-150 -259l-138 -645h-50z" />
<glyph unicode="o" horiz-adv-x="1075" d="M121 420q0 180 69.5 325.5t192 228t272.5 82.5q190 0 304.5 -119.5t114.5 -316.5q0 -180 -69.5 -325.5t-191.5 -228t-273 -82.5q-190 0 -304.5 119.5t-114.5 316.5zM171 422q0 -177 101 -284.5t268 -107.5q135 0 246 77t174.5 211.5t63.5 299.5q0 177 -100.5 284.5 t-268.5 107.5q-135 0 -246 -77t-174.5 -211.5t-63.5 -299.5z" />
<glyph unicode="p" horiz-adv-x="1086" d="M-9 -339l293 1379h48l-53 -254h6q67 126 179 197.5t242 71.5q173 0 277.5 -120t104.5 -320q0 -131 -40.5 -248t-110.5 -201t-168 -132.5t-208 -48.5q-153 0 -258.5 95t-117.5 244h-4l-140 -663h-50zM215 408q0 -170 96 -274t253 -104q130 0 239 77.5t172 212t63 295.5 q0 183 -91.5 289t-249.5 106q-129 0 -240 -82t-176.5 -221t-65.5 -299z" />
<glyph unicode="q" horiz-adv-x="1091" d="M112 405q0 172 74 322.5t199 239t269 88.5q154 0 257 -94.5t114 -245.5h3l69 325h50l-293 -1379h-50l126 593h-4q-66 -123 -184.5 -196t-251.5 -73q-167 0 -272.5 117.5t-105.5 302.5zM162 405q0 -166 94 -270.5t243 -104.5q136 0 250 79.5t179.5 218t65.5 304.5 q0 175 -92 276.5t-252 101.5q-126 0 -239 -84t-181 -224.5t-68 -296.5z" />
<glyph unicode="r" horiz-adv-x="598" d="M63 0l221 1040h49l-41 -191h4q113 206 300 206q88 0 139 -29l-12 -50q-41 33 -134 33q-116 0 -210.5 -103.5t-130.5 -271.5l-135 -634h-50z" />
<glyph unicode="s" horiz-adv-x="914" d="M75 299h51q16 -121 115 -195.5t244 -74.5q140 0 228.5 67t88.5 171q0 81 -52.5 131.5t-186.5 96.5l-90 33q-124 43 -182 104t-58 148q0 120 99.5 198t255.5 78q150 0 250 -84t113 -218h-49q-14 114 -100 185.5t-218 71.5q-130 0 -215.5 -65t-85.5 -163q0 -74 50.5 -123.5 t166.5 -90.5l89 -32q143 -50 203 -111t60 -158q0 -126 -103 -205t-267 -79q-166 0 -279.5 87.5t-127.5 227.5z" />
<glyph unicode="t" horiz-adv-x="511" d="M156 163q0 36 11 89l158 743h-150l9 45h151l59 279h50l-59 -279h225l-10 -45h-225l-157 -742q-11 -44 -11 -76q0 -64 44 -98t125 -33h58l-10 -46q-1 0 -28 -0.5t-28 -0.5q-100 0 -156 42.5t-56 121.5z" />
<glyph unicode="u" horiz-adv-x="1034" d="M129 295q0 47 11 105l137 640h49l-134 -629q-13 -59 -13 -106q0 -123 82 -199t220 -76q155 0 272.5 106t150.5 259l138 645h49l-221 -1040h-48l47 220h-3q-63 -108 -165 -172t-229 -64q-154 0 -248.5 88t-94.5 223z" />
<glyph unicode="v" horiz-adv-x="872" d="M183 1040h50l162 -992h4l583 992h57l-615 -1040h-68z" />
<glyph unicode="w" horiz-adv-x="1380" d="M193 1040h48l76 -985h4l513 985h66l94 -985h4l493 985h55l-525 -1040h-68l-94 980h-4l-511 -980h-69z" />
<glyph unicode="x" horiz-adv-x="863" d="M-26 0l497 523l-278 517h55l257 -479h4l456 479h65l-500 -525l278 -515h-56l-255 476h-4l-454 -476h-65z" />
<glyph unicode="y" horiz-adv-x="872" d="M8 -343l9 44q28 -5 50 -5q69 0 123.5 44t115.5 149l56 94l-179 1057h50l166 -991h4l579 991h56l-689 -1173q-73 -123 -136 -169.5t-149 -46.5q-32 0 -56 6z" />
<glyph unicode="z" horiz-adv-x="896" d="M8 0l10 46l904 945l1 4h-702l9 45h771l-10 -46l-904 -945l-1 -4h702l-9 -45h-771z" />
<glyph unicode="{" horiz-adv-x="582" d="M91 528l19 88q121 0 176.5 42t81.5 164l73 334q37 171 102.5 229t211.5 58h54l-10 -45h-45q-122 0 -178 -49.5t-86 -192.5l-74 -346q-27 -126 -85.5 -173t-183.5 -59l-4 -18q91 -9 134.5 -43t43.5 -114q0 -39 -12 -95l-57 -265q-16 -75 -16 -122q0 -91 45.5 -133 t139.5 -42h25l-9 -45h-30q-221 0 -221 212q0 60 15 128l57 259q12 56 12 94q0 73 -41.5 99.5t-137.5 34.5z" />
<glyph unicode="|" horiz-adv-x="582" d="M153 -299l371 1742h47l-370 -1742h-48z" />
<glyph unicode="}" horiz-adv-x="582" d="M-85 -298l10 45h45q121 0 177.5 50t87.5 192l74 346q14 66 34.5 108t54 68t75 38t104.5 18l4 18q-91 9 -134.5 43.5t-43.5 114.5q0 40 12 94l57 265q16 75 16 123q0 90 -45.5 132t-139.5 42h-25l9 45h30q113 0 167.5 -55.5t54.5 -156.5q0 -56 -16 -128l-57 -259 q-12 -55 -12 -93q0 -73 42 -100t138 -35l-20 -88q-120 0 -176 -42.5t-82 -163.5l-72 -334q-37 -170 -103 -228.5t-212 -58.5h-54z" />
<glyph unicode="~" d="M275 554q16 121 80 198.5t159 77.5q45 0 84.5 -24.5t69.5 -59t59 -69.5t63.5 -59.5t72.5 -24.5q73 0 120.5 63.5t63.5 165.5h48q-19 -126 -80 -200.5t-154 -74.5q-45 0 -85 24.5t-70 59.5t-59 69.5t-63.5 59t-72.5 24.5q-73 0 -122.5 -64.5t-65.5 -165.5h-48z" />
<glyph unicode="&#xa1;" horiz-adv-x="500" d="M99 -340l219 1032h54l-218 -1032h-55zM371 1059q0 22 15.5 37.5t36.5 15.5q22 0 37.5 -15.5t15.5 -37.5q0 -21 -15.5 -36.5t-37.5 -15.5q-21 0 -36.5 15.5t-15.5 36.5z" />
<glyph unicode="&#xa2;" d="M225 559q0 190 72.5 346.5t200 247t283.5 92.5l46 207h49l-45 -209q139 -9 235 -93.5t115 -210.5v-3h-49q-20 119 -114 191t-233 72q-141 0 -258 -83.5t-184.5 -229t-67.5 -319.5q0 -178 99 -282.5t268 -104.5q134 0 240 61.5t144 162.5h51q-39 -123 -159.5 -196.5 t-284.5 -74.5l-47 -220h-50l48 223q-165 17 -262 131t-97 292z" />
<glyph unicode="&#xa3;" d="M7 0l10 44q204 36 327.5 181t123.5 355q0 42 -7 110h-267l10 46h252q-2 28 -15.5 138.5t-13.5 161.5q0 207 125.5 322t343.5 115q200 0 355 -90l-2 -51q-160 94 -356 94q-194 0 -305.5 -106t-111.5 -280q0 -45 14 -153.5t17 -150.5h457l-9 -46h-444q6 -57 6 -107 q0 -190 -99 -337t-251 -196l-1 -4h917l-10 -46h-1066z" />
<glyph unicode="&#xa4;" d="M140 241l237 196q-70 99 -70 218q0 81 33 153.5t90 124.5l-111 139l39 31l109 -140q96 68 215 68q162 0 273 -117l233 191l29 -36l-232 -190q74 -99 74 -224q0 -82 -34 -155t-94 -126l107 -135l-38 -31l-107 137q-94 -66 -211 -66q-162 0 -275 121l-238 -195zM353 655 q0 -88 49 -165t125 -121t155 -44q137 0 233.5 97t96.5 233q0 137 -96.5 234t-233.5 97q-136 0 -232.5 -97t-96.5 -234z" />
<glyph unicode="&#xa5;" d="M238 391l9 45h360l47 220h-360l10 44h332l-343 743h55l337 -737h4l646 737h63l-656 -743h329l-9 -44h-358l-47 -220h358l-10 -45h-357l-83 -391h-50l83 391h-360z" />
<glyph unicode="&#xa6;" horiz-adv-x="582" d="M153 -299l146 684h47l-145 -684h-48zM379 760l145 683h47l-145 -683h-47z" />
<glyph unicode="&#xa7;" horiz-adv-x="944" d="M14 45h52q15 -104 111.5 -169t235.5 -65q144 0 239 71.5t95 180.5q0 75 -57.5 133t-184.5 105l-99 37q-124 46 -183 108.5t-59 149.5q0 115 94.5 196t225.5 90l1 6q-164 72 -164 221q0 121 104.5 201.5t260.5 80.5q146 0 248 -74.5t113 -188.5h-48q-12 92 -103.5 155 t-214.5 63q-129 0 -218.5 -68t-89.5 -167q0 -73 52 -125t167 -94l95 -35q140 -52 204 -118.5t64 -161.5q0 -114 -86.5 -193.5t-213.5 -93.5l-1 -4q75 -47 109.5 -100t34.5 -123q0 -130 -110 -214t-279 -84q-162 0 -273 79t-122 201zM216 599q0 -73 51.5 -124t167.5 -96 l153 -59q138 6 226.5 77.5t88.5 177.5q0 79 -54.5 134t-181.5 103l-116 43q-141 -1 -238 -77.5t-97 -178.5z" />
<glyph unicode="&#xa8;" horiz-adv-x="811" d="M437 1305q0 22 16 37.5t38 15.5t38 -15.5t16 -37.5t-16 -38t-38 -16t-38 16t-16 38zM714 1305q0 22 16 37.5t38 15.5t38 -15.5t16 -37.5q0 -23 -16 -38.5t-38 -15.5t-38 16t-16 38z" />
<glyph unicode="&#xa9;" horiz-adv-x="1736" d="M187 595q0 160 63.5 307t170 254t253 170.5t305.5 63.5q161 0 297.5 -54t233 -149.5t150.5 -232t54 -297.5q0 -160 -63.5 -307t-170 -254t-253 -170.5t-305.5 -63.5q-214 0 -381.5 92.5t-260.5 260t-93 380.5zM234 595q0 -305 191.5 -496t496.5 -191q150 0 287.5 60 t238 160.5t160 239t59.5 289.5q0 306 -191 496.5t-497 190.5q-150 0 -287.5 -60t-238 -160.5t-160 -239t-59.5 -289.5zM560 575q0 135 58 248t159 177.5t222 64.5q140 0 232.5 -81t99.5 -210h-45q-7 111 -88 179.5t-204 68.5q-163 0 -275 -128.5t-112 -316.5q0 -153 84 -245 t224 -92q98 0 175.5 46t113.5 126h51q-43 -101 -133.5 -158t-207.5 -57q-161 0 -257.5 103t-96.5 275z" />
<glyph unicode="&#xaa;" horiz-adv-x="678" d="M206 913q0 97 76.5 154.5t214.5 64.5l253 13l13 60q7 24 7 54q0 71 -50 111.5t-138 40.5q-91 0 -155 -44t-82 -120h-47q19 94 97.5 150t189.5 56q106 0 169 -51.5t63 -137.5q0 -23 -7 -60l-98 -463h-45l27 132h-2q-37 -63 -110.5 -102t-156.5 -39q-95 0 -157 50.5 t-62 130.5zM253 917q0 -65 50.5 -104.5t131.5 -39.5q101 0 182 61t100 152l26 120l-245 -13q-118 -6 -181.5 -52t-63.5 -124z" />
<glyph unicode="&#xab;" horiz-adv-x="1101" d="M224 565l1 7l460 406h70l-462 -411l-2 -7l284 -402h-62zM568 564l1 6l462 408h70l-463 -413l-2 -6l283 -401h-62z" />
<glyph unicode="&#xac;" d="M200 677l10 46h965l-115 -540h-48l106 494h-918z" />
<glyph unicode="&#xad;" horiz-adv-x="830" d="M153 539l10 46h650l-10 -46h-650z" />
<glyph unicode="&#xae;" horiz-adv-x="1078" d="M296 1066q0 179 120 300.5t297 121.5q172 0 288.5 -114t116.5 -282q0 -181 -120 -302.5t-298 -121.5q-170 0 -287 115.5t-117 282.5zM337 1066q0 -150 106 -255t257 -105q161 0 269.5 110.5t108.5 275.5q-1 151 -106.5 255t-257.5 104q-161 0 -268.5 -110t-108.5 -275z M511 869l95 448h157q60 0 96.5 -34.5t36.5 -90.5t-37 -94t-100 -48l91 -181h-45l-90 178h-126l-38 -178h-40zM596 1082h127q61 0 97 29t36 77q0 42 -26 67t-71 25h-121z" />
<glyph unicode="&#xaf;" horiz-adv-x="866" d="M409 1302l9 44h503l-9 -44h-503z" />
<glyph unicode="&#xb0;" horiz-adv-x="721" d="M302 1201q0 108 77 185t185 77t185.5 -77t77.5 -185t-77.5 -185t-185.5 -77t-185 77t-77 185zM346 1201q0 -90 64 -153.5t154 -63.5q91 0 155 63.5t64 153.5q0 89 -64 153t-155 64q-90 0 -154 -64t-64 -153z" />
<glyph unicode="&#xb1;" d="M80 113l9 46h966l-10 -46h-965zM202 688l10 45h458l73 344h50l-74 -344h458l-9 -45h-458l-79 -367h-49l78 367h-458z" />
<glyph unicode="&#xb2;" horiz-adv-x="540" d="M258 1146l8 38l285 244q104 88 137 131.5t33 91.5q0 55 -41.5 90t-104.5 35q-65 0 -113 -39.5t-61 -103.5h-47q13 82 75.5 133.5t148.5 51.5q81 0 136.5 -47t55.5 -116q0 -59 -39 -111.5t-153 -149.5l-240 -204v-2h363l-8 -42h-435z" />
<glyph unicode="&#xb3;" horiz-adv-x="542" d="M269 1305q0 17 3 28h46q-2 -11 -2 -21q0 -58 48.5 -96t121.5 -38q86 0 140 44t54 114q0 60 -45 96t-120 36h-73l9 41h91q76 0 126 40t50 100q0 56 -41.5 91.5t-105.5 35.5q-58 0 -103.5 -31.5t-61.5 -83.5h-48q19 71 78 114t138 43q83 0 137.5 -46.5t54.5 -116.5 q0 -65 -46.5 -112t-120.5 -57l-1 -2q60 -10 95 -49.5t35 -97.5q0 -88 -68.5 -144.5t-175.5 -56.5q-92 0 -153.5 48.5t-61.5 120.5z" />
<glyph unicode="&#xb4;" horiz-adv-x="811" d="M451 1251l308 304h64l-313 -304h-59z" />
<glyph unicode="&#xb6;" horiz-adv-x="1157" d="M372 966q0 143 74 253.5t193.5 167t262.5 56.5h117l-338 -1589h-50l153 718q-189 18 -300.5 126t-111.5 268zM863 -146l338 1589h50l-338 -1589h-50z" />
<glyph unicode="&#xb7;" horiz-adv-x="509" d="M257 520q0 23 16.5 40t40.5 17q23 0 40 -17t17 -40t-17 -40t-40 -17q-24 0 -40.5 17t-16.5 40z" />
<glyph unicode="&#xb8;" horiz-adv-x="812" d="M97 -422l9 44q67 -40 157 -40q69 0 112 32t43 89q0 103 -142 116l-50 5l8 33l105 157h40l-3 -14l-93 -141q87 -7 135 -46t48 -106q0 -78 -56.5 -124t-147.5 -46q-94 0 -165 41z" />
<glyph unicode="&#xb9;" horiz-adv-x="383" d="M338 1639l13 52q105 66 205 119h48l-142 -664h-47l129 609h-2q-22 -11 -103.5 -58.5t-100.5 -57.5z" />
<glyph unicode="&#xba;" horiz-adv-x="725" d="M221 1022q0 184 103.5 307.5t257.5 123.5q128 0 206 -80.5t78 -212.5q0 -183 -104 -306t-258 -123q-128 0 -205.5 79.5t-77.5 211.5zM268 1024q0 -115 64.5 -183t174.5 -68q133 0 222 110.5t89 274.5q0 115 -65 184t-173 69q-133 0 -222.5 -111.5t-89.5 -275.5z" />
<glyph unicode="&#xbb;" horiz-adv-x="1101" d="M140 158l463 412l2 7l-283 400h61l290 -405l-2 -7l-461 -407h-70zM485 158l462 411l2 6l-283 403h61l290 -408l-1 -6l-460 -406h-71z" />
<glyph unicode="&#xbc;" horiz-adv-x="1321" d="M2 0l706 735l681 708h60l-706 -734l-682 -709h-59zM260 1272l13 52q105 66 205 119h48l-142 -664h-47l129 609h-2q-22 -11 -103.5 -58.5t-100.5 -57.5zM782 160l8 44q112 137 420 460h69l-98 -462h103l-9 -42h-103l-34 -160h-47l34 160h-343zM843 201h291l88 415h-1 q-269 -280 -378 -413v-2z" />
<glyph unicode="&#xbd;" horiz-adv-x="1359" d="M2 0l706 735l681 708h60l-706 -734l-682 -709h-59zM260 1272l13 52q105 66 205 119h48l-142 -664h-47l129 609h-2q-22 -11 -103.5 -58.5t-100.5 -57.5zM833 0l8 38l285 244q104 88 137 131.5t33 91.5q0 55 -41.5 90t-104.5 35q-65 0 -113 -39.5t-61 -103.5h-47 q13 82 75.5 133.5t148.5 51.5q81 0 136.5 -47t55.5 -116q0 -59 -39 -111.5t-153 -149.5l-240 -204v-2h363l-8 -42h-435z" />
<glyph unicode="&#xbe;" horiz-adv-x="1450" d="M132 0l706 735l681 708h60l-706 -734l-682 -709h-59zM191 938q0 17 3 28h46q-2 -11 -2 -21q0 -58 48.5 -96t121.5 -38q86 0 140 44t54 114q0 60 -45 96t-120 36h-73l9 41h91q76 0 126 40t50 100q0 56 -41.5 91.5t-105.5 35.5q-58 0 -103.5 -31.5t-61.5 -83.5h-48 q19 71 78 114t138 43q83 0 137.5 -46.5t54.5 -116.5q0 -65 -46.5 -112t-120.5 -57l-1 -2q60 -10 95 -49.5t35 -97.5q0 -88 -68.5 -144.5t-175.5 -56.5q-92 0 -153.5 48.5t-61.5 120.5zM910 160l8 44q112 137 420 460h69l-98 -462h103l-9 -42h-103l-34 -160h-47l34 160h-343z M971 201h291l88 415h-1q-269 -280 -378 -413v-2z" />
<glyph unicode="&#xbf;" horiz-adv-x="908" d="M19 -29q0 128 75.5 225.5t218.5 149.5q107 40 161.5 98.5t74.5 154.5l24 113h51l-24 -117q-24 -111 -83 -175.5t-176 -108.5q-270 -102 -270 -335q0 -124 81.5 -203.5t222.5 -79.5q134 0 231 78t133 210h49q-37 -154 -148 -244t-269 -90q-157 0 -254.5 92.5t-97.5 231.5z M606 1066q0 22 15.5 37.5t36.5 15.5q22 0 37.5 -15.5t15.5 -37.5t-15.5 -37.5t-37.5 -15.5q-21 0 -36.5 15.5t-15.5 37.5z" />
<glyph unicode="&#xc0;" horiz-adv-x="1201" d="M-30 0l861 1443h51l248 -1443h-48l-86 502h-668l-299 -502h-59zM355 547h634l-141 828h-4zM664 1841h57l175 -287h-53z" />
<glyph unicode="&#xc1;" horiz-adv-x="1201" d="M-30 0l861 1443h51l248 -1443h-48l-86 502h-668l-299 -502h-59zM355 547h634l-141 828h-4zM844 1554l352 287h70l-359 -287h-63z" />
<glyph unicode="&#xc2;" horiz-adv-x="1201" d="M-30 0l861 1443h51l248 -1443h-48l-86 502h-668l-299 -502h-59zM355 547h634l-141 828h-4zM596 1554l319 287h42l197 -287h-55l-166 245h-3l-269 -245h-65z" />
<glyph unicode="&#xc3;" horiz-adv-x="1201" d="M-30 0l861 1443h51l248 -1443h-48l-86 502h-668l-299 -502h-59zM355 547h634l-141 828h-4zM590 1565q15 93 64 146t116 53q31 0 58 -12.5t45 -31t37.5 -40t35.5 -40t39 -31t49 -12.5q44 0 78.5 41t49.5 114h44q-19 -97 -65 -148t-110 -51q-36 0 -66.5 17.5t-52 42t-42 49 t-47 42t-56.5 17.5q-46 0 -82.5 -41.5t-50.5 -114.5h-44z" />
<glyph unicode="&#xc4;" horiz-adv-x="1201" d="M-30 0l861 1443h51l248 -1443h-48l-86 502h-668l-299 -502h-59zM355 547h634l-141 828h-4zM709 1655q0 22 16 37.5t38 15.5t38 -15.5t16 -37.5t-16 -38t-38 -16t-38 16t-16 38zM986 1655q0 22 16 37.5t38 15.5t38 -15.5t16 -37.5q0 -23 -16 -38.5t-38 -15.5t-38 16 t-16 38z" />
<glyph unicode="&#xc5;" horiz-adv-x="1201" d="M-30 0l861 1443h51l248 -1443h-48l-86 502h-668l-299 -502h-59zM355 547h634l-141 828h-4zM753 1730q0 69 48.5 117.5t116.5 48.5t115.5 -48t47.5 -116t-48 -117t-116 -49q-67 0 -115.5 48t-48.5 116zM792 1731q0 -53 36 -89.5t89 -36.5t89.5 37t36.5 90 q-1 53 -36.5 89.5t-88.5 36.5q-54 0 -90 -36.5t-36 -90.5z" />
<glyph unicode="&#xc6;" horiz-adv-x="1832" d="M-31 0l1037 1443h982l-10 -47h-709l-134 -633h673l-11 -46h-673l-142 -670h709l-10 -47h-759l88 411h-688l-294 -411h-59zM355 458h665l200 939h-191z" />
<glyph unicode="&#xc7;" horiz-adv-x="1342" d="M169 565q0 188 56 354.5t152 286t230.5 188.5t286.5 69q236 0 382 -136.5t149 -351.5v-2h-50v2q-3 194 -135.5 317.5t-349.5 123.5q-139 0 -263.5 -66t-213.5 -178.5t-141.5 -269.5t-52.5 -331q0 -244 141.5 -394t372.5 -150q190 0 332 96.5t204 268.5h54 q-66 -193 -223.5 -302.5t-369.5 -109.5l-80 -121q87 -7 135 -46t48 -106q0 -78 -56.5 -124t-147.5 -46q-94 0 -165 41l9 44q67 -40 157 -40q69 0 112 32t43 89q0 103 -142 116l-50 5l8 33l83 124q-232 16 -373.5 175.5t-141.5 408.5z" />
<glyph unicode="&#xc8;" horiz-adv-x="1038" d="M80 0l307 1443h826l-10 -47h-776l-134 -632h740l-11 -46h-739l-142 -671h775l-10 -47h-826zM609 1841h57l175 -287h-53z" />
<glyph unicode="&#xc9;" horiz-adv-x="1038" d="M80 0l307 1443h826l-10 -47h-776l-134 -632h740l-11 -46h-739l-142 -671h775l-10 -47h-826zM788 1554l352 287h70l-359 -287h-63z" />
<glyph unicode="&#xca;" horiz-adv-x="1038" d="M80 0l307 1443h826l-10 -47h-776l-134 -632h740l-11 -46h-739l-142 -671h775l-10 -47h-826zM540 1554l319 287h42l197 -287h-55l-166 245h-3l-269 -245h-65z" />
<glyph unicode="&#xcb;" horiz-adv-x="1038" d="M80 0l307 1443h826l-10 -47h-776l-134 -632h740l-11 -46h-739l-142 -671h775l-10 -47h-826zM653 1655q0 22 16 37.5t38 15.5t38 -15.5t16 -37.5t-16 -38t-38 -16t-38 16t-16 38zM930 1655q0 22 16 37.5t38 15.5t38 -15.5t16 -37.5q0 -23 -16 -38.5t-38 -15.5t-38 16 t-16 38z" />
<glyph unicode="&#xcc;" horiz-adv-x="311" d="M80 0l307 1443h50l-307 -1443h-50zM220 1841h57l175 -287h-53z" />
<glyph unicode="&#xcd;" horiz-adv-x="311" d="M80 0l307 1443h50l-307 -1443h-50zM399 1554l352 287h70l-359 -287h-63z" />
<glyph unicode="&#xce;" horiz-adv-x="311" d="M80 0l307 1443h50l-307 -1443h-50zM152 1554l319 287h42l197 -287h-55l-166 245h-3l-269 -245h-65z" />
<glyph unicode="&#xcf;" horiz-adv-x="311" d="M80 0l307 1443h50l-307 -1443h-50zM265 1655q0 22 16 37.5t38 15.5t38 -15.5t16 -37.5t-16 -38t-38 -16t-38 16t-16 38zM542 1655q0 22 16 37.5t38 15.5t38 -15.5t16 -37.5q0 -23 -16 -38.5t-38 -15.5t-38 16t-16 38z" />
<glyph unicode="&#xd0;" horiz-adv-x="1348" d="M81 0l151 714h-131l10 46h131l145 683h425q275 0 425 -149t150 -406q0 -192 -61 -356t-171 -281.5t-270 -184t-351 -66.5h-453zM143 47h391q238 0 422 108.5t282.5 298t98.5 428.5q0 242 -136 378t-395 136h-377l-135 -636h446l-10 -46h-446z" />
<glyph unicode="&#xd1;" horiz-adv-x="1332" d="M80 0l307 1443h48l679 -1362h4l289 1362h50l-307 -1443h-48l-679 1362h-4l-289 -1362h-50zM652 1565q15 93 64 146t116 53q31 0 58 -12.5t45 -31t37.5 -40t35.5 -40t39 -31t49 -12.5q44 0 78.5 41t49.5 114h44q-19 -97 -65 -148t-110 -51q-36 0 -66.5 17.5t-52 42t-42 49 t-47 42t-56.5 17.5q-46 0 -82.5 -41.5t-50.5 -114.5h-44z" />
<glyph unicode="&#xd2;" horiz-adv-x="1436" d="M171 584q0 184 56.5 347.5t153.5 280t232.5 184t289.5 67.5q254 0 410 -165.5t156 -438.5q0 -184 -56.5 -347.5t-153 -280t-232.5 -184t-289 -67.5q-254 0 -410.5 165.5t-156.5 438.5zM222 590q0 -257 142.5 -410t377.5 -153q187 0 342.5 109t245 299t89.5 418 q0 257 -142.5 410t-377.5 153q-187 0 -342.5 -109t-245 -299t-89.5 -418zM712 1841h57l175 -287h-53z" />
<glyph unicode="&#xd3;" horiz-adv-x="1436" d="M171 584q0 184 56.5 347.5t153.5 280t232.5 184t289.5 67.5q254 0 410 -165.5t156 -438.5q0 -184 -56.5 -347.5t-153 -280t-232.5 -184t-289 -67.5q-254 0 -410.5 165.5t-156.5 438.5zM222 590q0 -257 142.5 -410t377.5 -153q187 0 342.5 109t245 299t89.5 418 q0 257 -142.5 410t-377.5 153q-187 0 -342.5 -109t-245 -299t-89.5 -418zM892 1554l352 287h70l-359 -287h-63z" />
<glyph unicode="&#xd4;" horiz-adv-x="1436" d="M171 584q0 184 56.5 347.5t153.5 280t232.5 184t289.5 67.5q254 0 410 -165.5t156 -438.5q0 -184 -56.5 -347.5t-153 -280t-232.5 -184t-289 -67.5q-254 0 -410.5 165.5t-156.5 438.5zM222 590q0 -257 142.5 -410t377.5 -153q187 0 342.5 109t245 299t89.5 418 q0 257 -142.5 410t-377.5 153q-187 0 -342.5 -109t-245 -299t-89.5 -418zM644 1554l319 287h42l197 -287h-55l-166 245h-3l-269 -245h-65z" />
<glyph unicode="&#xd5;" horiz-adv-x="1436" d="M171 584q0 184 56.5 347.5t153.5 280t232.5 184t289.5 67.5q254 0 410 -165.5t156 -438.5q0 -184 -56.5 -347.5t-153 -280t-232.5 -184t-289 -67.5q-254 0 -410.5 165.5t-156.5 438.5zM222 590q0 -257 142.5 -410t377.5 -153q187 0 342.5 109t245 299t89.5 418 q0 257 -142.5 410t-377.5 153q-187 0 -342.5 -109t-245 -299t-89.5 -418zM638 1565q15 93 64 146t116 53q31 0 58 -12.5t45 -31t37.5 -40t35.5 -40t39 -31t49 -12.5q44 0 78.5 41t49.5 114h44q-19 -97 -65 -148t-110 -51q-36 0 -66.5 17.5t-52 42t-42 49t-47 42t-56.5 17.5 q-46 0 -82.5 -41.5t-50.5 -114.5h-44z" />
<glyph unicode="&#xd6;" horiz-adv-x="1436" d="M171 584q0 184 56.5 347.5t153.5 280t232.5 184t289.5 67.5q254 0 410 -165.5t156 -438.5q0 -184 -56.5 -347.5t-153 -280t-232.5 -184t-289 -67.5q-254 0 -410.5 165.5t-156.5 438.5zM222 590q0 -257 142.5 -410t377.5 -153q187 0 342.5 109t245 299t89.5 418 q0 257 -142.5 410t-377.5 153q-187 0 -342.5 -109t-245 -299t-89.5 -418zM757 1655q0 22 16 37.5t38 15.5t38 -15.5t16 -37.5t-16 -38t-38 -16t-38 16t-16 38zM1034 1655q0 22 16 37.5t38 15.5t38 -15.5t16 -37.5q0 -23 -16 -38.5t-38 -15.5t-38 16t-16 38z" />
<glyph unicode="&#xd7;" d="M231 255l396 326l-256 326l39 31l256 -324l396 326l30 -37l-397 -327l255 -323l-39 -31l-254 323l-395 -327z" />
<glyph unicode="&#xd8;" horiz-adv-x="1436" d="M113 44l164 164q-106 156 -106 376q0 184 56.5 347.5t153.5 280t232.5 184t289.5 67.5q136 0 247 -50.5t187 -143.5l160 160l31 -30l-165 -165q106 -154 106 -375q0 -184 -56.5 -347.5t-153 -280t-232.5 -184t-289 -67.5q-136 0 -247.5 50t-187.5 143l-159 -159zM222 590 q0 -203 92 -345l988 988q-144 183 -403 183q-187 0 -342.5 -109t-245 -299t-89.5 -418zM339 210q144 -183 403 -183q187 0 342.5 109t245 299t89.5 418q0 203 -92 345z" />
<glyph unicode="&#xd9;" horiz-adv-x="1337" d="M182 402q0 71 14 143l193 898h50l-193 -901q-13 -57 -13 -136q0 -170 119 -274.5t315 -104.5q208 0 349.5 115.5t185.5 318.5l211 982h50l-212 -988q-48 -226 -202 -350.5t-386 -124.5q-215 0 -347.5 117t-133.5 305zM733 1841h57l175 -287h-53z" />
<glyph unicode="&#xda;" horiz-adv-x="1337" d="M182 402q0 71 14 143l193 898h50l-193 -901q-13 -57 -13 -136q0 -170 119 -274.5t315 -104.5q208 0 349.5 115.5t185.5 318.5l211 982h50l-212 -988q-48 -226 -202 -350.5t-386 -124.5q-215 0 -347.5 117t-133.5 305zM912 1554l352 287h70l-359 -287h-63z" />
<glyph unicode="&#xdb;" horiz-adv-x="1337" d="M182 402q0 71 14 143l193 898h50l-193 -901q-13 -57 -13 -136q0 -170 119 -274.5t315 -104.5q208 0 349.5 115.5t185.5 318.5l211 982h50l-212 -988q-48 -226 -202 -350.5t-386 -124.5q-215 0 -347.5 117t-133.5 305zM664 1554l319 287h42l197 -287h-55l-166 245h-3 l-269 -245h-65z" />
<glyph unicode="&#xdc;" horiz-adv-x="1337" d="M182 402q0 71 14 143l193 898h50l-193 -901q-13 -57 -13 -136q0 -170 119 -274.5t315 -104.5q208 0 349.5 115.5t185.5 318.5l211 982h50l-212 -988q-48 -226 -202 -350.5t-386 -124.5q-215 0 -347.5 117t-133.5 305zM777 1655q0 22 16 37.5t38 15.5t38 -15.5t16 -37.5 t-16 -38t-38 -16t-38 16t-16 38zM1054 1655q0 22 16 37.5t38 15.5t38 -15.5t16 -37.5q0 -23 -16 -38.5t-38 -15.5t-38 16t-16 38z" />
<glyph unicode="&#xdd;" horiz-adv-x="1144" d="M277 1443h54l331 -758h4l651 758h63l-699 -814l-133 -629h-51l134 632zM815 1554l352 287h70l-359 -287h-63z" />
<glyph unicode="&#xde;" horiz-adv-x="1133" d="M71 0l307 1443h51l-62 -291h401q177 0 283.5 -97.5t106.5 -237.5q0 -207 -143.5 -334.5t-391.5 -127.5h-426l-75 -355h-51zM208 401h423q219 0 348 115t129 294q0 125 -92 210t-258 85h-401z" />
<glyph unicode="&#xdf;" horiz-adv-x="1046" d="M83 0l234 1096q34 159 138.5 247.5t256.5 88.5q154 0 251.5 -86t97.5 -222q0 -141 -98.5 -246.5t-245.5 -122.5l-1 -3q140 -17 226.5 -113t86.5 -235q0 -183 -130.5 -302.5t-330.5 -119.5q-122 0 -239 38l11 47q111 -37 223 -37q181 0 297 105t116 268q0 145 -104 236 t-271 91h-101l10 49h125q152 0 263 99.5t111 236.5q0 121 -83 196t-215 75q-131 0 -225.5 -80.5t-123.5 -217.5l-231 -1088h-48z" />
<glyph unicode="&#xe0;" horiz-adv-x="966" d="M83 251q0 143 112.5 227t320.5 96l371 22l20 93q10 53 10 85q0 110 -76.5 173t-212.5 63q-144 0 -242 -70t-124 -191h-51q29 140 142.5 223.5t277.5 83.5q153 0 244.5 -76t91.5 -202q0 -43 -10 -90l-147 -688h-49l44 204l-4 1q-57 -101 -164 -160.5t-230 -59.5 q-143 0 -233.5 74t-90.5 192zM133 255q0 -101 77.5 -163t202.5 -62q152 0 272.5 94t151.5 237l42 191l-363 -21q-184 -10 -283.5 -82t-99.5 -194zM470 1555h55l178 -304h-49z" />
<glyph unicode="&#xe1;" horiz-adv-x="966" d="M83 251q0 143 112.5 227t320.5 96l371 22l20 93q10 53 10 85q0 110 -76.5 173t-212.5 63q-144 0 -242 -70t-124 -191h-51q29 140 142.5 223.5t277.5 83.5q153 0 244.5 -76t91.5 -202q0 -43 -10 -90l-147 -688h-49l44 204l-4 1q-57 -101 -164 -160.5t-230 -59.5 q-143 0 -233.5 74t-90.5 192zM133 255q0 -101 77.5 -163t202.5 -62q152 0 272.5 94t151.5 237l42 191l-363 -21q-184 -10 -283.5 -82t-99.5 -194zM647 1251l308 304h64l-313 -304h-59z" />
<glyph unicode="&#xe2;" horiz-adv-x="966" d="M83 251q0 143 112.5 227t320.5 96l371 22l20 93q10 53 10 85q0 110 -76.5 173t-212.5 63q-144 0 -242 -70t-124 -191h-51q29 140 142.5 223.5t277.5 83.5q153 0 244.5 -76t91.5 -202q0 -43 -10 -90l-147 -688h-49l44 204l-4 1q-57 -101 -164 -160.5t-230 -59.5 q-143 0 -233.5 74t-90.5 192zM133 255q0 -101 77.5 -163t202.5 -62q152 0 272.5 94t151.5 237l42 191l-363 -21q-184 -10 -283.5 -82t-99.5 -194zM392 1251l319 304h52l188 -304h-57l-161 263h-2l-274 -263h-65z" />
<glyph unicode="&#xe3;" horiz-adv-x="966" d="M83 251q0 143 112.5 227t320.5 96l371 22l20 93q10 53 10 85q0 110 -76.5 173t-212.5 63q-144 0 -242 -70t-124 -191h-51q29 140 142.5 223.5t277.5 83.5q153 0 244.5 -76t91.5 -202q0 -43 -10 -90l-147 -688h-49l44 204l-4 1q-57 -101 -164 -160.5t-230 -59.5 q-143 0 -233.5 74t-90.5 192zM133 255q0 -101 77.5 -163t202.5 -62q152 0 272.5 94t151.5 237l42 191l-363 -21q-184 -10 -283.5 -82t-99.5 -194zM389 1263q15 93 64 146t116 53q31 0 58 -12.5t45 -31t37.5 -40t35.5 -40t39 -31t49 -12.5q44 0 78.5 41t49.5 114h44 q-19 -97 -65 -148t-110 -51q-36 0 -66.5 17.5t-52 42t-42 49t-47 42t-56.5 17.5q-46 0 -82.5 -41.5t-50.5 -114.5h-44z" />
<glyph unicode="&#xe4;" horiz-adv-x="966" d="M83 251q0 143 112.5 227t320.5 96l371 22l20 93q10 53 10 85q0 110 -76.5 173t-212.5 63q-144 0 -242 -70t-124 -191h-51q29 140 142.5 223.5t277.5 83.5q153 0 244.5 -76t91.5 -202q0 -43 -10 -90l-147 -688h-49l44 204l-4 1q-57 -101 -164 -160.5t-230 -59.5 q-143 0 -233.5 74t-90.5 192zM133 255q0 -101 77.5 -163t202.5 -62q152 0 272.5 94t151.5 237l42 191l-363 -21q-184 -10 -283.5 -82t-99.5 -194zM494 1305q0 22 16 37.5t38 15.5t38 -15.5t16 -37.5t-16 -38t-38 -16t-38 16t-16 38zM771 1305q0 22 16 37.5t38 15.5t38 -15.5 t16 -37.5q0 -23 -15.5 -38.5t-38.5 -15.5q-22 0 -38 16t-16 38z" />
<glyph unicode="&#xe5;" horiz-adv-x="966" d="M83 251q0 143 112.5 227t320.5 96l371 22l20 93q10 53 10 85q0 110 -76.5 173t-212.5 63q-144 0 -242 -70t-124 -191h-51q29 140 142.5 223.5t277.5 83.5q153 0 244.5 -76t91.5 -202q0 -43 -10 -90l-147 -688h-49l44 204l-4 1q-57 -101 -164 -160.5t-230 -59.5 q-143 0 -233.5 74t-90.5 192zM133 255q0 -101 77.5 -163t202.5 -62q152 0 272.5 94t151.5 237l42 191l-363 -21q-184 -10 -283.5 -82t-99.5 -194zM528 1327q0 69 48.5 117.5t116.5 48.5t115.5 -48t47.5 -116t-48 -117t-116 -49t-116 48.5t-48 115.5zM567 1328 q0 -53 36 -89.5t89 -36.5t89.5 37t36.5 90q-1 53 -36.5 89.5t-88.5 36.5q-54 0 -90 -36.5t-36 -90.5z" />
<glyph unicode="&#xe6;" horiz-adv-x="1801" d="M96 251q0 142 110 219.5t319 88.5l385 20l23 110q11 47 11 85q0 110 -77 173t-212 63q-144 0 -245.5 -71.5t-125.5 -189.5h-51q27 139 143.5 223t280.5 84q153 0 241 -75t91 -201h4q69 128 185.5 202t252.5 74q165 0 274 -116t109 -287q0 -57 -14 -123h-850 q-12 -82 -12 -131q0 -167 98 -268t263 -101q132 0 230 54.5t144 153.5h51q-43 -117 -159 -185.5t-270 -68.5q-159 0 -265.5 88.5t-130.5 238.5h-3q-29 -82 -83.5 -146.5t-120.5 -103t-136 -58t-137 -19.5q-143 0 -233 75t-90 192zM145 255q0 -100 77.5 -162.5t202.5 -62.5 q156 0 282 95.5t157 235.5l38 175l-377 -21q-380 -22 -380 -260zM959 574h799q7 37 7 78q0 152 -95.5 255t-241.5 103q-162 0 -292 -119t-177 -317z" />
<glyph unicode="&#xe7;" horiz-adv-x="1000" d="M121 420q0 133 40.5 251t110.5 202.5t167.5 133.5t208.5 49q159 0 265 -91t122 -239v-1h-49q-16 128 -108.5 206.5t-229.5 78.5q-132 0 -242 -77.5t-172.5 -212.5t-62.5 -298q0 -176 99.5 -284t261.5 -108q126 0 226.5 65t148.5 175h51q-54 -134 -167 -210t-259 -76 l-82 -125q87 -7 135 -46t48 -106q0 -78 -56.5 -124t-147.5 -46q-94 0 -165 41l9 44q67 -40 157 -40q69 0 112 32t43 89q0 103 -142 116l-50 5l8 33l86 129q-167 15 -266.5 133t-99.5 301z" />
<glyph unicode="&#xe8;" horiz-adv-x="1017" d="M115 405q0 183 69.5 332.5t192.5 234t274 84.5q176 0 278.5 -108.5t102.5 -293.5q0 -78 -16 -137h-841q-10 -64 -10 -107q0 -175 96.5 -277.5t260.5 -102.5q142 0 244.5 68t147.5 192h52q-48 -143 -166.5 -224.5t-281.5 -81.5q-185 0 -294 114t-109 307zM183 562h792 q9 36 9 91q0 163 -90.5 260t-245.5 97q-174 0 -303.5 -125t-161.5 -323zM528 1555h55l178 -304h-49z" />
<glyph unicode="&#xe9;" horiz-adv-x="1017" d="M115 405q0 183 69.5 332.5t192.5 234t274 84.5q176 0 278.5 -108.5t102.5 -293.5q0 -78 -16 -137h-841q-10 -64 -10 -107q0 -175 96.5 -277.5t260.5 -102.5q142 0 244.5 68t147.5 192h52q-48 -143 -166.5 -224.5t-281.5 -81.5q-185 0 -294 114t-109 307zM183 562h792 q9 36 9 91q0 163 -90.5 260t-245.5 97q-174 0 -303.5 -125t-161.5 -323zM705 1251l308 304h64l-313 -304h-59z" />
<glyph unicode="&#xea;" horiz-adv-x="1017" d="M115 405q0 183 69.5 332.5t192.5 234t274 84.5q176 0 278.5 -108.5t102.5 -293.5q0 -78 -16 -137h-841q-10 -64 -10 -107q0 -175 96.5 -277.5t260.5 -102.5q142 0 244.5 68t147.5 192h52q-48 -143 -166.5 -224.5t-281.5 -81.5q-185 0 -294 114t-109 307zM183 562h792 q9 36 9 91q0 163 -90.5 260t-245.5 97q-174 0 -303.5 -125t-161.5 -323zM450 1251l319 304h52l188 -304h-57l-161 263h-2l-274 -263h-65z" />
<glyph unicode="&#xeb;" horiz-adv-x="1017" d="M115 405q0 183 69.5 332.5t192.5 234t274 84.5q176 0 278.5 -108.5t102.5 -293.5q0 -78 -16 -137h-841q-10 -64 -10 -107q0 -175 96.5 -277.5t260.5 -102.5q142 0 244.5 68t147.5 192h52q-48 -143 -166.5 -224.5t-281.5 -81.5q-185 0 -294 114t-109 307zM183 562h792 q9 36 9 91q0 163 -90.5 260t-245.5 97q-174 0 -303.5 -125t-161.5 -323zM552 1305q0 22 16 37.5t38 15.5t38 -15.5t16 -37.5t-16 -38t-38 -16t-38 16t-16 38zM829 1305q0 22 16 37.5t38 15.5t38 -15.5t16 -37.5q0 -23 -15.5 -38.5t-38.5 -15.5q-22 0 -38 16t-16 38z" />
<glyph unicode="&#xec;" horiz-adv-x="286" d="M68 0l221 1040h49l-221 -1040h-49zM152 1555h55l178 -304h-49z" />
<glyph unicode="&#xed;" horiz-adv-x="286" d="M68 0l221 1040h49l-221 -1040h-49zM329 1251l308 304h64l-313 -304h-59z" />
<glyph unicode="&#xee;" horiz-adv-x="286" d="M68 0l221 1040h49l-221 -1040h-49zM74 1251l319 304h52l188 -304h-57l-161 263h-2l-274 -263h-65z" />
<glyph unicode="&#xef;" horiz-adv-x="286" d="M68 0l221 1040h49l-221 -1040h-49zM176 1305q0 22 16 37.5t38 15.5t38 -15.5t16 -37.5t-16 -38t-38 -16t-38 16t-16 38zM453 1305q0 22 16 37.5t38 15.5t38 -15.5t16 -37.5q0 -23 -15.5 -38.5t-38.5 -15.5q-22 0 -38 16t-16 38z" />
<glyph unicode="&#xf0;" horiz-adv-x="1035" d="M112 383q0 182 69 327t191 226.5t275 81.5q134 0 231 -70t129 -186h4q2 12 2 52q0 240 -131 425l-310 -119l-7 40l293 112q-85 99 -176 155h69q75 -50 150 -139l290 115l7 -40l-274 -109q136 -197 136 -454q0 -128 -31 -290q-47 -245 -189 -385.5t-342 -140.5 q-170 0 -278 112.5t-108 286.5zM163 394q0 -167 93 -265.5t250 -98.5q131 0 242 80t175 219t64 305q0 153 -95.5 245t-250.5 92q-134 0 -243.5 -75t-172 -207.5t-62.5 -294.5z" />
<glyph unicode="&#xf1;" horiz-adv-x="1034" d="M63 0l221 1040h49l-47 -222h4q63 110 164 174t229 64q152 0 247.5 -88t95.5 -223q0 -54 -11 -105l-137 -640h-50l134 629q14 68 14 107q0 123 -82.5 198.5t-221.5 75.5q-154 0 -271 -106t-150 -259l-138 -645h-50zM436 1263q15 93 64 146t116 53q31 0 58 -12.5t45 -31 t37.5 -40t35.5 -40t39 -31t49 -12.5q44 0 78.5 41t49.5 114h44q-19 -97 -65 -148t-110 -51q-36 0 -66.5 17.5t-52 42t-42 49t-47 42t-56.5 17.5q-46 0 -82.5 -41.5t-50.5 -114.5h-44z" />
<glyph unicode="&#xf2;" horiz-adv-x="1076" d="M121 420q0 180 69.5 325.5t192 228t272.5 82.5q190 0 304.5 -119.5t114.5 -316.5q0 -180 -69.5 -325.5t-191.5 -228t-273 -82.5q-190 0 -304.5 119.5t-114.5 316.5zM171 422q0 -177 101 -284.5t268 -107.5q135 0 246 77t174.5 211.5t63.5 299.5q0 177 -100.5 284.5 t-268.5 107.5q-135 0 -246 -77t-174.5 -211.5t-63.5 -299.5zM539 1555h55l178 -304h-49z" />
<glyph unicode="&#xf3;" horiz-adv-x="1076" d="M121 420q0 180 69.5 325.5t192 228t272.5 82.5q190 0 304.5 -119.5t114.5 -316.5q0 -180 -69.5 -325.5t-191.5 -228t-273 -82.5q-190 0 -304.5 119.5t-114.5 316.5zM171 422q0 -177 101 -284.5t268 -107.5q135 0 246 77t174.5 211.5t63.5 299.5q0 177 -100.5 284.5 t-268.5 107.5q-135 0 -246 -77t-174.5 -211.5t-63.5 -299.5zM716 1251l308 304h64l-313 -304h-59z" />
<glyph unicode="&#xf4;" horiz-adv-x="1076" d="M121 420q0 180 69.5 325.5t192 228t272.5 82.5q190 0 304.5 -119.5t114.5 -316.5q0 -180 -69.5 -325.5t-191.5 -228t-273 -82.5q-190 0 -304.5 119.5t-114.5 316.5zM171 422q0 -177 101 -284.5t268 -107.5q135 0 246 77t174.5 211.5t63.5 299.5q0 177 -100.5 284.5 t-268.5 107.5q-135 0 -246 -77t-174.5 -211.5t-63.5 -299.5zM461 1251l319 304h52l188 -304h-57l-161 263h-2l-274 -263h-65z" />
<glyph unicode="&#xf5;" horiz-adv-x="1076" d="M121 420q0 180 69.5 325.5t192 228t272.5 82.5q190 0 304.5 -119.5t114.5 -316.5q0 -180 -69.5 -325.5t-191.5 -228t-273 -82.5q-190 0 -304.5 119.5t-114.5 316.5zM171 422q0 -177 101 -284.5t268 -107.5q135 0 246 77t174.5 211.5t63.5 299.5q0 177 -100.5 284.5 t-268.5 107.5q-135 0 -246 -77t-174.5 -211.5t-63.5 -299.5zM458 1263q15 93 64 146t116 53q31 0 58 -12.5t45 -31t37.5 -40t35.5 -40t39 -31t49 -12.5q44 0 78.5 41t49.5 114h44q-19 -97 -65 -148t-110 -51q-36 0 -66.5 17.5t-52 42t-42 49t-47 42t-56.5 17.5 q-46 0 -82.5 -41.5t-50.5 -114.5h-44z" />
<glyph unicode="&#xf6;" horiz-adv-x="1076" d="M121 420q0 180 69.5 325.5t192 228t272.5 82.5q190 0 304.5 -119.5t114.5 -316.5q0 -180 -69.5 -325.5t-191.5 -228t-273 -82.5q-190 0 -304.5 119.5t-114.5 316.5zM171 422q0 -177 101 -284.5t268 -107.5q135 0 246 77t174.5 211.5t63.5 299.5q0 177 -100.5 284.5 t-268.5 107.5q-135 0 -246 -77t-174.5 -211.5t-63.5 -299.5zM563 1305q0 22 16 37.5t38 15.5t38 -15.5t16 -37.5t-16 -38t-38 -16t-38 16t-16 38zM840 1305q0 22 16 37.5t38 15.5t38 -15.5t16 -37.5q0 -23 -16 -38.5t-38 -15.5t-38 16t-16 38z" />
<glyph unicode="&#xf7;" d="M172 555l9 45h970l-10 -45h-969zM508 222q0 30 20.5 50t49.5 20q30 0 50.5 -20t20.5 -50q0 -29 -21 -49.5t-50 -20.5q-28 0 -49 21t-21 49zM658 911q0 30 20.5 50t49.5 20q30 0 50.5 -20t20.5 -50q0 -29 -21 -49.5t-50 -20.5q-28 0 -49 20.5t-21 49.5z" />
<glyph unicode="&#xf8;" horiz-adv-x="1076" d="M82 34l116 116q-77 109 -77 270q0 180 69.5 325.5t192 228t272.5 82.5q202 0 316 -133l112 112l30 -29l-116 -116q77 -109 77 -270q0 -180 -69.5 -325.5t-191.5 -228t-273 -82.5q-202 0 -316 133l-112 -112zM171 422q0 -139 63 -236l702 702q-100 122 -281 122 q-135 0 -246 -77t-174.5 -211.5t-63.5 -299.5zM259 152q103 -122 281 -122q135 0 246 77t174.5 211.5t63.5 299.5q0 139 -63 236z" />
<glyph unicode="&#xf9;" horiz-adv-x="1034" d="M129 295q0 47 11 105l137 640h49l-134 -629q-13 -59 -13 -106q0 -123 82 -199t220 -76q155 0 272.5 106t150.5 259l138 645h49l-221 -1040h-48l47 220h-3q-63 -108 -165 -172t-229 -64q-154 0 -248.5 88t-94.5 223zM504 1555h55l178 -304h-49z" />
<glyph unicode="&#xfa;" horiz-adv-x="1034" d="M129 295q0 47 11 105l137 640h49l-134 -629q-13 -59 -13 -106q0 -123 82 -199t220 -76q155 0 272.5 106t150.5 259l138 645h49l-221 -1040h-48l47 220h-3q-63 -108 -165 -172t-229 -64q-154 0 -248.5 88t-94.5 223zM681 1251l308 304h64l-313 -304h-59z" />
<glyph unicode="&#xfb;" horiz-adv-x="1034" d="M129 295q0 47 11 105l137 640h49l-134 -629q-13 -59 -13 -106q0 -123 82 -199t220 -76q155 0 272.5 106t150.5 259l138 645h49l-221 -1040h-48l47 220h-3q-63 -108 -165 -172t-229 -64q-154 0 -248.5 88t-94.5 223zM426 1251l319 304h52l188 -304h-57l-161 263h-2 l-274 -263h-65z" />
<glyph unicode="&#xfc;" horiz-adv-x="1034" d="M129 295q0 47 11 105l137 640h49l-134 -629q-13 -59 -13 -106q0 -123 82 -199t220 -76q155 0 272.5 106t150.5 259l138 645h49l-221 -1040h-48l47 220h-3q-63 -108 -165 -172t-229 -64q-154 0 -248.5 88t-94.5 223zM528 1305q0 22 16 37.5t38 15.5t38 -15.5t16 -37.5 t-16 -38t-38 -16t-38 16t-16 38zM805 1305q0 22 16 37.5t38 15.5t38 -15.5t16 -37.5q0 -23 -15.5 -38.5t-38.5 -15.5q-22 0 -38 16t-16 38z" />
<glyph unicode="&#xfd;" horiz-adv-x="872" d="M8 -343l9 44q28 -5 50 -5q69 0 123.5 44t115.5 149l56 94l-179 1057h50l166 -991h4l579 991h56l-689 -1173q-73 -123 -136 -169.5t-149 -46.5q-32 0 -56 6zM621 1251l308 304h64l-313 -304h-59z" />
<glyph unicode="&#xfe;" horiz-adv-x="1096" d="M-6 -378l386 1822h50l-139 -658h4q67 126 179.5 197.5t241.5 71.5q173 0 277.5 -120t104.5 -320q0 -175 -69 -320t-190 -227.5t-267 -82.5q-153 0 -258.5 95t-118.5 244h-2l-150 -702h-49zM225 408q0 -170 96 -274t253 -104q130 0 239.5 77.5t172.5 212t63 295.5 q0 183 -92 289t-250 106q-129 0 -240 -82t-176.5 -221t-65.5 -299z" />
<glyph unicode="&#xff;" horiz-adv-x="872" d="M8 -343l9 44q28 -5 50 -5q69 0 123.5 44t115.5 149l56 94l-179 1057h50l166 -991h4l579 991h56l-689 -1173q-73 -123 -136 -169.5t-149 -46.5q-32 0 -56 6zM468 1305q0 22 16 37.5t38 15.5t38 -15.5t16 -37.5t-16 -38t-38 -16t-38 16t-16 38zM745 1305q0 22 16 37.5 t38 15.5t38 -15.5t16 -37.5q0 -23 -15.5 -38.5t-38.5 -15.5q-22 0 -38 16t-16 38z" />
<glyph unicode="&#x152;" horiz-adv-x="2220" d="M162 600q0 179 57 339t154.5 275t233.5 182t288 67q230 0 376 -141.5t169 -385.5h4l107 507h825l-9 -47h-776l-134 -632h739l-11 -46h-739l-142 -671h775l-10 -47h-825l74 347h-2q-99 -171 -256.5 -269t-343.5 -98q-253 0 -403.5 168.5t-150.5 451.5zM212 600 q0 -262 137 -417.5t368 -155.5q141 0 268 64t217.5 173t144 260.5t53.5 320.5q0 261 -137.5 416t-367.5 155q-141 0 -268 -64t-217.5 -172.5t-144 -260t-53.5 -319.5z" />
<glyph unicode="&#x153;" horiz-adv-x="1913" d="M116 417q0 175 68 321t190.5 232t274.5 86q170 0 279.5 -98.5t130.5 -268.5h4q64 167 193.5 267t286.5 100q165 0 274 -116t109 -287q0 -62 -15 -131h-851q-10 -67 -10 -123q0 -169 97.5 -269t263.5 -100q132 0 230 54.5t144 153.5h51q-43 -117 -159 -185.5t-270 -68.5 q-167 0 -276 93.5t-122 250.5h-4q-56 -154 -185.5 -249t-288.5 -95q-188 0 -301.5 118t-113.5 315zM165 418q0 -180 100.5 -284t268.5 -104q136 0 247.5 78.5t173.5 214t62 299.5q0 178 -100.5 283t-269.5 105q-136 0 -247.5 -80t-173 -215.5t-61.5 -296.5zM1068 566h802 q6 29 6 86q0 152 -95 255t-241 103q-164 0 -295 -124t-177 -320z" />
<glyph unicode="&#x178;" horiz-adv-x="1144" d="M277 1443h54l331 -758h4l651 758h63l-699 -814l-133 -629h-51l134 632zM680 1655q0 22 16 37.5t38 15.5t38 -15.5t16 -37.5t-16 -38t-38 -16t-38 16t-16 38zM957 1655q0 22 16 37.5t38 15.5t38 -15.5t16 -37.5q0 -23 -15.5 -38.5t-38.5 -15.5q-22 0 -38 16t-16 38z" />
<glyph unicode="&#x2c6;" horiz-adv-x="811" d="M341 1251l319 304h52l188 -304h-57l-161 263h-2l-274 -263h-65z" />
<glyph unicode="&#x2dc;" horiz-adv-x="812" d="M337 1263q15 93 64 146t116 53q31 0 58 -12.5t45 -31t37.5 -40t35.5 -40t39 -31t49 -12.5q44 0 78.5 41t49.5 114h44q-19 -97 -65 -148t-110 -51q-36 0 -66.5 17.5t-52 42t-42 49t-47 42t-56.5 17.5q-46 0 -82.5 -41.5t-50.5 -114.5h-44z" />
<glyph unicode="&#x2000;" horiz-adv-x="948" />
<glyph unicode="&#x2001;" horiz-adv-x="1896" />
<glyph unicode="&#x2002;" horiz-adv-x="948" />
<glyph unicode="&#x2003;" horiz-adv-x="1896" />
<glyph unicode="&#x2004;" horiz-adv-x="632" />
<glyph unicode="&#x2005;" horiz-adv-x="474" />
<glyph unicode="&#x2006;" horiz-adv-x="316" />
<glyph unicode="&#x2007;" horiz-adv-x="316" />
<glyph unicode="&#x2008;" horiz-adv-x="237" />
<glyph unicode="&#x2009;" horiz-adv-x="379" />
<glyph unicode="&#x200a;" horiz-adv-x="105" />
<glyph unicode="&#x2010;" horiz-adv-x="830" d="M153 539l10 46h650l-10 -46h-650z" />
<glyph unicode="&#x2011;" horiz-adv-x="830" d="M153 539l10 46h650l-10 -46h-650z" />
<glyph unicode="&#x2012;" horiz-adv-x="830" d="M153 539l10 46h650l-10 -46h-650z" />
<glyph unicode="&#x2013;" horiz-adv-x="1024" d="M63 539l10 46h1024l-10 -46h-1024z" />
<glyph unicode="&#x2014;" horiz-adv-x="2048" d="M63 539l10 46h2048l-10 -46h-2048z" />
<glyph unicode="&#x2018;" horiz-adv-x="365" d="M275 1017l193 426h44l-185 -426h-52z" />
<glyph unicode="&#x2019;" horiz-adv-x="365" d="M275 1017l185 426h52l-194 -426h-43z" />
<glyph unicode="&#x201a;" horiz-adv-x="365" d="M5 -253l185 427h52l-193 -427h-44z" />
<glyph unicode="&#x201c;" horiz-adv-x="579" d="M266 1017l193 426h43l-184 -426h-52zM497 1017l193 426h44l-185 -426h-52z" />
<glyph unicode="&#x201d;" horiz-adv-x="579" d="M266 1017l185 426h52l-193 -426h-44zM498 1017l185 426h52l-193 -426h-44z" />
<glyph unicode="&#x201e;" horiz-adv-x="579" d="M-3 -253l184 427h52l-193 -427h-43zM228 -253l185 427h52l-193 -427h-44z" />
<glyph unicode="&#x2022;" horiz-adv-x="944" d="M355 558q0 76 54.5 130.5t130.5 54.5t130.5 -54.5t54.5 -130.5t-54.5 -130.5t-130.5 -54.5t-130.5 54.5t-54.5 130.5z" />
<glyph unicode="&#x2026;" horiz-adv-x="1410" d="M161 45q0 22 15.5 37.5t37.5 15.5q21 0 36.5 -15.5t15.5 -37.5q0 -21 -15.5 -36.5t-36.5 -15.5q-22 0 -37.5 15.5t-15.5 36.5zM612 45q0 22 15.5 37.5t36.5 15.5q22 0 37.5 -15.5t15.5 -37.5q0 -21 -15.5 -36.5t-37.5 -15.5q-21 0 -36.5 15.5t-15.5 36.5zM1063 45 q0 22 15.5 37.5t36.5 15.5q22 0 37.5 -15.5t15.5 -37.5q0 -21 -15.5 -36.5t-37.5 -15.5q-21 0 -36.5 15.5t-15.5 36.5z" />
<glyph unicode="&#x202f;" horiz-adv-x="379" />
<glyph unicode="&#x2039;" horiz-adv-x="755" d="M224 565l1 7l460 406h70l-462 -411l-2 -7l284 -402h-62z" />
<glyph unicode="&#x203a;" horiz-adv-x="755" d="M140 158l462 411l1 6l-283 403h62l289 -408l-1 -6l-460 -406h-70z" />
<glyph unicode="&#x205f;" horiz-adv-x="474" />
<glyph unicode="&#x20ac;" d="M81 558l10 45h247q-2 36 -2 55q0 90 16 167h-213l9 44h214q66 264 283.5 422t521.5 158q101 0 189 -18l-11 -47q-96 17 -183 17q-277 0 -478.5 -145.5t-267.5 -386.5h639l-9 -44h-640q-17 -82 -17 -166q0 -20 2 -56h607l-9 -45h-594q31 -243 197 -387t418 -144 q89 0 113 13l-9 -47q-22 -12 -112 -12q-272 0 -451 157t-209 420h-261z" />
<glyph unicode="&#x2122;" horiz-adv-x="1554" d="M305 1405l8 38h561l-9 -38h-258l-149 -664h-44l149 664h-258zM819 741l157 702h46l146 -649h2l435 649h53l-158 -702h-41l140 621h-3l-416 -620h-40l-139 620h-2l-139 -621h-41z" />
<glyph unicode="&#x25fc;" horiz-adv-x="1040" d="M0 0v1040h1040v-1040h-1040z" />
<glyph unicode="&#xfb01;" horiz-adv-x="807" d="M129 0l211 995h-163l10 45h163l33 155q24 119 93.5 180.5t173.5 61.5q58 0 104 -14l-10 -46q-43 15 -94 15q-83 0 -140 -51.5t-78 -148.5l-32 -152h250l-9 -45h-250l-212 -995h-50zM588 0l221 1040h50l-221 -1040h-50zM842 1305q0 20 14 33.5t34 13.5q19 0 33 -13.5 t14 -33.5q0 -19 -14 -32.5t-33 -13.5q-20 0 -34 13.5t-14 32.5z" />
<glyph unicode="&#xfb02;" horiz-adv-x="811" d="M129 0l211 995h-163l10 45h163l33 155q24 119 93.5 180.5t173.5 61.5q58 0 104 -14l-10 -46q-43 15 -94 15q-83 0 -140 -51.5t-78 -148.5l-32 -152h250l-9 -45h-250l-212 -995h-50zM591 0l307 1443h49l-307 -1443h-49z" />
</font>
</defs>
</svg>
