<?xml version="1.0" standalone="no"?>
<!DOCTYPE svg PUBLIC "-//W3C//DTD SVG 1.1//EN" "http://www.w3.org/Graphics/SVG/1.1/DTD/svg11.dtd" >
<svg xmlns="http://www.w3.org/2000/svg" xmlns:xlink="http://www.w3.org/1999/xlink" version="1.1">
<metadata></metadata>
<defs>
<font id="sf_pro_displaythin_italic" horiz-adv-x="1192" >
<font-face units-per-em="2048" ascent="1638" descent="-410" />
<missing-glyph horiz-adv-x="462" />
<glyph horiz-adv-x="0" />
<glyph unicode="&#xd;" horiz-adv-x="0" />
<glyph unicode=" "  horiz-adv-x="462" />
<glyph unicode="&#x09;" horiz-adv-x="462" />
<glyph unicode="&#xa0;" horiz-adv-x="462" />
<glyph unicode="!" horiz-adv-x="511" d="M153 59q0 27 19.5 46.5t47.5 19.5q27 0 46.5 -19.5t19.5 -46.5q0 -28 -19.5 -47.5t-46.5 -19.5q-28 0 -47.5 19.5t-19.5 47.5zM254 427l211 1016h88l-220 -1016h-79z" />
<glyph unicode="&#x22;" horiz-adv-x="556" d="M269 984l98 459h75l-98 -459h-75zM524 984l98 459h74l-98 -459h-74z" />
<glyph unicode="#" horiz-adv-x="1231" d="M74 440l22 67h268l141 436h-276l22 67h276l146 438h69l-145 -438h403l146 438h69l-145 -438h291l-23 -67h-290l-141 -436h298l-22 -67h-299l-146 -440h-71l147 440h-404l-146 -440h-70l148 440h-268zM433 507h404l141 436h-404z" />
<glyph unicode="$" d="M112 376h81q6 -124 101.5 -212t245.5 -111l140 661l-18 7q-176 71 -255 156t-79 205q0 168 132 277t340 109q27 0 40 -1l28 130h64l-29 -137q158 -27 260.5 -125t111.5 -232h-80q-12 107 -96 184t-212 100l-131 -621l68 -28q154 -62 228 -148t74 -209q0 -182 -137.5 -295 t-357.5 -113q-29 0 -44 1l-30 -143h-64l32 150q-179 27 -294 135.5t-119 259.5zM410 1085q0 -97 66.5 -165t220.5 -130l128 604q-12 1 -35 1q-166 0 -273 -87.5t-107 -222.5zM603 47q11 -1 33 -1q184 0 295.5 91.5t111.5 239.5q0 102 -61.5 171t-198.5 124l-44 18z" />
<glyph unicode="%" horiz-adv-x="1500" d="M116 0l709 741l672 702h90l-705 -736l-677 -707h-89zM219 1011q0 188 91 315t222 127q97 0 154.5 -67.5t57.5 -181.5q0 -188 -91 -314.5t-223 -126.5q-97 0 -154 67.5t-57 180.5zM294 1009q0 -85 37.5 -135t100.5 -50q96 0 166 113t70 270q0 85 -37.5 135t-100.5 50 q-96 0 -166 -113t-70 -270zM957 237q0 187 91 314.5t222 127.5q97 0 154.5 -67.5t57.5 -181.5q0 -188 -91 -315t-222 -127q-97 0 -154.5 67.5t-57.5 181.5zM1033 235q0 -85 37 -135t101 -50q96 0 166 113t70 269q0 85 -37.5 135t-100.5 50q-96 0 -166 -113t-70 -269z" />
<glyph unicode="&#x26;" horiz-adv-x="1467" d="M133 342q0 137 89.5 240.5t275.5 180.5l114 48q-78 111 -112.5 188.5t-34.5 143.5q0 135 109.5 229.5t269.5 94.5q138 0 227 -75t89 -189q0 -129 -105.5 -232t-334.5 -190l354 -512q79 86 136 196t75 214l16 82h76l-16 -84q-21 -122 -86.5 -245.5t-159.5 -221.5l144 -210 h-93l-110 161q-218 -183 -483 -183q-185 0 -312.5 105t-127.5 259zM213 352q0 -131 101.5 -217.5t259.5 -86.5q116 0 231.5 44t211.5 127l-369 535l-116 -49q-319 -131 -319 -353zM543 1146q0 -59 32 -129t110 -180q396 144 396 354q0 93 -67 150.5t-176 57.5 q-120 0 -207.5 -75.5t-87.5 -177.5z" />
<glyph unicode="'" horiz-adv-x="302" d="M269 984l98 459h75l-98 -459h-75z" />
<glyph unicode="(" horiz-adv-x="600" d="M230 331q0 320 124 612.5t336 499.5h89q-219 -212 -345 -505.5t-126 -603.5q0 -189 26 -359.5t75 -275.5h-75q-52 110 -78 279.5t-26 352.5z" />
<glyph unicode=")" horiz-adv-x="600" d="M-42 -299q220 212 346 505.5t126 602.5q0 189 -26 359.5t-75 275.5h74q52 -109 78 -278t26 -354q0 -320 -124 -612.5t-335 -498.5h-90z" />
<glyph unicode="*" horiz-adv-x="954" d="M298 983l305 127l-249 184l38 49l247 -195l53 324l63 -7l-61 -320l304 137l21 -58l-308 -128l251 -186l-37 -49l-247 194l-52 -321l-63 7l60 319l-304 -135z" />
<glyph unicode="+" d="M168 539l15 73h454l100 467h71l-99 -467h455l-16 -73h-455l-102 -479h-71l102 479h-454z" />
<glyph unicode="," horiz-adv-x="496" d="M30 -260l189 445h82l-204 -445h-67z" />
<glyph unicode="-" horiz-adv-x="830" d="M149 527l15 70h650l-15 -70h-650z" />
<glyph unicode="." horiz-adv-x="512" d="M149 59q0 27 19.5 46.5t47.5 19.5q27 0 46.5 -19.5t19.5 -46.5q0 -28 -19.5 -47.5t-46.5 -19.5q-28 0 -47.5 19.5t-19.5 47.5z" />
<glyph unicode="/" horiz-adv-x="600" d="M-116 -301l897 1744h73l-898 -1744h-72z" />
<glyph unicode="0" horiz-adv-x="1227" d="M174 505q0 264 85.5 484.5t234.5 347.5t327 127q199 0 316 -142.5t117 -384.5q0 -198 -50.5 -376t-136.5 -305.5t-206 -202t-254 -74.5q-199 0 -316 142t-117 384zM255 505q0 -209 96 -332t259 -123q152 0 281.5 119t205.5 323.5t76 444.5q0 208 -96 331.5t-258 123.5 q-152 0 -282 -119t-206 -323.5t-76 -444.5z" />
<glyph unicode="1" horiz-adv-x="809" d="M269 1094l20 94q359 208 449 255h79l-307 -1443h-79l286 1347h-4q-45 -23 -122.5 -67t-184.5 -106.5t-137 -79.5z" />
<glyph unicode="2" horiz-adv-x="1161" d="M90 0l13 66l628 538q228 197 301.5 295.5t73.5 207.5q0 123 -94 204.5t-236 81.5q-148 0 -257.5 -91t-137.5 -235h-80q30 176 163 286.5t316 110.5q172 0 289 -101t117 -250q0 -89 -34.5 -162.5t-119.5 -164.5t-255 -237l-551 -472l-1 -4h812l-15 -73h-932z" />
<glyph unicode="3" horiz-adv-x="1162" d="M113 349q0 35 7 54h76q-5 -27 -5 -49q1 -132 112.5 -218t280.5 -86q190 0 311 100t121 256q0 142 -99.5 224.5t-270.5 82.5h-163l15 70h192q177 0 291 90t114 230q0 131 -91.5 210.5t-241.5 79.5q-133 0 -235 -71t-138 -189h-78q38 150 163.5 240.5t294.5 90.5 q178 0 292 -98t114 -252q0 -148 -100.5 -248.5t-265.5 -120.5l-1 -4q132 -18 210 -107t78 -220q0 -191 -145.5 -313t-371.5 -122q-201 0 -334 105.5t-132 264.5z" />
<glyph unicode="4" horiz-adv-x="1196" d="M97 361l13 75q133 160 310.5 352.5t625.5 659.5h116l-215 -1015h229l-15 -72h-229l-77 -361h-78l77 361h-757zM204 433h665l198 931h-4q-412 -427 -566.5 -594.5t-291.5 -332.5z" />
<glyph unicode="5" horiz-adv-x="1178" d="M152 356v10h78v-6q3 -131 114 -219.5t273 -88.5q193 0 321.5 129.5t128.5 325.5q0 159 -103 256.5t-268 97.5q-103 0 -210 -53t-170 -136q0 -1 -85 -1l239 772h767l-15 -72h-698l-186 -601h5q61 72 163 116.5t205 44.5q190 0 312.5 -116t122.5 -299q0 -232 -151 -384.5 t-382 -152.5q-194 0 -327 109t-134 268z" />
<glyph unicode="6" horiz-adv-x="1197" d="M174 513q1 127 26.5 256.5t80 255t130.5 222.5t189 157t245 60q177 0 295 -101.5t125 -261.5h-81q-8 131 -104.5 211t-242.5 80q-221 0 -372.5 -195t-200.5 -528h4q61 133 186.5 205.5t282.5 72.5q191 0 313.5 -119.5t121.5 -303.5q-3 -238 -155 -391.5t-386 -153.5 q-94 0 -176.5 34.5t-146.5 100t-100 168.5t-34 231zM257 457q-2 -171 106.5 -288.5t273.5 -117.5q195 0 323.5 130.5t130.5 328.5q1 161 -102 263.5t-266 102.5q-123 0 -230 -55.5t-171 -152.5t-65 -211z" />
<glyph unicode="7" horiz-adv-x="1074" d="M166 0l974 1366l1 5h-822l15 72h911l-16 -76l-976 -1367h-87z" />
<glyph unicode="8" horiz-adv-x="1200" d="M119 355q0 164 118 281.5t305 140.5l1 4q-100 31 -161 109t-61 177q0 170 139.5 283.5t347.5 113.5q185 0 304 -94t119 -240q0 -143 -99 -246.5t-258 -127.5l-1 -4q119 -35 192.5 -128t73.5 -209q0 -194 -151 -315.5t-391 -121.5q-213 0 -345.5 104.5t-132.5 272.5z M201 368q0 -145 109 -231.5t291 -86.5q204 0 331 101t127 264q0 138 -114.5 226t-293.5 88q-193 0 -321.5 -103t-128.5 -258zM400 1070q0 -121 98.5 -196.5t256.5 -75.5q171 0 283.5 91t112.5 229q0 123 -96.5 199t-252.5 76q-171 0 -286.5 -93t-115.5 -230z" />
<glyph unicode="9" horiz-adv-x="1188" d="M134 343h81q14 -133 107.5 -212t235.5 -79q231 0 384 191.5t199 544.5h-4q-54 -134 -178 -213t-278 -79q-187 0 -312.5 126t-123.5 311q2 230 156 380.5t389 150.5q88 0 167.5 -31t142.5 -90t99 -155t34 -216q-1 -78 -11 -163t-33.5 -183t-58.5 -188.5t-89.5 -175 t-122.5 -146.5t-162.5 -99.5t-204.5 -37.5q-174 0 -289.5 101t-127.5 263zM325 939q-2 -158 104.5 -265t266.5 -107q116 0 219.5 55.5t169 156.5t65.5 222q1 172 -102 281.5t-267 109.5q-196 0 -325.5 -129t-130.5 -324z" />
<glyph unicode=":" horiz-adv-x="512" d="M149 59q0 27 19.5 46.5t47.5 19.5q27 0 46.5 -19.5t19.5 -46.5q0 -28 -19.5 -47.5t-46.5 -19.5q-28 0 -47.5 19.5t-19.5 47.5zM315 836q0 28 19 47t47 19t47 -19t19 -47t-19 -47.5t-47 -19.5t-47 19.5t-19 47.5z" />
<glyph unicode=";" horiz-adv-x="512" d="M30 -260l189 445h82l-204 -445h-67zM315 836q0 28 19 47t47 19t47 -19t19 -47t-19 -47.5t-47 -19.5t-47 19.5t-19 47.5z" />
<glyph unicode="&#x3c;" d="M229 514l14 65l966 559l-19 -90l-867 -505l-1 -5l652 -499l-17 -85z" />
<glyph unicode="=" d="M135 353l15 70h966l-15 -70h-966zM215 728l15 70h966l-15 -70h-966z" />
<glyph unicode="&#x3e;" d="M110 -47l19 90l867 505l1 6l-653 499l18 85l728 -560l-14 -66z" />
<glyph unicode="?" horiz-adv-x="921" d="M244 1120q36 157 149 249t278 92q163 0 264 -93.5t101 -232.5q0 -128 -76.5 -227t-216.5 -153q-107 -41 -159.5 -97.5t-71.5 -147.5l-21 -101h-80l24 109q24 113 83 178t177 111q258 102 258 320q0 115 -77 189t-211 74q-126 0 -218 -73t-127 -197h-76zM324 59 q0 27 19.5 46.5t46.5 19.5q28 0 47.5 -19.5t19.5 -46.5q0 -28 -19.5 -47.5t-47.5 -19.5q-27 0 -46.5 19.5t-19.5 47.5z" />
<glyph unicode="@" horiz-adv-x="1742" d="M130 532q0 193 70 360.5t191.5 286t294 186.5t370.5 68q336 0 540.5 -181t204.5 -478q0 -166 -56.5 -303t-155.5 -216t-218 -79q-86 0 -141.5 42t-57.5 109q0 10 2 28l-7 1q-49 -85 -128 -132.5t-170 -47.5q-133 0 -215.5 93.5t-82.5 245.5q0 134 57 249t154.5 183 t210.5 68q101 0 173 -58t85 -150h7l38 178h73l-120 -560q-9 -45 -9 -68q0 -53 37.5 -84.5t102.5 -31.5q97 0 178 70.5t128.5 193t47.5 268.5q0 272 -186.5 434.5t-497.5 162.5q-242 0 -436.5 -108t-304.5 -299t-110 -429q0 -323 204 -515.5t547 -192.5q126 0 194 20l-14 -65 q-77 -18 -189 -18q-366 0 -588.5 211t-222.5 558zM646 520q0 -128 63 -203t169 -75q140 0 242.5 131t102.5 310q0 125 -59.5 195.5t-164.5 70.5q-145 0 -249 -126t-104 -303z" />
<glyph unicode="A" horiz-adv-x="1221" d="M-31 0l855 1443h81l242 -1443h-76l-79 482h-648l-285 -482h-90zM383 552h598l-131 789h-4z" />
<glyph unicode="B" horiz-adv-x="1198" d="M80 0l307 1443h476q171 0 269.5 -87.5t98.5 -228.5q0 -142 -101 -250t-251 -132l-1 -4q127 -17 204 -98t77 -209q0 -196 -155.5 -315t-407.5 -119h-516zM176 72h423q213 0 345.5 100t132.5 256q0 136 -95 207.5t-252 71.5h-419zM326 778h416q169 0 288 97t119 239 q0 121 -79 189t-229 68h-389z" />
<glyph unicode="C" horiz-adv-x="1356" d="M171 574q0 249 95 453t262 320.5t371 116.5q236 0 384 -134t153 -348v-8h-80v7q-6 182 -131.5 295.5t-328.5 113.5q-180 0 -328 -106.5t-232.5 -292.5t-84.5 -411q0 -238 134.5 -382.5t356.5 -144.5q179 0 314.5 91.5t194.5 253.5h83q-64 -195 -223 -307t-372 -112 q-256 0 -412 163.5t-156 431.5z" />
<glyph unicode="D" horiz-adv-x="1362" d="M81 0l306 1443h424q278 0 431 -150.5t153 -412.5q0 -254 -103 -454t-294.5 -313t-439.5 -113h-477zM178 72h377q224 0 397.5 103.5t267.5 285t94 410.5q0 238 -132 369t-383 131h-346z" />
<glyph unicode="E" horiz-adv-x="1060" d="M80 0l307 1443h842l-16 -73h-761l-126 -594h725l-16 -72h-725l-133 -631h760l-15 -73h-842z" />
<glyph unicode="F" horiz-adv-x="1025" d="M80 0l307 1443h830l-15 -73h-750l-128 -603h690l-16 -72h-690l-148 -695h-80z" />
<glyph unicode="G" horiz-adv-x="1374" d="M171 574q0 178 52.5 340t145 284t229.5 194t297 72q225 0 369 -123.5t162 -327.5v-4h-80q-20 175 -142 278t-312 103q-140 0 -261 -66t-203.5 -177t-129.5 -258.5t-47 -308.5q0 -237 132.5 -382t354.5 -145q203 0 344.5 123.5t190.5 342.5l24 111h-480l15 71h560 l-41 -188q-56 -255 -217.5 -394.5t-398.5 -139.5q-255 0 -409.5 164.5t-154.5 430.5z" />
<glyph unicode="H" horiz-adv-x="1338" d="M80 0l307 1443h80l-141 -666h912l141 666h80l-307 -1443h-80l150 705h-912l-150 -705h-80z" />
<glyph unicode="I" horiz-adv-x="346" d="M80 0l307 1443h80l-307 -1443h-80z" />
<glyph unicode="J" horiz-adv-x="957" d="M64 303q0 13 1 22h80v-14q0 -116 78.5 -187.5t207.5 -71.5q130 0 218.5 82.5t120.5 234.5l228 1074h80l-233 -1100q-37 -173 -148 -269.5t-275 -96.5q-158 0 -258 92t-100 234z" />
<glyph unicode="K" horiz-adv-x="1143" d="M80 0l307 1443h80l-170 -800h4l913 800h109l-715 -629l474 -814h-92l-443 764l-275 -238l-112 -526h-80z" />
<glyph unicode="L" horiz-adv-x="1019" d="M80 0l307 1443h80l-291 -1370h756l-15 -73h-837z" />
<glyph unicode="M" horiz-adv-x="1615" d="M80 0l307 1443h84l299 -1343h4l866 1343h97l-307 -1443h-77l273 1282h-5l-828 -1279h-75l-285 1279h-4l-273 -1282h-76z" />
<glyph unicode="N" horiz-adv-x="1355" d="M80 0l307 1443h79l646 -1319h4l280 1319h80l-307 -1443h-79l-646 1319h-4l-280 -1319h-80z" />
<glyph unicode="O" horiz-adv-x="1454" d="M173 589q0 243 95.5 443.5t264.5 316t376 115.5q257 0 415.5 -167t158.5 -443q0 -243 -95.5 -443.5t-264.5 -316t-376 -115.5q-258 0 -416 167t-158 443zM253 595q0 -248 136 -395t361 -147q182 0 332 105.5t235 287.5t85 402q0 248 -136 395t-360 147 q-182 0 -332.5 -105.5t-235.5 -287.5t-85 -402z" />
<glyph unicode="P" horiz-adv-x="1158" d="M80 0l311 1443h434q190 0 304 -105.5t114 -273.5q0 -221 -160.5 -351.5t-419.5 -130.5h-377l-125 -582h-81zM301 654h363q220 0 359 108.5t139 295.5q0 140 -95 226.5t-261 86.5h-350z" />
<glyph unicode="Q" horiz-adv-x="1454" d="M173 589q0 243 95.5 443.5t264.5 316t376 115.5q257 0 415.5 -167t158.5 -443q0 -262 -111 -472.5t-298 -316.5l125 -242h-82l-109 211q-126 -55 -261 -55q-258 0 -416 167t-158 443zM253 595q0 -248 136 -395t361 -147q119 0 225 47l-141 272h81l124 -240 q166 96 264.5 288t98.5 428q0 248 -136 395t-360 147q-182 0 -332.5 -105.5t-235.5 -287.5t-85 -402z" />
<glyph unicode="R" horiz-adv-x="1171" d="M80 0l311 1443h419q206 0 318.5 -99t112.5 -268q0 -179 -114.5 -299t-311.5 -149l234 -628h-83l-230 619h-30h-412l-133 -619h-81zM309 691h405q198 0 321.5 105t123.5 274q0 139 -92 220t-261 81h-350z" />
<glyph unicode="S" horiz-adv-x="1196" d="M111 406h79q11 -158 135.5 -256t319.5 -98q184 0 297.5 89.5t113.5 238.5q0 103 -65.5 172t-213.5 125l-121 47q-185 70 -267 155t-82 213q0 164 131.5 268t337.5 104t342 -111t145 -290h-79q-11 146 -123.5 237t-284.5 91q-173 0 -280 -83.5t-107 -211.5 q0 -102 69.5 -170.5t231.5 -129.5l125 -48q168 -62 246 -148t78 -211q0 -178 -135.5 -294t-359.5 -116q-229 0 -377.5 117.5t-155.5 309.5z" />
<glyph unicode="T" horiz-adv-x="1159" d="M270 1370l15 73h1096l-15 -73h-508l-291 -1370h-81l292 1370h-508z" />
<glyph unicode="U" horiz-adv-x="1358" d="M184 407v9q0 64 13 131l191 896h81l-191 -895q-13 -55 -13 -119v-17q2 -163 113.5 -261t301.5 -98q197 0 333 111t178 306l208 973h80l-210 -985q-49 -228 -204.5 -353.5t-395.5 -125.5q-220 0 -352.5 119t-132.5 309z" />
<glyph unicode="V" horiz-adv-x="1222" d="M276 1443h77l222 -1333h4l785 1333h90l-855 -1443h-82z" />
<glyph unicode="W" horiz-adv-x="1778" d="M282 1443h76l82 -1302h4l656 1302h73l109 -1302h4l634 1302h85l-708 -1443h-75l-110 1297h-4l-654 -1297h-77z" />
<glyph unicode="X" horiz-adv-x="1190" d="M-27 0l674 728l-360 715h90l329 -657h2l606 657h104l-672 -727l360 -716h-90l-329 658h-3l-607 -658h-104z" />
<glyph unicode="Y" horiz-adv-x="1170" d="M276 1443h85l316 -736h4l625 736h96l-697 -820l-132 -623h-80l133 631z" />
<glyph unicode="Z" horiz-adv-x="1178" d="M21 0l13 62l1195 1305v4h-888l15 72h997l-13 -62l-1194 -1305v-4h920l-15 -72h-1030z" />
<glyph unicode="[" horiz-adv-x="600" d="M84 -301l371 1744h372l-14 -65h-296l-344 -1614h296l-14 -65h-371z" />
<glyph unicode="\" horiz-adv-x="600" d="M309 1443h68l52 -1744h-69z" />
<glyph unicode="]" horiz-adv-x="600" d="M-89 -301l13 66h297l343 1613h-296l14 65h372l-371 -1744h-372z" />
<glyph unicode="^" horiz-adv-x="783" d="M171 802l429 603h74l173 -603h-77l-145 518h-6l-366 -518h-82z" />
<glyph unicode="_" horiz-adv-x="1024" d="M-98 -168l14 68h1044l-14 -68h-1044z" />
<glyph unicode="`" horiz-adv-x="875" d="M567 1544h83l171 -303h-70z" />
<glyph unicode="a" horiz-adv-x="978" d="M81 256q0 145 112.5 229.5t318.5 95.5l357 20l19 87q9 42 9 78q0 103 -72 161.5t-199 58.5q-134 0 -224.5 -64.5t-114.5 -175.5h-80q27 141 142.5 226t282.5 85q155 0 249 -77.5t94 -205.5q0 -45 -10 -89l-145 -685h-76l40 187h-4q-56 -93 -157 -148t-218 -55 q-141 0 -232.5 76t-91.5 196zM159 262q0 -94 72.5 -152t188.5 -58q143 0 256 88t142 222l38 174l-344 -20q-169 -9 -261 -75t-92 -179z" />
<glyph unicode="b" horiz-adv-x="1101" d="M62 0l307 1443h77l-134 -636h3q62 115 168.5 182t228.5 67q175 0 279.5 -120t104.5 -324q0 -171 -66.5 -314.5t-187 -228.5t-269.5 -85q-146 0 -250 89t-119 227h-4l-64 -300h-74zM242 413q0 -161 91.5 -260t240.5 -99q124 0 226.5 74.5t160.5 202t58 280.5 q0 174 -86 274.5t-236 100.5q-124 0 -229 -78t-165.5 -210t-60.5 -285z" />
<glyph unicode="c" horiz-adv-x="1007" d="M120 424q0 177 68.5 322t189.5 228t270 83q166 0 273 -95t120 -243v-2h-76q-14 120 -100.5 194.5t-217.5 74.5q-125 0 -228 -73t-162 -201.5t-59 -285.5q0 -168 93 -270t244 -102q121 0 215 62t138 168h78q-50 -138 -165.5 -219.5t-266.5 -81.5q-189 0 -301.5 121.5 t-112.5 319.5z" />
<glyph unicode="d" horiz-adv-x="1104" d="M113 408q0 131 43 251t115.5 207t171.5 138.5t207 51.5q145 0 245.5 -87.5t116.5 -225.5h4l150 700h78l-307 -1443h-79l50 234h-4q-62 -114 -174 -182t-237 -68q-170 0 -275 117.5t-105 306.5zM190 414q0 -163 87 -261.5t232 -98.5q132 0 239.5 79t166.5 210t59 284 q0 163 -88.5 261t-236.5 98q-121 0 -227 -77.5t-169 -210t-63 -284.5z" />
<glyph unicode="e" horiz-adv-x="1027" d="M115 412q0 181 68.5 328.5t190 232t272.5 84.5q180 0 285 -110.5t105 -300.5q0 -74 -15 -137h-820q-8 -61 -8 -91q0 -169 90 -267t244 -98q133 0 229 64.5t139 179.5h79q-47 -144 -167.5 -229t-283.5 -85q-189 0 -298.5 117t-109.5 312zM212 575h740q6 28 6 76 q0 151 -83.5 243.5t-230.5 92.5q-161 0 -280 -115t-152 -297z" />
<glyph unicode="f" horiz-adv-x="542" d="M126 0l206 972h-165l14 68h165l29 142q52 256 292 256q58 0 107 -13l-13 -67q-41 13 -94 13q-84 0 -139 -48.5t-75 -143.5l-29 -139h249l-15 -68h-248l-205 -972h-79z" />
<glyph unicode="g" horiz-adv-x="1097" d="M55 -90h80q8 -93 96.5 -155t228.5 -62q151 0 254.5 81.5t135.5 226.5l55 246h-4q-59 -115 -167 -181.5t-234 -66.5q-175 0 -280 115.5t-105 308.5q0 168 69 313t192.5 232.5t272.5 87.5q147 0 244.5 -86.5t111.5 -226.5h5l64 297h77l-223 -1042q-38 -177 -163.5 -275 t-308.5 -98q-173 0 -286 83t-115 202zM193 426q0 -165 85.5 -261t236.5 -96q128 0 232.5 75t163 203.5t58.5 282.5q0 162 -88 259t-233 97q-124 0 -229 -76t-165.5 -205t-60.5 -279z" />
<glyph unicode="h" horiz-adv-x="1056" d="M62 0l309 1443h78l-130 -607h4q58 100 155 160t221 60q153 0 248.5 -90t95.5 -227q0 -55 -10 -102l-138 -637h-77l133 622q12 57 12 98q0 120 -78 193t-210 73q-147 0 -256.5 -99t-140.5 -246l-138 -641h-78z" />
<glyph unicode="i" horiz-adv-x="315" d="M66 0l221 1040h78l-221 -1040h-78zM321 1310q0 25 18 42.5t43 17.5q26 0 44 -17.5t18 -42.5t-18 -43t-44 -18q-25 0 -43 18t-18 43z" />
<glyph unicode="j" horiz-adv-x="316" d="M-235 -348l16 69q29 -3 55 -3q88 0 138.5 44t69.5 139l243 1139h78l-243 -1147q-27 -129 -97.5 -186.5t-189.5 -57.5q-34 0 -70 3zM327 1310q0 25 18 42.5t43 17.5t43.5 -17.5t18.5 -42.5t-18.5 -43t-43.5 -18t-43 18t-18 43z" />
<glyph unicode="k" horiz-adv-x="883" d="M62 0l307 1443h78l-197 -925h4l686 522h109l-579 -444l375 -596h-89l-349 552l-179 -136l-88 -416h-78z" />
<glyph unicode="l" horiz-adv-x="320" d="M68 0l307 1443h78l-307 -1443h-78z" />
<glyph unicode="m" horiz-adv-x="1595" d="M61 0l221 1040h75l-42 -199h4q49 103 132 159.5t188 56.5q119 0 199.5 -70.5t90.5 -178.5h4q44 109 138.5 179t216.5 70q129 0 213 -81.5t84 -207.5q0 -61 -11 -123l-138 -645h-78l134 630q13 60 13 119q0 105 -66 171t-174 66q-123 0 -215 -92t-125 -250l-138 -644h-78 l134 630q14 65 14 119q0 105 -66.5 171t-175.5 66q-120 0 -212.5 -92t-125.5 -245l-139 -649h-77z" />
<glyph unicode="n" horiz-adv-x="1047" d="M61 0l221 1040h75l-44 -208h4q61 104 158.5 164.5t221.5 60.5q150 0 245 -88t95 -222q0 -53 -12 -110l-136 -637h-78l132 622q14 61 14 107q0 116 -77.5 186.5t-207.5 70.5q-145 0 -255 -99t-141 -246l-138 -641h-77z" />
<glyph unicode="o" horiz-adv-x="1080" d="M120 425q0 177 69.5 322t191.5 227.5t272 82.5q192 0 307.5 -121t115.5 -321q0 -178 -69.5 -322.5t-192 -227t-272.5 -82.5q-192 0 -307 121t-115 321zM198 427q0 -169 94 -271t250 -102q194 0 325 160.5t131 398.5q0 169 -94 271t-251 102q-127 0 -231.5 -73t-164 -201 t-59.5 -285z" />
<glyph unicode="p" horiz-adv-x="1097" d="M-12 -341l294 1381h76l-50 -234h5q63 116 170 183t230 67q175 0 279 -120.5t104 -321.5q0 -176 -69 -320.5t-189.5 -227t-266.5 -82.5q-145 0 -247.5 88t-119.5 226h-3l-136 -639h-77zM242 413q0 -161 91 -260t239 -99q124 0 226.5 73t161.5 201t59 282q0 175 -86 275.5 t-235 100.5q-125 0 -230.5 -78.5t-165.5 -210.5t-60 -284z" />
<glyph unicode="q" horiz-adv-x="1102" d="M113 411q0 173 72.5 321.5t196.5 236t268 87.5q146 0 247 -88.5t115 -227.5h4l64 300h76l-294 -1381h-77l124 577h-4q-62 -114 -174 -183t-238 -69q-170 0 -275 118.5t-105 308.5zM190 413q0 -161 88 -260t231 -99q129 0 235.5 75.5t168 207t61.5 290.5q0 165 -88 262 t-238 97q-120 0 -226 -78.5t-169 -211t-63 -283.5z" />
<glyph unicode="r" horiz-adv-x="621" d="M61 0l221 1040h75l-39 -179h4q111 194 299 194q84 0 134 -27l-17 -77q-43 31 -133 31q-119 0 -208.5 -96.5t-124.5 -258.5l-134 -627h-77z" />
<glyph unicode="s" horiz-adv-x="922" d="M73 300h78q16 -112 107.5 -180.5t227.5 -68.5q130 0 212.5 62.5t82.5 160.5q0 74 -48 119.5t-174 88.5l-91 31q-128 43 -187 105t-59 154q0 124 101.5 204t260.5 80q155 0 256.5 -85t111.5 -220h-76q-11 105 -92 171.5t-203 66.5q-123 0 -202.5 -60t-79.5 -151 q0 -69 48.5 -115.5t160.5 -83.5l89 -31q142 -49 202.5 -111t60.5 -160q0 -130 -105.5 -212t-272.5 -82q-170 0 -283.5 88.5t-125.5 228.5z" />
<glyph unicode="t" horiz-adv-x="535" d="M157 173q0 36 11 89l151 710h-151l14 68h152l58 275h78l-58 -275h224l-14 -68h-224l-149 -697q-11 -49 -11 -81q0 -63 42.5 -95t118.5 -32q48 0 62 2l-15 -68q-15 -3 -67 -3q-103 0 -162.5 45t-59.5 130z" />
<glyph unicode="u" horiz-adv-x="1048" d="M128 290q0 54 11 115l136 635h77l-132 -622q-13 -57 -13 -108q0 -118 75 -187t206 -69q147 0 258 99.5t142 245.5l138 641h76l-221 -1040h-74l44 204h-4q-58 -99 -158 -160t-224 -61q-151 0 -244 87t-93 220z" />
<glyph unicode="v" horiz-adv-x="895" d="M181 1040h78l152 -958h4l555 958h87l-610 -1040h-95z" />
<glyph unicode="w" horiz-adv-x="1396" d="M191 1040h73l70 -952h4l487 952h90l85 -952h4l470 952h81l-520 -1040h-94l-87 941h-3l-485 -941h-96z" />
<glyph unicode="x" horiz-adv-x="885" d="M-26 0l489 525l-271 515h85l238 -459h4l427 459h97l-491 -527l269 -513h-84l-238 456h-4l-425 -456h-96z" />
<glyph unicode="y" horiz-adv-x="895" d="M3 -348l12 68q29 -8 60 -8q67 0 120.5 43t112.5 145l50 88l-177 1052h78l156 -959h4l551 959h87l-681 -1168q-75 -130 -143 -179t-161 -49q-37 0 -69 8z" />
<glyph unicode="z" horiz-adv-x="913" d="M12 0l13 64l869 904l1 4h-675l15 68h776l-14 -65l-866 -903l-1 -4h674l-14 -68h-778z" />
<glyph unicode="{" horiz-adv-x="600" d="M84 515l24 112q121 0 177.5 43t82.5 164l68 314q37 170 111.5 232.5t226.5 62.5h53l-15 -67h-44q-118 0 -173.5 -50t-85.5 -188l-70 -327q-26 -124 -87 -173t-183 -61l-3 -18q92 -11 135 -47t43 -114q0 -40 -12 -94l-56 -258q-14 -67 -14 -114q0 -85 43 -126.5t134 -41.5 h29l-13 -65h-34q-112 0 -174.5 56t-62.5 164q0 50 15 123l55 249q12 54 12 92q0 73 -42.5 99t-139.5 33z" />
<glyph unicode="|" horiz-adv-x="600" d="M148 -301l371 1744h70l-371 -1744h-70z" />
<glyph unicode="}" horiz-adv-x="600" d="M-89 -300l14 66h45q118 0 173.5 50.5t84.5 187.5l70 328q26 124 87 173t183 61l4 17q-93 12 -136 48t-43 114q0 32 12 94l56 258q15 70 15 114q0 85 -43 126t-134 41h-30l14 66h33q113 0 175 -55.5t62 -164.5q0 -57 -15 -123l-54 -249q-12 -54 -12 -92q0 -73 42 -99.5 t139 -32.5l-24 -112q-121 0 -177.5 -43t-82.5 -164l-68 -314q-37 -171 -111 -233t-227 -62h-52z" />
<glyph unicode="~" d="M257 535q16 128 85.5 208t170.5 80q40 0 76 -17.5t61.5 -43.5t53 -56.5t50 -56.5t52 -43.5t59.5 -17.5q68 0 112.5 58t60.5 156h76q-19 -132 -85.5 -209.5t-165.5 -77.5q-40 0 -77 17.5t-62.5 43.5t-53 56.5t-50 56.5t-51.5 43.5t-59 17.5q-69 0 -115 -59t-62 -156h-76z " />
<glyph unicode="&#xa1;" horiz-adv-x="511" d="M87 -340l220 1016h78l-211 -1016h-87zM358 1046q0 27 19 46.5t47 19.5t47.5 -19.5t19.5 -46.5q0 -28 -19.5 -47.5t-47.5 -19.5t-47 19.5t-19 47.5z" />
<glyph unicode="&#xa2;" d="M228 577q0 188 72 342.5t198.5 244t282.5 92.5l42 194h77l-43 -199q132 -14 223 -96.5t110 -202.5q0 -2 0.5 -6.5t0.5 -6.5h-78q-17 110 -106 178.5t-220 68.5q-133 0 -243 -79t-173 -216t-63 -303q0 -172 93 -273t252 -101q127 0 224.5 58t134.5 155h80 q-38 -127 -157.5 -204t-283.5 -80l-45 -211h-77l46 217q-159 22 -253 137t-94 291z" />
<glyph unicode="&#xa3;" d="M17 0l14 68q193 33 314.5 172t121.5 337q0 27 -6 105h-278l15 67h256q-3 37 -10 94t-11 100.5t-4 77.5q0 215 131 332.5t360 117.5q203 0 352 -83l-10 -76q-150 87 -345 87q-188 0 -297.5 -100t-109.5 -268q0 -42 12 -148t14 -134h451l-14 -67h-432q5 -46 5 -98 q0 -184 -89.5 -321.5t-228.5 -188.5l-1 -4h869l-15 -70h-1064z" />
<glyph unicode="&#xa4;" d="M136 248l236 196q-64 98 -64 211q0 161 115 273l-110 139l58 46l109 -140q94 62 207 62q157 0 268 -111l234 192l41 -53l-232 -192q68 -96 68 -216q0 -80 -31.5 -151t-87.5 -124l107 -135l-57 -46l-108 137q-92 -60 -202 -60q-159 0 -271 115l-238 -196zM372 655 q0 -128 97.5 -221.5t217.5 -93.5q130 0 222.5 93t92.5 222q0 130 -92.5 223t-222.5 93t-222.5 -93t-92.5 -223z" />
<glyph unicode="&#xa5;" d="M240 363l14 66h341l45 208h-342l14 65h308l-333 741h84l322 -718h6l620 718h95l-643 -741h301l-14 -65h-339l-44 -208h339l-14 -66h-339l-76 -363h-81l77 363h-341z" />
<glyph unicode="&#xa6;" horiz-adv-x="600" d="M149 -301l144 678h70l-145 -678h-69zM375 765l144 678h70l-144 -678h-70z" />
<glyph unicode="&#xa7;" horiz-adv-x="954" d="M19 47h80q16 -97 104.5 -158t216.5 -61q135 0 222.5 66t87.5 167q0 69 -50.5 122t-164.5 95l-109 41q-122 46 -182 110.5t-60 155.5q0 114 91 194t216 93l1 6q-160 76 -160 225q0 126 105 208t264 82q150 0 252 -76t115 -195h-76q-13 87 -96.5 144.5t-198.5 57.5 q-121 0 -203.5 -62.5t-82.5 -154.5q0 -68 47.5 -116t154.5 -87l101 -38q137 -51 200.5 -117t63.5 -163q0 -114 -84 -194.5t-207 -97.5l-1 -4q76 -47 110 -100.5t34 -125.5q0 -133 -111.5 -218.5t-282.5 -85.5q-163 0 -275 80.5t-122 206.5zM244 591q0 -68 48 -116.5 t153 -89.5l139 -53q129 8 211.5 76.5t82.5 168.5q0 73 -49 124.5t-163 93.5l-109 41q-132 -3 -222.5 -75.5t-90.5 -169.5z" />
<glyph unicode="&#xa8;" horiz-adv-x="875" d="M446 1309q0 28 19.5 47t47.5 19q27 0 46.5 -19t19.5 -47q0 -27 -19.5 -46.5t-46.5 -19.5q-28 0 -47.5 19.5t-19.5 46.5zM744 1309q0 27 20 46.5t47 19.5t47 -19.5t20 -46.5t-20 -46.5t-47 -19.5t-47 19.5t-20 46.5z" />
<glyph unicode="&#xa9;" horiz-adv-x="1718" d="M169 592q0 164 63 313t169.5 257t253.5 171.5t309 63.5q218 0 387.5 -93t263.5 -260.5t94 -383.5q0 -164 -63 -313.5t-169 -257t-253 -171t-309 -63.5q-163 0 -302 54.5t-236.5 150.5t-152.5 233.5t-55 298.5zM237 592q0 -298 188.5 -484t489.5 -186q147 0 281.5 58.5 t232 157t155 235t57.5 286.5q0 300 -187.5 485.5t-489.5 185.5q-148 0 -282.5 -58.5t-232 -157t-155 -235.5t-57.5 -287zM553 572q0 136 57.5 249t157 177.5t220.5 64.5q139 0 230.5 -79t99.5 -206h-65q-8 100 -83 162.5t-187 62.5q-154 0 -258 -122.5t-104 -303.5 q0 -144 78 -230t209 -86q92 0 162.5 42.5t104.5 118.5h69q-38 -103 -129 -162t-211 -59q-159 0 -255 101.5t-96 269.5z" />
<glyph unicode="&#xaa;" horiz-adv-x="700" d="M205 912q0 98 76 157.5t216 64.5l248 10l12 57q6 24 6 50q0 66 -48 104t-131 38t-141 -39.5t-76 -107.5h-68q20 94 99.5 150.5t190.5 56.5t178 -53.5t67 -141.5q0 -22 -7 -59l-98 -463h-68l26 125l-3 1q-37 -60 -107 -96.5t-149 -36.5q-94 0 -158.5 49.5t-64.5 133.5z M275 919q0 -61 49.5 -97t123.5 -36q95 0 169.5 56t93.5 141l24 108l-234 -11q-108 -4 -167 -47t-59 -114z" />
<glyph unicode="&#xab;" horiz-adv-x="1141" d="M217 564l1 9l449 406h101l-453 -413l-1 -8l279 -403h-91zM581 558l1 10l454 411h102l-459 -418l-2 -8l278 -397h-90z" />
<glyph unicode="&#xac;" d="M199 638l14 69h961l-114 -537h-70l99 468h-890z" />
<glyph unicode="&#xad;" horiz-adv-x="830" d="M149 527l15 70h650l-15 -70h-650z" />
<glyph unicode="&#xae;" horiz-adv-x="1101" d="M292 1065q0 184 124 308.5t307 124.5q179 0 300.5 -119t121.5 -294q0 -185 -124 -309.5t-308 -124.5q-177 0 -299 120t-122 294zM348 1065q0 -151 106.5 -256.5t258.5 -105.5q160 0 268 109.5t108 272.5q-1 152 -107 256.5t-258 104.5q-160 0 -267.5 -109t-108.5 -272z M514 864l95 449h170q60 0 97 -35t37 -90t-37 -94.5t-99 -49.5l90 -180h-62l-86 176h-115l-38 -176h-52zM613 1083h121q57 0 91 27.5t34 72.5q0 38 -24 60.5t-65 22.5h-118z" />
<glyph unicode="&#xaf;" horiz-adv-x="917" d="M427 1298l12 60h520l-13 -60h-519z" />
<glyph unicode="&#xb0;" horiz-adv-x="724" d="M295 1195q0 110 78.5 188.5t188.5 78.5q111 0 189.5 -78.5t78.5 -188.5q0 -111 -78.5 -189t-189.5 -78q-110 0 -188.5 78t-78.5 189zM358 1195q0 -84 60.5 -144t143.5 -60q85 0 145 60t60 144t-60 143.5t-145 59.5q-84 0 -144 -59.5t-60 -143.5z" />
<glyph unicode="&#xb1;" d="M85 113l15 69h963l-14 -69h-964zM207 682l13 66h446l71 332h73l-71 -332h445l-14 -66h-445l-75 -350h-73l75 350h-445z" />
<glyph unicode="&#xb2;" horiz-adv-x="559" d="M254 1142l12 55l279 234q102 87 134.5 128t32.5 87q0 50 -38 82t-96 32q-59 0 -103.5 -36.5t-56.5 -95.5v-1h-69q11 85 77 139.5t158 54.5q86 0 144 -48.5t58 -120.5q0 -60 -40.5 -113.5t-156.5 -149.5l-217 -184l-1 -2h347l-12 -61h-452z" />
<glyph unicode="&#xb3;" horiz-adv-x="564" d="M269 1307q0 17 3 29h69q-2 -9 -2 -17q-1 -55 43.5 -91t113.5 -36q78 0 127.5 40.5t49.5 104.5q0 55 -41.5 88t-110.5 33h-72l11 57h91q70 0 116.5 36.5t46.5 92.5q0 52 -38.5 84.5t-98.5 32.5q-53 0 -95 -29.5t-57 -77.5h-70q18 76 80.5 121.5t147.5 45.5 q87 0 144.5 -47.5t57.5 -120.5q0 -65 -46 -112t-119 -57l-1 -3q59 -10 93 -49.5t34 -96.5q0 -89 -71 -147t-181 -58q-97 0 -161 50.5t-64 126.5z" />
<glyph unicode="&#xb4;" horiz-adv-x="875" d="M471 1241l301 303h93l-312 -303h-82z" />
<glyph unicode="&#xb6;" horiz-adv-x="1175" d="M348 962q0 143 73.5 254t196 169t270.5 58h136l-341 -1605h-80l157 735q-187 14 -299.5 121t-112.5 268zM857 -162l342 1605h79l-342 -1605h-79z" />
<glyph unicode="&#xb7;" horiz-adv-x="512" d="M243 520q0 29 20.5 49.5t49.5 20.5t49.5 -20.5t20.5 -49.5t-20.5 -49.5t-49.5 -20.5t-49.5 20.5t-20.5 49.5z" />
<glyph unicode="&#xb8;" horiz-adv-x="875" d="M125 -430l13 60q69 -36 153 -36q67 0 107.5 28.5t40.5 80.5q0 94 -145 105l-52 3l10 42l102 159h61l-3 -12l-90 -141q88 -5 136 -43.5t48 -106.5q0 -81 -59 -128.5t-154 -47.5q-94 0 -168 37z" />
<glyph unicode="&#xb9;" horiz-adv-x="408" d="M332 1618l16 74q201 116 205 118h73l-142 -668h-73l125 593h-2q-17 -9 -103.5 -59.5t-98.5 -57.5z" />
<glyph unicode="&#xba;" horiz-adv-x="739" d="M218 1020q0 184 105.5 308.5t261.5 124.5q133 0 213 -80.5t80 -214.5q0 -185 -105.5 -308.5t-262.5 -123.5q-132 0 -212 80.5t-80 213.5zM289 1022q0 -109 60.5 -172.5t163.5 -63.5q125 0 209.5 106t84.5 263q0 109 -61 173.5t-163 64.5q-125 0 -209.5 -107t-84.5 -264z " />
<glyph unicode="&#xbb;" horiz-adv-x="1141" d="M138 155l459 419l1 8l-277 396h90l284 -402l-1 -9l-454 -412h-102zM507 155l454 413l1 8l-279 403h91l285 -408l-2 -10l-448 -406h-102z" />
<glyph unicode="&#xbc;" horiz-adv-x="1350" d="M4 0l709 741l672 702h90l-705 -736l-677 -707h-89zM254 1251l16 74q201 116 205 118h73l-142 -668h-73l125 593h-2q-17 -9 -103.5 -59.5t-98.5 -57.5zM784 150l13 66q110 139 404 452h107l-98 -457h100l-13 -61h-99l-33 -150h-71l33 150h-343zM870 209h270l84 396h-1 q-233 -244 -353 -394v-2z" />
<glyph unicode="&#xbd;" horiz-adv-x="1388" d="M4 0l709 741l672 702h90l-705 -736l-677 -707h-89zM254 1251l16 74q201 116 205 118h73l-142 -668h-73l125 593h-2q-17 -9 -103.5 -59.5t-98.5 -57.5zM840 0l12 55l279 234q102 87 134.5 128t32.5 87q0 50 -38 82t-96 32q-59 0 -103.5 -36.5t-56.5 -95.5v-1h-69 q11 85 77 139.5t158 54.5q86 0 144 -48.5t58 -120.5q0 -60 -40.5 -113.5t-156.5 -149.5l-217 -184l-1 -2h347l-12 -61h-452z" />
<glyph unicode="&#xbe;" horiz-adv-x="1475" d="M130 0l709 741l672 702h90l-705 -736l-677 -707h-89zM191 940q0 17 3 29h69q-2 -9 -2 -17q-1 -55 43.5 -91t113.5 -36q78 0 127.5 40.5t49.5 104.5q0 55 -41.5 88t-110.5 33h-72l11 57h91q70 0 116.5 36.5t46.5 92.5q0 52 -38.5 84.5t-98.5 32.5q-53 0 -95 -29.5 t-57 -77.5h-70q18 76 80.5 121.5t147.5 45.5q87 0 144.5 -47.5t57.5 -120.5q0 -65 -46 -112t-119 -57l-1 -3q59 -10 93 -49.5t34 -96.5q0 -89 -71 -147t-181 -58q-97 0 -161 50.5t-64 126.5zM909 150l13 66q110 139 404 452h107l-98 -457h100l-13 -61h-99l-33 -150h-71 l33 150h-343zM995 209h270l84 396h-1q-233 -244 -353 -394v-2z" />
<glyph unicode="&#xbf;" horiz-adv-x="921" d="M14 -27q0 127 76.5 226.5t216.5 153.5q107 41 160 97.5t71 147.5l22 101h79l-23 -109q-24 -114 -83.5 -178.5t-177.5 -110.5q-258 -102 -258 -320q0 -115 77.5 -189t211.5 -74q126 0 218 73t126 197h77q-37 -157 -149.5 -249t-277.5 -92q-163 0 -264.5 93.5t-101.5 232.5 zM593 1051q0 27 19.5 46.5t47.5 19.5q27 0 46.5 -19.5t19.5 -46.5q0 -28 -19.5 -47.5t-46.5 -19.5q-28 0 -47.5 19.5t-19.5 47.5z" />
<glyph unicode="&#xc0;" horiz-adv-x="1221" d="M-31 0l855 1443h81l242 -1443h-76l-79 482h-648l-285 -482h-90zM383 552h598l-131 789h-4zM656 1843h86l171 -287h-73z" />
<glyph unicode="&#xc1;" horiz-adv-x="1221" d="M-31 0l855 1443h81l242 -1443h-76l-79 482h-648l-285 -482h-90zM383 552h598l-131 789h-4zM841 1556l336 287h100l-350 -287h-86z" />
<glyph unicode="&#xc2;" horiz-adv-x="1221" d="M-31 0l855 1443h81l242 -1443h-76l-79 482h-648l-285 -482h-90zM383 552h598l-131 789h-4zM586 1556l324 289h64l202 -289h-78l-160 232h-3l-259 -232h-90z" />
<glyph unicode="&#xc3;" horiz-adv-x="1221" d="M-31 0l855 1443h81l242 -1443h-76l-79 482h-648l-285 -482h-90zM383 552h598l-131 789h-4zM591 1563q17 98 69 155t123 57q37 0 68 -17t52.5 -41.5t41 -48.5t44 -41t52.5 -17q41 0 74 40t48 113h62q-21 -101 -70.5 -156.5t-117.5 -55.5q-36 0 -67 17t-52 41.5t-41 48.5 t-45 41t-53 17q-43 0 -78 -41t-48 -112h-62z" />
<glyph unicode="&#xc4;" horiz-adv-x="1221" d="M-31 0l855 1443h81l242 -1443h-76l-79 482h-648l-285 -482h-90zM383 552h598l-131 789h-4zM695 1671q0 28 19.5 47t47.5 19q27 0 46.5 -19t19.5 -47q0 -27 -19.5 -46.5t-46.5 -19.5q-28 0 -47.5 19.5t-19.5 46.5zM993 1671q0 27 20 46.5t47 19.5t47 -19.5t20 -46.5 t-20 -46.5t-47 -19.5t-47 19.5t-20 46.5z" />
<glyph unicode="&#xc5;" horiz-adv-x="1221" d="M-31 0l855 1443h81l242 -1443h-76l-79 482h-648l-285 -482h-90zM383 552h598l-131 789h-4zM753 1732q0 73 50 123t121 50q70 0 120 -48.5t50 -119.5q-1 -73 -51 -123t-121 -50q-70 0 -119.5 48.5t-49.5 119.5zM803 1733q0 -51 34.5 -85.5t84.5 -34.5q52 0 86.5 35 t34.5 88q0 51 -34 85.5t-85 34.5q-52 0 -86.5 -35t-34.5 -88z" />
<glyph unicode="&#xc6;" horiz-adv-x="1840" d="M-36 0l1020 1443h1011l-16 -73h-696l-127 -597h660l-16 -72h-660l-133 -628h696l-15 -73h-777l90 422h-650l-297 -422h-90zM398 492h618l187 881h-180z" />
<glyph unicode="&#xc7;" horiz-adv-x="1356" d="M171 574q0 249 95 453t262 320.5t371 116.5q236 0 384 -134t153 -348v-8h-80v7q-6 182 -131.5 295.5t-328.5 113.5q-180 0 -328 -106.5t-232.5 -292.5t-84.5 -411q0 -238 134.5 -382.5t356.5 -144.5q179 0 314.5 91.5t194.5 253.5h83q-63 -193 -220 -305t-367 -114 l-77 -120q88 -5 136 -43.5t48 -106.5q0 -81 -59 -128.5t-154 -47.5q-94 0 -168 37l13 60q69 -36 153 -36q67 0 107.5 28.5t40.5 80.5q0 94 -145 105l-52 3l10 42l82 128q-232 19 -371.5 180t-139.5 413z" />
<glyph unicode="&#xc8;" horiz-adv-x="1060" d="M80 0l307 1443h842l-16 -73h-761l-126 -594h725l-16 -72h-725l-133 -631h760l-15 -73h-842zM601 1843h86l171 -287h-73z" />
<glyph unicode="&#xc9;" horiz-adv-x="1060" d="M80 0l307 1443h842l-16 -73h-761l-126 -594h725l-16 -72h-725l-133 -631h760l-15 -73h-842zM786 1556l336 287h100l-350 -287h-86z" />
<glyph unicode="&#xca;" horiz-adv-x="1060" d="M80 0l307 1443h842l-16 -73h-761l-126 -594h725l-16 -72h-725l-133 -631h760l-15 -73h-842zM531 1556l324 289h64l202 -289h-78l-160 232h-3l-259 -232h-90z" />
<glyph unicode="&#xcb;" horiz-adv-x="1060" d="M80 0l307 1443h842l-16 -73h-761l-126 -594h725l-16 -72h-725l-133 -631h760l-15 -73h-842zM640 1671q0 28 19.5 47t47.5 19q27 0 46.5 -19t19.5 -47q0 -27 -19.5 -46.5t-46.5 -19.5q-28 0 -47.5 19.5t-19.5 46.5zM938 1671q0 27 20 46.5t47 19.5t47 -19.5t20 -46.5 t-20 -46.5t-47 -19.5t-47 19.5t-20 46.5z" />
<glyph unicode="&#xcc;" horiz-adv-x="346" d="M80 0l307 1443h80l-307 -1443h-80zM220 1843h86l171 -287h-73z" />
<glyph unicode="&#xcd;" horiz-adv-x="346" d="M80 0l307 1443h80l-307 -1443h-80zM405 1556l336 287h100l-350 -287h-86z" />
<glyph unicode="&#xce;" horiz-adv-x="346" d="M80 0l307 1443h80l-307 -1443h-80zM150 1556l324 289h64l202 -289h-78l-160 232h-3l-259 -232h-90z" />
<glyph unicode="&#xcf;" horiz-adv-x="346" d="M80 0l307 1443h80l-307 -1443h-80zM259 1671q0 28 19.5 47t47.5 19q27 0 46.5 -19t19.5 -47q0 -27 -19.5 -46.5t-46.5 -19.5q-28 0 -47.5 19.5t-19.5 46.5zM557 1671q0 27 20 46.5t47 19.5t47 -19.5t20 -46.5t-20 -46.5t-47 -19.5t-47 19.5t-20 46.5z" />
<glyph unicode="&#xd0;" horiz-adv-x="1363" d="M81 0l149 701h-134l16 72h133l142 670h424q278 0 431 -150.5t153 -412.5q0 -254 -103 -454t-294.5 -313t-439.5 -113h-477zM178 72h377q224 0 397.5 103.5t267.5 285t94 410.5q0 238 -132 369t-383 131h-346l-127 -598h419l-15 -72h-419z" />
<glyph unicode="&#xd1;" horiz-adv-x="1355" d="M80 0l307 1443h79l646 -1319h4l280 1319h80l-307 -1443h-79l-646 1319h-4l-280 -1319h-80zM659 1563q17 98 69 155t123 57q37 0 68 -17t52.5 -41.5t41 -48.5t44 -41t52.5 -17q41 0 74 40t48 113h62q-21 -101 -70.5 -156.5t-117.5 -55.5q-36 0 -67 17t-52 41.5t-41 48.5 t-45 41t-53 17q-43 0 -78 -41t-48 -112h-62z" />
<glyph unicode="&#xd2;" horiz-adv-x="1455" d="M173 589q0 243 95.5 443.5t264.5 316t376 115.5q257 0 415.5 -167t158.5 -443q0 -243 -95.5 -443.5t-264.5 -316t-376 -115.5q-258 0 -416 167t-158 443zM253 595q0 -248 136 -395t361 -147q182 0 332 105.5t235 287.5t85 402q0 248 -136 395t-360 147 q-182 0 -332.5 -105.5t-235.5 -287.5t-85 -402zM706 1843h86l171 -287h-73z" />
<glyph unicode="&#xd3;" horiz-adv-x="1455" d="M173 589q0 243 95.5 443.5t264.5 316t376 115.5q257 0 415.5 -167t158.5 -443q0 -243 -95.5 -443.5t-264.5 -316t-376 -115.5q-258 0 -416 167t-158 443zM253 595q0 -248 136 -395t361 -147q182 0 332 105.5t235 287.5t85 402q0 248 -136 395t-360 147 q-182 0 -332.5 -105.5t-235.5 -287.5t-85 -402zM891 1556l336 287h100l-350 -287h-86z" />
<glyph unicode="&#xd4;" horiz-adv-x="1455" d="M173 589q0 243 95.5 443.5t264.5 316t376 115.5q257 0 415.5 -167t158.5 -443q0 -243 -95.5 -443.5t-264.5 -316t-376 -115.5q-258 0 -416 167t-158 443zM253 595q0 -248 136 -395t361 -147q182 0 332 105.5t235 287.5t85 402q0 248 -136 395t-360 147 q-182 0 -332.5 -105.5t-235.5 -287.5t-85 -402zM637 1556l324 289h64l202 -289h-78l-160 232h-3l-259 -232h-90z" />
<glyph unicode="&#xd5;" horiz-adv-x="1455" d="M173 589q0 243 95.5 443.5t264.5 316t376 115.5q257 0 415.5 -167t158.5 -443q0 -243 -95.5 -443.5t-264.5 -316t-376 -115.5q-258 0 -416 167t-158 443zM253 595q0 -248 136 -395t361 -147q182 0 332 105.5t235 287.5t85 402q0 248 -136 395t-360 147 q-182 0 -332.5 -105.5t-235.5 -287.5t-85 -402zM642 1563q17 98 69 155t123 57q37 0 68 -17t52.5 -41.5t41 -48.5t44 -41t52.5 -17q41 0 74 40t48 113h62q-21 -101 -70.5 -156.5t-117.5 -55.5q-36 0 -67 17t-52 41.5t-41 48.5t-45 41t-53 17q-43 0 -78 -41t-48 -112h-62z " />
<glyph unicode="&#xd6;" horiz-adv-x="1455" d="M173 589q0 243 95.5 443.5t264.5 316t376 115.5q257 0 415.5 -167t158.5 -443q0 -243 -95.5 -443.5t-264.5 -316t-376 -115.5q-258 0 -416 167t-158 443zM253 595q0 -248 136 -395t361 -147q182 0 332 105.5t235 287.5t85 402q0 248 -136 395t-360 147 q-182 0 -332.5 -105.5t-235.5 -287.5t-85 -402zM746 1671q0 28 19.5 47t47.5 19q27 0 46.5 -19t19.5 -47q0 -27 -19.5 -46.5t-46.5 -19.5q-28 0 -47.5 19.5t-19.5 46.5zM1044 1671q0 27 20 46.5t47 19.5t47 -19.5t20 -46.5t-20 -46.5t-47 -19.5t-47 19.5t-20 46.5z" />
<glyph unicode="&#xd7;" d="M225 261l390 322l-251 320l58 47l251 -318l390 321l45 -55l-390 -322l249 -317l-58 -48l-250 317l-389 -321z" />
<glyph unicode="&#xd8;" horiz-adv-x="1455" d="M112 51l164 164q-103 155 -103 374q0 243 95.5 443.5t264.5 316t376 115.5q134 0 244.5 -48t186.5 -137l158 158l45 -45l-164 -164q104 -154 104 -374q0 -243 -95.5 -443.5t-264.5 -316t-376 -115.5q-273 0 -432 184l-157 -157zM253 595q0 -186 81 -322l950 950 q-137 167 -378 167q-182 0 -332.5 -105.5t-235.5 -287.5t-85 -402zM372 220q136 -167 378 -167q182 0 332 105.5t235 287.5t85 402q0 186 -81 322z" />
<glyph unicode="&#xd9;" horiz-adv-x="1358" d="M184 407q-1 68 13 140l191 896h81l-191 -895q-15 -62 -13 -136q2 -163 113.5 -261t301.5 -98q197 0 333 111t178 306l208 973h80l-210 -985q-49 -228 -204.5 -353.5t-395.5 -125.5q-220 0 -352.5 119t-132.5 309zM722 1843h86l171 -287h-73z" />
<glyph unicode="&#xda;" horiz-adv-x="1358" d="M184 407q-1 68 13 140l191 896h81l-191 -895q-15 -62 -13 -136q2 -163 113.5 -261t301.5 -98q197 0 333 111t178 306l208 973h80l-210 -985q-49 -228 -204.5 -353.5t-395.5 -125.5q-220 0 -352.5 119t-132.5 309zM907 1556l336 287h100l-350 -287h-86z" />
<glyph unicode="&#xdb;" horiz-adv-x="1358" d="M184 407q-1 68 13 140l191 896h81l-191 -895q-15 -62 -13 -136q2 -163 113.5 -261t301.5 -98q197 0 333 111t178 306l208 973h80l-210 -985q-49 -228 -204.5 -353.5t-395.5 -125.5q-220 0 -352.5 119t-132.5 309zM653 1556l324 289h64l202 -289h-78l-160 232h-3 l-259 -232h-90z" />
<glyph unicode="&#xdc;" horiz-adv-x="1358" d="M184 407q-1 68 13 140l191 896h81l-191 -895q-15 -62 -13 -136q2 -163 113.5 -261t301.5 -98q197 0 333 111t178 306l208 973h80l-210 -985q-49 -228 -204.5 -353.5t-395.5 -125.5q-220 0 -352.5 119t-132.5 309zM762 1671q0 28 19.5 47t47.5 19q27 0 46.5 -19t19.5 -47 q0 -27 -19.5 -46.5t-46.5 -19.5q-28 0 -47.5 19.5t-19.5 46.5zM1060 1671q0 27 20 46.5t47 19.5t47 -19.5t20 -46.5t-20 -46.5t-47 -19.5t-47 19.5t-20 46.5z" />
<glyph unicode="&#xdd;" horiz-adv-x="1170" d="M276 1443h85l316 -736h4l625 736h96l-697 -820l-132 -623h-80l133 631zM815 1556l336 287h100l-350 -287h-86z" />
<glyph unicode="&#xde;" horiz-adv-x="1147" d="M73 0l307 1443h80l-61 -285h386q176 0 282.5 -98t106.5 -242q0 -208 -146 -336.5t-394 -128.5h-406l-75 -353h-80zM244 425h395q209 0 331 107t122 277q0 119 -86 197.5t-243 78.5h-379z" />
<glyph unicode="&#xdf;" horiz-adv-x="1092" d="M90 0l235 1097q34 160 142 250t266 90q157 0 258 -87.5t101 -224.5q0 -141 -97 -244.5t-244 -119.5l-1 -6q141 -17 227.5 -110t86.5 -229q0 -186 -133.5 -307t-336.5 -121q-120 0 -233 37l16 70q107 -35 214 -35q171 0 282 100t111 254q0 137 -99 221.5t-259 84.5h-95 l17 75h114q143 0 247 93.5t104 222.5q0 113 -79 184t-204 71q-126 0 -216 -77t-118 -210l-229 -1079h-77z" />
<glyph unicode="&#xe0;" horiz-adv-x="978" d="M81 256q0 145 112.5 229.5t318.5 95.5l357 20l19 87q9 42 9 78q0 103 -72 161.5t-199 58.5q-134 0 -224.5 -64.5t-114.5 -175.5h-80q27 141 142.5 226t282.5 85q155 0 249 -77.5t94 -205.5q0 -45 -10 -89l-145 -685h-76l40 187h-4q-56 -93 -157 -148t-218 -55 q-141 0 -232.5 76t-91.5 196zM159 262q0 -94 72.5 -152t188.5 -58q143 0 256 88t142 222l38 174l-344 -20q-169 -9 -261 -75t-92 -179zM465 1544h83l171 -303h-70z" />
<glyph unicode="&#xe1;" horiz-adv-x="978" d="M81 256q0 145 112.5 229.5t318.5 95.5l357 20l19 87q9 42 9 78q0 103 -72 161.5t-199 58.5q-134 0 -224.5 -64.5t-114.5 -175.5h-80q27 141 142.5 226t282.5 85q155 0 249 -77.5t94 -205.5q0 -45 -10 -89l-145 -685h-76l40 187h-4q-56 -93 -157 -148t-218 -55 q-141 0 -232.5 76t-91.5 196zM159 262q0 -94 72.5 -152t188.5 -58q143 0 256 88t142 222l38 174l-344 -20q-169 -9 -261 -75t-92 -179zM636 1241l301 303h93l-312 -303h-82z" />
<glyph unicode="&#xe2;" horiz-adv-x="978" d="M81 256q0 145 112.5 229.5t318.5 95.5l357 20l19 87q9 42 9 78q0 103 -72 161.5t-199 58.5q-134 0 -224.5 -64.5t-114.5 -175.5h-80q27 141 142.5 226t282.5 85q155 0 249 -77.5t94 -205.5q0 -45 -10 -89l-145 -685h-76l40 187h-4q-56 -93 -157 -148t-218 -55 q-141 0 -232.5 76t-91.5 196zM159 262q0 -94 72.5 -152t188.5 -58q143 0 256 88t142 222l38 174l-344 -20q-169 -9 -261 -75t-92 -179zM382 1241l323 303h71l192 -303h-80l-154 248h-3l-261 -248h-88z" />
<glyph unicode="&#xe3;" horiz-adv-x="978" d="M81 256q0 145 112.5 229.5t318.5 95.5l357 20l19 87q9 42 9 78q0 103 -72 161.5t-199 58.5q-134 0 -224.5 -64.5t-114.5 -175.5h-80q27 141 142.5 226t282.5 85q155 0 249 -77.5t94 -205.5q0 -45 -10 -89l-145 -685h-76l40 187h-4q-56 -93 -157 -148t-218 -55 q-141 0 -232.5 76t-91.5 196zM159 262q0 -94 72.5 -152t188.5 -58q143 0 256 88t142 222l38 174l-344 -20q-169 -9 -261 -75t-92 -179zM384 1255q17 98 69 155t123 57q37 0 68 -17t52.5 -41.5t41 -48.5t44 -41t52.5 -17q41 0 74 40t48 113h62q-21 -101 -70.5 -156.5 t-117.5 -55.5q-36 0 -67 17t-52 41.5t-41 48.5t-45 41t-53 17q-43 0 -78 -41t-48 -112h-62z" />
<glyph unicode="&#xe4;" horiz-adv-x="978" d="M81 256q0 145 112.5 229.5t318.5 95.5l357 20l19 87q9 42 9 78q0 103 -72 161.5t-199 58.5q-134 0 -224.5 -64.5t-114.5 -175.5h-80q27 141 142.5 226t282.5 85q155 0 249 -77.5t94 -205.5q0 -45 -10 -89l-145 -685h-76l40 187h-4q-56 -93 -157 -148t-218 -55 q-141 0 -232.5 76t-91.5 196zM159 262q0 -94 72.5 -152t188.5 -58q143 0 256 88t142 222l38 174l-344 -20q-169 -9 -261 -75t-92 -179zM476 1309q0 28 19.5 47t47.5 19q27 0 46.5 -19t19.5 -47q0 -27 -19.5 -46.5t-46.5 -19.5q-28 0 -47.5 19.5t-19.5 46.5zM774 1309 q0 27 20 46.5t47 19.5t47 -19.5t20 -46.5t-20 -46.5t-47 -19.5t-47 19.5t-20 46.5z" />
<glyph unicode="&#xe5;" horiz-adv-x="978" d="M81 256q0 145 112.5 229.5t318.5 95.5l357 20l19 87q9 42 9 78q0 103 -72 161.5t-199 58.5q-134 0 -224.5 -64.5t-114.5 -175.5h-80q27 141 142.5 226t282.5 85q155 0 249 -77.5t94 -205.5q0 -45 -10 -89l-145 -685h-76l40 187h-4q-56 -93 -157 -148t-218 -55 q-141 0 -232.5 76t-91.5 196zM159 262q0 -94 72.5 -152t188.5 -58q143 0 256 88t142 222l38 174l-344 -20q-169 -9 -261 -75t-92 -179zM526 1329q0 73 50 123t121 50q70 0 120 -48.5t50 -119.5q-1 -73 -51 -123t-121 -50q-70 0 -119.5 48.5t-49.5 119.5zM576 1330 q0 -51 34.5 -85.5t84.5 -34.5q52 0 86.5 35t34.5 88q0 51 -34 85.5t-85 34.5q-52 0 -86.5 -35t-34.5 -88z" />
<glyph unicode="&#xe6;" horiz-adv-x="1786" d="M92 256q0 144 111 223.5t318 89.5l369 19l21 100q9 41 9 78q0 102 -72.5 161t-199.5 59q-135 0 -227.5 -65.5t-114.5 -174.5h-80q26 139 143 225t284 86q143 0 231 -68t100 -183h4q68 117 178.5 184t239.5 67q170 0 279 -116.5t109 -294.5q0 -56 -13 -127h-827 q-10 -70 -10 -110q0 -161 91.5 -258t246.5 -97q125 0 217.5 53t135.5 150h78q-43 -125 -161.5 -199.5t-273.5 -74.5q-154 0 -257 82.5t-132 223.5h-3q-41 -101 -120 -172t-168 -102.5t-182 -31.5q-142 0 -233 77.5t-91 195.5zM170 262q0 -93 72.5 -151.5t188.5 -58.5 q147 0 264 89.5t146 220.5l35 161l-357 -19q-169 -10 -259 -71t-90 -171zM966 584h744q5 35 5 66q0 145 -88 241t-224 96q-153 0 -273 -109.5t-164 -293.5z" />
<glyph unicode="&#xe7;" horiz-adv-x="1007" d="M120 424q0 177 68.5 322t189.5 228t270 83q166 0 273 -95t120 -243v-2h-76q-14 120 -100.5 194.5t-217.5 74.5q-125 0 -228 -73t-162 -201.5t-59 -285.5q0 -168 93 -270t244 -102q121 0 215 62t138 168h78q-49 -135 -161 -216t-258 -85l-79 -124q88 -5 136 -43.5 t48 -106.5q0 -81 -59 -128.5t-154 -47.5q-94 0 -168 37l13 60q69 -36 153 -36q67 0 107.5 28.5t40.5 80.5q0 94 -145 105l-52 3l10 42l85 132q-168 17 -265.5 136.5t-97.5 302.5z" />
<glyph unicode="&#xe8;" horiz-adv-x="1027" d="M115 412q0 181 68.5 328.5t190 232t272.5 84.5q180 0 285 -110.5t105 -300.5q0 -74 -15 -137h-820q-8 -61 -8 -91q0 -169 90 -267t244 -98q133 0 229 64.5t139 179.5h79q-47 -144 -167.5 -229t-283.5 -85q-189 0 -298.5 117t-109.5 312zM212 575h740q6 28 6 76 q0 151 -83.5 243.5t-230.5 92.5q-161 0 -280 -115t-152 -297zM508 1544h83l171 -303h-70z" />
<glyph unicode="&#xe9;" horiz-adv-x="1027" d="M115 412q0 181 68.5 328.5t190 232t272.5 84.5q180 0 285 -110.5t105 -300.5q0 -74 -15 -137h-820q-8 -61 -8 -91q0 -169 90 -267t244 -98q133 0 229 64.5t139 179.5h79q-47 -144 -167.5 -229t-283.5 -85q-189 0 -298.5 117t-109.5 312zM212 575h740q6 28 6 76 q0 151 -83.5 243.5t-230.5 92.5q-161 0 -280 -115t-152 -297zM679 1241l301 303h93l-312 -303h-82z" />
<glyph unicode="&#xea;" horiz-adv-x="1027" d="M115 412q0 181 68.5 328.5t190 232t272.5 84.5q180 0 285 -110.5t105 -300.5q0 -74 -15 -137h-820q-8 -61 -8 -91q0 -169 90 -267t244 -98q133 0 229 64.5t139 179.5h79q-47 -144 -167.5 -229t-283.5 -85q-189 0 -298.5 117t-109.5 312zM212 575h740q6 28 6 76 q0 151 -83.5 243.5t-230.5 92.5q-161 0 -280 -115t-152 -297zM425 1241l323 303h71l192 -303h-80l-154 248h-3l-261 -248h-88z" />
<glyph unicode="&#xeb;" horiz-adv-x="1027" d="M115 412q0 181 68.5 328.5t190 232t272.5 84.5q180 0 285 -110.5t105 -300.5q0 -74 -15 -137h-820q-8 -61 -8 -91q0 -169 90 -267t244 -98q133 0 229 64.5t139 179.5h79q-47 -144 -167.5 -229t-283.5 -85q-189 0 -298.5 117t-109.5 312zM212 575h740q6 28 6 76 q0 151 -83.5 243.5t-230.5 92.5q-161 0 -280 -115t-152 -297zM519 1309q0 28 19.5 47t47.5 19q27 0 46.5 -19t19.5 -47q0 -27 -19.5 -46.5t-46.5 -19.5q-28 0 -47.5 19.5t-19.5 46.5zM817 1309q0 27 20 46.5t47 19.5t47 -19.5t20 -46.5t-20 -46.5t-47 -19.5t-47 19.5 t-20 46.5z" />
<glyph unicode="&#xec;" horiz-adv-x="317" d="M67 0l221 1040h78l-221 -1040h-78zM156 1544h83l171 -303h-70z" />
<glyph unicode="&#xed;" horiz-adv-x="317" d="M67 0l221 1040h78l-221 -1040h-78zM327 1241l301 303h93l-312 -303h-82z" />
<glyph unicode="&#xee;" horiz-adv-x="317" d="M67 0l221 1040h78l-221 -1040h-78zM73 1241l323 303h71l192 -303h-80l-154 248h-3l-261 -248h-88z" />
<glyph unicode="&#xef;" horiz-adv-x="317" d="M67 0l221 1040h78l-221 -1040h-78zM167 1309q0 28 19.5 47t47.5 19q27 0 46.5 -19t19.5 -47q0 -27 -19.5 -46.5t-46.5 -19.5q-28 0 -47.5 19.5t-19.5 46.5zM465 1309q0 27 20 46.5t47 19.5t47 -19.5t20 -46.5t-20 -46.5t-47 -19.5t-47 19.5t-20 46.5z" />
<glyph unicode="&#xf0;" horiz-adv-x="1053" d="M111 392q0 180 69 323.5t190.5 223.5t271.5 80q129 0 224.5 -66.5t128.5 -173.5h4q1 4 1 39q-1 226 -125 413l-316 -115l-7 59l289 106q-68 82 -161 152h96q69 -52 133 -129l275 104l6 -60l-250 -96q131 -207 131 -459q0 -138 -32 -295q-50 -240 -192 -377.5t-340 -137.5 q-176 0 -286 116t-110 293zM192 406q0 -159 87.5 -255.5t236.5 -96.5q123 0 227.5 76t166 207.5t61.5 285.5q0 146 -91.5 235t-239.5 89q-191 0 -319.5 -154t-128.5 -387z" />
<glyph unicode="&#xf1;" horiz-adv-x="1047" d="M61 0l221 1040h75l-44 -208h4q61 104 158.5 164.5t221.5 60.5q150 0 245 -88t95 -222q0 -53 -12 -110l-136 -637h-78l132 622q14 61 14 107q0 116 -77.5 186.5t-207.5 70.5q-145 0 -255 -99t-141 -246l-138 -641h-77zM436 1255q17 98 69 155t123 57q37 0 68 -17 t52.5 -41.5t41 -48.5t44 -41t52.5 -17q41 0 74 40t48 113h62q-21 -101 -70.5 -156.5t-117.5 -55.5q-36 0 -67 17t-52 41.5t-41 48.5t-45 41t-53 17q-43 0 -78 -41t-48 -112h-62z" />
<glyph unicode="&#xf2;" horiz-adv-x="1080" d="M120 425q0 177 69.5 322t191.5 227.5t272 82.5q192 0 307.5 -121t115.5 -321q0 -178 -69.5 -322.5t-192 -227t-272.5 -82.5q-192 0 -307 121t-115 321zM198 427q0 -169 94 -271t250 -102q194 0 325 160.5t131 398.5q0 169 -94 271t-251 102q-127 0 -231.5 -73t-164 -201 t-59.5 -285zM519 1544h83l171 -303h-70z" />
<glyph unicode="&#xf3;" horiz-adv-x="1080" d="M120 425q0 177 69.5 322t191.5 227.5t272 82.5q192 0 307.5 -121t115.5 -321q0 -178 -69.5 -322.5t-192 -227t-272.5 -82.5q-192 0 -307 121t-115 321zM198 427q0 -169 94 -271t250 -102q194 0 325 160.5t131 398.5q0 169 -94 271t-251 102q-127 0 -231.5 -73t-164 -201 t-59.5 -285zM690 1241l301 303h93l-312 -303h-82z" />
<glyph unicode="&#xf4;" horiz-adv-x="1080" d="M120 425q0 177 69.5 322t191.5 227.5t272 82.5q192 0 307.5 -121t115.5 -321q0 -178 -69.5 -322.5t-192 -227t-272.5 -82.5q-192 0 -307 121t-115 321zM198 427q0 -169 94 -271t250 -102q194 0 325 160.5t131 398.5q0 169 -94 271t-251 102q-127 0 -231.5 -73t-164 -201 t-59.5 -285zM436 1241l323 303h71l192 -303h-80l-154 248h-3l-261 -248h-88z" />
<glyph unicode="&#xf5;" horiz-adv-x="1080" d="M120 425q0 177 69.5 322t191.5 227.5t272 82.5q192 0 307.5 -121t115.5 -321q0 -178 -69.5 -322.5t-192 -227t-272.5 -82.5q-192 0 -307 121t-115 321zM198 427q0 -169 94 -271t250 -102q194 0 325 160.5t131 398.5q0 169 -94 271t-251 102q-127 0 -231.5 -73t-164 -201 t-59.5 -285zM438 1255q17 98 69 155t123 57q37 0 68 -17t52.5 -41.5t41 -48.5t44 -41t52.5 -17q41 0 74 40t48 113h62q-21 -101 -70.5 -156.5t-117.5 -55.5q-36 0 -67 17t-52 41.5t-41 48.5t-45 41t-53 17q-43 0 -78 -41t-48 -112h-62z" />
<glyph unicode="&#xf6;" horiz-adv-x="1080" d="M120 425q0 177 69.5 322t191.5 227.5t272 82.5q192 0 307.5 -121t115.5 -321q0 -178 -69.5 -322.5t-192 -227t-272.5 -82.5q-192 0 -307 121t-115 321zM198 427q0 -169 94 -271t250 -102q194 0 325 160.5t131 398.5q0 169 -94 271t-251 102q-127 0 -231.5 -73t-164 -201 t-59.5 -285zM530 1309q0 28 19.5 47t47.5 19q27 0 46.5 -19t19.5 -47q0 -27 -19.5 -46.5t-46.5 -19.5q-28 0 -47.5 19.5t-19.5 46.5zM828 1309q0 27 20 46.5t47 19.5t47 -19.5t20 -46.5t-20 -46.5t-47 -19.5t-47 19.5t-20 46.5z" />
<glyph unicode="&#xf7;" d="M168 541l15 69h980l-14 -69h-981zM500 220q0 35 24 59t59 24q34 0 58 -24t24 -59q0 -34 -24 -58t-58 -24q-35 0 -59 24t-24 58zM650 915q0 35 24 58.5t59 23.5q34 0 58 -23.5t24 -58.5t-24 -59t-58 -24q-35 0 -59 24t-24 59z" />
<glyph unicode="&#xf8;" horiz-adv-x="1080" d="M75 40l118 118q-73 110 -73 267q0 177 69.5 322t191.5 227.5t272 82.5q196 0 313 -126l111 111l43 -42l-117 -117q73 -112 73 -268q0 -178 -69.5 -322.5t-192 -227t-272.5 -82.5q-198 0 -312 127l-112 -112zM198 427q0 -122 51 -213l662 662q-94 110 -258 110 q-127 0 -231.5 -73t-164 -201t-59.5 -285zM284 164q94 -110 258 -110q194 0 325 160.5t131 398.5q0 124 -52 213z" />
<glyph unicode="&#xf9;" horiz-adv-x="1048" d="M128 290q0 54 11 115l136 635h77l-132 -622q-13 -57 -13 -108q0 -118 75 -187t206 -69q147 0 258 99.5t142 245.5l138 641h76l-221 -1040h-74l44 204h-4q-58 -99 -158 -160t-224 -61q-151 0 -244 87t-93 220zM502 1544h83l171 -303h-70z" />
<glyph unicode="&#xfa;" horiz-adv-x="1048" d="M128 290q0 54 11 115l136 635h77l-132 -622q-13 -57 -13 -108q0 -118 75 -187t206 -69q147 0 258 99.5t142 245.5l138 641h76l-221 -1040h-74l44 204h-4q-58 -99 -158 -160t-224 -61q-151 0 -244 87t-93 220zM673 1241l301 303h93l-312 -303h-82z" />
<glyph unicode="&#xfb;" horiz-adv-x="1048" d="M128 290q0 54 11 115l136 635h77l-132 -622q-13 -57 -13 -108q0 -118 75 -187t206 -69q147 0 258 99.5t142 245.5l138 641h76l-221 -1040h-74l44 204h-4q-58 -99 -158 -160t-224 -61q-151 0 -244 87t-93 220zM419 1241l323 303h71l192 -303h-80l-154 248h-3l-261 -248 h-88z" />
<glyph unicode="&#xfc;" horiz-adv-x="1048" d="M128 290q0 54 11 115l136 635h77l-132 -622q-13 -57 -13 -108q0 -118 75 -187t206 -69q147 0 258 99.5t142 245.5l138 641h76l-221 -1040h-74l44 204h-4q-58 -99 -158 -160t-224 -61q-151 0 -244 87t-93 220zM513 1309q0 28 19.5 47t47.5 19q27 0 46.5 -19t19.5 -47 q0 -27 -19.5 -46.5t-46.5 -19.5q-28 0 -47.5 19.5t-19.5 46.5zM811 1309q0 27 20 46.5t47 19.5t47 -19.5t20 -46.5t-20 -46.5t-47 -19.5t-47 19.5t-20 46.5z" />
<glyph unicode="&#xfd;" horiz-adv-x="895" d="M3 -348l12 68q29 -8 60 -8q67 0 120.5 43t112.5 145l50 88l-177 1052h78l156 -959h4l551 959h87l-681 -1168q-75 -130 -143 -179t-161 -49q-37 0 -69 8zM612 1241l301 303h93l-312 -303h-82z" />
<glyph unicode="&#xfe;" horiz-adv-x="1106" d="M-9 -370l386 1816h77l-135 -640h3q63 116 169.5 183t229.5 67q175 0 279 -120.5t104 -321.5q0 -176 -69 -320.5t-189.5 -227t-266.5 -82.5q-145 0 -246.5 88.5t-118.5 226.5h-3l-142 -669h-78zM250 413q0 -161 91 -260t239 -99q124 0 226.5 73t161.5 201t59 282 q0 175 -86 275.5t-236 100.5q-124 0 -229.5 -78.5t-165.5 -210.5t-60 -284z" />
<glyph unicode="&#xff;" horiz-adv-x="895" d="M3 -348l12 68q29 -8 60 -8q67 0 120.5 43t112.5 145l50 88l-177 1052h78l156 -959h4l551 959h87l-681 -1168q-75 -130 -143 -179t-161 -49q-37 0 -69 8zM452 1309q0 28 19.5 47t47.5 19q27 0 46.5 -19t19.5 -47q0 -27 -19.5 -46.5t-46.5 -19.5q-28 0 -47.5 19.5 t-19.5 46.5zM750 1309q0 27 20 46.5t47 19.5t47 -19.5t20 -46.5t-20 -46.5t-47 -19.5t-47 19.5t-20 46.5z" />
<glyph unicode="&#x152;" horiz-adv-x="2226" d="M165 602q0 178 57 337.5t155 274.5t235 182.5t291 67.5q217 0 359.5 -126t177.5 -347h4l95 452h842l-16 -73h-761l-127 -594h725l-16 -72h-724l-134 -631h761l-15 -73h-842l65 303h-2q-97 -151 -245.5 -237.5t-320.5 -86.5q-257 0 -410.5 169.5t-153.5 453.5zM246 603 q0 -252 131.5 -401t352.5 -149q137 0 259.5 62t209.5 167.5t137.5 251t50.5 308.5q0 251 -131.5 399.5t-352.5 148.5q-137 0 -259.5 -61.5t-209.5 -167t-137.5 -251t-50.5 -307.5z" />
<glyph unicode="&#x153;" horiz-adv-x="1898" d="M115 422q0 174 68.5 319.5t191 230.5t273.5 85q165 0 271 -90t132 -245h4q63 152 188 243.5t275 91.5q169 0 278 -116.5t109 -294.5q0 -71 -14 -134h-827q-8 -48 -8 -103q0 -163 91.5 -259t245.5 -96q125 0 217.5 53t136.5 150h78q-43 -125 -161.5 -199.5t-274.5 -74.5 q-159 0 -264.5 86t-126.5 232h-4q-57 -143 -182 -230.5t-276 -87.5q-191 0 -306 120t-115 319zM194 424q0 -171 93.5 -270.5t250.5 -99.5q128 0 232.5 74.5t163 203t58.5 284.5q0 170 -94 270t-251 100q-128 0 -232.5 -75.5t-162.5 -204t-58 -282.5zM1075 578h747q5 33 5 72 q0 145 -88.5 241t-224.5 96q-154 0 -274.5 -113.5t-164.5 -295.5z" />
<glyph unicode="&#x178;" horiz-adv-x="1170" d="M276 1443h85l316 -736h4l625 736h96l-697 -820l-132 -623h-80l133 631zM670 1671q0 28 19.5 47t47.5 19q27 0 46.5 -19t19.5 -47q0 -27 -19.5 -46.5t-46.5 -19.5q-28 0 -47.5 19.5t-19.5 46.5zM968 1671q0 27 20 46.5t47 19.5t47 -19.5t20 -46.5t-20 -46.5t-47 -19.5 t-47 19.5t-20 46.5z" />
<glyph unicode="&#x2c6;" horiz-adv-x="875" d="M355 1241l323 303h71l192 -303h-80l-154 248h-3l-261 -248h-88z" />
<glyph unicode="&#x2dc;" horiz-adv-x="875" d="M357 1255q17 98 69 155t123 57q37 0 68 -17t52.5 -41.5t41 -48.5t44 -41t52.5 -17q41 0 74 40t48 113h62q-21 -101 -70.5 -156.5t-117.5 -55.5q-36 0 -67 17t-52 41.5t-41 48.5t-45 41t-53 17q-43 0 -78 -41t-48 -112h-62z" />
<glyph unicode="&#x2000;" horiz-adv-x="952" />
<glyph unicode="&#x2001;" horiz-adv-x="1905" />
<glyph unicode="&#x2002;" horiz-adv-x="952" />
<glyph unicode="&#x2003;" horiz-adv-x="1905" />
<glyph unicode="&#x2004;" horiz-adv-x="635" />
<glyph unicode="&#x2005;" horiz-adv-x="476" />
<glyph unicode="&#x2006;" horiz-adv-x="317" />
<glyph unicode="&#x2007;" horiz-adv-x="317" />
<glyph unicode="&#x2008;" horiz-adv-x="238" />
<glyph unicode="&#x2009;" horiz-adv-x="381" />
<glyph unicode="&#x200a;" horiz-adv-x="105" />
<glyph unicode="&#x2010;" horiz-adv-x="830" d="M149 527l15 70h650l-15 -70h-650z" />
<glyph unicode="&#x2011;" horiz-adv-x="830" d="M149 527l15 70h650l-15 -70h-650z" />
<glyph unicode="&#x2012;" horiz-adv-x="830" d="M149 527l15 70h650l-15 -70h-650z" />
<glyph unicode="&#x2013;" horiz-adv-x="1024" d="M59 527l15 70h1024l-15 -70h-1024z" />
<glyph unicode="&#x2014;" horiz-adv-x="2048" d="M59 527l15 70h2048l-15 -70h-2048z" />
<glyph unicode="&#x2018;" horiz-adv-x="404" d="M273 998l205 445h66l-189 -445h-82z" />
<glyph unicode="&#x2019;" horiz-adv-x="404" d="M273 998l189 445h82l-205 -445h-66z" />
<glyph unicode="&#x201a;" horiz-adv-x="404" d="M5 -260l190 445h82l-205 -445h-67z" />
<glyph unicode="&#x201c;" horiz-adv-x="657" d="M266 998l205 445h66l-189 -445h-82zM533 998l205 445h66l-189 -445h-82z" />
<glyph unicode="&#x201d;" horiz-adv-x="657" d="M266 998l190 445h82l-205 -445h-67zM534 998l189 445h82l-205 -445h-66z" />
<glyph unicode="&#x201e;" horiz-adv-x="657" d="M-1 -260l189 445h82l-205 -445h-66zM266 -260l189 445h82l-204 -445h-67z" />
<glyph unicode="&#x2022;" horiz-adv-x="954" d="M331 558q0 88 62 150t150 62t150 -62t62 -150t-62 -150t-150 -62t-150 62t-62 150z" />
<glyph unicode="&#x2026;" horiz-adv-x="1430" d="M149 59q0 27 19.5 46.5t47.5 19.5q27 0 46.5 -19.5t19.5 -46.5q0 -28 -19.5 -47.5t-46.5 -19.5q-28 0 -47.5 19.5t-19.5 47.5zM608 59q0 27 19.5 46.5t47.5 19.5q27 0 46.5 -19.5t19.5 -46.5q0 -28 -19.5 -47.5t-46.5 -19.5q-28 0 -47.5 19.5t-19.5 47.5zM1067 59 q0 27 19.5 46.5t47.5 19.5q27 0 46.5 -19.5t19.5 -46.5q0 -28 -19.5 -47.5t-46.5 -19.5q-28 0 -47.5 19.5t-19.5 47.5z" />
<glyph unicode="&#x202f;" horiz-adv-x="381" />
<glyph unicode="&#x2039;" horiz-adv-x="771" d="M217 564l1 9l449 406h101l-453 -413l-1 -8l279 -403h-91z" />
<glyph unicode="&#x203a;" horiz-adv-x="771" d="M138 155l453 413l2 8l-279 403h90l286 -408l-2 -10l-448 -406h-102z" />
<glyph unicode="&#x205f;" horiz-adv-x="476" />
<glyph unicode="&#x20ac;" d="M89 544l14 65h232q-1 15 -1 45q0 88 15 169h-200l14 66h201q70 259 283 411.5t513 152.5q116 0 206 -24l-17 -73q-91 22 -194 22q-260 0 -448 -132t-255 -357h606l-13 -66h-610q-16 -85 -16 -166q0 -32 1 -48h578l-14 -65h-557q35 -224 198 -356t408 -132q72 0 95 9 l-16 -73q-20 -9 -95 -9q-273 0 -457 153t-219 408h-252z" />
<glyph unicode="&#x2122;" horiz-adv-x="1608" d="M308 1389l13 54h576l-12 -54h-256l-149 -654h-64l148 654h-256zM838 735l160 708h69l138 -630h2l421 630h77l-161 -708h-58l136 601h-3l-402 -600h-51l-132 600h-2l-136 -601h-58z" />
<glyph unicode="&#x25fc;" horiz-adv-x="1040" d="M0 0v1040h1040v-1040h-1040z" />
<glyph unicode="&#xfb01;" horiz-adv-x="857" d="M126 0l206 972h-165l14 68h165l29 142q52 256 292 256q58 0 107 -13l-13 -67q-41 13 -94 13q-84 0 -139 -48.5t-75 -143.5l-29 -139h249l-15 -68h-248l-205 -972h-79zM608 0l221 1040h78l-221 -1040h-78zM863 1310q0 25 18 42.5t43 17.5q26 0 44 -17.5t18 -42.5t-18 -43 t-44 -18q-25 0 -43 18t-18 43z" />
<glyph unicode="&#xfb02;" horiz-adv-x="863" d="M126 0l206 972h-165l14 68h165l29 142q52 256 292 256q58 0 107 -13l-13 -67q-41 13 -94 13q-84 0 -139 -48.5t-75 -143.5l-29 -139h249l-15 -68h-248l-205 -972h-79zM610 0l307 1443h78l-307 -1443h-78z" />
</font>
</defs>
</svg>
